<svg width="8" height="8" viewBox="0 0 8 8" fill="none" xmlns="http://www.w3.org/2000/svg">
<g clip-path="url(#clip0_6913_8124)">
<path d="M3.88351 0C1.74111 0 0 1.74111 0 3.88351C0 6.02592 1.74111 7.76702 3.88351 7.76702C4.12623 7.76702 4.36248 7.74437 4.59549 7.7023L4.33012 6.90618C4.29128 6.94501 4.24921 6.97738 4.20714 7.0065V6.53401L3.60519 4.73141C3.57283 4.63756 3.55989 4.54047 3.55989 4.44662V5.10358C3.25244 5.11653 2.95147 5.14242 2.66668 5.19096C2.60843 4.88675 2.56959 4.55665 2.55341 4.20067H3.55989V4.44662C3.55989 4.21685 3.6505 3.99355 3.82202 3.82202C3.98707 3.65374 4.21037 3.55989 4.44986 3.55989C4.54695 3.55989 4.6408 3.57607 4.73465 3.60519L6.51783 4.20067H7.10359C7.09712 4.26539 7.09065 4.32688 7.0777 4.38837L7.7023 4.59549C7.74437 4.36248 7.76702 4.12623 7.76702 3.88351C7.76702 1.74111 6.02592 0 3.88351 0ZM3.55989 5.75083V7.0065C3.28157 6.8188 3.01619 6.40456 2.82849 5.8188C3.06474 5.7832 3.30746 5.76054 3.55989 5.75083ZM1.16505 2.1327C1.42395 2.25567 1.71522 2.35923 2.03237 2.44338C1.96441 2.78966 1.92234 3.16183 1.90616 3.55341H0.663433C0.715213 3.03561 0.896444 2.55341 1.16505 2.1327ZM0.663433 4.20067H1.90616C1.92234 4.59873 1.96441 4.97413 2.03237 5.32365C1.71522 5.40779 1.42395 5.51135 1.16505 5.63433C0.893208 5.21361 0.715213 4.72494 0.663433 4.20067ZM2.56959 6.83822C2.19742 6.67317 1.86409 6.44016 1.58253 6.15537C1.767 6.07446 1.97088 6.0065 2.18771 5.95148C2.29127 6.28482 2.42072 6.58579 2.56959 6.83822ZM2.18771 1.81554C1.97088 1.76053 1.767 1.69256 1.58253 1.61166C1.86409 1.32687 2.19742 1.09386 2.56959 0.928807C2.42072 1.18123 2.29127 1.48221 2.18771 1.81554ZM3.55989 3.55341H2.55341C2.56959 3.2039 2.60843 2.87704 2.66668 2.57606C2.95147 2.62461 3.25244 2.6505 3.55989 2.66344V3.55341ZM3.55989 2.01619C3.30746 2.00648 3.06474 1.98383 2.82849 1.94823C3.01619 1.36247 3.28157 0.948224 3.55989 0.760521V2.01619ZM4.20714 0.760521C4.48546 0.948224 4.75083 1.36247 4.93853 1.94823C4.70229 1.98383 4.45957 2.00648 4.20714 2.01619V0.760521ZM4.20714 3.55341V2.66344C4.51458 2.6505 4.81556 2.62461 5.10035 2.57606C5.1586 2.87704 5.19743 3.2039 5.21362 3.55341H4.20714ZM5.19743 0.928807C5.5696 1.09386 5.90294 1.32687 6.18449 1.61166C6.00003 1.69256 5.79614 1.76053 5.57931 1.81554C5.47575 1.48221 5.3463 1.18123 5.19743 0.928807ZM5.86087 3.55341C5.84469 3.16183 5.80261 2.78966 5.73465 2.44338C6.05181 2.35923 6.34307 2.25567 6.60197 2.1327C6.87058 2.55341 7.05181 3.03561 7.10359 3.55341H5.86087Z" fill="#5563FA"/>
<path d="M5.47505 7.76684C5.47343 7.76684 5.47149 7.76684 5.46954 7.76684C5.36728 7.76457 5.27731 7.69823 5.24495 7.60082L4.22002 4.52637C4.1909 4.43899 4.21355 4.34287 4.2786 4.27782C4.34365 4.21245 4.43977 4.1898 4.52715 4.21925L7.60159 5.24417C7.69868 5.27653 7.76502 5.3665 7.76761 5.46877C7.76988 5.57103 7.70774 5.66424 7.61195 5.70081L6.23233 6.23155L5.70159 7.61117C5.66534 7.70535 5.57505 7.76684 5.47505 7.76684Z" fill="#5563FA"/>
</g>
<defs>
<clipPath id="clip0_6913_8124">
<rect width="7.76702" height="7.76702" fill="white"/>
</clipPath>
</defs>
</svg>
