<svg width="163" height="14" viewBox="0 0 163 14" fill="none" xmlns="http://www.w3.org/2000/svg">
<g clip-path="url(#clip0_6913_7937)">
<path d="M84.9692 8.54406C85.1624 8.1577 85.259 7.55784 85.259 6.74954C85.259 5.71249 85.0251 4.98553 84.5574 4.57376C84.1253 4.19757 83.3932 4.00439 82.3562 4.00439H73.9121V13.4396H76.8149V10.8012H81.4055C81.741 10.8012 81.9901 10.913 82.1579 11.1316C82.2901 11.2994 82.3562 11.5078 82.3562 11.7518V13.4396H85.259V11.3299C85.259 10.7402 85.1725 10.3335 84.9946 10.1047C84.8269 9.87597 84.4812 9.6472 83.9525 9.41844C84.4354 9.22526 84.776 8.9355 84.9692 8.54914V8.54406ZM82.1477 8.16279C82.0156 8.29496 81.7919 8.36105 81.4767 8.36105H76.82V6.44961H81.4767C81.7868 6.44961 82.0105 6.52078 82.1477 6.66312C82.2901 6.80546 82.3612 7.05456 82.3612 7.4155C82.3612 7.77643 82.2901 8.02553 82.1477 8.16787V8.16279Z" fill="#050515"/>
<path d="M109.188 9.78446L106.478 4.00439H101.257V13.4396H104.165V6.01242L107.998 13.4396H110.378L113.946 6.01242V13.4396H116.849V4.00439H111.898L109.188 9.78446Z" fill="#050515"/>
<path d="M34.7674 4.00439L30.0903 13.4396H33.4863L34.3861 11.8687H40.1459L41.0457 13.4396H44.4417L39.7646 4.00439H34.7724H34.7674ZM35.4689 9.42352L37.0398 6.13443H37.4871L39.0478 9.42352H35.4689Z" fill="#050515"/>
<path d="M54.8682 11.1469L49.7794 4.00439H45.021V13.4396H47.9289V6.30219L53.0177 13.4396H57.776V4.00439H54.8682V11.1469Z" fill="#050515"/>
<path d="M68.1063 4.00439H59.9673V13.4396H68.1063C69.7687 13.4396 70.8668 13.1091 71.3955 12.4483C71.8784 11.8382 72.1224 10.6029 72.1224 8.73724C72.1224 6.87155 71.8734 5.6159 71.3802 4.9957C70.8515 4.33483 69.7585 4.00439 68.1012 4.00439H68.1063ZM68.8841 10.5216C68.6655 10.8368 68.2436 10.9994 67.6132 10.9994H62.8701V6.45469H67.6132C68.2385 6.45469 68.6604 6.61737 68.8841 6.94272C69.1027 7.25791 69.2146 7.85777 69.2146 8.73724C69.2146 9.6167 69.1027 10.2064 68.8841 10.5216Z" fill="#050515"/>
<path d="M93.2197 3.84155C90.205 3.84155 88.4003 4.09065 87.8004 4.58376C87.2565 5.03112 86.9819 6.40878 86.9819 8.70657C86.9819 10.3791 87.0684 11.4771 87.2463 11.9957C87.475 12.6718 88.019 13.1141 88.8832 13.3174C89.5695 13.475 91.0133 13.5563 93.2197 13.5563C96.2343 13.5563 98.039 13.3123 98.6389 12.8294C99.193 12.382 99.4726 11.0044 99.4726 8.70657C99.4726 6.40878 99.193 5.03112 98.6287 4.56851C98.0288 4.08557 96.2292 3.84155 93.2247 3.84155H93.2197ZM96.1377 10.8163C95.8632 11.0094 94.8922 11.106 93.2197 11.106C91.5471 11.106 90.5812 11.0094 90.3016 10.8163C90.0271 10.6129 89.8949 9.91138 89.8949 8.70148C89.8949 7.49158 90.0322 6.77988 90.3016 6.5867C90.5812 6.38336 91.5624 6.28169 93.2349 6.28169C94.9074 6.28169 95.8683 6.38336 96.1428 6.5867C96.4275 6.77988 96.5647 7.4865 96.5647 8.70148C96.5647 9.91647 96.4224 10.6129 96.1428 10.8163H96.1377Z" fill="#050515"/>
<path d="M119.041 13.4396H129.198V11.157H121.943V9.8658H128.867V7.59342H121.943V6.28693H129.198V4.00439H119.041V13.4396Z" fill="#050515"/>
<path d="M139.279 4.00439H131.14V13.4396H139.279C140.946 13.4396 142.039 13.1091 142.568 12.4483C143.051 11.8382 143.295 10.6029 143.295 8.73724C143.295 6.87155 143.046 5.6159 142.553 4.9957C142.024 4.33483 140.931 4.00439 139.274 4.00439H139.279ZM140.062 10.5216C139.843 10.8368 139.421 10.9994 138.791 10.9994H134.048V6.45469H138.791C139.416 6.45469 139.838 6.61737 140.062 6.94272C140.28 7.25791 140.392 7.85777 140.392 8.73724C140.392 9.6167 140.28 10.2064 140.062 10.5216Z" fill="#050515"/>
<path d="M153.056 4.00439H148.058L143.381 13.4396H146.777L147.677 11.8687H153.437L154.337 13.4396H157.733L153.056 4.00439ZM148.765 9.42352L150.336 6.13443H150.783L152.344 9.42352H148.765Z" fill="#050515"/>
<path d="M13.6601 0.267822C8.55094 0.267822 4.40771 4.41096 4.40771 9.51999C4.40771 10.918 4.71782 12.2448 5.27703 13.4344H22.0482C22.6023 12.2448 22.9175 10.918 22.9175 9.51999C22.9175 4.41096 18.7743 0.267822 13.6652 0.267822H13.6601ZM17.5745 13.4395L13.6601 9.52508L9.74562 13.4395C8.74412 12.438 8.12391 11.0552 8.12391 9.52508C8.12391 6.46983 10.6048 3.98903 13.6601 3.98903C16.7154 3.98903 19.1962 6.46983 19.1962 9.52508C19.1962 11.0552 18.576 12.438 17.5745 13.4395Z" fill="#5563FA"/>
</g>
<defs>
<clipPath id="clip0_6913_7937">
<rect width="162.171" height="13.4562" fill="white"/>
</clipPath>
</defs>
</svg>
