<svg width="138" height="28" viewBox="0 0 138 28" fill="none" xmlns="http://www.w3.org/2000/svg">
<g clip-path="url(#clip0_6650_19788)">
<g clip-path="url(#clip1_6650_19788)">
<path d="M43.5028 5.93808V12.8377H47.8976C50.8843 12.8377 52.5013 11.9744 52.5013 9.34475C52.5013 6.71392 50.9263 5.93808 47.9396 5.93808H43.5028ZM37.7803 0.93425H49.1004C52.0451 0.93425 54.4088 1.66692 56.1086 3.13342C57.8504 4.59992 58.7219 6.36742 58.7219 9.25725C58.7219 12.1039 57.8504 14.1736 56.1506 15.6389C54.4496 17.1054 51.8794 17.8392 49.1004 17.8392H43.5028V27.0676H37.7803V0.93425ZM85.4374 17.1427C85.1434 20.4514 83.8869 21.9588 81.8756 23.9281C79.8223 25.8963 77.3513 27.0688 73.7906 27.0688C69.9348 27.0688 66.8349 26.2311 64.4888 23.6761C62.1426 21.1211 60.8849 17.7716 60.8849 13.5832C60.8849 9.60492 62.0586 7.09192 64.4468 4.45292C66.8349 1.81508 70.0608 0.935417 74.0414 0.935417C77.1833 0.935417 79.6134 1.93992 81.7508 3.69925C83.8869 5.50058 85.0606 7.97158 85.2694 10.7342H79.7814C79.4874 9.26892 78.8178 8.01242 77.7701 7.21675C76.7224 6.42108 75.4239 5.58342 73.8734 5.58342C72.2401 5.58342 70.8984 6.04425 69.8099 6.92508C68.7203 7.84558 68.0494 8.85008 67.5886 10.1486C67.1278 11.5719 67.0029 12.5356 67.0029 14.0021C67.0029 16.4731 67.4218 18.0644 68.6783 19.6978C69.9348 21.3311 71.6533 22.1268 73.7894 22.1268C76.6804 22.1268 79.2786 20.2414 79.6554 17.1007H85.4374V17.1427ZM111.218 0.93425L104.593 13.2892L112.153 27.0676H105.485L100.049 16.7017H98.9871L93.5049 27.0676H86.8783L94.4826 13.2881L87.7288 0.93425H94.3986L99.2834 10.2664H99.8353L104.72 0.935417L111.218 0.93425ZM131.145 18.1986C131.145 16.7286 129.793 15.1267 127.555 15.1267H121.686V21.8327H127.597C130.089 21.8327 131.145 19.9731 131.145 18.1986ZM121.686 10.7132H127.936C130.765 10.7132 133.044 10.9302 134.819 12.4014C136.55 13.8714 137.437 15.3869 137.437 18.2849C137.437 21.2272 136.55 23.3914 134.776 24.8614C133.002 26.3326 130.638 27.0688 127.639 27.0688H115.774V0.93425H135.578V5.95325H121.686V10.7132Z" fill="black"/>
<path d="M27.6639 0.93425H17.5547V27.0676H27.6639V0.93425Z" fill="#248341"/>
<path d="M14.6777 0.93425H7.45605V27.0676H14.6777V0.93425Z" fill="#A6CE39"/>
<path d="M5.28319 0.93425H0.228027V27.0676H5.28319V0.93425Z" fill="#FFCB05"/>
<path d="M30.8587 2.48358H31.1084C31.0647 2.63447 30.9944 2.77632 30.9007 2.90242C30.7771 2.98642 30.6534 3.07042 30.4877 3.07042C30.2878 3.07192 30.0949 2.99677 29.9487 2.86042C29.8136 2.6953 29.7406 2.4881 29.7422 2.27475C29.7422 2.02275 29.8251 1.85475 29.9499 1.68792C30.0736 1.51992 30.2801 1.47792 30.4866 1.47792C30.6534 1.47792 30.7771 1.51992 30.9007 1.60392C31.0256 1.68792 31.1084 1.81392 31.1084 1.98075H30.9007C30.9007 1.89675 30.8191 1.81392 30.7771 1.77075C30.6942 1.72992 30.6114 1.68792 30.5286 1.68792C30.3629 1.68792 30.2392 1.72992 30.1552 1.85592C30.0736 1.93875 30.0316 2.10675 30.0316 2.27475C30.0316 2.44158 30.0736 2.56642 30.1564 2.69242C30.2381 2.81842 30.3629 2.86042 30.5297 2.86042C30.6534 2.86042 30.7362 2.81842 30.7771 2.77642C30.8191 2.65158 30.8587 2.56642 30.8587 2.48358ZM29.3701 2.23275C29.3701 2.52442 29.4517 2.77642 29.6594 2.98642C29.7565 3.08438 29.8729 3.16102 30.0013 3.21145C30.1297 3.26187 30.2671 3.28496 30.4049 3.27925C30.5425 3.2848 30.6798 3.26162 30.8079 3.21121C30.9361 3.16079 31.0523 3.08423 31.1492 2.98642C31.2467 2.88736 31.3227 2.76936 31.3727 2.63972C31.4227 2.51009 31.4455 2.37157 31.4397 2.23275C31.4456 2.09374 31.4229 1.955 31.3729 1.82515C31.323 1.6953 31.2468 1.57711 31.1492 1.47792C31.0522 1.38031 30.9359 1.30397 30.8078 1.25375C30.6796 1.20354 30.5424 1.18055 30.4049 1.18625C30.2672 1.18039 30.1298 1.2033 30.0014 1.25352C29.8731 1.30373 29.7566 1.38016 29.6594 1.47792C29.4937 1.68792 29.3701 1.93875 29.3701 2.23275ZM30.4049 3.53008C30.0316 3.53008 29.7422 3.40525 29.4949 3.15325C29.3724 3.03374 29.276 2.89014 29.2117 2.73151C29.1475 2.57288 29.1168 2.40266 29.1216 2.23158C29.1216 1.85592 29.2452 1.56192 29.4949 1.30992C29.7422 1.05908 30.0316 0.93425 30.4049 0.93425C30.7362 0.93425 31.0664 1.05908 31.3149 1.31108C31.5634 1.56192 31.6882 1.85592 31.6882 2.23275C31.6882 2.60958 31.5634 2.90242 31.3149 3.15442C31.198 3.27732 31.0566 3.37428 30.8999 3.439C30.7431 3.50372 30.5745 3.53475 30.4049 3.53008Z" fill="#248341"/>
</g>
</g>
<defs>
<clipPath id="clip0_6650_19788">
<rect width="137.667" height="28" fill="white"/>
</clipPath>
<clipPath id="clip1_6650_19788">
<rect width="137.667" height="28" fill="white"/>
</clipPath>
</defs>
</svg>
