<svg width="81" height="28" viewBox="0 0 81 28" fill="none" xmlns="http://www.w3.org/2000/svg">
<path d="M25.3477 5.80981V22.3743H8.77441V5.80981H25.3477ZM22.6709 7.46021C22.2902 7.46023 22.0021 7.71252 21.8584 8.01587L19.7715 11.4495C19.6268 11.767 19.5205 12.1244 19.5205 12.3606C19.5205 12.5715 19.5496 12.7582 19.627 12.9299L21.8848 18.3196H13.1182C12.8028 18.3193 12.543 18.0025 12.543 17.7102V8.42603C12.4766 7.15677 10.6505 7.15762 10.6104 8.46606L10.6504 18.3196C10.6505 19.3908 11.4798 20.2493 12.543 20.2493H24.4941L21.5811 12.7991C21.5007 12.5217 21.4652 12.2703 21.6611 11.9397L23.5879 8.80688C23.615 8.74157 23.6543 8.4654 23.6543 8.38599C23.6161 7.81718 23.1704 7.43508 22.6709 7.46021ZM17.9395 7.46411C17.4706 7.46725 17.002 7.7914 17.002 8.42603V15.0696C17.0019 16.0343 15.7041 15.9549 15.7041 15.0696V8.42603C15.7041 7.15677 13.8252 7.15677 13.8252 8.42603V15.1223C13.8252 16.6538 14.9693 17.672 16.335 17.6721C17.7379 17.6721 18.8779 16.6539 18.8779 15.1223V8.42603C18.8779 7.77902 18.4081 7.46116 17.9395 7.46411Z" fill="#657591"/>
<path d="M28.5946 7.75635V12.1389C28.5946 13.2343 28.4831 13.8433 27.5907 13.8433C27.4239 13.8433 27.3123 13.8433 27.1455 13.783V15.6693C27.4792 15.7919 27.7023 15.7919 27.9816 15.7919C30.49 15.7919 30.6015 13.9046 30.6015 12.8082V9.64365H32.0507V15.6693H34.0566V7.75635H28.5946Z" fill="#657591"/>
<path d="M34.7266 7.75635L37.458 13.4785L36.4551 15.6693H38.6288L41.8617 7.75635H39.688L38.5172 11.1038L37.1234 7.75635H34.7266Z" fill="#657591"/>
<path d="M42.4746 15.6693H44.4815V12.2605L46.5437 15.6693H49.1073L46.2653 11.5912L49.052 7.75635H46.6552L44.4815 11.1038V7.75635H42.4746V15.6693Z" fill="#657591"/>
<path d="M52.3958 15.9133C55.0709 15.9133 56.297 13.8431 56.297 11.7126C56.297 9.64344 55.0709 7.57324 52.3958 7.57324C49.7758 7.57324 48.5498 9.64344 48.5498 11.7126C48.5498 13.8431 49.7758 15.9133 52.3958 15.9133ZM52.3958 14.026C51.5034 14.026 50.612 13.2341 50.612 11.7126C50.612 10.1911 51.5034 9.46054 52.3958 9.46054C53.3434 9.46054 54.2348 10.1911 54.2348 11.7126C54.2348 13.2341 53.3434 14.026 52.3958 14.026Z" fill="#657591"/>
<path d="M57.3008 7.75623V15.6692H59.2514L62.0381 10.9218V15.6692H63.9897V7.75623H62.0381L59.2514 12.5046V7.75623H57.3008ZM60.7005 7.33013C61.5366 7.33013 62.3728 7.02563 62.7637 6.11213L61.5929 5.62573C61.4251 6.23473 60.9236 6.29503 60.7005 6.29503C60.5337 6.29503 59.976 6.23473 59.8644 5.62573L58.6946 6.11213C59.0283 7.02563 59.9207 7.33013 60.7005 7.33013Z" fill="#657591"/>
<path d="M66.1083 7.75635V12.1389C66.1083 13.2343 65.9958 13.8433 65.1044 13.8433C64.9376 13.8433 64.826 13.8433 64.6582 13.783V15.6693C64.9929 15.7919 65.2159 15.7919 65.4943 15.7919C68.0027 15.7919 68.1142 13.9046 68.1142 12.8082V9.64365H69.5634V15.6693H71.5703V7.75635H66.1083Z" fill="#657591"/>
<path d="M27.1621 20.1101H27.4445V18.6419H29.0936V20.1101H29.376V17.2319H29.0936V18.4107H27.4445V17.2319H27.1621V20.1101Z" fill="#657591"/>
<path d="M30.0938 20.1101H31.6404V19.879H30.3761V18.6137H31.5901V18.3826H30.3761V17.4641H31.6404V17.2319H30.0938V20.1101Z" fill="#657591"/>
<path d="M33.5014 20.1101H33.7808V19.7142H33.8984C34.829 19.7142 35.2139 19.1635 35.2139 18.5866C35.2139 17.9113 34.7144 17.4641 33.8984 17.4641H33.7808V17.1184H33.5014V17.4641H33.3879C32.5668 17.4641 32.0684 17.9113 32.0684 18.5866C32.0684 19.1635 32.4533 19.7142 33.3879 19.7142H33.5014V20.1101ZM33.7808 17.6953C34.7144 17.7073 34.9194 18.1435 34.9194 18.5866C34.9194 19.278 34.4601 19.4579 33.7808 19.4821V17.6953ZM33.5014 19.4821C32.8221 19.4579 32.3628 19.278 32.3628 18.5866C32.3628 18.1435 32.5668 17.7073 33.5014 17.6953V19.4821Z" fill="#657591"/>
<path d="M36.2345 20.1101H36.5058V17.4641H37.2716V17.2319H35.4697V17.4641H36.2345V20.1101Z" fill="#657591"/>
<path d="M37.605 20.1101H37.9225L38.6883 18.8459H38.9315V20.1101H39.2149V17.2319H38.5506C37.6793 17.2319 37.5537 17.8098 37.5537 18.065C37.5537 18.5514 37.9346 18.8459 38.3828 18.8298L37.605 20.1101ZM38.9315 18.6137H38.5235C38.2923 18.6137 37.8331 18.5866 37.8331 18.0369C37.8331 17.5033 38.3195 17.4641 38.5506 17.4641H38.9315V18.6137Z" fill="#657591"/>
<path d="M39.9375 20.1101H40.2199V18.6419H41.869V20.1101H42.1514V17.2319H41.869V18.4107H40.2199V17.2319H39.9375V20.1101Z" fill="#657591"/>
<path d="M42.5635 20.11H42.8469L43.2428 19.1754H44.4558L44.8528 20.11H45.1351L43.8438 17.1575L42.5635 20.11ZM43.3453 18.9483L43.8438 17.7705L44.3543 18.9483H43.3453Z" fill="#657591"/>
<path d="M45.4614 20.1101H45.779L46.5447 18.8459H46.7879V20.1101H47.0703V17.2319H46.4071C45.5358 17.2319 45.4102 17.8098 45.4102 18.065C45.4102 18.5514 45.791 18.8459 46.2382 18.8298L45.4614 20.1101ZM46.7879 18.6137H46.3799C46.1478 18.6137 45.6885 18.5866 45.6885 18.0369C45.6885 17.5033 46.1759 17.4641 46.4071 17.4641H46.7879V18.6137Z" fill="#657591"/>
<path d="M48.748 20.1101H49.0304V18.7162L50.3218 20.1101H50.6906L49.2967 18.6258L50.6675 17.2319H50.3218L49.0304 18.5745V17.2319H48.748V20.1101Z" fill="#657591"/>
<path d="M52.5124 20.2005C53.3687 20.2005 54.0711 19.5844 54.0711 18.677C54.0711 17.7705 53.3687 17.1575 52.5124 17.1575C51.6683 17.1575 50.9658 17.7705 50.9658 18.677C50.9658 19.5844 51.6683 20.2005 52.5124 20.2005ZM52.5124 19.9573C51.81 19.9573 51.2603 19.4307 51.2603 18.677C51.2603 17.9232 51.81 17.3856 52.5124 17.3856C53.2159 17.3856 53.7767 17.9232 53.7767 18.677C53.7767 19.4307 53.2159 19.9573 52.5124 19.9573Z" fill="#657591"/>
<path d="M54.46 20.1101H54.7313L54.9976 17.9857L56.0578 20.2398L57.106 17.9857L57.3894 20.1101H57.6436L57.2477 17.1184L56.0578 19.6901L54.8559 17.1184L54.46 20.1101Z" fill="#657591"/>
<path d="M58.1748 17.2319V20.1101H58.4572V17.4641H60.1063V20.1101H60.3887V17.2319H58.1748Z" fill="#657591"/>
<path d="M60.8018 20.11H61.0842L61.4801 19.1754H62.6941L63.09 20.11H63.3724L62.0811 17.1575L60.8018 20.11ZM61.5826 18.9483L62.0811 17.7705L62.5916 18.9483H61.5826Z" fill="#657591"/>
<path d="M63.7734 20.1101H64.0558V18.6419H65.705V20.1101H65.9884V17.2319H65.705V18.4107H64.0558V17.2319H63.7734V20.1101Z" fill="#657591"/>
<path d="M66.7051 17.232V20.2398L68.6768 17.8329V20.1101H68.9552V17.1184L66.9885 19.5092V17.232H66.7051Z" fill="#657591"/>
<path d="M69.5913 20.1101H69.9089L70.6746 18.8459H70.9178V20.1101H71.2012V17.2319H70.538C69.6657 17.2319 69.54 17.8098 69.54 18.065C69.54 18.5514 69.9209 18.8459 70.3691 18.8298L69.5913 20.1101ZM70.9178 18.6137H70.5098C70.2787 18.6137 69.8194 18.5866 69.8194 18.0369C69.8194 17.5033 70.3058 17.4641 70.538 17.4641H70.9178V18.6137Z" fill="#657591"/>
</svg>
