<svg width="35" height="28" viewBox="0 0 35 28" fill="none" xmlns="http://www.w3.org/2000/svg">
<g clip-path="url(#clip0_6650_19478)">
<path fill-rule="evenodd" clip-rule="evenodd" d="M0.79248 27.2027L7.83394 0.797241L17.4482 9.19282L27.1302 0.797241L34.1717 27.2027H30.7864L25.3022 6.55228L17.4482 13.3229L9.66201 6.55228L4.1778 27.2027H0.79248ZM5.19339 27.2027L10.2037 8.44806L17.4482 14.7447L24.7605 8.44806L29.7708 27.2027H26.2501L22.7293 14.1354L17.4482 18.8748L12.1671 14.1354L8.71412 27.2027H5.19339ZM9.72971 27.2027L12.7088 15.9635L15.6202 18.4686L14.6046 22.1924L21.9169 16.2343L22.8647 19.4165L19.6825 22.057L25.099 27.2027H20.5627L17.4482 23.7497L13.2504 27.2027H9.72971Z" fill="#2C499A"/>
</g>
<defs>
<clipPath id="clip0_6650_19478">
<rect width="34.9635" height="28" fill="white"/>
</clipPath>
</defs>
</svg>
