<svg width="116" height="28" viewBox="0 0 116 28" fill="none" xmlns="http://www.w3.org/2000/svg">
<g clip-path="url(#clip0_7026_3123)">
<mask id="mask0_7026_3123" style="mask-type:alpha" maskUnits="userSpaceOnUse" x="6" y="3" width="104" height="22">
<path d="M37.6055 8.34031V19.5984H40.1301V10.6001H46.1562V19.5984H48.7011V8.34031H37.6055ZM53.1186 13.9795C53.1186 11.6586 54.7677 10.2536 56.8849 10.2536C59.0026 10.2536 60.6512 11.6586 60.6512 13.9795C60.6512 16.3003 59.0026 17.7051 56.8849 17.7051C54.7677 17.7051 53.1186 16.3003 53.1186 13.9795ZM63.1957 13.9795C63.1957 10.437 60.3049 8.07545 56.8849 8.07545C53.4649 8.07545 50.5741 10.437 50.5741 13.9795C50.5741 17.522 53.4649 19.8835 56.8849 19.8835C60.3049 19.8835 63.1957 17.522 63.1957 13.9795ZM67.8173 8.34031L66.3107 16.4021C66.1888 17.0128 65.8016 17.2775 65.2114 17.2775H63.9901V19.5984H65.3333C67.1862 19.5984 68.4279 18.723 68.7943 16.728L69.9348 10.6201H74.2503V19.5984H76.7953V8.34031H67.8173ZM79.2381 8.34031V19.5984H81.7427V14.8346H83.4527C83.839 18.0716 86.4244 19.8835 89.5602 19.8835C92.9599 19.8835 95.7082 17.7458 95.7082 13.9795C95.7082 10.2133 92.9599 8.07545 89.5602 8.07545C86.6087 8.07545 84.1451 9.68396 83.5543 12.5542H81.7427V8.34031H79.2381ZM85.9365 13.9795C85.9365 11.6586 87.1787 10.2536 89.5602 10.2536C91.9424 10.2536 93.184 11.6586 93.184 13.9795C93.184 16.3003 91.9424 17.7051 89.5602 17.7051C87.1787 17.7051 85.9365 16.3003 85.9365 13.9795ZM109.226 11.0887C108.066 9.11366 106.153 8.07545 103.526 8.07545C99.9834 8.07545 97.2351 10.3356 97.2351 13.9795C97.2351 17.6237 99.9228 19.8835 103.526 19.8835C106.153 19.8835 108.066 18.8453 109.226 16.8706L107.252 15.7304C106.396 16.952 105.277 17.6237 103.485 17.6237C101.287 17.6237 99.7599 16.1579 99.7599 13.9795C99.7599 11.7604 101.226 10.3356 103.485 10.3356C105.277 10.3356 106.396 11.0073 107.252 12.2286L109.226 11.0887Z" fill="#FEFEFE"/>
<path fill-rule="evenodd" clip-rule="evenodd" d="M19.4375 3.44146L18.1068 11.4366C18.0754 11.6268 17.8706 11.7124 17.6917 11.6429L13.6923 10.0977C13.1972 9.90641 13.0316 9.53453 13.0997 9.12363L13.9514 4.00716C14.0201 3.59713 14.2967 3.29873 14.8277 3.27808L19.1117 3.1114C19.3036 3.10434 19.4694 3.25151 19.4375 3.44146ZM7.95609 9.19767L15.1569 12.9182C15.3279 13.0066 15.3468 13.2279 15.2259 13.3768L12.5272 16.7087C12.1932 17.1211 11.7888 17.1646 11.4189 16.9736L6.81049 14.5928C6.44087 14.4015 6.2425 14.0465 6.38549 13.5351L7.54211 9.40652C7.59381 9.22115 7.78514 9.10926 7.95609 9.19767ZM9.88249 21.864L15.654 16.1735C15.7913 16.0382 16.0072 16.0891 16.1118 16.2505L18.4414 19.8491C18.7299 20.2951 18.6457 20.6933 18.3495 20.9857L14.6559 24.6271C14.3595 24.9193 13.9604 24.9979 13.5185 24.7028L9.95284 22.3223C9.79291 22.2158 9.7457 21.9993 9.88249 21.864ZM22.592 23.9283L18.9212 16.7017C18.8339 16.5299 18.9481 16.34 19.1332 16.2894L23.2694 15.1616C23.7817 15.0221 24.1355 15.2229 24.324 15.5943L26.6728 20.2184C26.8613 20.5898 26.8152 20.9939 26.4004 21.3256L23.0498 24.0005C22.8994 24.1204 22.6787 24.0998 22.592 23.9283ZM28.437 12.5808L20.4215 13.7843C20.231 13.8126 20.0866 13.6444 20.0971 13.4528L20.3319 9.17167C20.361 8.64182 20.6633 8.36946 21.0751 8.30757L26.204 7.53777C26.6157 7.47562 26.9848 7.64714 27.1684 8.14533L28.65 12.1688C28.7162 12.3491 28.6274 12.5522 28.437 12.5808Z" fill="#92A1B8"/>
</mask>
<g mask="url(#mask0_7026_3123)">
<rect x="2.63281" y="1.69531" width="117.169" height="23.1936" fill="#657591"/>
</g>
</g>
<defs>
<clipPath id="clip0_7026_3123">
<rect width="102.888" height="21.7778" fill="white" transform="translate(6.33887 3.11108)"/>
</clipPath>
</defs>
</svg>
