<svg width="28" height="28" viewBox="0 0 28 28" fill="none" xmlns="http://www.w3.org/2000/svg">
<g clip-path="url(#clip0_6650_19480)">
<path d="M14 28C21.7322 28 28 21.7322 28 14C28 6.2678 21.7322 0 14 0C6.2678 0 0 6.2678 0 14C0 21.7322 6.2678 28 14 28Z" fill="#FF0002"/>
<path d="M20.8108 11.935C20.3873 11.4982 19.7853 11.2595 19.0503 11.2595C18.1368 11.2595 17.4354 11.6305 17.0315 12.3256V8.87601H14.9133V18.3288H17.0316V15.0052C17.0316 14.231 17.1904 13.7347 17.4292 13.4435C17.6602 13.1523 17.985 13.0396 18.3357 13.0396C18.6472 13.0396 18.8915 13.139 19.0637 13.3175C19.2359 13.503 19.3353 13.7879 19.3353 14.1848V18.3218H21.4535V13.7676C21.4535 12.9934 21.2281 12.3641 20.8116 11.9336L20.8108 11.935ZM11.3391 11.2595C10.4256 11.2595 9.72355 11.6305 9.32035 12.3256V8.87601H7.20215V18.3288H9.32035V15.0052C9.32035 14.231 9.47855 13.7347 9.71725 13.4435C9.94825 13.1523 10.273 13.0396 10.6244 13.0396C10.9352 13.0396 11.1802 13.139 11.3524 13.3175C11.5239 13.503 11.6233 13.7879 11.6233 14.1848V18.3218H13.7415V13.7676C13.7415 12.9934 13.5168 12.3641 13.0933 11.9273C12.6761 11.4905 12.0734 11.2588 11.3391 11.2588L11.3391 11.2595Z" fill="white"/>
</g>
<defs>
<clipPath id="clip0_6650_19480">
<rect width="28" height="28" fill="white"/>
</clipPath>
</defs>
</svg>
