<svg width="77" height="28" viewBox="0 0 77 28" fill="none" xmlns="http://www.w3.org/2000/svg">
<g clip-path="url(#clip0_7026_3295)">
<path d="M29.9682 21.8923C29.9682 21.6304 29.9153 21.4337 29.8072 21.3128C29.6976 21.1935 29.4568 21.1322 29.0826 21.1322H28.2852C27.9378 21.1322 27.7055 21.1996 27.5904 21.3306C27.4731 21.4615 27.4149 21.6498 27.4149 21.8931V22.9856C27.4149 23.2296 27.4724 23.4156 27.5904 23.5496C27.7055 23.6798 27.9378 23.7472 28.2852 23.7472H29.0826C29.4568 23.7472 29.6945 23.686 29.8003 23.5659C29.9023 23.4435 29.9575 23.2544 29.969 22.9956L29.9682 21.8923ZM37.2819 24.4801C37.0488 24.7204 36.6156 24.8358 35.9822 24.8358H33.8988C33.27 24.8358 32.8322 24.7227 32.5876 24.4941C32.3438 24.2655 32.2226 23.9207 32.2226 23.4551V21.4205C32.2226 20.9587 32.343 20.6147 32.5876 20.3822C32.8322 20.1537 33.27 20.0398 33.8988 20.0398H35.9822C36.6156 20.0398 37.0496 20.1568 37.2819 20.3946C37.5181 20.634 37.6316 20.9742 37.6316 21.4205V21.8923H36.2092C36.2092 21.6304 36.154 21.4337 36.0466 21.3128C35.937 21.1935 35.6969 21.1322 35.3228 21.1322H34.5253C34.1787 21.1322 33.9464 21.1996 33.829 21.3306C33.7125 21.4615 33.655 21.6498 33.655 21.8931V22.9856C33.655 23.2296 33.7125 23.4156 33.829 23.5496C33.9464 23.6798 34.1787 23.7472 34.5253 23.7472H35.3228C35.6969 23.7472 35.9377 23.686 36.0466 23.5659C36.154 23.4435 36.2092 23.2498 36.2092 22.9863H37.6316V23.4559C37.6316 23.9037 37.5181 24.2438 37.2819 24.4801ZM42.4417 20.0398V21.876H39.8875V20.0398H38.4712L38.4628 21.4205V23.4551L38.4712 24.8358H39.8875V22.9677H42.4417V24.8358H43.8717V23.4551V21.4205V20.0398H42.4417ZM46.5341 22.9677H46.1269C46.1329 23.2211 46.1934 23.4148 46.3115 23.5488C46.4267 23.679 46.6588 23.7464 47.0065 23.7464H47.8038H50.1156V24.8358H48.4623H46.3813C45.7512 24.8358 45.3134 24.7227 45.0694 24.4941C44.8266 24.2655 44.7044 23.9192 44.7044 23.4551V21.4205C44.7044 20.9587 44.8255 20.6147 45.0694 20.3822C45.3134 20.1537 45.7512 20.0398 46.3813 20.0398H48.4623H50.1156V21.1322H47.8038H47.0065C46.6588 21.1322 46.4267 21.1996 46.3115 21.3306C46.1934 21.4615 46.1329 21.6428 46.1269 21.876H46.5341H50.1156V22.9677H46.5341ZM62.8298 20.0398H60.7472H59.1039V21.133H61.0569V24.8358H62.4732V21.133H64.507V20.0398H62.8298ZM52.3118 22.4463C52.3118 21.8482 52.8064 21.9132 52.8064 21.9132H54.2434V22.9282H52.7957C52.7957 22.9275 52.3118 22.9461 52.3118 22.4463ZM57.0974 22.9275H55.6505V21.9125H57.086C57.086 21.9125 57.578 21.8474 57.578 22.4455C57.578 22.9461 57.0974 22.9275 57.0974 22.9275ZM57.8511 20.8998H55.6512V20.022H54.2478V20.8998H51.9959C51.9959 20.8998 50.7169 20.9386 50.7169 22.4052C50.7169 23.872 52.0313 23.8805 52.0313 23.8805H54.2478V24.8311H55.6512V23.8805H57.8157C57.8157 23.8805 59.1309 23.8712 59.1309 22.4052C59.1309 20.9386 57.8511 20.8998 57.8511 20.8998ZM23.2634 22.0922H21.167V21.1322H23.2634C23.5257 21.1322 23.7388 21.3461 23.7388 21.6126C23.7388 21.8768 23.5257 22.0922 23.2634 22.0922ZM24.8031 20.3946C24.5685 20.1568 24.1368 20.0398 23.5011 20.0398H19.75V24.8358H21.1663L21.167 23.1816H23.5019C24.1368 23.1816 24.5693 23.0654 24.8031 22.8275C25.0362 22.5904 25.1536 22.248 25.1536 21.8017V21.4205C25.1536 20.9742 25.0362 20.6333 24.8031 20.3946ZM69.1298 23.266C69.1298 23.5303 68.9183 23.7456 68.6551 23.7456H66.5589V22.7857H68.6551C68.9176 22.7857 69.1298 23.0003 69.1298 23.266ZM70.5446 23.4567C70.5446 22.9523 70.5775 22.4401 70.1951 22.0488C69.9603 21.8125 69.527 21.6963 68.8921 21.6963H66.5582L66.5563 20.0398H65.1401V24.8358H68.8921C69.527 24.8358 69.9611 24.7204 70.1951 24.4817C70.428 24.2438 70.5446 23.9021 70.5446 23.4567ZM31.0441 24.4801C30.8102 24.7204 30.3762 24.8358 29.7413 24.8358H27.6587C27.0291 24.8358 26.5928 24.7227 26.3505 24.4941C26.1052 24.2655 25.9825 23.9207 25.9825 23.4551V21.4205C25.9825 20.9587 26.1052 20.6147 26.3505 20.3822C26.5928 20.1537 27.0291 20.0398 27.6587 20.0398H29.7413C30.3762 20.0398 30.811 20.1568 31.0441 20.3946C31.2772 20.634 31.3922 20.9742 31.3922 21.4205V23.4551C31.3922 23.9037 31.2764 24.2438 31.0441 24.4801Z" fill="#657591"/>
<path d="M12.871 15.364H11.043V24.8359H12.871V15.364Z" fill="#657591"/>
<path d="M15.0574 24.8358L15.0581 13.1565H15.0574V24.8358ZM13.2217 24.8358H15.0497V13.1565H13.2217V24.8358Z" fill="#657591"/>
<path d="M15.3975 24.8359H17.224V15.364H15.3975V24.8359Z" fill="#657591"/>
<path d="M8.52571 16.0193L6.68848 14.1659V9.73486H8.52571V16.0193Z" fill="#657591"/>
<path d="M10.7023 18.2311L8.86426 16.3662L8.86579 7.51953H10.7023V18.2311Z" fill="#657591"/>
<path d="M12.8802 5.32324H11.043V15.0292H12.8802V5.32324Z" fill="#657591"/>
<path d="M15.0579 3.11108H13.2061V12.8193H15.0579V3.11108Z" fill="#657591"/>
<path d="M19.752 16.0067L21.5892 14.1619V9.72852H19.752V16.0067Z" fill="#657591"/>
<path d="M17.5742 18.2089L19.4115 16.337V7.51514H17.5742V18.2089Z" fill="#657591"/>
<path d="M17.2332 5.32324H15.3975V15.0292H17.2332V5.32324Z" fill="#657591"/>
</g>
<defs>
<clipPath id="clip0_7026_3295">
<rect width="63.8569" height="21.7778" fill="white" transform="translate(6.68848 3.11108)"/>
</clipPath>
</defs>
</svg>
