<svg width="36" height="28" viewBox="0 0 36 28" fill="none" xmlns="http://www.w3.org/2000/svg">
<path d="M17.8643 3.11108C23.8781 3.11108 28.7528 7.98592 28.7529 13.9998C28.7529 20.0137 23.8782 24.8884 17.8643 24.8884C11.8504 24.8883 6.97559 20.0136 6.97559 13.9998C6.9757 7.98599 11.8505 3.1112 17.8643 3.11108ZM12.5771 17.3669H14.2246V14.782C14.2246 14.1799 14.3476 13.7936 14.5332 13.5671C14.7129 13.3406 14.9659 13.2527 15.2393 13.2527C15.4808 13.2528 15.6708 13.3307 15.8047 13.4695C15.938 13.6137 16.0156 13.8348 16.0156 14.1433V17.3611H17.6631V13.8191C17.6631 13.217 17.4885 12.7272 17.1592 12.3875C16.8347 12.0479 16.3659 11.8679 15.7949 11.8679C15.0844 11.8679 14.5382 12.1574 14.2246 12.698V10.0144H12.5771V17.3669ZM18.5752 17.3669H20.2227V14.782C20.2227 14.1799 20.3456 13.7936 20.5312 13.5671C20.7109 13.3407 20.9636 13.2527 21.2363 13.2527C21.4786 13.2527 21.6688 13.3306 21.8027 13.4695C21.9365 13.6137 22.0136 13.8349 22.0137 14.1433V17.3611H23.6611V13.8191C23.6611 13.217 23.486 12.7271 23.1621 12.3923V12.3943C22.8327 12.0546 22.3637 11.8689 21.792 11.8689C21.0817 11.869 20.5367 12.1575 20.2227 12.698V10.0144H18.5752V17.3669Z" fill="#657591"/>
</svg>
