<svg width="112" height="28" viewBox="0 0 112 28" fill="none" xmlns="http://www.w3.org/2000/svg">
<g clip-path="url(#clip0_6650_19695)">
<path d="M28 14C28 6.28079 21.7177 0 13.9968 0C6.27574 0 0 6.28079 0 14C0 21.7191 6.28227 28 14.0033 28H14.0098L17.1086 24.5635V8.1683H14.7258L9.79118 11.3445V14.716L13.8991 12.171V25.0451C7.8512 24.9931 2.94909 20.0595 2.94909 14.0065C2.94909 7.92099 7.90328 2.96792 13.9902 2.96792C20.0773 2.96792 25.0314 7.92099 25.0314 14.0065C25.0314 17.4496 23.4429 20.5346 20.9625 22.5588L22.577 25.0516C25.8843 22.4807 28 18.4843 28 14Z" fill="url(#paint0_linear_6650_19695)"/>
<path fill-rule="evenodd" clip-rule="evenodd" d="M100.879 15.5996C100.879 17.7627 101.702 19.1103 103.485 19.7198L100.032 24.827H102.97L106.004 20.1061H108.258V24.827H110.864V11.1275C110.742 11.1206 110.623 11.1137 110.504 11.1068C109.294 11.0371 108.185 10.9731 106.811 10.9731C102.541 10.9731 100.879 12.4666 100.879 15.5996ZM106.656 13.2649C107.221 13.2649 107.711 13.2649 108.302 13.325V17.9516H106.382C104.187 17.9516 103.562 17.2048 103.562 15.6598C103.562 14.1061 104.093 13.2649 106.656 13.2649Z" fill="#282826"/>
<path fill-rule="evenodd" clip-rule="evenodd" d="M61.4551 11.1868C61.644 11.1734 61.8285 11.1598 62.0111 11.1464C63.1129 11.0653 64.1422 10.9894 65.6205 10.9894C69.9062 10.9894 71.4746 12.38 71.4746 15.6589C71.4746 19.1869 69.7347 20.792 65.604 20.792C65.0977 20.792 64.5832 20.7748 64.0605 20.7147V24.8349H61.4551V11.1868ZM65.604 18.6031C67.9686 18.6031 68.7915 17.7962 68.7915 15.8392C68.7915 13.9593 68.0461 13.2126 65.637 13.2126C65.0714 13.2126 64.5832 13.2126 64.0522 13.2727V18.5259C64.6014 18.5774 65.0384 18.6031 65.604 18.6031Z" fill="#282826"/>
<path d="M45.3922 11.1098H34.0537V24.8352H36.6591V13.4274H42.7868V24.8352H45.3922V11.1098Z" fill="#282826"/>
<path d="M58.3174 11.1098H49.2759V24.8352H58.3174V22.5604H51.8813V18.9725H57.6578V16.7922H51.8813V13.3845H58.3174V11.1098Z" fill="#282826"/>
<path fill-rule="evenodd" clip-rule="evenodd" d="M78.8944 10.999C77.6183 10.999 75.8781 11.0763 74.3696 11.1535V24.7931C75.8438 24.9131 77.3873 24.9733 78.7572 24.9733C83.2393 24.9733 84.6295 23.7201 84.6295 20.8188C84.6295 18.9561 83.7293 17.8144 81.714 17.6599C83.2827 17.2308 84.0625 16.2093 84.0625 14.527C84.0625 12.0377 82.9061 10.999 78.8944 10.999ZM81.483 15.0935C81.483 16.2952 80.9524 16.9389 79.229 16.9389H76.9834V13.2737C77.6694 13.2136 78.3288 13.2136 78.998 13.2136C81.0546 13.2136 81.483 13.5827 81.483 15.0935ZM81.9898 20.7157C81.9898 22.1836 81.3808 22.7758 79.0491 22.7758C78.3631 22.7758 77.6442 22.7416 76.9834 22.6729V18.793H79.2717C81.2261 18.793 81.9898 19.248 81.9898 20.7157Z" fill="#282826"/>
<path fill-rule="evenodd" clip-rule="evenodd" d="M95.1044 21.6162H89.7389L88.6259 24.8352H86.0205L91.0066 11.1098H93.9648L98.9782 24.8352H96.2356L95.1044 21.6162ZM90.5103 19.4274H94.3512L92.4297 13.9595L90.5103 19.4274Z" fill="#282826"/>
<path d="M34.725 6.57815C34.7722 6.61245 34.8258 6.64033 34.8858 6.66177C34.9458 6.68321 35.0166 6.69393 35.0981 6.69393C35.1838 6.69393 35.2761 6.66606 35.3747 6.61031C35.4733 6.55456 35.5591 6.44521 35.632 6.28226L33.8052 2.68652H34.487L35.9407 5.57469L37.1822 2.68652H37.7868L36.1787 6.34658C36.0973 6.52669 36.0158 6.67463 35.9343 6.79041C35.8571 6.9062 35.7756 6.9984 35.6899 7.06699C35.6084 7.13132 35.5205 7.17633 35.4262 7.20209C35.3361 7.22785 35.2396 7.24066 35.1367 7.24066C34.9866 7.24066 34.8494 7.2128 34.725 7.15708V6.57815Z" fill="#282826"/>
<path d="M38.311 3.78027H41.0255V7.18945H40.4916V4.28201H38.8449V7.18945H38.311V3.78027Z" fill="#282826"/>
<path d="M42.1997 3.78033H42.6886L42.7207 4.37855C42.9008 3.93685 43.2975 3.716 43.9107 3.716C44.3524 3.716 44.6826 3.84894 44.9013 4.11481C45.12 4.3764 45.2294 4.80952 45.2294 5.41417C45.2294 5.74437 45.1993 6.02739 45.1393 6.26325C45.0793 6.49481 44.9892 6.68564 44.8692 6.83574C44.7534 6.98154 44.6076 7.08877 44.4317 7.15737C44.256 7.22597 44.0523 7.26027 43.8207 7.26027C43.5291 7.26027 43.2953 7.20882 43.1195 7.10592C42.948 6.99869 42.8193 6.87433 42.7336 6.73281V8.34737H42.1997V3.78033ZM42.7336 5.81941C42.7336 6.1153 42.8172 6.34901 42.9845 6.52055C43.156 6.69207 43.3982 6.77785 43.7113 6.77785C43.8914 6.77785 44.0436 6.75426 44.168 6.70708C44.2924 6.65992 44.3932 6.58273 44.4704 6.47552C44.5475 6.36831 44.6033 6.23108 44.6376 6.06385C44.6762 5.8966 44.6955 5.69076 44.6955 5.44633C44.6955 5.21476 44.6741 5.01964 44.6312 4.86098C44.5882 4.69802 44.5261 4.56937 44.4446 4.47503C44.3631 4.3764 44.2602 4.30564 44.1358 4.26276C44.0158 4.21988 43.8764 4.19844 43.7177 4.19844C43.5505 4.19844 43.4047 4.22202 43.2804 4.26919C43.156 4.31637 43.0531 4.38283 42.9716 4.4686C42.8901 4.55007 42.8301 4.6487 42.7915 4.76449C42.7529 4.88027 42.7336 5.00463 42.7336 5.13757V5.81941Z" fill="#282826"/>
<path d="M48.0701 6.70066C47.9844 6.85503 47.8515 6.98797 47.6713 7.09948C47.4955 7.20665 47.2854 7.26027 47.0409 7.26027C46.6979 7.26027 46.4277 7.17452 46.2305 7.00295C46.0332 6.82716 45.9346 6.57415 45.9346 6.24395C45.9346 6.05526 45.9582 5.8966 46.0053 5.76795C46.0568 5.63501 46.1361 5.52781 46.2433 5.44633C46.3548 5.36056 46.4963 5.29838 46.6679 5.25979C46.8394 5.22119 47.0474 5.20189 47.2918 5.20189H48.0573V4.88027C48.0573 4.74305 48.0401 4.63155 48.0058 4.54579C47.9758 4.45574 47.9265 4.38712 47.8579 4.33995C47.7892 4.28849 47.7014 4.25418 47.5941 4.23703C47.4912 4.21559 47.369 4.20487 47.2275 4.20487C47.0345 4.20487 46.8416 4.24132 46.6486 4.31422C46.4599 4.38712 46.3077 4.47289 46.1919 4.57152V3.954C46.2605 3.91541 46.3398 3.88111 46.4299 3.85108C46.5242 3.82107 46.6207 3.79748 46.7193 3.78033C46.818 3.75889 46.9166 3.74388 47.0152 3.7353C47.1139 3.72244 47.2039 3.716 47.2854 3.716C47.5084 3.716 47.7014 3.7353 47.8643 3.77389C48.0316 3.81249 48.1688 3.87681 48.276 3.96687C48.3832 4.05692 48.4625 4.177 48.514 4.32708C48.5655 4.47289 48.5911 4.65514 48.5911 4.87385V7.1895H48.1023L48.0701 6.70066ZM46.4813 6.16033C46.4813 6.34473 46.5328 6.48838 46.6357 6.5913C46.7386 6.69422 46.908 6.74568 47.1439 6.74568C47.4612 6.74568 47.6928 6.6642 47.8386 6.50125C47.9844 6.33829 48.0573 6.13245 48.0573 5.88374V5.59427H47.3111C47.1482 5.59427 47.0131 5.605 46.9059 5.62644C46.7987 5.64788 46.7129 5.68218 46.6486 5.72936C46.5885 5.77224 46.5457 5.83013 46.5199 5.90303C46.4942 5.97164 46.4813 6.05741 46.4813 6.16033Z" fill="#282826"/>
<path d="M49.7271 3.77376C49.8514 3.76518 50.008 3.75661 50.1966 3.74803C50.3896 3.73946 50.619 3.73517 50.8849 3.73517C51.1593 3.73517 51.3844 3.75447 51.5603 3.79306C51.7361 3.83166 51.8755 3.88526 51.9784 3.95387C52.0813 4.02248 52.1521 4.10825 52.1907 4.21117C52.2335 4.3098 52.255 4.41915 52.255 4.53922C52.255 4.75792 52.2057 4.93374 52.1071 5.06668C52.0084 5.19533 51.8369 5.29396 51.5925 5.36257C51.8798 5.3883 52.0877 5.45906 52.2164 5.57485C52.3493 5.69063 52.4158 5.89003 52.4158 6.17306C52.4158 6.33173 52.3922 6.47753 52.3451 6.61047C52.2979 6.73911 52.2164 6.85061 52.1006 6.94495C51.9891 7.03929 51.8369 7.11223 51.6439 7.16368C51.4552 7.21513 51.2194 7.24082 50.9364 7.24082C50.8249 7.24082 50.7091 7.23872 50.589 7.23438C50.4732 7.23438 50.3617 7.23228 50.2545 7.22801C50.1473 7.22367 50.0487 7.21723 49.9586 7.20869C49.8686 7.20442 49.7914 7.20008 49.7271 7.19581V3.77376ZM50.2609 6.74555C50.3725 6.75412 50.484 6.7627 50.5954 6.77128C50.7112 6.77556 50.8313 6.77771 50.9556 6.77771C51.1315 6.77771 51.2773 6.76913 51.3931 6.75198C51.5131 6.73054 51.6096 6.69623 51.6825 6.64906C51.7554 6.60189 51.8069 6.53971 51.8369 6.46252C51.8669 6.38533 51.8819 6.29099 51.8819 6.17949C51.8819 5.98652 51.8154 5.85359 51.6825 5.78068C51.5538 5.70349 51.3437 5.6649 51.0522 5.6649H50.2609V6.74555ZM51.0522 5.20819C51.2537 5.20819 51.4145 5.16746 51.5346 5.08598C51.6546 5.0045 51.7147 4.87371 51.7147 4.6936C51.7147 4.50063 51.6546 4.36984 51.5346 4.30122C51.4188 4.23261 51.2151 4.1983 50.9235 4.1983C50.7605 4.1983 50.6276 4.1983 50.5247 4.1983C50.4217 4.1983 50.3338 4.20044 50.2609 4.20474V5.20819H51.0522Z" fill="#282826"/>
<path d="M52.9321 6.59125C52.9836 6.6084 53.0394 6.61698 53.0994 6.61698C53.1423 6.61698 53.1873 6.61055 53.2345 6.59768C53.2816 6.58482 53.3266 6.5548 53.3696 6.50763C53.4125 6.45617 53.4532 6.38112 53.4918 6.28249C53.5346 6.17957 53.5711 6.0402 53.6011 5.86438C53.6354 5.68856 53.6633 5.46771 53.6848 5.20184C53.7062 4.93168 53.7233 4.60577 53.7362 4.22412L53.7491 3.78027H56.0133V7.18945H55.4794V4.29487H54.2315L54.2251 4.50071C54.2036 5.10536 54.1608 5.58993 54.0964 5.95444C54.0364 6.31465 53.9592 6.59339 53.8649 6.79065C53.7748 6.98363 53.6719 7.11014 53.5561 7.1702C53.4403 7.23019 53.3181 7.26022 53.1894 7.26022C53.138 7.26022 53.093 7.25805 53.0543 7.25378C53.02 7.25378 52.9793 7.24524 52.9321 7.22809V6.59125Z" fill="#282826"/>
<path d="M57.7795 5.87657C57.6423 5.85513 57.5287 5.81439 57.4386 5.75435C57.3486 5.69003 57.2778 5.61499 57.2263 5.52922C57.1749 5.43916 57.1384 5.33839 57.117 5.22689C57.0956 5.11111 57.0848 4.99104 57.0848 4.86668C57.0848 4.68657 57.1084 4.5279 57.1556 4.39068C57.207 4.24916 57.2928 4.13124 57.4129 4.03689C57.5329 3.94255 57.6916 3.87179 57.8889 3.82463C58.0861 3.77316 58.3306 3.74744 58.6222 3.74744C58.8109 3.74744 59.006 3.75172 59.2075 3.7603C59.4091 3.76459 59.572 3.77531 59.6964 3.79246V7.18877H59.1625V5.96663H58.3263L57.4515 7.18877H56.834L57.7795 5.87657ZM59.1625 4.24273C59.0811 4.23415 58.9996 4.22772 58.9181 4.22344C58.8366 4.21915 58.7229 4.217 58.5771 4.217C58.3842 4.217 58.2255 4.22987 58.1011 4.25559C57.9768 4.27704 57.8782 4.31349 57.8052 4.36495C57.7366 4.41641 57.6874 4.48502 57.6573 4.57078C57.6316 4.65226 57.6188 4.75518 57.6188 4.87954C57.6188 5.13684 57.6809 5.31266 57.8052 5.407C57.9339 5.50134 58.1483 5.54852 58.4485 5.54852H59.1625V4.24273Z" fill="#282826"/>
<path d="M63.6653 3.716C63.9097 3.716 64.1241 3.74817 64.3085 3.81249C64.4972 3.87252 64.6559 3.9733 64.7845 4.11481C64.9132 4.25633 65.0096 4.44073 65.074 4.668C65.1426 4.891 65.1769 5.1633 65.1769 5.48492C65.1769 5.81512 65.1426 6.09386 65.074 6.32114C65.0054 6.54413 64.9046 6.72638 64.7716 6.86789C64.6387 7.00512 64.4737 7.10592 64.2764 7.17025C64.0834 7.23024 63.8604 7.26027 63.6074 7.26027C63.3416 7.26027 63.1143 7.2238 62.9255 7.15093C62.7369 7.07799 62.5804 6.97511 62.456 6.84217C62.3317 6.70494 62.2373 6.5377 62.173 6.34044C62.1086 6.14318 62.0722 5.92233 62.0636 5.67789H61.4011V7.1895H60.8672V3.78033H61.4011V5.19546H62.0765C62.1151 4.7066 62.2587 4.33781 62.5074 4.08908C62.7562 3.84037 63.1421 3.716 63.6653 3.716ZM62.5975 5.48492C62.5975 5.93948 62.6833 6.26754 62.8548 6.46908C63.0263 6.67063 63.2837 6.77141 63.6267 6.77141C63.7811 6.77141 63.9183 6.75211 64.0384 6.71352C64.1627 6.67492 64.2678 6.60845 64.3535 6.51411C64.4436 6.41548 64.5101 6.28469 64.553 6.12174C64.6002 5.95878 64.6237 5.75294 64.6237 5.50422C64.6237 5.25121 64.6044 5.04108 64.5658 4.87385C64.5315 4.7066 64.4715 4.57366 64.3857 4.47503C64.3043 4.37211 64.197 4.30136 64.0641 4.26276C63.9354 4.21988 63.7789 4.19844 63.5945 4.19844C63.4144 4.19844 63.2622 4.22202 63.1378 4.26919C63.0135 4.31207 62.9106 4.38498 62.8291 4.48789C62.7476 4.58652 62.6875 4.71732 62.649 4.88027C62.6147 5.04323 62.5975 5.24478 62.5975 5.48492Z" fill="#282826"/>
<path d="M66.1226 3.78027H66.6564V6.6813H67.9043V3.78027H68.4382V6.6813H69.6861V3.78027H70.2201V6.6813H70.7157V8.02567H70.2138V7.18945H66.1226V3.78027Z" fill="#282826"/>
<path d="M73.3769 6.70066C73.2908 6.85503 73.1585 6.98797 72.9779 7.09948C72.8022 7.20665 72.5922 7.26027 72.3479 7.26027C72.0049 7.26027 71.7347 7.17452 71.5373 7.00295C71.3399 6.82716 71.2412 6.57415 71.2412 6.24395C71.2412 6.05526 71.265 5.8966 71.3119 5.76795C71.3637 5.63501 71.4428 5.52781 71.5499 5.44633C71.6619 5.36056 71.8033 5.29838 71.9748 5.25979C72.1463 5.22119 72.3542 5.20189 72.5985 5.20189H73.3643V4.88027C73.3643 4.74305 73.3468 4.63155 73.3125 4.54579C73.2824 4.45574 73.2334 4.38712 73.1648 4.33995C73.0962 4.28849 73.008 4.25418 72.9009 4.23703C72.798 4.21559 72.6755 4.20487 72.5341 4.20487C72.3416 4.20487 72.1484 4.24132 71.9552 4.31422C71.7669 4.38712 71.6143 4.47289 71.4988 4.57152V3.954C71.5674 3.91541 71.6465 3.88111 71.7368 3.85108C71.8306 3.82107 71.9272 3.79748 72.0259 3.78033C72.1246 3.75889 72.2233 3.74388 72.322 3.7353C72.4207 3.72244 72.5103 3.716 72.5922 3.716C72.8148 3.716 73.008 3.7353 73.1711 3.77389C73.3384 3.81249 73.4756 3.87681 73.5827 3.96687C73.6898 4.05692 73.7696 4.177 73.8207 4.32708C73.8725 4.47289 73.8977 4.65514 73.8977 4.87385V7.1895H73.4091L73.3769 6.70066ZM71.7879 6.16033C71.7879 6.34473 71.8397 6.48838 71.9426 6.5913C72.0455 6.69422 72.2149 6.74568 72.4508 6.74568C72.7679 6.74568 72.9996 6.6642 73.1452 6.50125C73.2908 6.33829 73.3643 6.13245 73.3643 5.88374V5.59427H72.6181C72.455 5.59427 72.3199 5.605 72.2128 5.62644C72.1057 5.64788 72.0196 5.68218 71.9552 5.72936C71.895 5.77224 71.8523 5.83013 71.8264 5.90303C71.8012 5.97164 71.7879 6.05741 71.7879 6.16033Z" fill="#282826"/>
<path d="M75.6186 5.87657C75.4814 5.85513 75.368 5.81439 75.2777 5.75435C75.1881 5.69003 75.1166 5.61499 75.0655 5.52922C75.0137 5.43916 74.9774 5.33839 74.9564 5.22689C74.9347 5.11111 74.9242 4.99104 74.9242 4.86668C74.9242 4.68657 74.9473 4.5279 74.9949 4.39068C75.046 4.24916 75.132 4.13124 75.2517 4.03689C75.3721 3.94255 75.531 3.87179 75.7277 3.82463C75.9251 3.77316 76.1695 3.74744 76.4614 3.74744C76.6504 3.74744 76.845 3.75172 77.0466 3.7603C77.2482 3.76459 77.4112 3.77531 77.5358 3.79246V7.18877H77.0017V5.96663H76.1652L75.2909 7.18877H74.6729L75.6186 5.87657ZM77.0017 4.24273C76.9198 4.23415 76.8386 4.22772 76.7574 4.22344C76.6755 4.21915 76.5621 4.217 76.4165 4.217C76.2233 4.217 76.0644 4.22987 75.9405 4.25559C75.8159 4.27704 75.7173 4.31349 75.6445 4.36495C75.5759 4.41641 75.5261 4.48502 75.4967 4.57078C75.4708 4.65226 75.4575 4.75518 75.4575 4.87954C75.4575 5.13684 75.5199 5.31266 75.6445 5.407C75.7733 5.50134 75.9875 5.54852 76.2878 5.54852H77.0017V4.24273Z" fill="#282826"/>
<path d="M81.6642 5.64568H81.1042V7.18945H80.5708V3.78027H81.1042V5.22757H81.6705L82.8087 3.78027H83.4198L82.1206 5.40125L83.5549 7.18945H82.9053L81.6642 5.64568Z" fill="#282826"/>
<path d="M83.9126 5.47206C83.9126 5.17617 83.9532 4.91887 84.0344 4.70017C84.1163 4.48146 84.2297 4.29921 84.3753 4.15341C84.5216 4.00761 84.6952 3.89826 84.8968 3.82536C85.1026 3.75245 85.3273 3.716 85.5723 3.716C85.8033 3.716 86.014 3.75031 86.2023 3.81892C86.3913 3.88754 86.5495 3.99474 86.6783 4.14055C86.8113 4.28635 86.9142 4.47074 86.987 4.69374C87.0598 4.91673 87.0962 5.1826 87.0962 5.49136C87.0962 5.81298 87.0535 6.08529 86.9681 6.30827C86.8862 6.53126 86.7728 6.71352 86.6272 6.85503C86.4851 6.99655 86.3178 7.09948 86.1253 7.16381C85.9321 7.22814 85.7242 7.26027 85.5009 7.26027C84.9906 7.26027 84.5986 7.10375 84.3242 6.7907C84.0498 6.47766 83.9126 6.03811 83.9126 5.47206ZM84.446 5.49136C84.446 5.89874 84.5384 6.21607 84.7232 6.44336C84.9115 6.66635 85.1859 6.77785 85.5464 6.77785C85.8635 6.77785 86.112 6.67707 86.2926 6.47552C86.4725 6.26968 86.5628 5.94163 86.5628 5.49136V5.47206C86.5628 5.03894 86.4704 4.71732 86.2863 4.50719C86.1057 4.29707 85.8446 4.192 85.5009 4.192C85.1621 4.192 84.901 4.30136 84.7162 4.52006C84.5363 4.73448 84.446 5.05181 84.446 5.47206V5.49136Z" fill="#282826"/>
<path d="M88.0356 3.78027H88.7433L89.8242 5.80649L90.8594 3.78027H91.535V7.18945H91.0008V5.39482C91.0008 5.20184 91.0099 5.01101 91.0267 4.82233C91.0442 4.62936 91.061 4.43638 91.0785 4.24341C90.9798 4.46212 90.8874 4.66795 90.8013 4.86093C90.7159 5.04961 90.6368 5.20827 90.5633 5.33693L89.9718 6.36612H89.605L89.0457 5.34336C88.9729 5.20613 88.8889 5.04318 88.7944 4.85449C88.7006 4.66581 88.6019 4.46426 88.499 4.24984C88.5158 4.44282 88.5312 4.63793 88.5438 4.83519C88.5613 5.02817 88.5697 5.22328 88.5697 5.42055V7.18945H88.0356V3.78027Z" fill="#282826"/>
<path d="M92.709 3.78027H95.4236V7.18945H94.8902V4.28201H93.2431V7.18945H92.709V3.78027Z" fill="#282826"/>
<path d="M98.5058 6.70066C98.4204 6.85503 98.2874 6.98797 98.1068 7.09948C97.9311 7.20665 97.7211 7.26027 97.4768 7.26027C97.1338 7.26027 96.8636 7.17452 96.6662 7.00295C96.4688 6.82716 96.3701 6.57415 96.3701 6.24395C96.3701 6.05526 96.3939 5.8966 96.4408 5.76795C96.4926 5.63501 96.5717 5.52781 96.6788 5.44633C96.7908 5.36056 96.9322 5.29838 97.1037 5.25979C97.2752 5.22119 97.4831 5.20189 97.7274 5.20189H98.4932V4.88027C98.4932 4.74305 98.4757 4.63155 98.4414 4.54579C98.4113 4.45574 98.3623 4.38712 98.2937 4.33995C98.2251 4.28849 98.1369 4.25418 98.0298 4.23703C97.9269 4.21559 97.8044 4.20487 97.663 4.20487C97.4705 4.20487 97.2773 4.24132 97.0841 4.31422C96.8958 4.38712 96.7432 4.47289 96.6277 4.57152V3.954C96.6963 3.91541 96.7754 3.88111 96.8657 3.85108C96.9602 3.82107 97.0561 3.79748 97.1548 3.78033C97.2535 3.75889 97.3522 3.74388 97.4509 3.7353C97.5496 3.72244 97.6399 3.716 97.7211 3.716C97.9444 3.716 98.1369 3.7353 98.3 3.77389C98.4673 3.81249 98.6045 3.87681 98.7116 3.96687C98.8187 4.05692 98.8985 4.177 98.9496 4.32708C99.0014 4.47289 99.0266 4.65514 99.0266 4.87385V7.1895H98.538L98.5058 6.70066ZM96.9168 6.16033C96.9168 6.34473 96.9686 6.48838 97.0715 6.5913C97.1744 6.69422 97.3438 6.74568 97.5797 6.74568C97.8968 6.74568 98.1285 6.6642 98.2741 6.50125C98.4204 6.33829 98.4932 6.13245 98.4932 5.88374V5.59427H97.747C97.5839 5.59427 97.4488 5.605 97.3417 5.62644C97.2346 5.64788 97.1485 5.68218 97.0841 5.72936C97.0246 5.77224 96.9812 5.83013 96.956 5.90303C96.9301 5.97164 96.9168 6.05741 96.9168 6.16033Z" fill="#282826"/>
<path d="M100.163 3.78027H100.697V5.20827H102.395V3.78027H102.928V7.18945H102.395V5.71644H100.697V7.18945H100.163V3.78027Z" fill="#282826"/>
<path d="M104.1 3.78027H104.633V5.43984C104.633 5.64139 104.629 5.83651 104.621 6.02519C104.612 6.20959 104.603 6.34467 104.595 6.43044L104.621 6.4433C104.702 6.30608 104.788 6.17314 104.878 6.04449C104.968 5.91156 105.06 5.78076 105.155 5.65212L106.448 3.78027H106.917V7.18945H106.383V5.81293C106.383 5.68856 106.383 5.5642 106.383 5.43984C106.388 5.31119 106.392 5.18898 106.396 5.07319C106.4 4.95741 106.404 4.85234 106.409 4.75801C106.414 4.65938 106.418 4.58004 106.422 4.52001L106.402 4.51357C106.347 4.6122 106.274 4.73656 106.184 4.88665C106.094 5.03245 105.999 5.16968 105.901 5.29833L104.576 7.18945H104.1V3.78027Z" fill="#282826"/>
<path d="M108.672 5.87657C108.535 5.85513 108.421 5.81439 108.331 5.75435C108.241 5.69003 108.17 5.61499 108.119 5.52922C108.067 5.43916 108.031 5.33839 108.009 5.22689C107.988 5.11111 107.977 4.99104 107.977 4.86668C107.977 4.68657 108 4.5279 108.048 4.39068C108.099 4.24916 108.185 4.13124 108.305 4.03689C108.425 3.94255 108.584 3.87179 108.781 3.82463C108.978 3.77316 109.223 3.74744 109.515 3.74744C109.703 3.74744 109.898 3.75172 110.1 3.7603C110.301 3.76459 110.464 3.77531 110.588 3.79246V7.18877H110.055V5.96663H109.218L108.343 7.18877H107.726L108.672 5.87657ZM110.055 4.24273C109.973 4.23415 109.892 4.22772 109.81 4.22344C109.729 4.21915 109.615 4.217 109.469 4.217C109.277 4.217 109.118 4.22987 108.993 4.25559C108.869 4.27704 108.77 4.31349 108.698 4.36495C108.629 4.41641 108.579 4.48502 108.549 4.57078C108.524 4.65226 108.511 4.75518 108.511 4.87954C108.511 5.13684 108.573 5.31266 108.698 5.407C108.826 5.50134 109.041 5.54852 109.341 5.54852H110.055V4.24273Z" fill="#282826"/>
</g>
<defs>
<linearGradient id="paint0_linear_6650_19695" x1="4.55" y1="25.55" x2="26.25" y2="8.05" gradientUnits="userSpaceOnUse">
<stop stop-color="#0048B6"/>
<stop offset="0.9884" stop-color="#00866D"/>
</linearGradient>
<clipPath id="clip0_6650_19695">
<rect width="111.3" height="28" fill="white"/>
</clipPath>
</defs>
</svg>
