<svg width="115" height="28" viewBox="0 0 115 28" fill="none" xmlns="http://www.w3.org/2000/svg">
<g clip-path="url(#clip0_6650_19643)">
<mask id="mask0_6650_19643" style="mask-type:luminance" maskUnits="userSpaceOnUse" x="0" y="0" width="115" height="28">
<path d="M114.8 0H0V28H114.8V0Z" fill="white"/>
</mask>
<g mask="url(#mask0_6650_19643)">
<path fill-rule="evenodd" clip-rule="evenodd" d="M0 7.77203L10.5874 0.447068C10.9362 0.175847 11.361 0.0203491 11.8025 0.00229488C12.2173 0.00253035 12.6175 0.155546 12.9266 0.432123C13.2358 0.708701 13.4322 1.08945 13.4784 1.50168C13.4864 1.65976 13.4864 1.81817 13.4784 1.97625V9.33107L26.966 0V19.2009L16.3786 26.5259C16.0298 26.7971 15.605 26.9525 15.1635 26.9706C14.8068 26.9704 14.4593 26.8571 14.1709 26.647C13.8825 26.437 13.6682 26.1409 13.5586 25.8014C13.4834 25.5221 13.4555 25.2323 13.4761 24.9439V20.9112C13.4761 20.8309 13.4761 20.753 13.4761 20.6819C13.4471 20.3969 13.3457 20.124 13.1814 19.8893C13.0171 19.6547 12.7955 19.4659 12.5376 19.3411C12.2797 19.2163 11.9942 19.1596 11.7082 19.1764C11.4222 19.1932 11.1453 19.2829 10.9038 19.437L10.7365 19.5493L0 26.9729V7.77203Z" fill="url(#paint0_linear_6650_19643)"/>
<path d="M33.6655 26.9997V21.8596H34.6055V24.7735C34.6055 25.1106 34.5895 25.3673 34.5825 25.6539C34.7453 25.4544 35.0228 25.0074 35.2153 24.7506L37.4392 21.8504H38.2393V26.9905H37.2994V23.9895C37.2994 23.7396 37.2994 23.5034 37.3223 23.2329C37.1526 23.43 36.8821 23.8565 36.6826 24.1132L34.4588 26.9997H33.6655Z" fill="#333333"/>
<path d="M43.144 24.8336H40.4708V27.0001H39.5308V21.86H40.4708V23.9669H43.144V21.86H44.084V27.0001H43.144V24.8336Z" fill="#333333"/>
<path d="M45.3633 21.86H47.5894C48.9535 21.86 49.4235 22.4034 49.4235 23.153C49.4319 23.4008 49.3637 23.645 49.2283 23.8525C49.093 24.0601 48.897 24.2209 48.6669 24.3131C49.247 24.4232 49.6 24.8473 49.6 25.5099C49.6 26.5668 48.7633 27.0001 47.5504 27.0001H45.3701L45.3633 21.86ZM46.3032 22.6464V24.0219H47.5596C48.1167 24.0219 48.456 23.7354 48.456 23.3342C48.456 22.8756 48.197 22.6464 47.4266 22.6464H46.3032ZM46.3032 24.7533V26.2206H47.4496C48.2635 26.2206 48.6303 25.9913 48.6303 25.4641C48.6303 24.994 48.3139 24.7533 47.5436 24.7533H46.3032Z" fill="#333333"/>
<path d="M50.6216 21.86H54.5052V22.667H51.5615V24.0037H54.3127V24.7739H51.5615V26.184H54.5649V26.9909H50.6216V21.86Z" fill="#333333"/>
<path d="M55.3682 24.4302C55.3759 23.8956 55.5432 23.3755 55.8485 22.9366C56.1538 22.4976 56.5832 22.1598 57.0818 21.9664C57.5802 21.7731 58.1251 21.733 58.6465 21.8513C59.168 21.9696 59.6422 22.2409 60.0085 22.6304L59.3206 23.2472C59.16 23.0604 58.9603 22.911 58.7357 22.8096C58.5112 22.7082 58.2671 22.6573 58.0207 22.6603C57.0303 22.6603 56.354 23.41 56.354 24.4302C56.354 25.4504 57.0532 26.207 58.0436 26.207C58.6833 26.207 58.9836 25.964 59.394 25.5604L60.0818 26.1336C59.8389 26.4377 59.5289 26.6813 59.1761 26.8456C58.8233 27.0099 58.4372 27.0903 58.0483 27.0805C56.464 27.0805 55.3682 25.9937 55.3682 24.4302Z" fill="#333333"/>
<path d="M60.4268 21.86H64.8194V22.7106H63.0931V27.007H62.1531V22.7106H60.4268V21.86Z" fill="#333333"/>
<path d="M65.5293 26.9997V21.8596H66.4693V24.7735C66.4693 25.1106 66.4532 25.3673 66.4464 25.6539C66.6069 25.4544 66.8866 25.0074 67.0769 24.7506L69.303 21.8504H70.1033V26.9905H69.1631V23.9895C69.1631 23.7396 69.1631 23.5034 69.1838 23.2329C69.0164 23.43 68.7436 23.8565 68.5464 24.1132L66.3203 26.9997H65.5293Z" fill="#333333"/>
<path d="M71.3945 21.86H72.3346V26.1495H74.8448V21.86H75.7849V26.1495H76.445V28.0066H75.5784V27.0093H71.3945V21.86Z" fill="#333333"/>
<path d="M77.1997 26.9997V21.8596H78.1391V24.7735C78.1391 25.1106 78.1258 25.3673 78.1167 25.6539C78.2791 25.4544 78.5591 25.0074 78.7495 24.7506L80.9734 21.8504H81.7756V26.9905H80.8355V23.9895C80.8355 23.7396 80.8355 23.5034 80.8565 23.2329C80.6885 23.43 80.4162 23.8565 80.2188 24.1132L77.9928 26.9997H77.1997Z" fill="#333333"/>
<path d="M83.0674 26.9997V21.8596H84.0054V24.7735C84.0054 25.1106 83.9914 25.3673 83.9844 25.6539C84.1454 25.4544 84.4247 25.0074 84.6151 24.7506L86.8411 21.8504H87.6412V26.9905H86.7011V23.9895C86.7011 23.7396 86.7011 23.5034 86.7221 23.2329C86.5548 23.43 86.2818 23.8565 86.0844 24.1132L83.8584 26.9997H83.0674Z" fill="#333333"/>
<path d="M41.2745 17.2984H39.4473V11.7823L35.465 17.2984H33.7202V8.88672H35.5475V14.4028L39.5573 8.88672H41.2745V17.2984Z" fill="#333333"/>
<path d="M42.604 8.88672H44.4542V12.2133H48.1752V8.88672H50.0253V17.2984H48.1752V13.9213H44.4542V17.2984H42.604V8.88672Z" fill="#333333"/>
<path d="M53.2017 17.2984H51.3516V8.88672H57.074V10.5557H53.2017V17.2984Z" fill="#333333"/>
<path d="M61.5338 15.7317C60.0437 15.7317 59.012 14.7229 59.012 13.0883C59.012 11.4537 60.0459 10.4472 61.5338 10.4449C63.0218 10.4426 64.0558 11.456 64.0558 13.0883C64.0558 14.7207 63.0218 15.7294 61.5338 15.7317ZM65.9908 13.0814C65.9908 10.5182 64.1269 8.75753 61.5568 8.7254H61.5063C58.9386 8.74836 57.077 10.5091 57.0747 13.0814C57.0747 15.6423 58.9386 17.4053 61.5063 17.426H61.5568C64.1269 17.4053 65.9885 15.6423 65.9908 13.0814Z" fill="#333333"/>
<path d="M85.3561 10.5924H82.6436V8.88672H89.9208V10.5924H87.2083V17.2984H85.3561V10.5924Z" fill="#333333"/>
<path d="M94.6991 13.1253C95.6161 13.1253 96.167 12.5728 96.167 11.8277C96.167 11.0001 95.5888 10.5553 94.6648 10.5553H92.8903V13.1253H94.6991ZM91.0311 8.88397H94.8139C96.8201 8.88397 98.0234 10.0738 98.0234 11.8162C98.0234 13.7627 96.5107 14.7737 94.6235 14.7737H92.8742V17.2957H91.022L91.0311 8.88397Z" fill="#333333"/>
<path d="M114.632 17.2984L111.639 12.9837L114.51 8.88672H112.385L110.583 11.4568L108.8 8.88672H106.612L109.483 13.0272L106.49 17.2984H108.616L110.539 14.5518L112.444 17.2984H114.632Z" fill="#333333"/>
<path d="M100.71 13.719L101.835 11.0894L102.959 13.719H100.71ZM104.405 17.2978H106.292L102.688 8.82654H100.983L97.3735 17.2978H99.2698L100.059 15.3605H103.626L104.405 17.2978Z" fill="#333333"/>
<path d="M71.2373 15.7302C69.7471 15.7302 68.7154 14.7214 68.7154 13.0891C68.7154 11.4567 69.7471 10.4479 71.2373 10.4479C71.9555 10.426 72.6562 10.671 73.2043 11.1357L74.3509 9.98939C73.52 9.1895 72.4112 8.74325 71.2583 8.74451H71.2079C68.6375 8.7674 66.7759 10.5282 66.7759 13.0891C66.7759 15.6499 68.6375 17.4106 71.2079 17.445H71.2583C72.4112 17.4435 73.5193 16.9967 74.3509 16.1978L73.2043 15.0515C72.6548 15.5129 71.9541 15.7546 71.2373 15.7302Z" fill="#333333"/>
<path d="M78.9603 15.7302C79.6785 15.753 80.3799 15.5079 80.9273 15.0424L82.0739 16.1888C81.2437 16.9877 80.1377 17.4354 78.9855 17.4383H78.9351C76.3675 17.413 74.5055 15.6523 74.5034 13.0822C74.5034 10.5213 76.3675 8.76056 78.9351 8.73767H78.9855C80.1384 8.73774 81.2465 9.18574 82.076 9.98717L80.9294 11.1335C80.382 10.6681 79.6806 10.4229 78.9624 10.4457C77.4721 10.4457 76.4403 11.4521 76.4403 13.0868C76.4403 14.7215 77.47 15.7302 78.9603 15.7302Z" fill="#333333"/>
</g>
</g>
<defs>
<linearGradient id="paint0_linear_6650_19643" x1="-1.75279" y1="13.4865" x2="25.2743" y2="27.6003" gradientUnits="userSpaceOnUse">
<stop stop-color="#BD9DF9"/>
<stop offset="1" stop-color="#7F8CF9"/>
</linearGradient>
<clipPath id="clip0_6650_19643">
<rect width="114.8" height="28" fill="white"/>
</clipPath>
</defs>
</svg>
