<svg width="88" height="28" viewBox="0 0 88 28" fill="none" xmlns="http://www.w3.org/2000/svg">
<path fill-rule="evenodd" clip-rule="evenodd" d="M50.7845 19.4775C50.7845 20.1476 50.349 20.6501 49.6454 20.6501C49.2098 20.6501 48.8748 20.5161 48.6403 20.2816L48.9753 19.9465C49.2098 20.0471 49.4108 20.1141 49.6454 20.1141C49.9804 20.1141 50.215 19.9465 50.215 19.6115V19.4775C50.0809 19.6785 49.8129 19.7455 49.5784 19.7455C48.9083 19.7455 48.5732 19.31 48.5732 18.6399V17.5007H49.1428V18.6064C49.1428 19.0419 49.3438 19.1759 49.6454 19.1759C49.9804 19.1759 50.1814 18.9749 50.1814 18.5394V17.5007H50.751V19.4775H50.7845Z" fill="#657591"/>
<path fill-rule="evenodd" clip-rule="evenodd" d="M53.0298 19.779V18.0703H52.0247V19.779H51.4551V17.5007H53.5994V19.779H53.0298Z" fill="#657591"/>
<path fill-rule="evenodd" clip-rule="evenodd" d="M56.581 18.6401C56.581 19.2767 56.112 19.8128 55.4754 19.8128C55.2409 19.8128 55.0063 19.7123 54.8723 19.5448V20.6169H54.3027V17.501H54.7048L54.7383 17.836C54.9058 17.635 55.1738 17.501 55.5089 17.501C56.1455 17.4675 56.581 18.0036 56.581 18.6401ZM54.8388 18.6401C54.8388 19.0087 55.1403 19.2432 55.4419 19.2432C55.7434 19.2432 56.045 19.0087 56.045 18.6401C56.045 18.2716 55.7769 18.0371 55.4419 18.0371C55.1068 18.0371 54.8388 18.2716 54.8388 18.6401Z" fill="#657591"/>
<path fill-rule="evenodd" clip-rule="evenodd" d="M58.8931 19.7794L58.8596 19.4443C58.6921 19.6454 58.4241 19.7794 58.089 19.7794C57.4525 19.7794 56.9834 19.2433 56.9834 18.6067C56.9834 17.9702 57.4525 17.4341 58.089 17.4341C58.3906 17.4341 58.6921 17.5681 58.8596 17.8026L58.8931 17.4676H59.2952V19.7459H58.8931V19.7794ZM58.7591 18.6402C58.7591 18.2717 58.4576 18.0372 58.156 18.0372C57.8545 18.0372 57.553 18.2717 57.553 18.6402C57.553 19.0088 57.821 19.2433 58.156 19.2433C58.4576 19.2433 58.7591 19.0088 58.7591 18.6402Z" fill="#657591"/>
<path fill-rule="evenodd" clip-rule="evenodd" d="M61.171 17.5007C61.7071 17.5007 61.9416 17.7353 61.9416 18.1373C61.9416 18.3383 61.8411 18.5394 61.6401 18.6064C61.9081 18.6734 62.0421 18.8744 62.0421 19.1089C62.0421 19.578 61.7741 19.779 61.171 19.779H59.9648V17.5007H61.171ZM60.5344 18.4053H61.104C61.2715 18.4053 61.3385 18.3383 61.3385 18.2043C61.3385 18.0703 61.2715 18.0033 61.104 18.0033H60.5344V18.4053ZM61.171 19.2765C61.4055 19.2765 61.4725 19.1759 61.4725 19.0419C61.4725 18.9079 61.4055 18.8074 61.2045 18.8074H60.5679V19.2765H61.171Z" fill="#657591"/>
<path fill-rule="evenodd" clip-rule="evenodd" d="M62.9126 19.779H62.3096L63.3482 17.5007H63.7168L64.7554 19.779H64.1523L63.5157 18.3383L62.9126 19.779Z" fill="#657591"/>
<path fill-rule="evenodd" clip-rule="evenodd" d="M66.632 19.779V19.1089H66.3975C66.1965 19.1089 66.1295 19.1759 65.9954 19.4105L65.7274 19.779H65.0908L65.3924 19.3435C65.4594 19.243 65.5264 19.1089 65.6269 19.0419C65.3253 18.9414 65.1243 18.6399 65.1243 18.3383C65.1243 17.9698 65.3589 17.5007 66.1295 17.5007H67.2016V19.779H66.632ZM66.0624 18.0703C65.8279 18.0703 65.6939 18.1708 65.6939 18.3383C65.6939 18.5059 65.7944 18.6399 66.0624 18.6399H66.632V18.0703H66.0624Z" fill="#657591"/>
<path fill-rule="evenodd" clip-rule="evenodd" d="M71.0878 18.6399C71.0878 19.2765 70.5517 19.8126 69.9152 19.8126C69.3456 19.8126 68.91 19.4105 68.776 18.908H68.4075V19.7791H67.8379V17.5008H68.4075V18.3384H68.776C68.91 17.8358 69.3456 17.4673 69.9152 17.4673C70.5517 17.4673 71.0878 18.0034 71.0878 18.6399ZM70.4847 18.6399C70.4847 18.2714 70.1832 18.0369 69.8817 18.0369C69.5801 18.0369 69.2786 18.2714 69.2786 18.6399C69.2786 19.0085 69.5466 19.243 69.8817 19.243C70.2167 19.243 70.4847 19.0085 70.4847 18.6399Z" fill="#657591"/>
<path fill-rule="evenodd" clip-rule="evenodd" d="M74.8069 20.2146V19.779H71.624V17.5007H72.1936V19.2095H73.0312V17.5007H73.6008V19.2095H74.4384V17.5007H75.008V19.2095H75.3765V20.1811H74.8069V20.2146Z" fill="#657591"/>
<path fill-rule="evenodd" clip-rule="evenodd" d="M77.5875 19.7794L77.554 19.4443C77.3865 19.6454 77.1184 19.7794 76.7834 19.7794C76.1468 19.7794 75.6777 19.2433 75.6777 18.6067C75.6777 17.9702 76.1468 17.4341 76.7834 17.4341C77.0849 17.4341 77.3865 17.5681 77.554 17.8026L77.5875 17.4676H77.9895V19.7459H77.5875V19.7794ZM77.4535 18.6402C77.4535 18.2717 77.1519 18.0372 76.8504 18.0372C76.5488 18.0372 76.2473 18.2717 76.2473 18.6402C76.2473 19.0088 76.5153 19.2433 76.8504 19.2433C77.1519 19.2433 77.4535 19.0088 77.4535 18.6402Z" fill="#657591"/>
<path fill-rule="evenodd" clip-rule="evenodd" d="M80.0334 19.779V19.1089H79.7989C79.5978 19.1089 79.5308 19.1759 79.3968 19.4105L79.1288 19.779H78.4922L78.7937 19.3435C78.8607 19.243 78.9277 19.1089 79.0283 19.0419C78.7267 18.9414 78.5257 18.6399 78.5257 18.3383C78.5257 17.9698 78.7602 17.5007 79.5308 17.5007H80.603V19.779H80.0334ZM79.4638 18.0703C79.2293 18.0703 79.0953 18.1708 79.0953 18.3383C79.0953 18.5059 79.1958 18.6399 79.4638 18.6399H80.0334V18.0703H79.4638Z" fill="#657591"/>
<path fill-rule="evenodd" clip-rule="evenodd" d="M49.7801 24.1349C49.6461 23.9339 49.579 23.8334 49.3445 23.8334H49.177V24.738H48.6074V22.4597H49.177V23.2973H49.311C49.512 23.2973 49.6126 23.2303 49.7466 22.9958L50.1151 22.4597H50.7517L50.2491 23.2303C50.1486 23.3643 50.0146 23.5319 49.9141 23.5654C50.0146 23.5989 50.1486 23.7329 50.2491 23.9004L50.7852 24.738H50.1486L49.7801 24.1349Z" fill="#657591"/>
<path fill-rule="evenodd" clip-rule="evenodd" d="M53.3307 23.5989C53.3307 24.2355 52.7946 24.7716 52.158 24.7716C51.5214 24.7716 50.9854 24.2355 50.9854 23.5989C50.9854 22.9623 51.5214 22.4263 52.158 22.4263C52.7946 22.4263 53.3307 22.9288 53.3307 23.5989ZM51.5549 23.5989C51.5549 23.9675 51.823 24.202 52.158 24.202C52.4595 24.202 52.7611 23.9675 52.7611 23.5989C52.7611 23.2304 52.4595 22.9958 52.158 22.9958C51.8565 22.9958 51.5549 23.2304 51.5549 23.5989Z" fill="#657591"/>
<path fill-rule="evenodd" clip-rule="evenodd" d="M55.7099 24.738V23.3978L55.0733 24.1349L54.4368 23.3978V24.738H53.8672V22.4597H54.2357L55.0733 23.4313L55.9109 22.4597H56.2795V24.738H55.7099Z" fill="#657591"/>
<path fill-rule="evenodd" clip-rule="evenodd" d="M58.5581 24.738V23.0293H57.553V24.738H56.9834V22.4597H59.1277V24.738H58.5581Z" fill="#657591"/>
<path fill-rule="evenodd" clip-rule="evenodd" d="M61.5738 24.7381L61.5403 24.4031C61.3728 24.6041 61.1047 24.7381 60.7697 24.7381C60.1331 24.7381 59.6641 24.2021 59.6641 23.5655C59.6641 22.9289 60.1331 22.3928 60.7697 22.3928C61.0712 22.3928 61.3728 22.5268 61.5403 22.7614L61.5738 22.4263H61.9759V24.7046H61.5738V24.7381ZM61.4398 23.599C61.4398 23.2304 61.1383 22.9959 60.8367 22.9959C60.5352 22.9959 60.2336 23.2304 60.2336 23.599C60.2336 23.9675 60.5017 24.2021 60.8367 24.2021C61.1383 24.2021 61.4398 23.9675 61.4398 23.599Z" fill="#657591"/>
<path fill-rule="evenodd" clip-rule="evenodd" d="M64.2192 24.738V23.8669H63.2141V24.738H62.6445V22.4597H63.2141V23.2973H64.2192V22.4597H64.7888V24.738H64.2192Z" fill="#657591"/>
<path fill-rule="evenodd" clip-rule="evenodd" d="M67.0344 24.738V23.3978L65.8617 24.738H65.4932V22.4597H66.0627V23.7999L67.2354 22.4597H67.6039V24.738H67.0344Z" fill="#657591"/>
<path fill-rule="evenodd" clip-rule="evenodd" d="M69.6476 24.738V24.0679H69.4131C69.2121 24.0679 69.1451 24.1349 69.0111 24.3695L68.743 24.738H68.1064L68.408 24.3025C68.475 24.2019 68.542 24.0679 68.6425 24.0009C68.341 23.9004 68.1399 23.5989 68.1399 23.2973C68.1399 22.9288 68.3745 22.4597 69.1451 22.4597H70.2172V24.738H69.6476ZM69.1116 23.0293C68.877 23.0293 68.743 23.1298 68.743 23.2973C68.743 23.4648 68.8435 23.5989 69.1116 23.5989H69.6811V23.0293H69.1116Z" fill="#657591"/>
<path fill-rule="evenodd" clip-rule="evenodd" d="M38.3215 9.59408C37.4169 7.31579 35.2057 5.67408 32.5923 5.67408C31.6542 5.67408 30.7496 5.87511 29.9455 6.27716V3.22827H26.4275V6.27716C25.6234 5.90861 24.7523 5.67408 23.7807 5.67408H6.45898V9.19203H12.1547V17.5011H15.6727V9.19203H18.3195C17.951 9.99613 17.7164 10.8672 17.7164 11.8389C17.7164 15.2228 20.4638 17.9702 23.8477 17.9702C24.7858 17.9702 25.6904 17.7691 26.4945 17.3671V24.738H30.0125V17.3671C30.8166 17.7356 31.6877 17.9702 32.6593 17.9702C35.2727 17.9702 37.4839 16.3284 38.3886 14.0502V17.5011H41.9065V9.19203H48.6409V5.67408H38.3215V9.59408ZM23.8477 14.4522C22.407 14.4522 21.2009 13.2796 21.2009 11.8054C21.2009 10.3647 22.3735 9.15853 23.8477 9.15853C25.2884 9.15853 26.4945 10.3312 26.4945 11.8054C26.461 13.2796 25.2884 14.4522 23.8477 14.4522ZM32.5923 14.4522C31.1516 14.4522 29.9455 13.2796 29.9455 11.8054C29.9455 10.3647 31.1181 9.15853 32.5923 9.15853C34.033 9.15853 35.2392 10.3312 35.2392 11.8054C35.2392 13.2796 34.0665 14.4522 32.5923 14.4522Z" fill="#657591"/>
</svg>
