<svg width="79" height="28" viewBox="0 0 79 28" fill="none" xmlns="http://www.w3.org/2000/svg">
<g clip-path="url(#clip0_7026_3158)">
<path d="M31.4211 20.6789L31.8203 21.55C31.8929 21.6952 31.9292 21.8404 31.9655 21.9492C32.0018 21.8404 32.0381 21.6952 32.1107 21.5137L32.4011 20.6426H32.8366L32.4011 21.8404C32.2559 22.167 32.1107 22.4937 31.9655 22.7115C31.8203 22.8929 31.6388 23.0018 31.4211 23.0018C31.3122 23.0018 31.2759 23.0018 31.2033 22.9655L31.2396 22.6389C31.2759 22.6389 31.3122 22.6389 31.3848 22.6389C31.5663 22.6389 31.7114 22.4937 31.7477 22.3485C31.7477 22.3122 31.7477 22.2759 31.7477 22.2396L30.9492 20.6789H31.4211Z" fill="#657591"/>
<path d="M34.5788 21.3315V22.9649H34.1795V21.6219H33.5625V22.9649H33.127V21.3315H34.5788Z" fill="#657591"/>
<path d="M35.2324 21.8762C35.2324 21.6584 35.2324 21.4769 35.2324 21.3317H35.5954L35.6317 21.5858C35.7406 21.4043 35.9583 21.2954 36.1761 21.2954C36.5391 21.2954 36.8658 21.6221 36.8658 22.1302C36.8658 22.711 36.5028 23.0013 36.1035 23.0013C35.8858 23.0013 35.7406 22.9287 35.6317 22.7836V23.6184H35.2324V21.8762ZM35.6317 22.2754C35.6317 22.3117 35.6317 22.348 35.6317 22.3843C35.668 22.5658 35.8132 22.6747 35.9946 22.6747C36.2487 22.6747 36.3939 22.4569 36.3939 22.1302C36.3939 21.8399 36.2487 21.6221 35.9946 21.6221C35.8132 21.6221 35.668 21.731 35.6317 21.9124C35.6317 21.9487 35.6317 21.985 35.6317 22.0213V22.2754Z" fill="#657591"/>
<path d="M38.6437 22.5658C38.6437 22.711 38.6437 22.8562 38.68 22.965H38.3171L38.2808 22.7836C38.1719 22.9287 38.0267 23.0013 37.8089 23.0013C37.4823 23.0013 37.3008 22.7473 37.3008 22.5295C37.3008 22.1302 37.6637 21.9124 38.2808 21.9124V21.8762C38.2808 21.7673 38.2445 21.5858 37.9541 21.5858C37.8089 21.5858 37.6274 21.6221 37.5186 21.6947L37.446 21.4406C37.5549 21.368 37.7726 21.2954 38.0267 21.2954C38.5349 21.2954 38.7163 21.6221 38.7163 21.985V22.5658H38.6437ZM38.2445 22.1665C37.9541 22.1665 37.6637 22.2391 37.6637 22.4569C37.6637 22.6021 37.7726 22.6747 37.8815 22.6747C38.063 22.6747 38.1719 22.5658 38.2082 22.4569C38.2082 22.4206 38.2082 22.3843 38.2082 22.348V22.1665H38.2445Z" fill="#657591"/>
<path d="M39.2979 21.3317C39.4067 21.2954 39.6608 21.2954 39.8786 21.2954C40.169 21.2954 40.6408 21.3317 40.6408 21.6947C40.6408 21.9124 40.4956 22.0213 40.3141 22.0576C40.5682 22.0939 40.7134 22.2391 40.7134 22.4569C40.7134 22.8924 40.1327 22.965 39.806 22.965C39.5882 22.965 39.3704 22.965 39.2979 22.9287V21.3317ZM39.6971 22.711C39.7697 22.711 39.806 22.711 39.8786 22.711C40.0601 22.711 40.2779 22.6747 40.2779 22.4569C40.2779 22.2754 40.0964 22.2028 39.8423 22.2028H39.6608V22.711H39.6971ZM39.6971 21.985H39.8786C40.0964 21.985 40.2779 21.9124 40.2779 21.7673C40.2779 21.6221 40.169 21.5495 39.9149 21.5495C39.8423 21.5495 39.7697 21.5495 39.7334 21.5495V21.985H39.6971Z" fill="#657591"/>
<path d="M42.6359 21.3315V22.9649H42.2004V21.6219H41.7648V21.9849C41.7648 22.4204 41.7285 22.7108 41.5107 22.856C41.4019 22.9286 41.293 23.0012 41.1115 23.0012L41.0752 22.6745C41.1478 22.6745 41.2204 22.6382 41.2567 22.6019C41.3656 22.493 41.4019 22.3115 41.4019 21.9849V21.3315H42.6359Z" fill="#657591"/>
<path d="M44.5965 22.9649H44.1973V22.3115H44.0521C43.9432 22.3115 43.8706 22.3478 43.798 22.4204C43.6891 22.493 43.6528 22.6745 43.6165 22.8197C43.5803 22.856 43.5802 22.8923 43.544 22.9649H43.1084C43.1447 22.9286 43.181 22.856 43.2173 22.7834C43.2899 22.6382 43.3262 22.4204 43.4714 22.3115C43.5077 22.2752 43.5803 22.2027 43.6528 22.2027C43.4714 22.1664 43.2173 22.0575 43.2173 21.8034C43.2173 21.6219 43.3262 21.513 43.4714 21.4404C43.6165 21.3678 43.8343 21.3315 44.0521 21.3315C44.2699 21.3315 44.4877 21.3315 44.6328 21.3678V22.9649H44.5965ZM44.1973 21.5493C44.1247 21.5493 44.0884 21.5493 43.9795 21.5493C43.798 21.5493 43.6165 21.6219 43.6165 21.8034C43.6165 21.9849 43.8343 22.0575 43.9795 22.0575C44.0884 22.0575 44.1247 22.0575 44.1973 22.0575V21.5493Z" fill="#657591"/>
<path d="M45.6499 21.3317V21.985H45.904C45.9766 21.5858 46.2669 21.2954 46.6662 21.2954C47.1018 21.2954 47.4284 21.6221 47.4284 22.1302C47.4284 22.6747 47.0655 23.0013 46.6662 23.0013C46.2669 23.0013 45.9766 22.7473 45.9403 22.2754H45.7225V22.965H45.3232V21.3317H45.6499ZM46.6299 22.6747C46.8477 22.6747 46.9929 22.4206 46.9929 22.1302C46.9929 21.8399 46.884 21.5858 46.6299 21.5858C46.3758 21.5858 46.2669 21.8762 46.2669 22.1302C46.2669 22.4206 46.3758 22.6747 46.6299 22.6747Z" fill="#657591"/>
<path d="M48.3358 21.3315V22.6382H48.8076V21.3315H49.2432V22.6382H49.715V21.3315H50.1143V22.6382H50.2958L50.2595 23.473H49.9328V22.9649H47.9365V21.3315H48.3358Z" fill="#657591"/>
<path d="M52.0734 22.5658C52.0734 22.711 52.0734 22.8562 52.1097 22.965H51.7468L51.7105 22.7836C51.6016 22.9287 51.4564 23.0013 51.2386 23.0013C50.912 23.0013 50.7305 22.7473 50.7305 22.5295C50.7305 22.1302 51.0934 21.9124 51.7105 21.9124V21.8762C51.7105 21.7673 51.6742 21.5858 51.3838 21.5858C51.2386 21.5858 51.0571 21.6221 50.9482 21.6947L50.8757 21.4406C50.9845 21.368 51.2023 21.2954 51.4564 21.2954C51.9645 21.2954 52.146 21.6221 52.146 21.985V22.5658H52.0734ZM51.6742 22.1665C51.3838 22.1665 51.0934 22.2391 51.0934 22.4569C51.0934 22.6021 51.2023 22.6747 51.3112 22.6747C51.4927 22.6747 51.6016 22.5658 51.6379 22.4569C51.6379 22.4206 51.6379 22.3843 51.6379 22.348V22.1665H51.6742Z" fill="#657591"/>
<path d="M54.0332 22.9649H53.634V22.3115H53.4525C53.3436 22.3115 53.271 22.3478 53.1984 22.4204C53.0895 22.493 53.0532 22.6745 53.0169 22.8197C52.9806 22.856 52.9806 22.8923 52.9443 22.9649H52.5088C52.5451 22.9286 52.5814 22.856 52.6177 22.7834C52.6903 22.6382 52.7266 22.4204 52.8718 22.3115C52.908 22.2752 52.9806 22.2027 53.0532 22.2027C52.8718 22.1664 52.6177 22.0575 52.6177 21.8034C52.6177 21.6219 52.7266 21.513 52.8718 21.4404C53.0169 21.3678 53.2347 21.3315 53.4525 21.3315C53.6703 21.3315 53.888 21.3315 54.0332 21.3678V22.9649ZM53.634 21.5493C53.5614 21.5493 53.5251 21.5493 53.4162 21.5493C53.2347 21.5493 53.0532 21.6219 53.0532 21.8034C53.0532 21.9849 53.271 22.0575 53.4162 22.0575C53.5251 22.0575 53.5614 22.0575 53.634 22.0575V21.5493Z" fill="#657591"/>
<path d="M55.993 21.3317V21.985H56.0656L56.5738 21.2954H57.0819L56.4286 22.0213C56.6463 22.0576 56.7915 22.2391 56.9004 22.4932C56.9367 22.6021 57.0093 22.7836 57.0819 22.9287H56.6463C56.61 22.8562 56.5738 22.7473 56.5012 22.5658C56.4286 22.348 56.2834 22.2391 56.0656 22.2391H55.993V22.9287H55.5938V21.2954H55.993V21.3317Z" fill="#657591"/>
<path d="M58.1708 23.0013C57.6989 23.0013 57.3359 22.6747 57.3359 22.1665C57.3359 21.6221 57.6989 21.2954 58.1708 21.2954C58.6426 21.2954 58.9693 21.6221 58.9693 22.1302C59.0056 22.711 58.57 23.0013 58.1708 23.0013ZM58.1708 22.6747C58.3885 22.6747 58.57 22.4569 58.57 22.1302C58.57 21.8762 58.4611 21.5858 58.1708 21.5858C57.8804 21.5858 57.7715 21.8762 57.7715 22.1302C57.7715 22.4569 57.9167 22.6747 58.1708 22.6747Z" fill="#657591"/>
<path d="M59.5866 21.3317H60.0947L60.3125 22.0213C60.3488 22.1302 60.3851 22.3117 60.4577 22.4569C60.494 22.348 60.5666 22.1302 60.6029 21.9487L60.8207 21.2954H61.3288L61.4377 22.9287H61.0747L61.0384 22.2028C61.0384 22.0576 61.0021 21.8036 61.0021 21.6221C60.9659 21.8036 60.9296 21.9124 60.8207 22.1665L60.5666 22.8924H60.2762L60.0221 22.1665C59.9859 22.0213 59.9133 21.7673 59.877 21.6221C59.877 21.8036 59.877 22.0576 59.8407 22.2028L59.8044 22.8924H59.4414L59.5866 21.3317Z" fill="#657591"/>
<path d="M63.4702 21.3315V22.9649H63.071V21.6219H62.4539V22.9649H62.0547V21.3315H63.4702Z" fill="#657591"/>
<path d="M65.3937 22.5658C65.3937 22.711 65.3937 22.8562 65.43 22.965H65.0671L65.0308 22.7836C64.9219 22.9287 64.7767 23.0013 64.5589 23.0013C64.2323 23.0013 64.0508 22.7473 64.0508 22.5295C64.0508 22.1302 64.4137 21.9124 65.0308 21.9124V21.8762C65.0308 21.7673 64.9945 21.5858 64.7041 21.5858C64.5589 21.5858 64.3775 21.6221 64.2686 21.6947L64.196 21.4406C64.3049 21.368 64.5226 21.2954 64.7767 21.2954C65.2849 21.2954 65.4663 21.6221 65.4663 21.985V22.5658H65.3937ZM64.9945 22.1665C64.7041 22.1665 64.4137 22.2391 64.4137 22.4569C64.4137 22.6021 64.5226 22.6747 64.6315 22.6747C64.813 22.6747 64.9219 22.5658 64.9582 22.4569C64.9582 22.4206 64.9582 22.3843 64.9582 22.348V22.1665H64.9945Z" fill="#657591"/>
<path d="M66.4473 21.3315V21.9486H67.0643V21.3315H67.4999V22.9649H67.0643V22.2752H66.4473V22.9649H66.0117V21.3315H66.4473Z" fill="#657591"/>
<path d="M68.5155 21.3317V21.9124C68.5155 22.1665 68.5155 22.348 68.4792 22.5658C68.5518 22.3843 68.6244 22.2391 68.697 22.0939L69.0962 21.3317H69.6044V22.965H69.2051V22.348C69.2051 22.0939 69.2051 21.9487 69.2414 21.6584C69.1688 21.8399 69.0962 21.985 69.0236 22.1302C68.9147 22.3843 68.7333 22.6747 68.6244 22.9287H68.1162V21.2954H68.5155V21.3317Z" fill="#657591"/>
<path d="M71.6005 22.9649H71.2012V22.3115H71.056C70.9471 22.3115 70.8745 22.3478 70.8019 22.4204C70.693 22.493 70.6568 22.6745 70.6205 22.8197C70.5842 22.856 70.5842 22.8923 70.5479 22.9649H70.1123C70.1486 22.9286 70.1849 22.856 70.2212 22.7834C70.2938 22.6382 70.3301 22.4204 70.4753 22.3115C70.5116 22.2752 70.5842 22.2027 70.6567 22.2027C70.4753 22.1664 70.2212 22.0575 70.2212 21.8034C70.2212 21.6219 70.3301 21.513 70.4753 21.4404C70.6205 21.3678 70.8382 21.3315 71.056 21.3315C71.2738 21.3315 71.4916 21.3315 71.6368 21.3678V22.9649H71.6005ZM71.2012 21.5493C71.1286 21.5493 71.0923 21.5493 70.9834 21.5493C70.8019 21.5493 70.6205 21.6219 70.6205 21.8034C70.6205 21.9849 70.8382 22.0575 70.9834 22.0575C71.0923 22.0575 71.1286 22.0575 71.2012 22.0575V21.5493Z" fill="#657591"/>
<path d="M13.9264 14C13.9264 10.0074 15.5235 6.34145 18.1005 3.69182L17.5197 3.11108L6.63086 14L17.5197 24.8889L18.0642 24.3444C15.5235 21.6585 13.9264 17.9926 13.9264 14Z" fill="#657591"/>
<path d="M26.6296 9.93506H25.6134L22.1289 18.0654H23.5445L26.1215 11.7862L28.7711 18.0654H30.2956L26.6296 9.93506Z" fill="#657591"/>
<path d="M45.1402 9.93506H44.0876L41.1113 16.8677H40.458V18.0291H48.915V16.8677H48.2617L45.1402 9.93506ZM46.7736 16.8677H42.5269L44.5958 11.7499L46.7736 16.8677Z" fill="#657591"/>
<path d="M38.7163 9.93506H37.5548L33.3807 15.8151V9.93506H32.1104V18.0654H33.3807L37.4459 12.1854V18.0654H38.7163V9.93506Z" fill="#657591"/>
<path d="M55.2304 11.0965V9.93506H51.9637H50.6934V18.0654H55.2304V16.8677H51.9637V14.5084H55.2304V13.3106H51.9637V11.0965H55.2304Z" fill="#657591"/>
<path d="M63.2166 13.0564C63.2166 12.9475 63.2166 12.8386 63.2166 12.766C63.2166 12.6208 63.2166 12.4756 63.1803 12.2942C63.1077 11.7134 62.8173 11.2053 62.3818 10.7697C61.9462 10.3342 61.4744 10.0801 60.9299 10.0075C60.8936 10.0075 60.8936 10.0075 60.8573 10.0075H60.821C60.7121 10.0075 60.6032 9.97119 60.4944 9.97119H57.627V18.1016H58.8973V15.5608H60.4218C60.4581 15.5608 60.5307 15.5608 60.567 15.5608C60.6395 15.5608 60.6758 15.5608 60.7484 15.5608C60.821 15.5608 60.8573 15.5608 60.9299 15.5245C61.5107 15.4156 61.9825 15.1616 62.4181 14.7623C62.8899 14.2542 63.144 13.6734 63.2166 13.0564ZM60.8936 11.2053C61.1114 11.2779 61.3292 11.423 61.5107 11.6045C61.6558 11.7497 61.801 11.9312 61.8736 12.1127C61.9462 12.2942 61.9825 12.5119 61.9825 12.7297C61.9825 12.8386 61.9825 12.9475 61.9462 13.0201C61.8736 13.3467 61.7284 13.6371 61.5107 13.8549C61.3292 14.0364 61.1114 14.1816 60.8573 14.2542C60.7484 14.2905 60.6395 14.3267 60.5307 14.3267C60.4944 14.3267 60.4581 14.3267 60.4218 14.3267H60.3855H60.3492H58.9336V11.0964H60.3855C60.4218 11.0964 60.4581 11.0964 60.4944 11.0964C60.5307 11.0964 60.567 11.0964 60.567 11.0964C60.6758 11.1327 60.7847 11.169 60.8936 11.2053Z" fill="#657591"/>
</g>
<defs>
<clipPath id="clip0_7026_3158">
<rect width="64.9704" height="21.7778" fill="white" transform="translate(6.63086 3.11108)"/>
</clipPath>
</defs>
</svg>
