<svg width="119" height="28" viewBox="0 0 119 28" fill="none" xmlns="http://www.w3.org/2000/svg">
<g clip-path="url(#clip0_7026_3072)">
<path fill-rule="evenodd" clip-rule="evenodd" d="M77.0568 12.1938L80.4812 5.48096H80.5413L84.3279 12.1938H88.2198L83.1971 3.5199H79.9081L75.3672 12.1938H77.0568Z" fill="#657591"/>
<path fill-rule="evenodd" clip-rule="evenodd" d="M23.2182 8.40811L28.5888 8.34808C28.5283 9.55489 27.8346 10.2337 27.4723 10.52C26.5826 11.1988 25.3152 11.2594 24.7118 11.2594C23.8216 11.2594 23.0525 11.1378 22.2679 10.6857C21.7697 10.3989 21.1966 9.91608 20.9103 9.50921L20.6686 9.16236L18.9189 10.1275C19.4321 10.7011 20.2315 11.2737 21.076 11.6806C22.3731 12.3 23.565 12.4508 25.0135 12.4508C26.5518 12.4508 28.9511 12.2389 30.6853 10.9869C31.8921 10.1121 32.4504 8.92068 32.4504 7.86472C32.4504 6.80877 31.8921 5.60196 30.6853 4.742C29.1917 3.6563 27.0049 3.27917 25.0587 3.27917C23.7913 3.27917 22.6297 3.39975 21.4531 3.82203C20.4726 4.154 19.7035 4.60656 18.9189 5.26998L20.6686 6.22077L21.0909 5.78309C21.4377 5.40596 22.0263 5.05911 22.5542 4.84771C23.2633 4.546 24.0027 4.45571 24.7719 4.45571C26.326 4.45571 27.2157 4.93854 27.7134 5.40596C28.0454 5.70819 28.4831 6.28132 28.5883 7.15615L23.2182 7.08072V8.40811Z" fill="#657591"/>
<path fill-rule="evenodd" clip-rule="evenodd" d="M94.691 4.3346C95.5659 4.3346 96.5613 4.51573 97.3315 5.46598C97.9497 6.22024 98.0549 7.0956 98.0549 7.86473C98.0549 8.63438 97.9497 9.49381 97.3315 10.2629C96.5613 11.2137 95.5664 11.3943 94.691 11.3943C93.8157 11.3943 92.8208 11.2137 92.0511 10.2629C91.4323 9.49381 91.3272 8.63438 91.3272 7.86473C91.3272 7.0956 91.4323 6.22024 92.0511 5.46598C92.8203 4.51573 93.8157 4.3346 94.691 4.3346ZM94.691 12.4508C96.3207 12.4508 98.5978 12.0886 100.122 10.9869C101.328 10.1275 101.903 8.90581 101.903 7.86473C101.903 6.82417 101.329 5.60196 100.122 4.742C98.5983 3.6409 96.3212 3.27917 94.691 3.27917C93.0774 3.27917 90.7843 3.6409 89.2455 4.742C88.0393 5.60196 87.4805 6.82417 87.4805 7.86473C87.4805 8.90581 88.0393 10.1275 89.2455 10.9869C90.7838 12.0886 93.0774 12.4508 94.691 12.4508Z" fill="#657591"/>
<path fill-rule="evenodd" clip-rule="evenodd" d="M64.7774 5.70803C65.1094 5.60233 65.5014 5.54178 65.8945 5.54178H66.3019V10.0519H65.8945C65.502 10.0519 65.1094 9.99188 64.7774 9.88618C64.4763 9.79535 64.2038 9.67478 63.9929 9.49418C63.586 9.17707 63.2535 8.6491 63.2535 7.78914C63.2535 6.94459 63.586 6.41714 63.9929 6.10003C64.2038 5.91891 64.4763 5.79833 64.7774 5.70803ZM71.0829 11.1535C73.0291 11.033 74.0548 10.5804 74.5976 10.2484C75.6244 9.63016 76.0918 8.75533 76.0918 7.78967C76.0918 6.52284 75.2616 5.76859 74.5976 5.34631C73.6776 4.75831 72.38 4.5161 71.0829 4.44067C70.7366 4.41093 70.3887 4.41093 70.0418 4.41093H69.6652V3.21899H66.1803V4.41093H65.8175C65.4711 4.41093 65.1238 4.41093 64.7769 4.44067C63.4644 4.5161 62.1678 4.75778 61.2622 5.34631C60.5988 5.76859 59.7686 6.52284 59.7686 7.78967C59.7686 8.75533 60.236 9.63016 61.2622 10.2484C61.7896 10.5804 62.8159 11.0335 64.7769 11.1535C65.094 11.1689 65.4409 11.1833 65.8175 11.1833H66.1803V12.4512H69.6652V11.1833H70.0418C70.4195 11.1833 70.7669 11.1689 71.0829 11.1535ZM71.0829 5.70803C71.3846 5.79833 71.6566 5.91891 71.8685 6.10003C72.2754 6.41714 72.6068 6.94459 72.6068 7.78914C72.6068 8.6491 72.2754 9.17707 71.8685 9.49418C71.6571 9.67478 71.3851 9.79535 71.0829 9.88618C70.7366 9.99188 70.3589 10.0519 69.951 10.0519H69.559V5.54178H69.951C70.3589 5.54178 70.7366 5.6018 71.0829 5.70803Z" fill="#657591"/>
<path fill-rule="evenodd" clip-rule="evenodd" d="M52.0895 4.3346C52.95 4.3346 53.9597 4.51573 54.7294 5.46598C55.3482 6.22024 55.4533 7.0956 55.4533 7.86473C55.4533 8.63438 55.3476 9.49381 54.7294 10.2629C53.9597 11.2137 52.9494 11.3943 52.0895 11.3943C51.2146 11.3943 50.2038 11.2137 49.4347 10.2629C48.8159 9.49381 48.7261 8.63438 48.7261 7.86473C48.7261 7.0956 48.8164 6.22024 49.4347 5.46598C50.2038 4.51573 51.2146 4.3346 52.0895 4.3346ZM52.0895 12.4508C53.7037 12.4508 55.9967 12.0886 57.5201 10.9869C58.712 10.1275 59.2698 8.90581 59.2698 7.86473C59.2698 6.82417 58.7115 5.60196 57.5201 4.742C55.9967 3.6409 53.7032 3.27917 52.0895 3.27917C50.4604 3.27917 48.1673 3.6409 46.644 4.742C45.4372 5.60196 44.8789 6.82417 44.8789 7.86473C44.8789 8.90581 45.4372 10.1275 46.644 10.9869C48.1673 12.0886 50.4604 12.4508 52.0895 12.4508Z" fill="#657591"/>
<path fill-rule="evenodd" clip-rule="evenodd" d="M38.9375 9.01108H39.5866C41.2608 9.01108 42.4224 8.82996 43.2521 8.34713C44.2927 7.72832 44.5344 6.88377 44.5344 6.22034C44.5344 5.57126 44.2927 4.7267 43.2521 4.13871C42.4224 3.67075 41.3059 3.5199 39.4357 3.5199H38.9375H33.4766V12.1938H36.9615V9.01108H38.9375ZM38.9375 4.84728C39.3598 4.86268 39.9031 4.93811 40.2951 5.17926C40.8231 5.51071 40.9139 5.96379 40.9139 6.23521C40.9139 6.50664 40.838 6.98947 40.2654 7.33632C39.8729 7.59287 39.3906 7.6683 38.9375 7.69857C38.8169 7.69857 38.6963 7.69857 38.5752 7.69857H36.961V4.83294H38.5752C38.6809 4.83294 38.8015 4.83294 38.9375 4.84728Z" fill="#657591"/>
<path fill-rule="evenodd" clip-rule="evenodd" d="M11.9646 5.55692L13.6994 8.51285H10.2293L11.8738 5.49636H11.9189L11.9646 5.55692ZM14.4085 9.68991L15.9021 12.1938H19.794L14.5142 3.5199H11.2852L6.48828 12.1938H8.22307L9.5956 9.68991H14.4085Z" fill="#657591"/>
<path fill-rule="evenodd" clip-rule="evenodd" d="M101.208 4.83294H104.949V12.1938H108.434V4.83294H112.19V3.5199H101.208V4.83294Z" fill="#657591"/>
<path fill-rule="evenodd" clip-rule="evenodd" d="M108.615 18.0927H108.041L105.748 20.3108L106.517 18.0927H105.93L104.903 21.1097H105.492L107.77 18.8772L107.015 21.1097H107.603L108.615 18.0927Z" fill="#657591"/>
<path fill-rule="evenodd" clip-rule="evenodd" d="M105.055 18.0927H104.482L104.075 19.2702H102.641L103.049 18.0927H102.461L101.435 21.1097H102.023L102.491 19.7069H103.924L103.441 21.1097H104.045L105.055 18.0927Z" fill="#657591"/>
<path fill-rule="evenodd" clip-rule="evenodd" d="M101.587 18.0927H101.014L98.7205 20.3108L99.4748 18.0927H98.9011L97.876 21.1097H98.4486L100.742 18.8772L99.9874 21.1097H100.561L101.587 18.0927Z" fill="#657591"/>
<path fill-rule="evenodd" clip-rule="evenodd" d="M96.2304 18.0916L95.8836 18.9527C95.7327 19.3595 95.6722 19.495 95.5208 19.8116C95.3248 20.2349 95.1288 20.6418 94.6167 20.7618L94.5254 21.1538C94.8271 21.1395 95.0534 21.0178 95.2048 20.9286C95.7922 20.5509 95.9888 19.9013 96.4264 18.8454L96.5768 18.4842H97.3007L96.4264 21.1076H96.999L98.0252 18.0906H96.2304V18.0916Z" fill="#657591"/>
<path fill-rule="evenodd" clip-rule="evenodd" d="M83.3766 19.722C83.452 19.7066 83.5578 19.7066 83.6778 19.7066H84.1006L83.8897 20.3403C83.7989 20.4609 83.7086 20.5363 83.5875 20.6112C83.5131 20.6569 83.4377 20.6871 83.3772 20.7015C83.2715 20.7472 83.1663 20.7626 83.0601 20.7626C82.9389 20.7626 82.7886 20.7472 82.6978 20.6266C82.6218 20.5209 82.6218 20.4003 82.6675 20.2489C82.7132 20.1294 82.7886 20.0094 82.9543 19.8867C83.0441 19.8272 83.1652 19.7523 83.3766 19.722ZM83.6937 21.1094H84.2063L84.8703 19.1489C84.976 18.8472 85.0965 18.546 84.9303 18.2889C84.7948 18.0929 84.4629 18.017 84.1909 18.017C83.8446 18.017 83.587 18.0626 83.3766 18.1386C82.9389 18.3049 82.7429 18.5922 82.7275 18.8472L83.2401 18.8775C83.2709 18.7728 83.3161 18.6969 83.3766 18.6358C83.5131 18.4706 83.7394 18.4254 84.0252 18.4254C84.1463 18.4254 84.2966 18.4408 84.3577 18.5471C84.4485 18.6517 84.4028 18.8031 84.3577 18.9391L84.2366 19.33H83.7989C83.648 19.33 83.5131 19.33 83.3766 19.3454C82.7886 19.4203 82.2909 19.662 82.0795 20.2813C81.9133 20.7482 82.0795 21.1556 82.7429 21.1556C82.9389 21.1556 83.1504 21.1413 83.3612 21.035H83.3766C83.587 20.9304 83.7532 20.779 83.7989 20.7333H83.8138L83.6937 21.1094Z" fill="#657591"/>
<path fill-rule="evenodd" clip-rule="evenodd" d="M93.3195 19.722C93.4098 19.7066 93.5006 19.7066 93.6212 19.7066H94.0589L93.8321 20.3403C93.7407 20.4609 93.651 20.5363 93.5304 20.6112C93.455 20.6569 93.3795 20.6871 93.3195 20.7015C93.2138 20.7472 93.1241 20.7626 93.0178 20.7626C92.8818 20.7626 92.7321 20.7472 92.6556 20.6266C92.5653 20.5209 92.5653 20.4003 92.6104 20.2489C92.6556 20.1294 92.7321 20.0094 92.8973 19.8867C92.9875 19.8272 93.1081 19.7523 93.3195 19.722ZM93.6356 21.1094H94.1641L94.8275 19.1489C94.9178 18.8472 95.0384 18.546 94.8732 18.2889C94.7367 18.0929 94.4052 18.017 94.1333 18.017C93.8013 18.017 93.5299 18.0626 93.319 18.1386C92.8813 18.3049 92.7002 18.5922 92.6699 18.8472L93.183 18.8775C93.2133 18.7728 93.2584 18.6969 93.319 18.6358C93.4693 18.4706 93.6807 18.4254 93.9681 18.4254C94.0881 18.4254 94.2395 18.4408 94.3144 18.5471C94.3898 18.6517 94.3601 18.8031 94.3144 18.9391L94.1779 19.33H93.7407C93.5904 19.33 93.455 19.33 93.319 19.3454C92.7315 19.4203 92.2322 19.662 92.0219 20.2813C91.8556 20.7482 92.0219 21.1556 92.6858 21.1556C92.8813 21.1556 93.0927 21.1413 93.319 21.035C93.5299 20.9304 93.6961 20.779 93.7407 20.7333H93.7715L93.6356 21.1094Z" fill="#657591"/>
<path fill-rule="evenodd" clip-rule="evenodd" d="M92.022 18.0927H91.4335L89.1558 20.3108L89.9106 18.0927H89.3221L88.2959 21.1097H88.8844L91.1621 18.8772L90.4078 21.1097H90.9963L92.022 18.0927Z" fill="#657591"/>
<path fill-rule="evenodd" clip-rule="evenodd" d="M86.9668 19.7674C87.072 19.7674 87.1628 19.812 87.2229 19.8577C87.2988 19.948 87.2988 20.0994 87.2383 20.2354C87.1777 20.4006 87.072 20.5206 86.9822 20.5817C86.9822 20.5817 86.9668 20.5817 86.9668 20.5971C86.8463 20.672 86.68 20.7007 86.5143 20.7007H85.8052L86.1228 19.7515H86.8611C86.9063 19.752 86.9371 19.752 86.9668 19.7674ZM86.9668 18.4852H87.2685C87.3742 18.4852 87.5097 18.4852 87.6005 18.5755C87.6908 18.6812 87.6759 18.7858 87.6462 18.9075C87.6005 19.028 87.5405 19.1481 87.404 19.2384C87.2542 19.3441 87.1177 19.3441 86.9668 19.3441H86.2577L86.5589 18.4852H86.9668ZM86.9668 21.0656C87.1628 21.0045 87.344 20.8988 87.4799 20.8085C87.6462 20.6725 87.8119 20.4755 87.9022 20.2359C87.9628 20.0532 87.9782 19.8875 87.8868 19.7377C87.8273 19.6309 87.7062 19.5417 87.541 19.5103L87.5559 19.496C87.7519 19.4503 87.9181 19.3446 88.0233 19.2389C88.1285 19.1343 88.2193 18.968 88.2793 18.8166C88.3702 18.5457 88.3245 18.3944 88.2193 18.2732C88.069 18.1081 87.8273 18.0927 87.6313 18.0927H86.9674H86.1079L85.0674 21.1097H86.56C86.6954 21.1091 86.8319 21.0943 86.9668 21.0656Z" fill="#657591"/>
<path fill-rule="evenodd" clip-rule="evenodd" d="M76.9361 18.4695C77.0264 18.4392 77.1167 18.4238 77.1916 18.4238C77.7796 18.4238 77.6447 18.922 77.539 19.1935L77.4938 19.3284H76.9356H76.2562L76.3019 19.1935C76.4527 18.7404 76.7093 18.5454 76.9361 18.4695ZM76.9361 19.7214H77.9464C78.3984 18.6341 78.3384 18.0159 77.3281 18.0159C77.207 18.0159 77.071 18.0313 76.9361 18.0615C76.3476 18.1975 75.8191 18.6809 75.5025 19.6455C75.0659 20.9288 75.5779 21.154 76.2721 21.154C76.5276 21.154 76.7544 21.1237 76.9361 21.0648C77.4184 20.898 77.6898 20.566 77.735 20.2345L77.2373 20.1575C77.207 20.2478 77.1321 20.4449 76.9361 20.5809C76.815 20.6712 76.6487 20.7461 76.4076 20.7461C76.2265 20.7461 75.7744 20.7004 76.0305 20.0083L76.1213 19.7209H76.9361V19.7214Z" fill="#657591"/>
<path fill-rule="evenodd" clip-rule="evenodd" d="M75.2771 18.0927H74.704L72.411 20.3108L73.1647 18.0927H72.5921L71.5664 21.1097H72.1544L74.432 18.8772L73.6778 21.1097H74.2663L75.2771 18.0927Z" fill="#657591"/>
<path fill-rule="evenodd" clip-rule="evenodd" d="M69.3934 18.092L68.3672 21.109H68.9552L69.4226 19.7519H69.9814C70.0866 19.7519 70.222 19.7519 70.2826 19.8576C70.3128 19.9022 70.3421 19.9936 70.2974 20.1439L70.2215 20.5518C70.1769 20.7468 70.1461 20.9587 70.3877 21.0787C70.5088 21.1244 70.6894 21.1547 70.7957 21.1547L71.0374 20.717C70.9917 20.717 70.9465 20.717 70.9008 20.7016C70.7797 20.657 70.7957 20.5364 70.8105 20.4467L70.8408 20.2363C70.8557 20.1003 70.9168 19.9033 70.8557 19.753C70.8254 19.6473 70.7048 19.5713 70.5837 19.5426V19.5272C70.7351 19.4969 70.8403 19.4204 70.9306 19.3301C71.0368 19.2106 71.0814 19.1352 71.142 19.0136L71.2477 18.8032C71.2923 18.6975 71.3677 18.5313 71.5191 18.4713C71.5489 18.4558 71.5951 18.441 71.73 18.4256L71.79 18.0336C71.5637 18.0638 71.3375 18.0638 71.1266 18.2152C70.9455 18.3512 70.87 18.5318 70.7946 18.6832L70.7038 18.8484C70.6284 19.0008 70.5827 19.1203 70.4324 19.2117C70.3272 19.302 70.2061 19.302 70.1009 19.302H69.5724L69.9803 18.0947H69.3934V18.092Z" fill="#657591"/>
<path fill-rule="evenodd" clip-rule="evenodd" d="M67.6291 20.506C67.524 20.566 67.3875 20.6106 67.2515 20.6563C67.0852 20.7009 66.9652 20.7163 66.8143 20.7163C66.6183 20.7163 66.4069 20.7009 66.2715 20.5203C66.1052 20.31 66.2109 19.978 66.3474 19.6003C66.4526 19.2381 66.5737 18.9072 66.7851 18.6958C66.9052 18.5752 67.0858 18.4238 67.4034 18.4238C67.6143 18.4238 67.7348 18.4849 67.7954 18.5906C67.8703 18.7112 67.8257 18.8455 67.7348 19.0431L68.2931 18.9985C68.5034 18.6655 68.4742 18.3335 68.2325 18.1683C68.0817 18.0615 67.8559 18.0159 67.6148 18.0159C67.3131 18.0159 66.9503 18.0918 66.6491 18.2719C66.0909 18.6039 65.8189 19.2089 65.6984 19.5855C65.5932 19.902 65.4429 20.49 65.744 20.8534C65.94 21.1083 66.2571 21.154 66.604 21.154C66.8303 21.154 67.0263 21.1397 67.2828 21.0648C67.4183 21.0037 67.5686 20.9426 67.7205 20.8677L67.6291 20.506Z" fill="#657591"/>
<path fill-rule="evenodd" clip-rule="evenodd" d="M65.0026 16.7793C64.9723 16.8553 64.9271 16.9307 64.8522 16.9907C64.7471 17.081 64.5803 17.1277 64.4751 17.1277C64.3689 17.1277 64.2186 17.081 64.1883 16.9907C64.1426 16.9307 64.1575 16.8547 64.1883 16.7793H63.766C63.6598 17.0056 63.6752 17.2319 63.8106 17.354C63.9466 17.4889 64.1883 17.5033 64.3391 17.5033C64.5208 17.5033 64.7471 17.4889 64.9877 17.354C65.214 17.2319 65.3653 17.0056 65.4248 16.7793H65.0026Z" fill="#657591"/>
<path fill-rule="evenodd" clip-rule="evenodd" d="M65.4579 18.0927H64.8837L62.5912 20.3108L63.3449 18.0927H62.7718L61.7461 21.1097H62.3341L64.6123 18.8772L63.8585 21.1097H64.4465L65.4579 18.0927Z" fill="#657591"/>
<path fill-rule="evenodd" clip-rule="evenodd" d="M61.8963 18.0927H61.3231L59.0306 20.3108L59.7854 18.0927H59.2112L58.1855 21.1097H58.7592L61.0374 18.8772L60.2826 21.1097H60.8711L61.8963 18.0927Z" fill="#657591"/>
<path fill-rule="evenodd" clip-rule="evenodd" d="M57.5519 20.506C57.4165 20.566 57.3103 20.6106 57.1599 20.6563C56.9937 20.7009 56.8731 20.7163 56.7069 20.7163C56.5263 20.7163 56.3 20.7009 56.1789 20.5203C56.0286 20.31 56.1189 19.978 56.2548 19.6003C56.3754 19.2381 56.4965 18.9072 56.7074 18.6958C56.8131 18.5752 57.0091 18.4238 57.3108 18.4238C57.5217 18.4238 57.6428 18.4849 57.7182 18.5906C57.7782 18.7112 57.7336 18.8455 57.6582 19.0431L58.201 18.9985C58.4119 18.6655 58.397 18.3335 58.1559 18.1683C58.005 18.0615 57.7639 18.0159 57.5222 18.0159C57.2205 18.0159 56.8582 18.0918 56.5571 18.2719C55.9988 18.6039 55.7423 19.2089 55.6063 19.5855C55.5006 19.902 55.3497 20.49 55.6514 20.8534C55.848 21.1083 56.1794 21.154 56.5114 21.154C56.7377 21.154 56.9491 21.1397 57.1902 21.0648C57.3108 21.0037 57.477 20.9426 57.6125 20.8677L57.5519 20.506Z" fill="#657591"/>
<path fill-rule="evenodd" clip-rule="evenodd" d="M54.5813 20.506C54.4458 20.566 54.3253 20.6106 54.1893 20.6563C54.023 20.7009 53.9025 20.7163 53.7367 20.7163C53.5556 20.7163 53.3293 20.7009 53.2088 20.5203C53.0425 20.31 53.1482 19.978 53.2842 19.6003C53.3894 19.2381 53.5105 18.9072 53.7367 18.6958C53.8424 18.5752 54.0236 18.4238 54.3401 18.4238C54.5361 18.4238 54.6716 18.4849 54.7321 18.5906C54.7927 18.7112 54.7624 18.8455 54.6716 19.0431L55.2304 18.9985C55.4412 18.6655 55.411 18.3335 55.1852 18.1683C55.0338 18.0615 54.7927 18.0159 54.5515 18.0159C54.2498 18.0159 53.8876 18.0918 53.5859 18.2719C53.0276 18.6039 52.7711 19.2089 52.6351 19.5855C52.5299 19.902 52.3791 20.49 52.6808 20.8534C52.8768 21.1083 53.2088 21.154 53.5407 21.154C53.767 21.154 53.9779 21.1397 54.2196 21.0648C54.3407 21.0037 54.5064 20.9426 54.6418 20.8677L54.5813 20.506Z" fill="#657591"/>
<path fill-rule="evenodd" clip-rule="evenodd" d="M50.673 18.5147C50.7782 18.4701 50.9142 18.4244 51.0804 18.4244C51.3216 18.4244 51.4422 18.5301 51.4878 18.6204C51.6084 18.8466 51.5027 19.1797 51.4576 19.3289L51.2616 19.858C51.2164 20.0094 51.0953 20.3403 50.8393 20.5522C50.7941 20.5979 50.749 20.6271 50.6736 20.6728C50.5679 20.7174 50.4468 20.7631 50.2816 20.7631C50.0245 20.7631 49.9044 20.6574 49.8593 20.5528C49.7536 20.3413 49.8593 20.0104 49.9044 19.8585L50.085 19.3295C50.1456 19.1802 50.2662 18.8472 50.5227 18.6209C50.5668 18.5917 50.6125 18.546 50.673 18.5147ZM51.2159 18.017C51.0199 18.017 50.8388 18.0472 50.673 18.0929C50.4616 18.1699 50.281 18.2735 50.1148 18.4106C49.6925 18.7415 49.4816 19.2105 49.3605 19.6014C49.2245 19.9648 49.104 20.4316 49.3005 20.779C49.4359 21.0053 49.6925 21.1556 50.1451 21.1556C50.3411 21.1556 50.5222 21.1413 50.673 21.0797C50.8993 21.0196 51.0804 20.9145 51.2462 20.779C51.6684 20.4316 51.8798 19.9648 52.0153 19.6014C52.1364 19.2105 52.2416 18.7415 52.0456 18.4106C51.925 18.1827 51.6684 18.017 51.2159 18.017Z" fill="#657591"/>
<path fill-rule="evenodd" clip-rule="evenodd" d="M48.2593 17.2474H48.6364C48.833 17.2474 49.0587 17.3085 49.149 17.4291C49.2096 17.4891 49.3153 17.6394 49.2096 17.9416C49.1039 18.2593 48.9079 18.4399 48.8176 18.4999C48.6216 18.6502 48.425 18.7113 48.2593 18.7113C48.2147 18.7267 48.169 18.7267 48.1239 18.7267H47.2639L47.7616 17.2474H48.2593ZM48.2593 19.2095C48.5307 19.1941 48.9381 19.1028 49.3004 18.8165C49.5867 18.6205 49.8284 18.2885 49.949 17.9422C50.0239 17.7005 50.0844 17.3096 49.8135 17.0365C49.5421 16.7805 49.1496 16.7502 48.7873 16.7502H48.2593H47.2937L45.8154 21.1095H46.4645L47.0977 19.2244H48.033C48.0936 19.2239 48.169 19.2239 48.2593 19.2095Z" fill="#657591"/>
<path fill-rule="evenodd" clip-rule="evenodd" d="M112.19 18.0927H111.602L109.324 20.3108L110.078 18.0927H109.49L108.464 21.1097H109.052L111.33 18.8772L110.576 21.1097H111.164L112.19 18.0927Z" fill="#657591"/>
<path fill-rule="evenodd" clip-rule="evenodd" d="M12.2658 22.5716L11.0138 22.0288L16.2033 21.3962C16.2936 21.5465 16.3844 21.6825 16.4901 21.8185L12.2658 22.5716ZM26.1892 22.5716L27.4412 21.999L22.2819 21.3808C22.2368 21.547 22.1008 21.6825 22.0105 21.8185L26.1892 22.5716ZM25.4355 22.663L23.8664 23.191L21.6339 22.5127L21.4374 22.4527C21.5128 22.3916 21.5734 22.331 21.6339 22.2567C21.7242 22.1807 21.7997 22.075 21.8905 21.9996L25.4355 22.663ZM29.5839 21.2002L28.1508 21.8641L22.4185 21.2002C22.4636 21.0653 22.5093 20.9293 22.5544 20.7922L29.5839 21.2002ZM30.0965 21.0042L31.9667 19.8122H21.8299C21.8299 20.2356 21.7694 20.5978 21.6339 20.9139C21.2414 21.9242 20.2614 22.407 19.2803 22.391C18.3152 22.3608 17.3347 21.8641 16.897 20.9426C16.7461 20.6106 16.6558 20.2483 16.6558 19.8117H6.48828L8.34417 21.0036L16.113 20.5968C16.2633 21.154 16.5347 21.6373 16.897 21.9985C17.5158 22.6481 18.4055 23.0099 19.2803 23.0099C20.1403 23.0253 21.0157 22.7092 21.6339 22.0139C21.9659 21.6517 22.2219 21.1837 22.3728 20.626L30.0965 21.0042ZM21.6339 24.0802L21.8299 24.4435L21.6339 24.5348L21.106 24.7754L20.5025 23.5835C20.126 23.7195 19.7031 23.7949 19.2803 23.8098C18.8278 23.8252 18.3604 23.7641 17.953 23.6281L17.4398 24.7754C17.2736 24.7898 17.0473 24.7754 16.897 24.6708C16.8216 24.6251 16.7461 24.5492 16.7164 24.4435L16.897 24.1418L17.3347 23.3562C17.1987 23.2669 17.0781 23.2069 16.9575 23.0853L17.3198 22.6487C17.9381 23.0263 18.6169 23.2367 19.2803 23.2367C19.9443 23.2521 20.6077 23.0396 21.2265 22.603L21.6345 22.7236L21.8002 22.7846C21.7402 22.8293 21.6945 22.8749 21.6345 22.9206C21.5134 23.0401 21.4082 23.1612 21.2122 23.2669L21.6339 24.0802ZM21.6339 17.9112C22.0259 18.3792 22.3122 18.9528 22.4636 19.6157H21.8151C21.7699 19.4186 21.7099 19.2237 21.6345 19.0431C21.1968 17.8969 20.3065 17.0815 19.2809 16.4016C19.1454 16.3267 19.0248 16.2364 18.8889 16.161C19.0248 16.2067 19.1454 16.2524 19.2809 16.2981C20.2157 16.6736 21.0454 17.1872 21.6339 17.9112ZM19.8837 22.1648C20.05 22.1345 20.306 22.0442 20.5025 21.8939L19.4763 19.8574L20.5477 19.3438L19.6426 18.5592L19.2803 18.7265L17.7267 19.4341L18.1792 20.4603L18.9186 20.1293L19.8837 22.1648ZM17.0781 22.4521C17.0176 22.4065 16.957 22.3464 16.897 22.3008C16.7764 22.1961 16.6707 22.0904 16.5953 21.9842L13.053 22.6534L14.5609 23.1596L17.0781 22.4521ZM16.113 21.2002C16.0524 21.0653 16.0073 20.9293 15.9616 20.7922L8.87162 21.2002L10.3047 21.8944L16.113 21.2002Z" fill="#657591"/>
</g>
<defs>
<clipPath id="clip0_7026_3072">
<rect width="106.233" height="21.7778" fill="white" transform="translate(6.22266 3.11108)"/>
</clipPath>
</defs>
</svg>
