<svg width="121" height="28" viewBox="0 0 121 28" fill="none" xmlns="http://www.w3.org/2000/svg">
<g clip-path="url(#clip0_7026_3243)">
<g clip-path="url(#clip1_7026_3243)">
<path d="M40.693 7.72952V13.0959H44.1112C46.4342 13.0959 47.6919 12.4244 47.6919 10.3791C47.6919 8.33294 46.4669 7.72952 44.1439 7.72952H40.693ZM36.2422 3.83765H45.0468C47.3371 3.83765 49.1755 4.4075 50.4976 5.54811C51.8523 6.68872 52.5301 8.06344 52.5301 10.3111C52.5301 12.5252 51.8523 14.1349 50.5302 15.2746C49.2072 16.4152 47.2082 16.986 45.0468 16.986H40.693V24.1636H36.2422V3.83765ZM73.3089 16.4443C73.0802 19.0177 72.1029 20.19 70.5386 21.7217C68.9415 23.2525 67.0196 24.1645 64.2502 24.1645C61.2512 24.1645 58.8403 23.513 57.0155 21.5257C55.1907 19.5385 54.2125 16.9333 54.2125 13.6758C54.2125 10.5815 55.1253 8.62694 56.9828 6.57439C58.8403 4.52274 61.3492 3.83855 64.4453 3.83855C66.889 3.83855 68.7791 4.61983 70.4415 5.9882C72.1029 7.38924 73.0158 9.31113 73.1782 11.4599H68.9098C68.6811 10.3202 68.1602 9.34289 67.3454 8.72404C66.5305 8.10518 65.5206 7.45366 64.3146 7.45366C63.0443 7.45366 62.0008 7.81209 61.1542 8.49718C60.3066 9.21313 59.7849 9.99441 59.4264 11.0043C59.068 12.1114 58.9709 12.8609 58.9709 14.0015C58.9709 15.9234 59.2967 17.1611 60.274 18.4315C61.2512 19.7018 62.5879 20.3207 64.2493 20.3207C66.4979 20.3207 68.5187 18.8543 68.8118 16.4116H73.3089V16.4443ZM93.3608 3.83765L88.2076 13.4471L94.0876 24.1636H88.9018L84.6732 16.1013H83.8475L79.5836 24.1636H74.4295L80.344 13.4462L75.091 3.83765H80.2787L84.078 11.096H84.5072L88.3065 3.83855L93.3608 3.83765ZM108.859 17.2655C108.859 16.1221 107.808 14.8763 106.067 14.8763H101.502V20.092H106.1C108.038 20.092 108.859 18.6456 108.859 17.2655ZM101.502 11.4435H106.363C108.563 11.4435 110.337 11.6123 111.717 12.7566C113.063 13.8999 113.753 15.0786 113.753 17.3326C113.753 19.6211 113.063 21.3043 111.683 22.4477C110.304 23.5919 108.465 24.1645 106.133 24.1645H96.9042V3.83765H112.307V7.74131H101.502V11.4435Z" fill="#657591"/>
<path d="M28.3744 3.83765H20.5117V24.1636H28.3744V3.83765Z" fill="#657591"/>
<path d="M18.2741 3.83765H12.6572V24.1636H18.2741V3.83765Z" fill="#657591"/>
<path d="M10.967 3.83765H7.03516V24.1636H10.967V3.83765Z" fill="#657591"/>
<path d="M30.8593 5.04268H31.0535C31.0195 5.16004 30.9648 5.27037 30.892 5.36844C30.7958 5.43378 30.6996 5.49911 30.5708 5.49911C30.4153 5.50028 30.2653 5.44183 30.1515 5.33578C30.0465 5.20735 29.9896 5.04619 29.9909 4.88026C29.9909 4.68426 30.0554 4.55359 30.1525 4.42383C30.2486 4.29317 30.4092 4.2605 30.5699 4.2605C30.6996 4.2605 30.7958 4.29316 30.892 4.3585C30.9891 4.42383 31.0535 4.52183 31.0535 4.65159H30.892C30.892 4.58626 30.8285 4.52183 30.7958 4.48826C30.7314 4.4565 30.667 4.42383 30.6025 4.42383C30.4737 4.42383 30.3775 4.4565 30.3122 4.5545C30.2486 4.61892 30.216 4.74959 30.216 4.88026C30.216 5.01002 30.2486 5.10711 30.3131 5.20511C30.3766 5.30311 30.4737 5.33578 30.6034 5.33578C30.6996 5.33578 30.764 5.30311 30.7958 5.27044C30.8285 5.17335 30.8593 5.10711 30.8593 5.04268ZM29.7015 4.84759C29.7015 5.07444 29.765 5.27044 29.9265 5.43378C30.002 5.50997 30.0926 5.56958 30.1924 5.6088C30.2922 5.64802 30.3992 5.66598 30.5063 5.66154C30.6134 5.66585 30.7201 5.64783 30.8198 5.60861C30.9195 5.5694 31.0099 5.50986 31.0853 5.43378C31.161 5.35673 31.2202 5.26496 31.2591 5.16413C31.2979 5.0633 31.3157 4.95556 31.3112 4.84759C31.3158 4.73947 31.2981 4.63156 31.2592 4.53057C31.2204 4.42957 31.1612 4.33765 31.0853 4.2605C31.0098 4.18458 30.9193 4.12521 30.8197 4.08615C30.72 4.04709 30.6133 4.02921 30.5063 4.03365C30.3992 4.02909 30.2924 4.0469 30.1925 4.08596C30.0927 4.12502 30.0021 4.18447 29.9265 4.2605C29.7977 4.42383 29.7015 4.61892 29.7015 4.84759ZM30.5063 5.85663C30.216 5.85663 29.9909 5.75954 29.7986 5.56354C29.7033 5.47058 29.6283 5.3589 29.5783 5.23552C29.5283 5.11214 29.5045 4.97975 29.5082 4.84668C29.5082 4.5545 29.6044 4.32583 29.7986 4.12983C29.9909 3.93474 30.216 3.83765 30.5063 3.83765C30.764 3.83765 31.0208 3.93474 31.2141 4.13074C31.4074 4.32583 31.5045 4.5545 31.5045 4.84759C31.5045 5.14068 31.4074 5.36844 31.2141 5.56444C31.1232 5.66004 31.0132 5.73545 30.8913 5.78578C30.7694 5.83612 30.6382 5.86026 30.5063 5.85663Z" fill="#657591"/>
</g>
</g>
<defs>
<clipPath id="clip0_7026_3243">
<rect width="107.074" height="21.7778" fill="white" transform="translate(6.85742 3.11108)"/>
</clipPath>
<clipPath id="clip1_7026_3243">
<rect width="107.074" height="21.7778" fill="white" transform="translate(6.85742 3.11108)"/>
</clipPath>
</defs>
</svg>
