<svg width="88" height="28" viewBox="0 0 88 28" fill="none" xmlns="http://www.w3.org/2000/svg">
<g clip-path="url(#clip0_7026_3403)">
<mask id="mask0_7026_3403" style="mask-type:luminance" maskUnits="userSpaceOnUse" x="6" y="3" width="76" height="22">
<path d="M81.6085 3.11108H6.5127V24.567H81.6085V3.11108Z" fill="white"/>
</mask>
<g mask="url(#mask0_7026_3403)">
<path d="M22.7326 3.52476L22.7231 3.51518L22.7119 3.50766C22.5191 3.37841 22.2682 3.31567 22.0763 3.31567H22.0643L22.0526 3.31775L18.8639 3.8805L16.6825 4.21808L16.6802 4.21847L13.0994 4.83757L10.9178 5.17519L10.9169 5.17534L7.44686 5.73834L7.44615 5.73846C7.04979 5.80492 6.7168 6.13905 6.7168 6.60472V13.5296C6.7168 16.785 8.29236 19.7084 10.8539 21.7436C10.8857 21.7688 10.9127 21.7913 10.9409 21.8148C10.9912 21.8568 11.0451 21.9018 11.1364 21.9707L11.1391 21.9728L11.1419 21.9747L13.0433 23.2687L13.0448 23.2697L14.3306 24.1695L14.3317 24.1702L14.3328 24.171C14.5255 24.3003 14.7765 24.3629 14.9684 24.3629C15.2201 24.3629 15.4143 24.298 15.6039 24.171L15.6052 24.17L15.6065 24.1691L17.2855 22.9869L17.2861 22.9865L18.6214 22.035C18.7476 21.9685 18.8655 21.8509 18.9202 21.7959C21.4682 19.8554 22.9961 16.7779 22.9961 13.5296V4.1838C22.9961 3.98934 22.9324 3.72573 22.7326 3.52476ZM10.8025 6.09008V20.61C8.7862 18.837 7.6049 16.2625 7.6049 13.586V6.62617L10.8025 6.09008ZM16.3992 5.13425V14.9934V15.2543L16.6133 15.1053L18.7961 13.5851L18.8544 13.5445V13.4734V4.74903L21.996 4.20944V13.586C21.996 16.3189 20.9174 18.79 18.9104 20.5541V17.4144V17.1535L18.6963 17.3026L16.5136 18.8227L16.4552 18.8634V18.9345V22.4671L15.0016 23.4962L14.992 23.503L14.9837 23.5113C14.9332 23.5621 14.843 23.5842 14.7093 23.4948L14.7084 23.4943L13.1457 22.4101V5.7057L16.3992 5.13425Z" fill="#657591" stroke="#657591" stroke-width="0.600766"/>
<path d="M35.4815 6.13485C35.4815 7.08025 34.8586 7.75555 33.8895 7.75555H30.0822V14.7111C30.0822 15.8591 29.39 16.6019 28.2825 16.6019H27.7979V5.86475H35.4815V6.13485Z" fill="#657591"/>
<path d="M38.5966 16.5343C37.489 16.5343 36.7275 15.8591 36.7275 14.6435V5.86475H46.0728V7.75555H39.0119V10.2541H44.9651V12.1449H39.0119V14.6435H46.1418V16.5343H38.5966Z" fill="#657591"/>
<path d="M49.326 16.6019C48.2184 16.6019 47.5264 15.8591 47.5264 14.7111V5.86475H53.2025C55.4178 5.93226 56.5946 7.62049 56.5946 9.30872C56.5946 11.0645 55.4869 12.7527 53.2025 12.7527H49.8108V16.6019H49.326ZM49.8108 10.7944H52.9258C53.8949 10.7944 54.3796 10.0516 54.3796 9.24121C54.3796 8.49836 53.8949 7.68804 52.9258 7.68804H49.8108V10.7944Z" fill="#657591"/>
<path d="M57.7031 10.3895C57.7031 7.21568 60.4719 5.59497 63.3098 5.59497C66.0789 5.59497 68.9168 7.21568 68.9168 10.3895V12.0102C68.9168 15.1841 66.148 16.8048 63.3098 16.8048C60.4719 16.8048 57.7031 15.1841 57.7031 12.0102V10.3895ZM59.9872 12.0102C59.9872 13.6985 61.6487 14.5763 63.3098 14.5763C64.9713 14.5763 66.5633 13.6985 66.5633 12.0102V10.3895C66.5633 8.7013 64.9022 7.82343 63.3098 7.82343C61.6487 7.82343 59.9872 8.7013 59.9872 10.3895V12.0102Z" fill="#657591"/>
<path d="M69.9541 16.1967V5.86475H72.2385V13.8332L79.0918 5.86475H81.4453V14.7111C81.4453 15.8591 80.6838 16.6019 79.5761 16.6019H79.1608V8.63342L73.1385 15.724C72.6538 16.2642 71.9618 16.6019 71.3389 16.6019C70.9927 16.6019 70.5774 16.5343 70.2312 16.3318L69.9541 16.1967Z" fill="#657591"/>
<path d="M28.3167 21.6066C28.2626 21.6066 28.1778 21.5998 28.0964 21.5763L28.1235 21.3178C28.1642 21.3311 28.2387 21.3413 28.2965 21.3413C28.5102 21.3413 28.6118 21.1531 28.7001 20.9752L28.7612 20.8509L27.7979 19.2222H28.0964L28.9001 20.599L29.7006 19.2222H29.9991L28.9408 21.0726C28.7917 21.3279 28.6457 21.6066 28.3167 21.6066Z" fill="#657591"/>
<path d="M30.626 21.5729V19.2222H32.4337V21.5729H32.1591V19.4774H30.9041V21.5729H30.626Z" fill="#657591"/>
<path d="M33.3154 21.5729V19.2222H34.2278C34.7196 19.2222 35.0317 19.5143 35.0317 19.9778C35.0317 20.4378 34.7196 20.73 34.2278 20.73H33.5937V21.5729H33.3154ZM33.5937 20.4747H34.2212C34.5568 20.4747 34.7435 20.2901 34.7435 19.9778C34.7435 19.6621 34.5568 19.4774 34.2212 19.4774H33.5937V20.4747Z" fill="#657591"/>
<path d="M36.5958 19.2222L37.593 21.5729H37.2945L37.0469 20.9786H35.8359L35.5884 21.5729H35.29L36.287 19.2222H36.5958ZM35.9412 20.7267H36.9418L36.4432 19.5345L35.9412 20.7267Z" fill="#657591"/>
<path d="M38.2207 21.5729V19.2222H39.1874C39.6622 19.2222 39.92 19.4573 39.92 19.8334C39.92 20.0617 39.7979 20.2329 39.5808 20.3303C39.8284 20.4311 39.9709 20.6326 39.9709 20.8979C39.9709 21.301 39.7063 21.5729 39.1942 21.5729H38.2207ZM38.499 20.2196H39.1535C39.4621 20.2196 39.6283 20.0852 39.6283 19.8434C39.6283 19.605 39.486 19.4639 39.1535 19.4639H38.499V20.2196ZM38.499 21.3279H39.167C39.5198 21.3279 39.6826 21.1465 39.6826 20.8845C39.6826 20.6259 39.4962 20.4647 39.167 20.4647H38.499V21.3279Z" fill="#657591"/>
<path d="M40.4766 21.6066V21.3379H40.5478C40.7851 21.3379 40.9038 21.1766 40.9242 20.9079L41.06 19.2222H42.5692V21.5729H42.2911V19.4774H41.3176L41.2023 20.9079C41.165 21.3614 40.9513 21.6066 40.5478 21.6066H40.4766Z" fill="#657591"/>
<path d="M45.0334 21.5729H44.7555V20.6629H44.2231L43.6157 21.5729H43.3105L43.9313 20.6426C43.5513 20.579 43.3174 20.3136 43.3174 19.9442C43.3174 19.5143 43.6293 19.2222 44.1209 19.2222H45.0334V21.5729ZM44.7555 20.4076V19.4774H44.1209C43.7853 19.4774 43.6057 19.6621 43.6057 19.9442C43.6057 20.2229 43.7853 20.4076 44.1209 20.4076H44.7555Z" fill="#657591"/>
<path d="M47.8339 21.6065C47.1896 21.6065 46.6944 21.1699 46.6433 20.5116H46.1548V21.5728H45.877V19.2221H46.1548V20.2497H46.6467C46.7079 19.6049 47.1964 19.1885 47.8339 19.1885C48.5154 19.1885 49.028 19.6687 49.028 20.3941C49.028 21.1161 48.5154 21.6065 47.8339 21.6065ZM47.8339 21.3378C48.3495 21.3378 48.7328 20.9583 48.7328 20.3941C48.7328 19.8299 48.3495 19.4572 47.8339 19.4572C47.315 19.4572 46.9351 19.8299 46.9351 20.3941C46.9351 20.9583 47.315 21.3378 47.8339 21.3378Z" fill="#657591"/>
<path d="M53.1835 22.0834V21.5729H49.7783V19.2222H50.0566V21.3178H51.3114V19.2222H51.5896V21.3178H52.8479V19.2222H53.1261V21.3178H53.4618V22.0834H53.1835Z" fill="#657591"/>
<path d="M55.1581 19.2222L56.1554 21.5729H55.8568L55.6094 20.9786H54.3985L54.1507 21.5729H53.8525L54.8494 19.2222H55.1581ZM54.5036 20.7267H55.5043L55.0056 19.5345L54.5036 20.7267Z" fill="#657591"/>
<path d="M58.3682 21.5729H58.0904V20.6629H57.5579L56.9504 21.5729H56.6455L57.2662 20.6426C56.8862 20.579 56.6519 20.3136 56.6519 19.9442C56.6519 19.5143 56.9643 19.2222 57.4558 19.2222H58.3682V21.5729ZM58.0904 20.4076V19.4774H57.4558C57.1201 19.4774 56.9403 19.6621 56.9403 19.9442C56.9403 20.2229 57.1201 20.4076 57.4558 20.4076H58.0904Z" fill="#657591"/>
<path d="M60.2979 21.5729V19.2222H60.5761V20.2867H60.9253L61.6815 19.2222H62.0243L61.1795 20.3976L62.075 21.5729H61.719L60.9253 20.542H60.5761V21.5729H60.2979Z" fill="#657591"/>
<path d="M63.694 21.6065C63.0122 21.6065 62.5 21.1161 62.5 20.3941C62.5 19.6687 63.0122 19.1885 63.694 19.1885C64.3755 19.1885 64.8877 19.6687 64.8877 20.3941C64.8877 21.1161 64.3755 21.6065 63.694 21.6065ZM63.694 21.3378C64.2129 21.3378 64.5929 20.9583 64.5929 20.3941C64.5929 19.8299 64.2129 19.4572 63.694 19.4572C63.1785 19.4572 62.7951 19.8299 62.7951 20.3941C62.7951 20.9583 63.1785 21.3378 63.694 21.3378Z" fill="#657591"/>
<path d="M67.7664 19.2222H68.1088V21.5729H67.8309V19.7595L67.0034 21.5729H66.7488L65.9179 19.7595V21.5729H65.6396V19.2222H65.9825L66.8776 21.17L67.7664 19.2222Z" fill="#657591"/>
<path d="M68.9951 21.5729V19.2222H70.8027V21.5729H70.5278V19.4774H69.273V21.5729H68.9951Z" fill="#657591"/>
<path d="M72.7356 19.2222L73.7329 21.5729H73.4344L73.1869 20.9786H71.976L71.7282 21.5729H71.4297L72.427 19.2222H72.7356ZM72.0811 20.7267H73.0814L72.5828 19.5345L72.0811 20.7267Z" fill="#657591"/>
<path d="M74.3604 21.5729V19.2222H74.6382V20.2699H75.8934V19.2222H76.1679V21.5729H75.8934V20.5251H74.6382V21.5729H74.3604Z" fill="#657591"/>
<path d="M78.6972 19.2222H78.972V21.5729H78.6938V19.7024L77.3237 21.5729H77.0488V19.2222H77.3271V21.0893L78.6972 19.2222Z" fill="#657591"/>
<path d="M81.4375 21.5729H81.1597V20.6629H80.6273L80.0201 21.5729H79.7148L80.3355 20.6426C79.9555 20.579 79.7216 20.3136 79.7216 19.9442C79.7216 19.5143 80.0336 19.2222 80.5255 19.2222H81.4375V21.5729ZM81.1597 20.4076V19.4774H80.5255C80.1895 19.4774 80.01 19.6621 80.01 19.9442C80.01 20.2229 80.1895 20.4076 80.5255 20.4076H81.1597Z" fill="#657591"/>
</g>
</g>
<defs>
<clipPath id="clip0_7026_3403">
<rect width="75.0958" height="21.7778" fill="white" transform="translate(6.5127 3.11108)"/>
</clipPath>
</defs>
</svg>
