<svg width="53" height="28" viewBox="0 0 53 28" fill="none" xmlns="http://www.w3.org/2000/svg">
<path fill-rule="evenodd" clip-rule="evenodd" d="M26.2382 0H27.5975L28.9001 0.0566364C60.28 2.50613 60.2791 25.4152 28.9001 27.8647L27.5975 27.9214H24.879C16.9896 27.8175 3.12711 24.6969 0.299106 16.0845L0.129199 15.4049L0.0159279 14.6686C-0.541933 5.34546 13.6925 0.835374 20.9711 0.283176L23.5764 0.0566364L24.879 0H26.2382ZM26.2382 1.18935H27.4842L28.7302 1.24598C58.2581 3.44439 58.2581 24.5213 28.7302 26.6754L27.4842 26.732H24.9922C17.7316 26.7046 4.51091 23.8427 1.82827 15.9146L1.65836 15.2916L1.60173 14.612C0.97779 6.00243 14.6553 1.9898 21.2543 1.41589L22.5003 1.30262L23.7463 1.24598L24.9922 1.18935H26.2382ZM26.2382 2.77514L27.4276 2.83178H28.6169C56.1296 4.865 56.1381 23.0951 28.6169 25.0896L27.4276 25.1462H25.0489C18.6915 25.0981 5.90226 22.6845 3.4707 15.6881L3.30079 15.1217L3.24416 14.5554C2.67119 6.78212 15.8343 3.48498 21.5941 3.00169L22.7268 2.94505L23.8595 2.83178H25.0489L26.2382 2.77514ZM26.2382 2.26543H27.4276L28.6169 2.32206C56.7365 4.31375 56.7375 23.635 28.6169 25.5993L27.4276 25.6559H25.0489C18.4574 25.6663 5.41519 23.0271 3.01762 15.7447L2.84771 15.1783L2.73444 14.5554C2.39368 6.43475 15.3076 3.02529 21.4808 2.49197L22.6702 2.3787L23.8595 2.32206L25.0489 2.26543H26.2382ZM7.37856 18.6898V9.28824H10.1537L13.6651 14.8385V9.28824H16.2137V18.6898H13.4952L9.92716 13.0262V18.6898H7.37856ZM17.9694 18.6898V9.28824H20.6313V16.4243H23.4631V18.6898H17.9694ZM23.8595 18.6898L25.2754 9.28824H27.9373L29.5797 15.0084L31.2788 9.28824H33.9407L35.3566 18.6898H32.7513L32.0717 13.2527L30.4293 18.6898H28.7302L27.1444 13.2527L26.4081 18.6898H23.8595ZM36.376 18.6898V9.28824H39.0379V13.2527L41.9263 9.28824H45.0413L41.4166 13.8191L45.1545 18.6898H41.813L39.0379 14.6686V18.6898" fill="#004696"/>
</svg>
