<svg width="41" height="28" viewBox="0 0 41 28" fill="none" xmlns="http://www.w3.org/2000/svg">
<g clip-path="url(#clip0_7026_3108)">
<path fill-rule="evenodd" clip-rule="evenodd" d="M7.46875 24.2688L12.9454 3.7312L20.4232 10.2611L27.9537 3.7312L33.4304 24.2688H30.7973L26.5318 8.20734L20.4232 13.4734L14.3673 8.20734L10.1018 24.2688H7.46875ZM10.8917 24.2688L14.7886 9.68183L20.4232 14.5793L26.1106 9.68183L30.0074 24.2688H27.2691L24.5307 14.1053L20.4232 17.7915L16.3157 14.1053L13.63 24.2688H10.8917ZM14.4199 24.2688L16.737 15.5271L19.0014 17.4756L18.2115 20.3719L23.8988 15.7378L24.6361 18.2128L22.161 20.2666L26.3739 24.2688H22.8456L20.4232 21.5831L17.1583 24.2688H14.4199Z" fill="#657591"/>
</g>
<defs>
<clipPath id="clip0_7026_3108">
<rect width="27.1939" height="21.7778" fill="white" transform="translate(6.85254 3.11108)"/>
</clipPath>
</defs>
</svg>
