<svg width="94" height="28" viewBox="0 0 94 28" fill="none" xmlns="http://www.w3.org/2000/svg">
<g clip-path="url(#clip0_7026_3344)">
<path d="M17.1466 24.8889V21.5893L16.7955 21.4453C16.5929 21.3643 14.7473 20.5855 12.9558 18.794C11.925 17.7676 11.1102 16.6018 10.525 15.3234C9.80029 13.7434 9.43568 11.9833 9.43568 10.0928V8.37772L17.1511 6.64018V3.11108L6.22168 5.7399V9.68763C6.22168 12.1589 6.73034 14.4681 7.72515 16.5478C8.5354 18.2268 9.66075 19.7663 11.0742 21.1167C13.532 23.4529 16.0888 24.4792 16.3678 24.5873L17.1466 24.8889Z" fill="#657591"/>
<path d="M27.4947 17.2457V9.85889H21.0127V17.2457H22.8088V11.3218H25.7032V17.2457H27.4947Z" fill="#657591"/>
<path d="M31.4473 13.7072C31.2132 13.7072 31.0512 13.6982 30.9206 13.6757L30.8171 13.6577V11.236L30.9161 11.2225C31.0332 11.1955 31.2538 11.1685 31.5869 11.1685C32.4871 11.1685 33.0273 11.6186 33.0273 12.3703C33.0228 13.1986 32.4196 13.7072 31.4473 13.7072ZM33.9501 10.4752C33.4054 10.0431 32.6087 9.83154 31.4923 9.83154C30.511 9.83154 29.6873 9.89006 29.0391 9.99809V17.2814H30.8171V15.0397L30.9522 15.0532C31.0872 15.0622 31.2538 15.0712 31.4563 15.0712C32.5952 15.0712 33.4729 14.7921 34.0671 14.2249C34.5398 13.7748 34.8054 13.0996 34.8054 12.3253C34.8009 11.5781 34.4903 10.9029 33.9501 10.4752Z" fill="#657591"/>
<path d="M84.4099 15.4043C83.9462 15.8499 83.2845 16.0795 82.4383 16.0795C82.2222 16.0795 82.0106 16.0795 81.8621 16.057L81.7586 16.039V11.1594L81.8576 11.1414C82.0692 11.1054 82.3167 11.0874 82.6003 11.0874C83.3971 11.0874 84.0498 11.308 84.4909 11.7356C84.9411 12.1678 85.1616 12.7889 85.1571 13.5722C85.1526 14.513 84.869 14.9676 84.4099 15.4043ZM87.0612 13.5092C87.0612 12.2443 86.5886 11.245 85.7063 10.6103C84.9231 10.0431 83.9012 9.79102 82.4068 9.79102C81.502 9.79102 80.6332 9.84503 79.958 9.94406V17.2858C80.5702 17.3624 81.2589 17.3984 82.0106 17.3984C83.6492 17.3984 84.9005 17.0653 85.7288 16.3991C86.4175 15.8409 87.0612 15.1027 87.0612 13.5092Z" fill="#657591"/>
<path d="M78.3977 11.3086V9.8501H73.4102V17.2324H78.3977V15.7694H75.2062V14.2615H78.3977V12.812H75.2062V11.3086H78.3977Z" fill="#657591"/>
<path d="M53.2292 17.2324V9.8501H51.0505C50.9379 10.0257 50.5193 10.6784 49.0699 12.8795L48.9708 13.0326L48.8763 12.8795C47.4134 10.6784 46.9992 10.0257 46.8867 9.8501H44.708V17.2369H46.5086V11.8667L46.7201 12.1728C48.1831 14.257 48.5882 14.8557 48.6962 15.0267H49.2544C49.3625 14.8557 49.7631 14.257 51.226 12.1728L51.4466 11.8667V17.2369H53.2292V17.2324Z" fill="#657591"/>
<path d="M39.6571 15.8858C38.3472 15.8858 37.2804 14.8189 37.2804 13.509C37.2804 12.1991 38.3472 11.1323 39.6571 11.1323C40.976 11.1323 42.0429 12.1991 42.0429 13.509C42.0384 14.8189 40.9715 15.8858 39.6571 15.8858ZM39.6571 9.35425C37.3749 9.35425 35.5068 11.2133 35.5068 13.5045C35.5068 15.7958 37.3749 17.6593 39.6571 17.6593C41.9483 17.6593 43.8119 15.7958 43.8119 13.5045C43.8074 11.2178 41.9483 9.35425 39.6571 9.35425Z" fill="#657591"/>
<path d="M71.843 17.2324V9.8501H69.6689C69.5563 10.0257 69.1377 10.6784 67.6837 12.8795L67.5847 13.0326L67.4857 12.8795C66.0272 10.6784 65.6131 10.0257 65.5006 9.8501H63.3174V17.2369H65.1179V11.8667L65.3295 12.1728C66.797 14.257 67.1976 14.8557 67.3056 15.0267H67.8593C67.9673 14.8557 68.368 14.257 69.8309 12.1728L70.047 11.8667V17.2369H71.843V17.2324Z" fill="#657591"/>
<path d="M58.2718 15.8858C56.9664 15.8858 55.8995 14.8189 55.8995 13.509C55.8995 12.1991 56.9709 11.1323 58.2718 11.1323C59.5817 11.1323 60.6575 12.1991 60.6575 13.509C60.6575 14.8189 59.5817 15.8858 58.2718 15.8858ZM58.2718 9.35425C55.9851 9.35425 54.126 11.2133 54.126 13.5045C54.126 15.7958 55.9896 17.6593 58.2718 17.6593C60.563 17.6593 62.4266 15.7958 62.4266 13.5045C62.4266 11.2178 60.563 9.35425 58.2718 9.35425Z" fill="#657591"/>
<path d="M14.6846 17.2411H17.1468V14.7788H14.6846V17.2411Z" fill="#657591"/>
<path d="M14.6846 12.3168H17.1468V9.85449H14.6846V12.3168Z" fill="#657591"/>
<path d="M12.2178 14.7829H14.6845V12.3162H12.2178V14.7829Z" fill="#657591"/>
<path d="M27.4947 17.2457V9.85889H21.0127V17.2457H22.8088V11.3218H25.7032V17.2457H27.4947Z" fill="#657591"/>
<path d="M31.4473 13.7072C31.2132 13.7072 31.0512 13.6982 30.9206 13.6757L30.8171 13.6577V11.236L30.9161 11.2225C31.0332 11.1955 31.2538 11.1685 31.5869 11.1685C32.4871 11.1685 33.0273 11.6186 33.0273 12.3703C33.0228 13.1986 32.4196 13.7072 31.4473 13.7072ZM33.9501 10.4752C33.4054 10.0431 32.6087 9.83154 31.4923 9.83154C30.511 9.83154 29.6873 9.89006 29.0391 9.99809V17.2814H30.8171V15.0397L30.9522 15.0532C31.0872 15.0622 31.2538 15.0712 31.4563 15.0712C32.5952 15.0712 33.4729 14.7921 34.0671 14.2249C34.5398 13.7748 34.8054 13.0996 34.8054 12.3253C34.8009 11.5781 34.4903 10.9029 33.9501 10.4752Z" fill="#657591"/>
<path d="M84.4099 15.4043C83.9462 15.8499 83.2845 16.0795 82.4383 16.0795C82.2222 16.0795 82.0106 16.0795 81.8621 16.057L81.7586 16.039V11.1594L81.8576 11.1414C82.0692 11.1054 82.3167 11.0874 82.6003 11.0874C83.3971 11.0874 84.0498 11.308 84.4909 11.7356C84.9411 12.1678 85.1616 12.7889 85.1571 13.5722C85.1526 14.513 84.869 14.9676 84.4099 15.4043ZM87.0612 13.5092C87.0612 12.2443 86.5886 11.245 85.7063 10.6103C84.9231 10.0431 83.9012 9.79102 82.4068 9.79102C81.502 9.79102 80.6332 9.84503 79.958 9.94406V17.2858C80.5702 17.3624 81.2589 17.3984 82.0106 17.3984C83.6492 17.3984 84.9005 17.0653 85.7288 16.3991C86.4175 15.8409 87.0612 15.1027 87.0612 13.5092Z" fill="#657591"/>
<path d="M78.3977 11.3086V9.8501H73.4102V17.2324H78.3977V15.7694H75.2062V14.2615H78.3977V12.812H75.2062V11.3086H78.3977Z" fill="#657591"/>
<path d="M53.2292 17.2324V9.8501H51.0505C50.9379 10.0257 50.5193 10.6784 49.0699 12.8795L48.9708 13.0326L48.8763 12.8795C47.4134 10.6784 46.9992 10.0257 46.8867 9.8501H44.708V17.2369H46.5086V11.8667L46.7201 12.1728C48.1831 14.257 48.5882 14.8557 48.6962 15.0267H49.2544C49.3625 14.8557 49.7631 14.257 51.226 12.1728L51.4466 11.8667V17.2369H53.2292V17.2324Z" fill="#657591"/>
<path d="M39.6571 15.8858C38.3472 15.8858 37.2804 14.8189 37.2804 13.509C37.2804 12.1991 38.3472 11.1323 39.6571 11.1323C40.976 11.1323 42.0429 12.1991 42.0429 13.509C42.0384 14.8189 40.9715 15.8858 39.6571 15.8858ZM39.6571 9.35425C37.3749 9.35425 35.5068 11.2133 35.5068 13.5045C35.5068 15.7958 37.3749 17.6593 39.6571 17.6593C41.9483 17.6593 43.8119 15.7958 43.8119 13.5045C43.8074 11.2178 41.9483 9.35425 39.6571 9.35425Z" fill="#657591"/>
<path d="M71.843 17.2324V9.8501H69.6689C69.5563 10.0257 69.1377 10.6784 67.6837 12.8795L67.5847 13.0326L67.4857 12.8795C66.0272 10.6784 65.6131 10.0257 65.5006 9.8501H63.3174V17.2369H65.1179V11.8667L65.3295 12.1728C66.797 14.257 67.1976 14.8557 67.3056 15.0267H67.8593C67.9673 14.8557 68.368 14.257 69.8309 12.1728L70.047 11.8667V17.2369H71.843V17.2324Z" fill="#657591"/>
<path d="M58.2718 15.8858C56.9664 15.8858 55.8995 14.8189 55.8995 13.509C55.8995 12.1991 56.9709 11.1323 58.2718 11.1323C59.5817 11.1323 60.6575 12.1991 60.6575 13.509C60.6575 14.8189 59.5817 15.8858 58.2718 15.8858ZM58.2718 9.35425C55.9851 9.35425 54.126 11.2133 54.126 13.5045C54.126 15.7958 55.9896 17.6593 58.2718 17.6593C60.563 17.6593 62.4266 15.7958 62.4266 13.5045C62.4266 11.2178 60.563 9.35425 58.2718 9.35425Z" fill="#657591"/>
</g>
<defs>
<clipPath id="clip0_7026_3344">
<rect width="80.8407" height="21.7778" fill="white" transform="translate(6.22168 3.11108)"/>
</clipPath>
</defs>
</svg>
