<svg width="54" height="28" viewBox="0 0 54 28" fill="none" xmlns="http://www.w3.org/2000/svg">
<g clip-path="url(#clip0_7026_3104)">
<path fill-rule="evenodd" clip-rule="evenodd" d="M26.6878 3.1416H27.745L28.7581 3.18565C53.1647 5.09081 53.164 22.909 28.7581 24.8142L27.745 24.8582H25.6306C19.4944 24.7775 8.71247 22.3503 6.51291 15.6518L6.38076 15.1232L6.29266 14.5505C5.85877 7.29918 16.93 3.79134 22.5911 3.36185L24.6174 3.18565L25.6306 3.1416H26.6878ZM26.6878 4.06665H27.6569L28.626 4.1107C51.5922 5.82057 51.5922 22.2138 28.626 23.8891L27.6569 23.9332H25.7187C20.0715 23.9119 9.78876 21.6859 7.70226 15.5196L7.57011 15.0351L7.52606 14.5065C7.04078 7.81016 17.6788 4.68922 22.8114 4.24285L23.7805 4.15475L24.7496 4.1107L25.7187 4.06665H26.6878ZM26.6878 5.30005L27.6128 5.3441H28.5379C49.9366 6.92549 49.9432 21.1044 28.5379 22.6557L27.6128 22.6998H25.7627C20.8181 22.6623 10.8709 20.7851 8.97971 15.3434L8.84756 14.9029L8.80351 14.4624C8.35787 8.41658 18.5958 5.85214 23.0757 5.47625L23.9567 5.4322L24.8377 5.3441H25.7627L26.6878 5.30005ZM26.6878 4.9036H27.6128L28.5379 4.94765C50.4087 6.49674 50.4094 21.5244 28.5379 23.0522L27.6128 23.0962H25.7627C20.6361 23.1043 10.4921 21.0516 8.62731 15.3875L8.49516 14.947L8.40706 14.4624C8.14202 8.14641 18.1861 5.4946 22.9876 5.0798L23.9126 4.9917L24.8377 4.94765L25.7627 4.9036H26.6878ZM12.0192 17.6781V10.3658H14.1776L16.9087 14.6827V10.3658H18.8909V17.6781H16.7765L14.0014 13.2731V17.6781H12.0192ZM20.2565 17.6781V10.3658H22.3268V15.9161H24.5293V17.6781H20.2565ZM24.8377 17.6781L25.9389 10.3658H28.0093L29.2867 14.8148L30.6082 10.3658H32.6786L33.7798 17.6781H31.7535L31.2249 13.4493L29.9475 17.6781H28.626L27.3926 13.4493L26.8199 17.6781H24.8377ZM34.5727 17.6781V10.3658H36.6431V13.4493L38.8896 10.3658H41.3124L38.4932 13.8898L41.4005 17.6781H38.8015L36.6431 14.5505V17.6781" fill="#657591"/>
</g>
<defs>
<clipPath id="clip0_7026_3104">
<rect width="40.8706" height="21.7778" fill="white" transform="translate(6.23633 3.11108)"/>
</clipPath>
</defs>
</svg>
