<svg width="133" height="28" viewBox="0 0 133 28" fill="none" xmlns="http://www.w3.org/2000/svg">
<g clip-path="url(#clip0_6651_20492)">
<path d="M40.1997 6.72327V21.198H43.4457V9.62871H51.1936V21.198H54.4656V6.72327H40.1997ZM60.1452 13.9737C60.1452 10.9897 62.2654 9.18325 64.9875 9.18325C67.7103 9.18325 69.8299 10.9897 69.8299 13.9737C69.8299 16.9576 67.7103 18.7637 64.9875 18.7637C62.2654 18.7637 60.1452 16.9576 60.1452 13.9737ZM73.1014 13.9737C73.1014 9.419 69.3847 6.38274 64.9875 6.38274C60.5904 6.38274 56.8737 9.419 56.8737 13.9737C56.8737 18.5283 60.5904 21.5646 64.9875 21.5646C69.3847 21.5646 73.1014 18.5283 73.1014 13.9737ZM79.0435 6.72327L77.1065 17.0885C76.9497 17.8736 76.4518 18.214 75.693 18.214H74.1228V21.198H75.8498C78.2321 21.198 79.8286 20.0724 80.2996 17.5074L81.7659 9.65443H87.3145V21.198H90.5867V6.72327H79.0435ZM93.7274 6.72327V21.198H96.9476V15.0731H99.1461C99.6428 19.2349 102.967 21.5646 106.999 21.5646C111.37 21.5646 114.903 18.816 114.903 13.9737C114.903 9.13139 111.37 6.38274 106.999 6.38274C103.204 6.38274 100.036 8.45082 99.2768 12.1411H96.9476V6.72327H93.7274ZM102.34 13.9737C102.34 10.9897 103.937 9.18325 106.999 9.18325C110.062 9.18325 111.658 10.9897 111.658 13.9737C111.658 16.9576 110.062 18.7637 106.999 18.7637C103.937 18.7637 102.34 16.9576 102.34 13.9737ZM132.283 10.2569C130.792 7.71758 128.332 6.38274 124.955 6.38274C120.4 6.38274 116.866 9.28859 116.866 13.9737C116.866 18.6591 120.322 21.5646 124.955 21.5646C128.332 21.5646 130.792 20.2297 132.283 17.6908L129.745 16.2248C128.645 17.7954 127.206 18.6591 124.902 18.6591C122.076 18.6591 120.113 16.7745 120.113 13.9737C120.113 11.1205 121.997 9.28859 124.902 9.28859C127.206 9.28859 128.645 10.1522 129.745 11.7225L132.283 10.2569Z" fill="#2B2E2D"/>
<path fill-rule="evenodd" clip-rule="evenodd" d="M16.8411 0.42482L15.1303 10.7042C15.0899 10.9488 14.8265 11.0589 14.5965 10.9695L9.45437 8.98285C8.81782 8.7369 8.60496 8.25877 8.69249 7.73047L9.78757 1.15215C9.87583 0.624968 10.2315 0.24131 10.9142 0.214766L16.4222 0.000453949C16.6689 -0.0086174 16.8822 0.180605 16.8411 0.42482ZM2.07929 7.82567L11.3375 12.6092C11.5573 12.7229 11.5816 13.0073 11.4261 13.1989L7.95643 17.4828C7.52696 18.0129 7.00706 18.0689 6.53145 17.8232L0.606376 14.7622C0.131143 14.5163 -0.123898 14.0599 0.0599394 13.4023L1.54702 8.09419C1.6135 7.85585 1.85949 7.71199 2.07929 7.82567ZM4.55608 24.1109L11.9766 16.7946C12.1532 16.6206 12.4307 16.686 12.5652 16.8935L15.5604 21.5204C15.9313 22.0937 15.8231 22.6057 15.4423 22.9817L10.6933 27.6634C10.3122 28.0391 9.79916 28.1402 9.23093 27.7609L4.64653 24.7002C4.44091 24.5632 4.38021 24.2849 4.55608 24.1109ZM20.8969 26.765L16.1773 17.4737C16.0651 17.2528 16.2118 17.0087 16.4498 16.9436L21.7678 15.4936C22.4265 15.3142 22.8813 15.5724 23.1237 16.0499L26.1437 21.9952C26.386 22.4727 26.3267 22.9922 25.7934 23.4187L21.4855 26.8579C21.2922 27.012 21.0084 26.9855 20.8969 26.765ZM28.4119 12.1754L18.1062 13.7228C17.8613 13.7591 17.6757 13.5429 17.6891 13.2966L17.991 7.79224C18.0285 7.111 18.4172 6.76083 18.9466 6.68125L25.5409 5.69151C26.0702 5.6116 26.5447 5.83212 26.7809 6.47265L28.6858 11.6457C28.7708 11.8775 28.6567 12.1387 28.4119 12.1754Z" fill="#F9AA24"/>
</g>
<defs>
<clipPath id="clip0_6651_20492">
<rect width="132.284" height="28" fill="white"/>
</clipPath>
</defs>
</svg>
