<svg width="103" height="28" viewBox="0 0 103 28" fill="none" xmlns="http://www.w3.org/2000/svg">
<g clip-path="url(#clip0_7026_3131)">
<mask id="mask0_7026_3131" style="mask-type:luminance" maskUnits="userSpaceOnUse" x="6" y="3" width="91" height="22">
<path d="M96.2059 3.11108H6.91699V24.8889H96.2059V3.11108Z" fill="white"/>
</mask>
<g mask="url(#mask0_7026_3131)">
<path fill-rule="evenodd" clip-rule="evenodd" d="M6.91699 9.156L15.1517 3.4588C15.423 3.24785 15.7533 3.12691 16.0967 3.11287C16.4193 3.11305 16.7306 3.23206 16.971 3.44718C17.2115 3.6623 17.3643 3.95844 17.4002 4.27905C17.4064 4.40201 17.4064 4.52521 17.4002 4.64817V10.3686L27.8906 3.11108V18.0451L19.6559 23.7423C19.3846 23.9532 19.0542 24.0742 18.7109 24.0882C18.4334 24.088 18.1631 23.9999 17.9388 23.8366C17.7145 23.6732 17.5478 23.4429 17.4626 23.1788C17.4041 22.9616 17.3824 22.7362 17.3984 22.5119V19.3753C17.3984 19.3129 17.3984 19.2523 17.3984 19.197C17.3759 18.9753 17.297 18.7631 17.1692 18.5805C17.0414 18.398 16.8691 18.2512 16.6685 18.1542C16.4679 18.0571 16.2458 18.013 16.0234 18.026C15.801 18.0391 15.5856 18.1089 15.3977 18.2287L15.2676 18.3161L6.91699 24.09V9.156Z" fill="#657591"/>
<path d="M33.1016 24.1109V20.1131H33.8326V22.3795C33.8326 22.6417 33.8202 22.8414 33.8148 23.0642C33.9414 22.9091 34.1572 22.5614 34.307 22.3616L36.0366 20.106H36.659V24.1038H35.9279V21.7697C35.9279 21.5753 35.9279 21.3916 35.9457 21.1812C35.8137 21.3346 35.6033 21.6662 35.4482 21.8659L33.7185 24.1109H33.1016Z" fill="#657591"/>
<path d="M40.4734 22.4261H38.3942V24.1111H37.6631V20.1133H38.3942V21.752H40.4734V20.1133H41.2045V24.1111H40.4734V22.4261Z" fill="#657591"/>
<path d="M42.1992 20.1133H43.9307C44.9916 20.1133 45.3572 20.5359 45.3572 21.119C45.3637 21.3117 45.3107 21.5016 45.2054 21.663C45.1001 21.8245 44.9476 21.9496 44.7687 22.0213C45.2199 22.1069 45.4945 22.4368 45.4945 22.9521C45.4945 23.7741 44.8436 24.1111 43.9003 24.1111H42.2046L42.1992 20.1133ZM42.9303 20.7249V21.7948H43.9075C44.3408 21.7948 44.6047 21.5719 44.6047 21.2599C44.6047 20.9032 44.4032 20.7249 43.804 20.7249H42.9303ZM42.9303 22.3636V23.5049H43.8219C44.4549 23.5049 44.7402 23.3265 44.7402 22.9165C44.7402 22.5509 44.4941 22.3636 43.895 22.3636H42.9303Z" fill="#657591"/>
<path d="M46.2891 20.1133H49.3097V20.741H47.0201V21.7806H49.1599V22.3797H47.0201V23.4764H49.3561V24.104H46.2891V20.1133Z" fill="#657591"/>
<path d="M49.9814 22.1125C49.9875 21.6966 50.1176 21.2921 50.355 20.9507C50.5925 20.6093 50.9265 20.3466 51.3142 20.1962C51.7019 20.0458 52.1257 20.0147 52.5313 20.1067C52.9369 20.1987 53.3057 20.4097 53.5906 20.7127L53.0556 21.1924C52.9306 21.0471 52.7753 20.9309 52.6007 20.852C52.426 20.7732 52.2362 20.7335 52.0446 20.7359C51.2742 20.7359 50.7482 21.319 50.7482 22.1125C50.7482 22.906 51.292 23.4944 52.0624 23.4944C52.5599 23.4944 52.7934 23.3054 53.1127 22.9915L53.6476 23.4373C53.4586 23.6738 53.2176 23.8634 52.9432 23.9911C52.6688 24.1189 52.3685 24.1814 52.066 24.1738C50.8338 24.1738 49.9814 23.3286 49.9814 22.1125Z" fill="#657591"/>
<path d="M53.916 20.1133H57.3325V20.7748H55.9898V24.1165H55.2587V20.7748H53.916V20.1133Z" fill="#657591"/>
<path d="M57.8848 24.1109V20.1131H58.6159V22.3795C58.6159 22.6417 58.6034 22.8414 58.598 23.0642C58.7229 22.9091 58.9404 22.5614 59.0884 22.3616L60.8199 20.106H61.4423V24.1038H60.7111V21.7697C60.7111 21.5753 60.7111 21.3916 60.7271 21.1812C60.597 21.3346 60.3848 21.6662 60.2314 21.8659L58.5 24.1109H57.8848Z" fill="#657591"/>
<path d="M62.4463 20.1133H63.1775V23.4496H65.1299V20.1133H65.861V23.4496H66.3745V24.894H65.7004V24.1183H62.4463V20.1133Z" fill="#657591"/>
<path d="M66.9609 24.1109V20.1131H67.6916V22.3795C67.6916 22.6417 67.6812 22.8414 67.6742 23.0642C67.8005 22.9091 68.0182 22.5614 68.1663 22.3616L69.896 20.106H70.52V24.1038H69.7888V21.7697C69.7888 21.5753 69.7888 21.3916 69.8051 21.1812C69.6744 21.3346 69.4627 21.6662 69.3091 21.8659L67.5778 24.1109H66.9609Z" fill="#657591"/>
<path d="M71.5254 24.1109V20.1131H72.2549V22.3795C72.2549 22.6417 72.2441 22.8414 72.2386 23.0642C72.3638 22.9091 72.5811 22.5614 72.7292 22.3616L74.4605 20.106H75.0828V24.1038H74.3516V21.7697C74.3516 21.5753 74.3516 21.3916 74.3679 21.1812C74.2378 21.3346 74.0255 21.6662 73.8719 21.8659L72.1406 24.1109H71.5254Z" fill="#657591"/>
<path d="M39.0191 16.5654H37.5979V12.2751L34.5006 16.5654H33.1436V10.0229H34.5648V14.3132L37.6835 10.0229H39.0191V16.5654Z" fill="#657591"/>
<path d="M40.0537 10.0229H41.4927V12.6103H44.3868V10.0229H45.8259V16.5654H44.3868V13.9388H41.4927V16.5654H40.0537V10.0229Z" fill="#657591"/>
<path d="M48.2964 16.5654H46.8574V10.0229H51.3082V11.3211H48.2964V16.5654Z" fill="#657591"/>
<path d="M54.7768 15.3468C53.6178 15.3468 52.8153 14.5622 52.8153 13.2908C52.8153 12.0194 53.6195 11.2366 54.7768 11.2348C55.9341 11.233 56.7383 12.0212 56.7383 13.2908C56.7383 14.5605 55.9341 15.345 54.7768 15.3468ZM58.2433 13.2855C58.2433 11.2919 56.7936 9.92245 54.7947 9.89746H54.7554C52.7583 9.91532 51.3104 11.2848 51.3086 13.2855C51.3086 15.2773 52.7583 16.6485 54.7554 16.6646H54.7947C56.7936 16.6485 58.2416 15.2773 58.2433 13.2855Z" fill="#657591"/>
<path d="M73.305 11.3496H71.1953V10.0229H76.8554V11.3496H74.7456V16.5654H73.305V11.3496Z" fill="#657591"/>
<path d="M80.5719 13.3196C81.2851 13.3196 81.7136 12.8898 81.7136 12.3103C81.7136 11.6666 81.2639 11.3207 80.5452 11.3207H79.165V13.3196H80.5719ZM77.719 10.0208H80.6612C82.2216 10.0208 83.1574 10.9462 83.1574 12.3014C83.1574 13.8153 81.9809 14.6017 80.5131 14.6017H79.1525V16.5632H77.7119L77.719 10.0208Z" fill="#657591"/>
<path d="M96.0756 16.5654L93.7481 13.2095L95.9809 10.0229H94.3279L92.9265 12.0219L91.5393 10.0229H89.8379L92.0707 13.2433L89.7432 16.5654H91.3966L92.8922 14.4291L94.3742 16.5654H96.0756Z" fill="#657591"/>
<path d="M85.2472 13.7813L86.1226 11.736L86.9965 13.7813H85.2472ZM88.1213 16.5648H89.5891L86.7858 9.97607H85.4595L82.6523 16.5648H84.1272L84.7408 15.0581H87.5153L88.1213 16.5648Z" fill="#657591"/>
<path d="M62.3235 15.3456C61.1645 15.3456 60.3621 14.561 60.3621 13.2915C60.3621 12.0218 61.1645 11.2372 62.3235 11.2372C62.8821 11.2202 63.4271 11.4108 63.8534 11.7722L64.7452 10.8806C64.0989 10.2585 63.2365 9.91138 62.3398 9.91236H62.3006C60.3014 9.93016 58.8535 11.2997 58.8535 13.2915C58.8535 15.2832 60.3014 16.6527 62.3006 16.6794H62.3398C63.2365 16.6783 64.0984 16.3308 64.7452 15.7094L63.8534 14.8178C63.426 15.1766 62.881 15.3646 62.3235 15.3456Z" fill="#657591"/>
<path d="M68.3307 15.3456C68.8893 15.3634 69.4349 15.1727 69.8606 14.8107L70.7524 15.7023C70.1067 16.3237 69.2465 16.6719 68.3503 16.6741H68.3111C66.3141 16.6544 64.8659 15.285 64.8643 13.2861C64.8643 11.2943 66.3141 9.92479 68.3111 9.90698H68.3503C69.247 9.90704 70.1089 10.2555 70.7541 10.8788L69.8623 11.7704C69.4365 11.4084 68.891 11.2177 68.3324 11.2354C67.1732 11.2354 66.3707 12.0182 66.3707 13.2896C66.3707 14.5611 67.1716 15.3456 68.3307 15.3456Z" fill="#657591"/>
</g>
</g>
<defs>
<clipPath id="clip0_7026_3131">
<rect width="89.2889" height="21.7778" fill="white" transform="translate(6.91699 3.11108)"/>
</clipPath>
</defs>
</svg>
