<svg width="137" height="28" viewBox="0 0 137 28" fill="none" xmlns="http://www.w3.org/2000/svg">
<g clip-path="url(#clip0_6650_19484)">
<path fill-rule="evenodd" clip-rule="evenodd" d="M91.0728 11.6777L95.4756 3.04688H95.5528L100.421 11.6777H105.425L98.9674 0.525513H94.7387L88.9004 11.6777H91.0728Z" fill="#00529C"/>
<path fill-rule="evenodd" clip-rule="evenodd" d="M21.8509 6.81041L28.7559 6.73323C28.6781 8.28484 27.7862 9.15763 27.3204 9.52572C26.1765 10.3985 24.547 10.4764 23.7712 10.4764C22.6267 10.4764 21.6378 10.32 20.6291 9.7388C19.9885 9.37002 19.2516 8.74923 18.8835 8.22611L18.5728 7.78016L16.3232 9.02104C16.9829 9.7586 18.0108 10.4948 19.0966 11.0179C20.7643 11.8142 22.2968 12.0082 24.1591 12.0082C26.1369 12.0082 29.2217 11.7357 31.4514 10.126C33.003 9.00124 33.7208 7.46943 33.7208 6.11177C33.7208 4.75411 33.003 3.2025 31.4514 2.09685C29.531 0.700943 26.7194 0.216064 24.2172 0.216064C22.5877 0.216064 21.0942 0.371089 19.5815 0.914016C18.3208 1.34084 17.3319 1.9227 16.3232 2.77567L18.5728 3.99811L19.1157 3.43538C19.5617 2.9505 20.3184 2.50455 20.9972 2.23275C21.9089 1.84484 22.8595 1.72875 23.8484 1.72875C25.8467 1.72875 26.9906 2.34953 27.6305 2.9505C28.0573 3.33909 28.62 4.07597 28.7552 5.20075L21.8509 5.10377V6.81041Z" fill="#00529C"/>
<path fill-rule="evenodd" clip-rule="evenodd" d="M113.745 1.57304C114.87 1.57304 116.149 1.80592 117.14 3.02767C117.935 3.99743 118.07 5.12289 118.07 6.11177C118.07 7.10133 117.935 8.20631 117.14 9.19519C116.149 10.4176 114.87 10.6498 113.745 10.6498C112.619 10.6498 111.34 10.4176 110.351 9.19519C109.555 8.20631 109.42 7.10133 109.42 6.11177C109.42 5.12289 109.555 3.99743 110.351 3.02767C111.34 1.80592 112.619 1.57304 113.745 1.57304ZM113.745 12.0082C115.84 12.0082 118.768 11.5424 120.728 10.126C122.279 9.02104 123.017 7.45031 123.017 6.11177C123.017 4.77392 122.279 3.2025 120.728 2.09684C118.768 0.681138 115.841 0.216064 113.745 0.216064C111.67 0.216064 108.722 0.681138 106.743 2.09684C105.193 3.2025 104.474 4.77392 104.474 6.11177C104.474 7.45031 105.193 9.02104 106.743 10.126C108.721 11.5424 111.67 12.0082 113.745 12.0082Z" fill="#00529C"/>
<path fill-rule="evenodd" clip-rule="evenodd" d="M75.2847 3.33887C75.7116 3.20296 76.2156 3.12511 76.7209 3.12511H77.2447V8.92384H76.7209C76.2162 8.92384 75.7116 8.84667 75.2847 8.71077C74.8975 8.59399 74.5472 8.43896 74.276 8.20677C73.7529 7.79906 73.3254 7.12023 73.3254 6.01457C73.3254 4.92872 73.7529 4.25057 74.276 3.84287C74.5472 3.60999 74.8975 3.45496 75.2847 3.33887ZM83.3918 10.3402C85.894 10.1852 87.2127 9.60335 87.9107 9.17653C89.2308 8.3816 89.8318 7.25682 89.8318 6.01526C89.8318 4.38648 88.7643 3.41672 87.9107 2.87379C86.7278 2.11779 85.0595 1.80638 83.3918 1.7094C82.9465 1.67116 82.4992 1.67116 82.0532 1.67116H81.569V0.138672H77.0883V1.67116H76.6219C76.1766 1.67116 75.73 1.67116 75.284 1.7094C73.5965 1.80638 71.9295 2.11711 70.7651 2.87379C69.9121 3.41672 68.8447 4.38648 68.8447 6.01526C68.8447 7.25682 69.4457 8.3816 70.7651 9.17653C71.4433 9.60335 72.7627 10.1859 75.284 10.3402C75.6918 10.36 76.1377 10.3785 76.6219 10.3785H77.0883V12.0086H81.569V10.3785H82.0532C82.5388 10.3785 82.9854 10.36 83.3918 10.3402ZM83.3918 3.33887C83.7797 3.45496 84.1293 3.60999 84.4018 3.84287C84.9249 4.25057 85.3511 4.92872 85.3511 6.01457C85.3511 7.12023 84.9249 7.79906 84.4018 8.20677C84.13 8.43896 83.7803 8.59399 83.3918 8.71077C82.9465 8.84667 82.4609 8.92384 81.9364 8.92384H81.4324V3.12511H81.9364C82.4609 3.12511 82.9465 3.20228 83.3918 3.33887Z" fill="#00529C"/>
<path fill-rule="evenodd" clip-rule="evenodd" d="M58.9719 1.57304C60.0782 1.57304 61.3765 1.80592 62.366 3.02767C63.1617 3.99743 63.2969 5.12289 63.2969 6.11177C63.2969 7.10133 63.161 8.20631 62.366 9.19519C61.3765 10.4176 60.0776 10.6498 58.9719 10.6498C57.8471 10.6498 56.5475 10.4176 55.5586 9.19519C54.763 8.20631 54.6476 7.10133 54.6476 6.11177C54.6476 5.12289 54.7637 3.99743 55.5586 3.02767C56.5475 1.80592 57.8471 1.57304 58.9719 1.57304ZM58.9719 12.0082C61.0473 12.0082 63.9955 11.5424 65.9541 10.126C67.4866 9.02104 68.2037 7.45031 68.2037 6.11177C68.2037 4.77392 67.486 3.2025 65.9541 2.09684C63.9955 0.681138 61.0466 0.216064 58.9719 0.216064C56.8774 0.216064 53.9292 0.681138 51.9705 2.09684C50.4189 3.2025 49.7012 4.77392 49.7012 6.11177C49.7012 7.45031 50.4189 9.02104 51.9705 10.126C53.9292 11.5424 56.8774 12.0082 58.9719 12.0082Z" fill="#00529C"/>
<path fill-rule="evenodd" clip-rule="evenodd" d="M42.0612 7.58561H42.8957C45.0483 7.58561 46.5419 7.35273 47.6086 6.73195C48.9465 5.93634 49.2572 4.85049 49.2572 3.99751C49.2572 3.16298 48.9465 2.07712 47.6086 1.32112C46.5419 0.719464 45.1064 0.525513 42.7018 0.525513H42.0612H35.04V11.6777H39.5207V7.58561H42.0612ZM42.0612 2.23215C42.6041 2.25195 43.3028 2.34893 43.8068 2.65898C44.4856 3.08512 44.6024 3.66766 44.6024 4.01663C44.6024 4.36561 44.5047 4.98639 43.7685 5.43234C43.2638 5.7622 42.6437 5.85917 42.0612 5.8981C41.9062 5.8981 41.7512 5.8981 41.5955 5.8981H39.52V2.21371H41.5955C41.7314 2.21371 41.8864 2.21371 42.0612 2.23215Z" fill="#00529C"/>
<path fill-rule="evenodd" clip-rule="evenodd" d="M7.38228 3.14454L9.61272 6.94502H5.15116L7.2655 3.06668H7.32355L7.38228 3.14454ZM10.5244 8.45839L12.4448 11.6777H17.4486L10.6603 0.525513H6.50882L0.341309 11.6777H2.57175L4.33643 8.45839H10.5244Z" fill="#00529C"/>
<path fill-rule="evenodd" clip-rule="evenodd" d="M122.124 2.21371H126.933V11.6777H131.414V2.21371H136.243V0.525513H122.124V2.21371Z" fill="#00529C"/>
<path fill-rule="evenodd" clip-rule="evenodd" d="M131.647 19.262H130.909L127.961 22.1139L128.95 19.262H128.194L126.875 23.141H127.632L130.561 20.2706L129.59 23.141H130.346L131.647 19.262Z" fill="#00529C"/>
<path fill-rule="evenodd" clip-rule="evenodd" d="M127.069 19.262H126.333L125.809 20.776H123.966L124.491 19.262H123.735L122.415 23.141H123.171L123.773 21.3374H125.615L124.995 23.141H125.771L127.069 19.262Z" fill="#00529C"/>
<path fill-rule="evenodd" clip-rule="evenodd" d="M122.61 19.262H121.873L118.925 22.1139L119.895 19.262H119.157L117.839 23.141H118.576L121.524 20.2706L120.554 23.141H121.292L122.61 19.262Z" fill="#00529C"/>
<path fill-rule="evenodd" clip-rule="evenodd" d="M115.723 19.2606L115.277 20.3677C115.084 20.8908 115.006 21.0649 114.811 21.472C114.559 22.0163 114.307 22.5394 113.649 22.6937L113.531 23.1977C113.919 23.1793 114.21 23.0229 114.405 22.9082C115.16 22.4226 115.413 21.5874 115.975 20.2297L116.169 19.7653H117.1L115.975 23.1383H116.712L118.031 19.2593H115.723V19.2606Z" fill="#00529C"/>
<path fill-rule="evenodd" clip-rule="evenodd" d="M99.198 21.3569C99.2949 21.3371 99.4308 21.3371 99.5852 21.3371H100.129L99.8577 22.1518C99.7409 22.3068 99.6248 22.4038 99.4691 22.5001C99.3735 22.5588 99.2765 22.5977 99.1986 22.6162C99.0627 22.6749 98.9275 22.6947 98.7909 22.6947C98.6352 22.6947 98.442 22.6749 98.3252 22.5199C98.2275 22.384 98.2275 22.229 98.2863 22.0343C98.345 21.8807 98.442 21.7263 98.655 21.5686C98.7704 21.4921 98.9262 21.3958 99.198 21.3569ZM99.6057 23.1407H100.265L101.118 20.62C101.254 20.2321 101.409 19.8449 101.196 19.5143C101.021 19.2623 100.595 19.1647 100.245 19.1647C99.7996 19.1647 99.4684 19.2234 99.198 19.3211C98.6352 19.5348 98.3832 19.9043 98.3634 20.2321L99.0224 20.271C99.0621 20.1365 99.1201 20.0388 99.198 19.9603C99.3735 19.7479 99.6644 19.6898 100.032 19.6898C100.188 19.6898 100.381 19.7096 100.459 19.8462C100.576 19.9808 100.517 20.1754 100.459 20.3502L100.304 20.8529H99.7409C99.5469 20.8529 99.3735 20.8529 99.198 20.8727C98.442 20.969 97.8021 21.2797 97.5302 22.076C97.3165 22.6763 97.5303 23.2001 98.3832 23.2001C98.6352 23.2001 98.907 23.1816 99.1782 23.0451H99.198C99.4684 22.9105 99.6822 22.7159 99.7409 22.6572H99.76L99.6057 23.1407Z" fill="#00529C"/>
<path fill-rule="evenodd" clip-rule="evenodd" d="M111.982 21.3569C112.098 21.3371 112.215 21.3371 112.37 21.3371H112.932L112.641 22.1518C112.523 22.3068 112.408 22.4038 112.253 22.5001C112.156 22.5588 112.059 22.5977 111.982 22.6162C111.846 22.6749 111.731 22.6947 111.594 22.6947C111.419 22.6947 111.227 22.6749 111.128 22.5199C111.012 22.384 111.012 22.229 111.07 22.0343C111.128 21.8807 111.227 21.7263 111.439 21.5686C111.555 21.4921 111.71 21.3958 111.982 21.3569ZM112.388 23.1407H113.068L113.921 20.62C114.037 20.2321 114.192 19.8449 113.979 19.5143C113.804 19.2623 113.378 19.1647 113.028 19.1647C112.601 19.1647 112.252 19.2234 111.981 19.3211C111.418 19.5348 111.186 19.9043 111.147 20.2321L111.806 20.271C111.845 20.1365 111.903 20.0388 111.981 19.9603C112.174 19.7479 112.446 19.6898 112.816 19.6898C112.97 19.6898 113.165 19.7096 113.261 19.8462C113.358 19.9808 113.32 20.1754 113.261 20.3502L113.085 20.8529H112.523C112.33 20.8529 112.156 20.8529 111.981 20.8727C111.226 20.969 110.584 21.2797 110.313 22.076C110.1 22.6763 110.313 23.2001 111.167 23.2001C111.418 23.2001 111.69 23.1816 111.981 23.0451C112.252 22.9105 112.466 22.7159 112.523 22.6572H112.563L112.388 23.1407Z" fill="#00529C"/>
<path fill-rule="evenodd" clip-rule="evenodd" d="M110.313 19.262H109.557L106.628 22.1139L107.599 19.262H106.842L105.522 23.141H106.279L109.208 20.2706L108.238 23.141H108.994L110.313 19.262Z" fill="#00529C"/>
<path fill-rule="evenodd" clip-rule="evenodd" d="M103.814 21.4152C103.949 21.4152 104.066 21.4726 104.143 21.5313C104.241 21.6474 104.241 21.8421 104.163 22.0169C104.085 22.2293 103.949 22.3836 103.834 22.4622C103.834 22.4622 103.814 22.4622 103.814 22.482C103.659 22.5783 103.445 22.6151 103.232 22.6151H102.32L102.729 21.3947H103.678C103.736 21.3954 103.775 21.3954 103.814 21.4152ZM103.814 19.7666H104.202C104.338 19.7666 104.512 19.7666 104.628 19.8827C104.745 20.0186 104.725 20.1532 104.687 20.3096C104.628 20.4646 104.551 20.6189 104.376 20.735C104.183 20.8709 104.008 20.8709 103.814 20.8709H102.902L103.289 19.7666H103.814ZM103.814 23.0843C104.066 23.0058 104.299 22.8699 104.473 22.7538C104.687 22.5789 104.9 22.3256 105.016 22.0176C105.094 21.7826 105.114 21.5696 104.997 21.377C104.92 21.2397 104.764 21.125 104.552 21.0847L104.571 21.0663C104.823 21.0075 105.037 20.8716 105.172 20.7357C105.307 20.6012 105.424 20.3874 105.501 20.1928C105.618 19.8445 105.559 19.6499 105.424 19.4942C105.231 19.2818 104.92 19.262 104.668 19.262H103.814H102.709L101.372 23.141H103.291C103.465 23.1403 103.64 23.1212 103.814 23.0843Z" fill="#00529C"/>
<path fill-rule="evenodd" clip-rule="evenodd" d="M90.9168 19.7465C91.0329 19.7076 91.149 19.6878 91.2453 19.6878C92.0013 19.6878 91.8278 20.3284 91.6919 20.6774L91.6339 20.8508H90.9161H90.0427L90.1014 20.6774C90.2953 20.0948 90.6252 19.8442 90.9168 19.7465ZM90.9168 21.3562H92.2157C92.7969 19.9583 92.7197 19.1633 91.4208 19.1633C91.2651 19.1633 91.0903 19.1831 90.9168 19.2221C90.1601 19.3969 89.4806 20.0184 89.0736 21.2585C88.5122 22.9085 89.1706 23.1981 90.0631 23.1981C90.3916 23.1981 90.6832 23.1591 90.9168 23.0833C91.5369 22.8689 91.8859 22.4421 91.9439 22.0159L91.304 21.9169C91.2651 22.033 91.1688 22.2864 90.9168 22.4612C90.7611 22.5773 90.5473 22.6736 90.2373 22.6736C90.0044 22.6736 89.4232 22.6148 89.7524 21.725L89.8692 21.3555H90.9168V21.3562Z" fill="#00529C"/>
<path fill-rule="evenodd" clip-rule="evenodd" d="M88.7841 19.262H88.0472L85.099 22.1139L86.0681 19.262H85.3319L84.0132 23.141H84.7692L87.6976 20.2706L86.7278 23.141H87.4845L88.7841 19.262Z" fill="#00529C"/>
<path fill-rule="evenodd" clip-rule="evenodd" d="M81.2188 19.2612L79.8994 23.1402H80.6554L81.2564 21.3953H81.9748C82.11 21.3953 82.2842 21.3953 82.362 21.5312C82.401 21.5886 82.4385 21.706 82.3812 21.8993L82.2835 22.4238C82.2261 22.6744 82.1865 22.9469 82.4973 23.1013C82.653 23.16 82.8852 23.1989 83.0218 23.1989L83.3325 22.6362C83.2738 22.6362 83.2157 22.6362 83.157 22.6164C83.0013 22.559 83.0218 22.404 83.0409 22.2886L83.0798 22.0181C83.0989 21.8433 83.1775 21.5899 83.0989 21.3967C83.06 21.2608 82.905 21.1631 82.7493 21.1262V21.1064C82.9439 21.0675 83.0791 20.9692 83.1952 20.8531C83.3318 20.6994 83.3892 20.6024 83.467 20.446L83.6029 20.1756C83.6603 20.0397 83.7573 19.8259 83.9519 19.7488C83.9901 19.729 84.0496 19.7098 84.223 19.69L84.3002 19.186C84.0093 19.225 83.7183 19.225 83.4472 19.4196C83.2143 19.5944 83.1174 19.8266 83.0204 20.0213L82.9036 20.2336C82.8066 20.4296 82.7479 20.5833 82.5546 20.7008C82.4194 20.8169 82.2637 20.8169 82.1285 20.8169H81.449L81.9735 19.2646H81.2188V19.2612Z" fill="#00529C"/>
<path fill-rule="evenodd" clip-rule="evenodd" d="M78.9504 22.3649C78.8152 22.4421 78.6397 22.4994 78.4649 22.5582C78.2511 22.6155 78.0968 22.6353 77.9028 22.6353C77.6508 22.6353 77.379 22.6155 77.2049 22.3833C76.9911 22.1129 77.127 21.6861 77.3025 21.2005C77.4377 20.7347 77.5934 20.3093 77.8653 20.0375C78.0196 19.8825 78.2518 19.6878 78.6602 19.6878C78.9313 19.6878 79.0863 19.7664 79.1642 19.9023C79.2605 20.0573 79.2031 20.2301 79.0863 20.4841L79.8041 20.4267C80.0745 19.9985 80.037 19.5717 79.7262 19.3593C79.5323 19.2221 79.242 19.1633 78.932 19.1633C78.5441 19.1633 78.0776 19.261 77.6904 19.4925C76.9727 19.9193 76.623 20.6972 76.468 21.1814C76.3328 21.5884 76.1395 22.3444 76.5267 22.8115C76.7787 23.1393 77.1864 23.1981 77.6324 23.1981C77.9233 23.1981 78.1753 23.1796 78.5052 23.0833C78.6793 23.0048 78.8726 22.9263 79.0679 22.83L78.9504 22.3649Z" fill="#00529C"/>
<path fill-rule="evenodd" clip-rule="evenodd" d="M75.574 17.5734C75.5351 17.671 75.477 17.768 75.3808 17.8452C75.2455 17.9613 75.0311 18.0214 74.8959 18.0214C74.7593 18.0214 74.566 17.9613 74.5271 17.8452C74.4684 17.768 74.4875 17.6703 74.5271 17.5734H73.9842C73.8476 17.8643 73.8674 18.1552 74.0415 18.3123C74.2164 18.4858 74.5271 18.5042 74.721 18.5042C74.9546 18.5042 75.2455 18.4858 75.5549 18.3123C75.8458 18.1552 76.0405 17.8643 76.117 17.5734H75.574Z" fill="#00529C"/>
<path fill-rule="evenodd" clip-rule="evenodd" d="M76.1595 19.262H75.4213L72.4737 22.1139L73.4428 19.262H72.7059L71.3872 23.141H72.1432L75.0723 20.2706L74.1032 23.141H74.8592L76.1595 19.262Z" fill="#00529C"/>
<path fill-rule="evenodd" clip-rule="evenodd" d="M71.58 19.262H70.8431L67.8956 22.1139L68.8661 19.262H68.1278L66.8091 23.141H67.5466L70.4757 20.2706L69.5053 23.141H70.262L71.58 19.262Z" fill="#00529C"/>
<path fill-rule="evenodd" clip-rule="evenodd" d="M65.9949 22.3649C65.8207 22.4421 65.6841 22.4994 65.4909 22.5582C65.2771 22.6155 65.1221 22.6353 64.9083 22.6353C64.6761 22.6353 64.3852 22.6155 64.2295 22.3833C64.0362 22.1129 64.1523 21.6861 64.3272 21.2005C64.4822 20.7347 64.6379 20.3093 64.909 20.0375C65.0449 19.8825 65.2969 19.6878 65.6848 19.6878C65.9559 19.6878 66.1116 19.7664 66.2086 19.9023C66.2858 20.0573 66.2284 20.2301 66.1315 20.4841L66.8294 20.4267C67.1005 19.9985 67.0814 19.5717 66.7714 19.3593C66.5774 19.2221 66.2674 19.1633 65.9566 19.1633C65.5687 19.1633 65.103 19.261 64.7157 19.4925C63.998 19.9193 63.6681 20.6972 63.4933 21.1814C63.3574 21.5884 63.1635 22.3444 63.5514 22.8115C63.804 23.1393 64.2302 23.1981 64.657 23.1981C64.9479 23.1981 65.2197 23.1796 65.5298 23.0833C65.6848 23.0048 65.8986 22.9263 66.0727 22.83L65.9949 22.3649Z" fill="#00529C"/>
<path fill-rule="evenodd" clip-rule="evenodd" d="M62.1746 22.3649C62.0005 22.4421 61.8454 22.4994 61.6706 22.5582C61.4569 22.6155 61.3018 22.6353 61.0888 22.6353C60.8559 22.6353 60.565 22.6155 60.4099 22.3833C60.1962 22.1129 60.3321 21.6861 60.5069 21.2005C60.6421 20.7347 60.7978 20.3093 61.0888 20.0375C61.2247 19.8825 61.4575 19.6878 61.8646 19.6878C62.1166 19.6878 62.2907 19.7664 62.3686 19.9023C62.4464 20.0573 62.4075 20.2301 62.2907 20.4841L63.0092 20.4267C63.2803 19.9985 63.2413 19.5717 62.9511 19.3593C62.7565 19.2221 62.4464 19.1633 62.1364 19.1633C61.7485 19.1633 61.2827 19.261 60.8948 19.4925C60.1771 19.9193 59.8472 20.6972 59.6724 21.1814C59.5371 21.5884 59.3432 22.3444 59.7311 22.8115C59.9831 23.1393 60.4099 23.1981 60.8368 23.1981C61.1277 23.1981 61.3988 23.1796 61.7095 23.0833C61.8652 23.0048 62.0783 22.9263 62.2525 22.83L62.1746 22.3649Z" fill="#00529C"/>
<path fill-rule="evenodd" clip-rule="evenodd" d="M57.1503 19.8046C57.2856 19.7472 57.4604 19.6885 57.6741 19.6885C57.9842 19.6885 58.1392 19.8244 58.198 19.9405C58.353 20.2314 58.2171 20.6596 58.159 20.8515L57.907 21.5317C57.849 21.7263 57.6933 22.1518 57.3641 22.4243C57.3061 22.483 57.248 22.5206 57.151 22.5793C57.0151 22.6367 56.8594 22.6954 56.647 22.6954C56.3165 22.6954 56.1621 22.5595 56.1041 22.425C55.9682 22.1532 56.1041 21.7277 56.1621 21.5324L56.3943 20.8522C56.4722 20.6603 56.6272 20.2321 56.9571 19.9412C57.0138 19.9036 57.0725 19.8449 57.1503 19.8046ZM57.8483 19.1647C57.5963 19.1647 57.3634 19.2036 57.1503 19.2623C56.8785 19.3614 56.6463 19.4945 56.4326 19.6707C55.8897 20.0962 55.6185 20.6992 55.4628 21.2018C55.288 21.669 55.133 22.2693 55.3857 22.7159C55.5598 23.0068 55.8897 23.2001 56.4715 23.2001C56.7235 23.2001 56.9564 23.1816 57.1503 23.1024C57.4413 23.0253 57.6741 22.89 57.8872 22.7159C58.4301 22.2693 58.702 21.669 58.8761 21.2018C59.0318 20.6992 59.167 20.0962 58.915 19.6707C58.76 19.3777 58.4301 19.1647 57.8483 19.1647Z" fill="#00529C"/>
<path fill-rule="evenodd" clip-rule="evenodd" d="M54.0464 18.1752H54.5313C54.784 18.1752 55.0742 18.2538 55.1903 18.4088C55.2682 18.486 55.4041 18.6792 55.2682 19.0678C55.1323 19.4762 54.8803 19.7084 54.7642 19.7856C54.5122 19.9788 54.2595 20.0574 54.0464 20.0574C53.9891 20.0772 53.9303 20.0772 53.8723 20.0772H52.7666L53.4065 18.1752H54.0464ZM54.0464 20.698C54.3954 20.6782 54.9192 20.5607 55.385 20.1926C55.7531 19.9406 56.0638 19.5138 56.2188 19.0685C56.3151 18.7578 56.393 18.2551 56.0447 17.9041C55.6957 17.5749 55.191 17.536 54.7253 17.536H54.0464H52.8049L50.9043 23.1408H51.7388L52.5529 20.7171H53.7555C53.8334 20.7164 53.9303 20.7164 54.0464 20.698Z" fill="#00529C"/>
<path fill-rule="evenodd" clip-rule="evenodd" d="M136.243 19.262H135.487L132.558 22.1139L133.528 19.262H132.771L131.453 23.141H132.209L135.138 20.2706L134.169 23.141H134.925L136.243 19.262Z" fill="#00529C"/>
<path fill-rule="evenodd" clip-rule="evenodd" d="M7.7695 25.0207L6.15985 24.3227L12.832 23.5094C12.9481 23.7026 13.0649 23.8775 13.2008 24.0523L7.7695 25.0207ZM25.6711 25.0207L27.2807 24.2845L20.6475 23.4896C20.5894 23.7033 20.4146 23.8775 20.2985 24.0523L25.6711 25.0207ZM24.702 25.1382L22.6846 25.817L19.8143 24.9449L19.5616 24.8677C19.6586 24.7892 19.7364 24.7113 19.8143 24.6157C19.9304 24.5181 20.0274 24.3821 20.1441 24.2852L24.702 25.1382ZM30.0357 23.2574L28.1931 24.111L20.823 23.2574C20.881 23.0839 20.9397 22.9091 20.9978 22.7329L30.0357 23.2574ZM30.6947 23.0054L33.0993 21.4729H20.0663C20.0663 22.0172 19.9884 22.4829 19.8143 22.8893C19.3096 24.1882 18.0496 24.809 16.7882 24.7885C15.5474 24.7496 14.2867 24.111 13.7239 22.9261C13.53 22.4993 13.4139 22.0336 13.4139 21.4722H0.341309L2.72745 23.0047L12.7159 22.4816C12.9092 23.198 13.2582 23.8194 13.7239 24.2838C14.5196 25.119 15.6635 25.5841 16.7882 25.5841C17.8939 25.6039 19.0194 25.1976 19.8143 24.3036C20.2411 23.8379 20.5703 23.2362 20.7642 22.5191L30.6947 23.0054ZM19.8143 26.9602L20.0663 27.4273L19.8143 27.5448L19.1355 27.8541L18.3597 26.3217C17.8755 26.4965 17.3318 26.5935 16.7882 26.6126C16.2064 26.6324 15.6054 26.5539 15.0816 26.379L14.4219 27.8541C14.2081 27.8726 13.9172 27.8541 13.7239 27.7196C13.627 27.6609 13.53 27.5632 13.4917 27.4273L13.7239 27.0394L14.2867 26.0294C14.1118 25.9146 13.9568 25.8375 13.8018 25.6811L14.2676 25.1197C15.0625 25.6053 15.9353 25.8757 16.7882 25.8757C17.6419 25.8955 18.4949 25.6223 19.2905 25.061L19.815 25.216L20.028 25.2945C19.9509 25.3519 19.8921 25.4106 19.815 25.4694C19.6593 25.623 19.524 25.7787 19.272 25.9146L19.8143 26.9602ZM19.8143 19.0287C20.3183 19.6303 20.6864 20.3679 20.881 21.2202H20.0472C19.9891 20.9668 19.9119 20.7162 19.815 20.484C19.2522 19.0102 18.1077 17.962 16.7889 17.0878C16.6148 16.9915 16.4597 16.8754 16.2849 16.7784C16.4597 16.8372 16.6148 16.8959 16.7889 16.9546C17.9909 17.4375 19.0576 18.0979 19.8143 19.0287ZM17.564 24.4976C17.7778 24.4586 18.107 24.3425 18.3597 24.1493L17.0402 21.5309L18.4177 20.8705L17.254 19.8619L16.7882 20.077L14.7907 20.9866L15.3725 22.3061L16.3232 21.8806L17.564 24.4976ZM13.9568 24.867C13.879 24.8083 13.8011 24.7311 13.7239 24.6724C13.5689 24.5379 13.433 24.402 13.336 24.2654L8.7816 25.1259L10.7204 25.7767L13.9568 24.867ZM12.7159 23.2574C12.6381 23.0839 12.58 22.9091 12.5213 22.7329L3.4056 23.2574L5.24814 24.15L12.7159 23.2574Z" fill="#00529C"/>
</g>
<defs>
<clipPath id="clip0_6650_19484">
<rect width="136.585" height="28" fill="white"/>
</clipPath>
</defs>
</svg>
