<svg width="100" height="28" viewBox="0 0 100 28" fill="none" xmlns="http://www.w3.org/2000/svg">
<g clip-path="url(#clip0_7026_3185)">
<path d="M28.0004 14C28.0004 7.99614 23.1142 3.11108 17.109 3.11108C11.1038 3.11108 6.22266 7.99614 6.22266 14C6.22266 20.0037 11.1089 24.8889 17.1141 24.8889H17.1192L19.5294 22.216V9.46421H17.6761L13.838 11.9346V14.5568L17.033 12.5774V22.5906C12.3291 22.5501 8.51639 18.7129 8.51639 14.005C8.51639 9.27185 12.3697 5.41947 17.1039 5.41947C21.8383 5.41947 25.6915 9.27185 25.6915 14.005C25.6915 16.683 24.456 19.0824 22.5268 20.6568L23.7826 22.5957C26.3549 20.5961 28.0004 17.4878 28.0004 14Z" fill="#657591"/>
<path fill-rule="evenodd" clip-rule="evenodd" d="M84.6842 15.2442C84.6842 16.9266 85.3244 17.9748 86.7111 18.4488L84.0254 22.4211H86.311L88.6706 18.7492H90.4237V22.4211H92.4501V11.7659C92.3559 11.7605 92.2628 11.7551 92.1703 11.7498C91.2295 11.6956 90.3665 11.6458 89.2978 11.6458C85.9772 11.6458 84.6842 12.8074 84.6842 15.2442ZM89.1775 13.4283C89.6174 13.4283 89.9979 13.4283 90.4575 13.475V17.0735H88.9646C87.2572 17.0735 86.771 16.4927 86.771 15.291C86.771 14.0826 87.1843 13.4283 89.1775 13.4283Z" fill="#657591"/>
<path fill-rule="evenodd" clip-rule="evenodd" d="M54.0215 11.812C54.1684 11.8015 54.3119 11.791 54.4539 11.7805C55.3109 11.7174 56.1114 11.6584 57.2613 11.6584C60.5946 11.6584 61.8144 12.74 61.8144 15.2903C61.8144 18.0342 60.4612 19.2827 57.2484 19.2827C56.8547 19.2827 56.4545 19.2693 56.0479 19.2225V22.4271H54.0215V11.812ZM57.2484 17.5802C59.0876 17.5802 59.7276 16.9526 59.7276 15.4305C59.7276 13.9684 59.1479 13.3875 57.2741 13.3875C56.8341 13.3875 56.4545 13.3875 56.0415 13.4343V17.5201C56.4686 17.5602 56.8085 17.5802 57.2484 17.5802Z" fill="#657591"/>
<path d="M41.5278 11.752H32.709V22.4273H34.7354V13.5546H39.5014V22.4273H41.5278V11.752Z" fill="#657591"/>
<path d="M51.5811 11.752H44.5488V22.4273H51.5811V20.658H46.5753V17.8674H51.0681V16.1716H46.5753V13.5212H51.5811V11.752Z" fill="#657591"/>
<path fill-rule="evenodd" clip-rule="evenodd" d="M67.5847 11.666C66.5922 11.666 65.2387 11.7261 64.0654 11.7862V22.3947C65.212 22.4881 66.4125 22.5349 67.478 22.5349C70.9641 22.5349 72.0454 21.5602 72.0454 19.3036C72.0454 17.8548 71.3452 16.9669 69.7777 16.8467C70.9978 16.5129 71.6044 15.7185 71.6044 14.41C71.6044 12.4739 70.7049 11.666 67.5847 11.666ZM69.5981 14.8506C69.5981 15.7852 69.1854 16.286 67.845 16.286H66.0984V13.4352C66.6319 13.3885 67.1448 13.3885 67.6653 13.3885C69.2649 13.3885 69.5981 13.6756 69.5981 14.8506ZM69.9922 19.2234C69.9922 20.3651 69.5186 20.8257 67.705 20.8257C67.1715 20.8257 66.6123 20.7991 66.0984 20.7457V17.728H67.8782C69.3983 17.728 69.9922 18.0819 69.9922 19.2234Z" fill="#657591"/>
<path fill-rule="evenodd" clip-rule="evenodd" d="M80.1932 19.9236H76.02L75.1544 22.4273H73.1279L77.006 11.752H79.3068L83.2061 22.4273H81.073L80.1932 19.9236ZM76.62 18.2212H79.6074L78.1129 13.9684L76.62 18.2212Z" fill="#657591"/>
<path d="M33.231 8.2275C33.2677 8.25418 33.3094 8.27586 33.3561 8.29254C33.4028 8.30922 33.4578 8.31756 33.5212 8.31756C33.5879 8.31756 33.6597 8.29588 33.7364 8.25252C33.8131 8.20916 33.8798 8.12411 33.9365 7.99736L32.5156 5.20068H33.0459L34.1766 7.44703L35.1422 5.20068H35.6125L34.3617 8.04739C34.2984 8.18748 34.235 8.30255 34.1716 8.3926C34.1116 8.48265 34.0482 8.55436 33.9815 8.60771C33.9181 8.65775 33.8497 8.69276 33.7764 8.71279C33.7063 8.73283 33.6313 8.74279 33.5513 8.74279C33.4345 8.74279 33.3278 8.72112 33.231 8.67778V8.2275Z" fill="#657591"/>
<path d="M36.0205 6.05127H38.1318V8.70285H37.7165V6.44151H36.4358V8.70285H36.0205V6.05127Z" fill="#657591"/>
<path d="M39.0449 6.05125H39.4252L39.4502 6.51653C39.5902 6.17299 39.8988 6.00122 40.3757 6.00122C40.7193 6.00122 40.9761 6.10462 41.1462 6.31141C41.3163 6.51486 41.4013 6.85173 41.4013 7.32202C41.4013 7.57884 41.378 7.79897 41.3313 7.98241C41.2846 8.16252 41.2145 8.31094 41.1212 8.42768C41.0311 8.54108 40.9177 8.62448 40.7809 8.67784C40.6442 8.7312 40.4858 8.75787 40.3057 8.75787C40.0789 8.75787 39.8971 8.71786 39.7603 8.63782C39.6269 8.55442 39.5269 8.45769 39.4602 8.34763V9.6034H39.0449V6.05125ZM39.4602 7.63721C39.4602 7.86734 39.5252 8.04912 39.6553 8.18253C39.7887 8.31594 39.9771 8.38265 40.2206 8.38265C40.3607 8.38265 40.4791 8.36431 40.5758 8.32762C40.6725 8.29093 40.7509 8.2309 40.811 8.14751C40.871 8.06413 40.9144 7.95739 40.9411 7.82732C40.9711 7.69724 40.9861 7.53714 40.9861 7.34703C40.9861 7.16692 40.9694 7.01516 40.936 6.89176C40.9027 6.76501 40.8543 6.66495 40.791 6.59158C40.7276 6.51486 40.6475 6.45983 40.5508 6.42648C40.4574 6.39312 40.349 6.37645 40.2256 6.37645C40.0955 6.37645 39.9821 6.39479 39.8854 6.43148C39.7887 6.46817 39.7087 6.51986 39.6453 6.58657C39.5819 6.64994 39.5352 6.72666 39.5052 6.81671C39.4752 6.90676 39.4602 7.00349 39.4602 7.10688V7.63721Z" fill="#657591"/>
<path d="M43.6102 8.32262C43.5435 8.44269 43.4401 8.54608 43.3 8.63281C43.1633 8.71617 42.9998 8.75787 42.8097 8.75787C42.5429 8.75787 42.3328 8.69118 42.1794 8.55774C42.0259 8.42101 41.9492 8.22422 41.9492 7.9674C41.9492 7.82065 41.9676 7.69724 42.0043 7.59718C42.0443 7.49378 42.106 7.4104 42.1894 7.34703C42.276 7.28032 42.3861 7.23196 42.5196 7.20194C42.653 7.17192 42.8147 7.15691 43.0048 7.15691H43.6002V6.90676C43.6002 6.80004 43.5869 6.71332 43.5602 6.64661C43.5368 6.57657 43.4985 6.5232 43.4451 6.48651C43.3917 6.44649 43.3234 6.41981 43.24 6.40647C43.16 6.38979 43.0649 6.38145 42.9548 6.38145C42.8047 6.38145 42.6547 6.4098 42.5046 6.4665C42.3578 6.5232 42.2394 6.58991 42.1494 6.66662V6.18633C42.2027 6.15632 42.2644 6.12963 42.3345 6.10628C42.4078 6.08294 42.4829 6.06459 42.5596 6.05125C42.6363 6.03457 42.713 6.0229 42.7897 6.01623C42.8664 6.00622 42.9365 6.00122 42.9998 6.00122C43.1733 6.00122 43.3234 6.01623 43.4501 6.04625C43.5802 6.07627 43.6869 6.1263 43.7703 6.19634C43.8537 6.26638 43.9154 6.35977 43.9554 6.4765C43.9955 6.58991 44.0154 6.73166 44.0154 6.90176V8.70283H43.6352L43.6102 8.32262ZM42.3745 7.90236C42.3745 8.04578 42.4145 8.15752 42.4945 8.23757C42.5746 8.31761 42.7063 8.35764 42.8898 8.35764C43.1366 8.35764 43.3167 8.29426 43.4301 8.16752C43.5435 8.04078 43.6002 7.88068 43.6002 7.68723V7.4621H43.0199C42.8931 7.4621 42.788 7.47044 42.7047 7.48711C42.6213 7.50379 42.5546 7.53047 42.5046 7.56716C42.4578 7.60052 42.4245 7.64554 42.4045 7.70225C42.3845 7.75561 42.3745 7.82232 42.3745 7.90236Z" fill="#657591"/>
<path d="M44.8994 6.04637C44.9962 6.0397 45.1179 6.03303 45.2646 6.02636C45.4147 6.01969 45.5931 6.01636 45.8 6.01636C46.0134 6.01636 46.1885 6.03137 46.3253 6.06138C46.462 6.0914 46.5704 6.13309 46.6505 6.18646C46.7305 6.23982 46.7855 6.30653 46.8156 6.38658C46.8489 6.46329 46.8656 6.54834 46.8656 6.64173C46.8656 6.81183 46.8272 6.94858 46.7505 7.05198C46.6738 7.15204 46.5404 7.22875 46.3503 7.28211C46.5737 7.30213 46.7355 7.35716 46.8356 7.44722C46.939 7.53727 46.9907 7.69236 46.9907 7.91249C46.9907 8.0359 46.9723 8.14931 46.9356 8.2527C46.8989 8.35276 46.8356 8.43948 46.7455 8.51285C46.6588 8.58623 46.5404 8.64296 46.3903 8.68298C46.2435 8.72299 46.0601 8.74297 45.84 8.74297C45.7533 8.74297 45.6632 8.74134 45.5698 8.73796C45.4797 8.73796 45.3931 8.73633 45.3097 8.73301C45.2263 8.72963 45.1496 8.72463 45.0795 8.71798C45.0095 8.71466 44.9494 8.71129 44.8994 8.70797V6.04637ZM45.3147 8.35776C45.4014 8.36443 45.4881 8.3711 45.5748 8.37778C45.6648 8.38111 45.7583 8.38278 45.855 8.38278C45.9917 8.38278 46.1051 8.3761 46.1952 8.36277C46.2886 8.34609 46.3636 8.31941 46.4203 8.28272C46.4771 8.24603 46.5171 8.19767 46.5404 8.13763C46.5637 8.07759 46.5754 8.00422 46.5754 7.9175C46.5754 7.76741 46.5237 7.66401 46.4203 7.60731C46.3203 7.54728 46.1568 7.51726 45.9301 7.51726H45.3147V8.35776ZM45.9301 7.16204C46.0868 7.16204 46.2119 7.13036 46.3053 7.06699C46.3987 7.00361 46.4454 6.90189 46.4454 6.76181C46.4454 6.61171 46.3987 6.50999 46.3053 6.45662C46.2152 6.40326 46.0568 6.37657 45.83 6.37657C45.7032 6.37657 45.5998 6.37657 45.5198 6.37657C45.4397 6.37657 45.3713 6.37824 45.3147 6.38158V7.16204H45.9301Z" fill="#657591"/>
<path d="M47.3926 8.23758C47.4326 8.25092 47.476 8.2576 47.5226 8.2576C47.556 8.2576 47.591 8.25259 47.6277 8.24259C47.6644 8.23258 47.6994 8.20923 47.7328 8.17254C47.7662 8.13252 47.7979 8.07415 47.8279 7.99744C47.8612 7.91739 47.8895 7.80899 47.9129 7.67224C47.9396 7.5355 47.9613 7.36372 47.978 7.15693C47.9946 6.94681 48.008 6.69332 48.018 6.39648L48.028 6.05127H49.7891V8.70285H49.3738V6.45151H48.4032L48.3982 6.61161C48.3815 7.08189 48.3482 7.45878 48.2982 7.74229C48.2514 8.02245 48.1914 8.23925 48.1181 8.39267C48.048 8.54277 47.9679 8.64116 47.8779 8.68788C47.7878 8.73454 47.6928 8.75789 47.5927 8.75789C47.5527 8.75789 47.5177 8.75621 47.4876 8.75288C47.461 8.75288 47.4293 8.74624 47.3926 8.7329V8.23758Z" fill="#657591"/>
<path d="M51.1622 7.68187C51.0554 7.6652 50.9671 7.63351 50.897 7.58681C50.827 7.53678 50.7719 7.47842 50.7319 7.41171C50.6919 7.34167 50.6635 7.26329 50.6469 7.17657C50.6302 7.08652 50.6218 6.99312 50.6218 6.8964C50.6218 6.75632 50.6402 6.63291 50.6769 6.52618C50.7169 6.41611 50.7836 6.32439 50.877 6.25101C50.9704 6.17764 51.0938 6.1226 51.2472 6.08591C51.4007 6.04589 51.5908 6.02588 51.8176 6.02588C51.9643 6.02588 52.1161 6.02921 52.2729 6.03589C52.4296 6.03922 52.5564 6.04756 52.6531 6.0609V8.70247H52.2379V7.75191H51.5875L50.907 8.70247H50.4268L51.1622 7.68187ZM52.2379 6.41111C52.1745 6.40444 52.1111 6.39943 52.0477 6.3961C51.9844 6.39276 51.8959 6.3911 51.7825 6.3911C51.6325 6.3911 51.5091 6.4011 51.4123 6.42111C51.3156 6.43779 51.2389 6.46614 51.1822 6.50617C51.1288 6.54619 51.0905 6.59955 51.0671 6.66626C51.0471 6.72963 51.0371 6.80968 51.0371 6.9064C51.0371 7.10652 51.0855 7.24327 51.1822 7.31665C51.2822 7.39003 51.449 7.42672 51.6825 7.42672H52.2379V6.41111Z" fill="#657591"/>
<path d="M55.7398 6.00122C55.9299 6.00122 56.0967 6.02624 56.2401 6.07627C56.3869 6.12296 56.5102 6.20134 56.6103 6.31141C56.7104 6.42147 56.7854 6.5649 56.8354 6.74167C56.8888 6.9151 56.9155 7.1269 56.9155 7.37705C56.9155 7.63387 56.8888 7.85067 56.8354 8.02744C56.7821 8.20087 56.7037 8.34263 56.6003 8.45269C56.4969 8.55942 56.3685 8.63782 56.2151 8.68786C56.065 8.73452 55.8915 8.75787 55.6948 8.75787C55.488 8.75787 55.3112 8.72951 55.1644 8.67283C55.0177 8.6161 54.8959 8.53608 54.7992 8.43268C54.7025 8.32595 54.6291 8.19587 54.5791 8.04245C54.529 7.88902 54.5007 7.71725 54.494 7.52714H53.9787V8.70283H53.5635V6.05125H53.9787V7.15191H54.5041C54.5341 6.77169 54.6458 6.48485 54.8392 6.29139C55.0327 6.09795 55.3329 6.00122 55.7398 6.00122ZM54.9093 7.37705C54.9093 7.73059 54.976 7.98575 55.1094 8.1425C55.2428 8.29927 55.443 8.37765 55.7098 8.37765C55.8298 8.37765 55.9365 8.36264 56.03 8.33262C56.1267 8.3026 56.2084 8.2509 56.2751 8.17753C56.3452 8.10082 56.3968 7.99909 56.4302 7.87235C56.4669 7.7456 56.4852 7.58551 56.4852 7.39206C56.4852 7.19527 56.4702 7.03184 56.4402 6.90176C56.4135 6.77169 56.3668 6.66829 56.3001 6.59158C56.2368 6.51153 56.1533 6.4565 56.05 6.42648C55.9499 6.39312 55.8281 6.37645 55.6847 6.37645C55.5447 6.37645 55.4262 6.39479 55.3295 6.43148C55.2328 6.46483 55.1528 6.52154 55.0894 6.60158C55.026 6.67829 54.9793 6.78002 54.9493 6.90676C54.9226 7.03351 54.9093 7.19027 54.9093 7.37705Z" fill="#657591"/>
<path d="M57.6514 6.05127H58.0666V8.30763H59.0372V6.05127H59.4524V8.30763H60.423V6.05127H60.8383V8.30763H61.2238V9.35324H60.8334V8.70285H57.6514V6.05127Z" fill="#657591"/>
<path d="M63.2939 8.32262C63.2269 8.44269 63.124 8.54608 62.9836 8.63281C62.8469 8.71617 62.6836 8.75787 62.4936 8.75787C62.2268 8.75787 62.0166 8.69118 61.8631 8.55774C61.7096 8.42101 61.6328 8.22422 61.6328 7.9674C61.6328 7.82065 61.6513 7.69724 61.6878 7.59718C61.7281 7.49378 61.7896 7.4104 61.8729 7.34703C61.96 7.28032 62.07 7.23196 62.2034 7.20194C62.3368 7.17192 62.4985 7.15691 62.6885 7.15691H63.2841V6.90676C63.2841 6.80004 63.2705 6.71332 63.2438 6.64661C63.2204 6.57657 63.1823 6.5232 63.1289 6.48651C63.0756 6.44649 63.007 6.41981 62.9237 6.40647C62.8437 6.38979 62.7484 6.38145 62.6384 6.38145C62.4887 6.38145 62.3384 6.4098 62.1881 6.4665C62.0417 6.5232 61.923 6.58991 61.8332 6.66662V6.18633C61.8865 6.15632 61.948 6.12963 62.0183 6.10628C62.0912 6.08294 62.1664 6.06459 62.2431 6.05125C62.3199 6.03457 62.3967 6.0229 62.4734 6.01623C62.5502 6.00622 62.6199 6.00122 62.6836 6.00122C62.8567 6.00122 63.007 6.01623 63.1338 6.04625C63.264 6.07627 63.3707 6.1263 63.454 6.19634C63.5373 6.26638 63.5993 6.35977 63.6391 6.4765C63.6794 6.58991 63.699 6.73166 63.699 6.90176V8.70283H63.319L63.2939 8.32262ZM62.058 7.90236C62.058 8.04578 62.0983 8.15752 62.1783 8.23757C62.2584 8.31761 62.3901 8.35764 62.5736 8.35764C62.8202 8.35764 63.0005 8.29426 63.1137 8.16752C63.2269 8.04078 63.2841 7.88068 63.2841 7.68723V7.4621H62.7037C62.5769 7.4621 62.4718 7.47044 62.3885 7.48711C62.3052 7.50379 62.2382 7.53047 62.1881 7.56716C62.1413 7.60052 62.1081 7.64554 62.088 7.70225C62.0684 7.75561 62.058 7.82232 62.058 7.90236Z" fill="#657591"/>
<path d="M65.0373 7.68187C64.9306 7.6652 64.8424 7.63351 64.7722 7.58681C64.7025 7.53678 64.6469 7.47842 64.6072 7.41171C64.5669 7.34167 64.5386 7.26329 64.5223 7.17657C64.5054 7.08652 64.4972 6.99312 64.4972 6.8964C64.4972 6.75632 64.5152 6.63291 64.5522 6.52618C64.5919 6.41611 64.6589 6.32439 64.752 6.25101C64.8457 6.17764 64.9692 6.1226 65.1222 6.08591C65.2758 6.04589 65.4658 6.02588 65.6928 6.02588C65.8398 6.02588 65.9912 6.02921 66.148 6.03589C66.3048 6.03922 66.4316 6.04756 66.5285 6.0609V8.70247H66.1131V7.75191H65.4625L64.7825 8.70247H64.3018L65.0373 7.68187ZM66.1131 6.41111C66.0494 6.40444 65.9863 6.39943 65.9231 6.3961C65.8594 6.39276 65.7712 6.3911 65.658 6.3911C65.5077 6.3911 65.3841 6.4011 65.2877 6.42111C65.1908 6.43779 65.1141 6.46614 65.0574 6.50617C65.0041 6.54619 64.9654 6.59955 64.9426 6.66626C64.9224 6.72963 64.9121 6.80968 64.9121 6.9064C64.9121 7.10652 64.9605 7.24327 65.0574 7.31665C65.1576 7.39003 65.3242 7.42672 65.5578 7.42672H66.1131V6.41111Z" fill="#657591"/>
<path d="M69.7391 7.50214H69.3035V8.70285H68.8887V6.05127H69.3035V7.17695H69.744L70.6293 6.05127H71.1046L70.0941 7.31203L71.2096 8.70285H70.7044L69.7391 7.50214Z" fill="#657591"/>
<path d="M71.4883 7.36704C71.4883 7.1369 71.5199 6.93678 71.583 6.76668C71.6467 6.59658 71.7349 6.45482 71.8482 6.34143C71.9619 6.22803 72.097 6.14297 72.2538 6.08627C72.4138 6.02957 72.5886 6.00122 72.7792 6.00122C72.9588 6.00122 73.1227 6.0279 73.2692 6.08127C73.4162 6.13464 73.5392 6.21802 73.6394 6.33142C73.7428 6.44482 73.8229 6.58824 73.8795 6.76168C73.9361 6.93512 73.9644 7.14191 73.9644 7.38205C73.9644 7.6322 73.9312 7.844 73.8648 8.01743C73.8011 8.19087 73.7129 8.33262 73.5996 8.44269C73.4891 8.55275 73.359 8.63281 73.2093 8.68285C73.059 8.73288 72.8973 8.75787 72.7236 8.75787C72.3267 8.75787 72.0218 8.63614 71.8084 8.39266C71.595 8.14918 71.4883 7.80731 71.4883 7.36704ZM71.9031 7.38205C71.9031 7.69891 71.975 7.94572 72.1187 8.1225C72.2652 8.29593 72.4786 8.38265 72.759 8.38265C73.0056 8.38265 73.1989 8.30427 73.3394 8.14751C73.4793 7.98741 73.5495 7.73226 73.5495 7.38205V7.36704C73.5495 7.03017 73.4777 6.78002 73.3345 6.61659C73.194 6.45316 72.9909 6.37144 72.7236 6.37144C72.4601 6.37144 72.257 6.4565 72.1133 6.6266C71.9734 6.79337 71.9031 7.04018 71.9031 7.36704V7.38205Z" fill="#657591"/>
<path d="M74.6953 6.05127H75.2457L76.0864 7.62722L76.8916 6.05127H77.417V8.70285H77.0016V7.30703C77.0016 7.15693 77.0087 7.00851 77.0217 6.86176C77.0353 6.71167 77.0484 6.56158 77.062 6.41148C76.9852 6.58159 76.9134 6.74168 76.8464 6.89178C76.78 7.03853 76.7185 7.16194 76.6613 7.262L76.2012 8.06248H75.916L75.4809 7.267C75.4243 7.16027 75.359 7.03353 75.2855 6.88677C75.2125 6.74002 75.1358 6.58326 75.0557 6.41649C75.0688 6.56658 75.0808 6.71834 75.0906 6.87176C75.1042 7.02186 75.1107 7.17361 75.1107 7.32704V8.70285H74.6953V6.05127Z" fill="#657591"/>
<path d="M78.3301 6.05127H80.4414V8.70285H80.0266V6.44151H78.7455V8.70285H78.3301V6.05127Z" fill="#657591"/>
<path d="M82.8388 8.32262C82.7724 8.44269 82.669 8.54608 82.5285 8.63281C82.3918 8.71617 82.2285 8.75787 82.0385 8.75787C81.7717 8.75787 81.5616 8.69118 81.408 8.55774C81.2545 8.42101 81.1777 8.22422 81.1777 7.9674C81.1777 7.82065 81.1962 7.69724 81.2327 7.59718C81.273 7.49378 81.3345 7.4104 81.4178 7.34703C81.505 7.28032 81.6149 7.23196 81.7483 7.20194C81.8817 7.17192 82.0434 7.15691 82.2334 7.15691H82.829V6.90676C82.829 6.80004 82.8154 6.71332 82.7887 6.64661C82.7653 6.57657 82.7272 6.5232 82.6739 6.48651C82.6205 6.44649 82.5519 6.41981 82.4686 6.40647C82.3886 6.38979 82.2933 6.38145 82.1833 6.38145C82.0336 6.38145 81.8833 6.4098 81.7331 6.4665C81.5866 6.5232 81.4679 6.58991 81.3781 6.66662V6.18633C81.4314 6.15632 81.493 6.12963 81.5632 6.10628C81.6367 6.08294 81.7113 6.06459 81.7881 6.05125C81.8648 6.03457 81.9416 6.0229 82.0184 6.01623C82.0951 6.00622 82.1654 6.00122 82.2285 6.00122C82.4022 6.00122 82.5519 6.01623 82.6788 6.04625C82.8089 6.07627 82.9156 6.1263 82.9989 6.19634C83.0822 6.26638 83.1443 6.35977 83.184 6.4765C83.2243 6.58991 83.2439 6.73166 83.2439 6.90176V8.70283H82.8639L82.8388 8.32262ZM81.6029 7.90236C81.6029 8.04578 81.6432 8.15752 81.7233 8.23757C81.8033 8.31761 81.9351 8.35764 82.1185 8.35764C82.3652 8.35764 82.5454 8.29426 82.6586 8.16752C82.7724 8.04078 82.829 7.88068 82.829 7.68723V7.4621H82.2487C82.1218 7.4621 82.0167 7.47044 81.9334 7.48711C81.8501 7.50379 81.7832 7.53047 81.7331 7.56716C81.6868 7.60052 81.653 7.64554 81.6334 7.70225C81.6133 7.75561 81.6029 7.82232 81.6029 7.90236Z" fill="#657591"/>
<path d="M84.127 6.05127H84.5424V7.16194H85.8632V6.05127H86.278V8.70285H85.8632V7.55718H84.5424V8.70285H84.127V6.05127Z" fill="#657591"/>
<path d="M87.1895 6.05127H87.6043V7.34204C87.6043 7.49881 87.601 7.65056 87.5945 7.79732C87.588 7.94074 87.5809 8.0458 87.5744 8.11251L87.5945 8.12252C87.6577 8.01578 87.7246 7.91239 87.7943 7.81233C87.8646 7.70893 87.9364 7.6072 88.0099 7.50715L89.0155 6.05127H89.3803V8.70285H88.9654V7.63222C88.9654 7.5355 88.9654 7.43877 88.9654 7.34204C88.9687 7.24199 88.972 7.14693 88.9752 7.05687C88.9785 6.96682 88.9818 6.8851 88.985 6.81173C88.9888 6.73502 88.9921 6.67331 88.9954 6.62662L88.9801 6.62161C88.9371 6.69833 88.8799 6.79505 88.8103 6.91179C88.74 7.02519 88.6665 7.13192 88.5903 7.23198L87.5597 8.70285H87.1895V6.05127Z" fill="#657591"/>
<path d="M90.7453 7.68187C90.6386 7.6652 90.5504 7.63351 90.4802 7.58681C90.4099 7.53678 90.3549 7.47842 90.3152 7.41171C90.2749 7.34167 90.2466 7.26329 90.2297 7.17657C90.2134 7.08652 90.2052 6.99312 90.2052 6.8964C90.2052 6.75632 90.2232 6.63291 90.2602 6.52618C90.2999 6.41611 90.3669 6.32439 90.46 6.25101C90.5537 6.17764 90.6767 6.1226 90.8302 6.08591C90.9838 6.04589 91.1738 6.02588 91.4008 6.02588C91.5473 6.02588 91.6992 6.02921 91.856 6.03589C92.0128 6.03922 92.1396 6.04756 92.236 6.0609V8.70247H91.8211V7.75191H91.1705L90.49 8.70247H90.0098L90.7453 7.68187ZM91.8211 6.41111C91.7574 6.40444 91.6943 6.39943 91.6306 6.3961C91.5674 6.39276 91.4792 6.3911 91.3654 6.3911C91.2157 6.3911 91.0921 6.4011 90.9952 6.42111C90.8988 6.43779 90.8221 6.46614 90.7655 6.50617C90.7121 6.54619 90.6734 6.59955 90.65 6.66626C90.6304 6.72963 90.6201 6.80968 90.6201 6.9064C90.6201 7.10652 90.6685 7.24327 90.7655 7.31665C90.8656 7.39003 91.0322 7.42672 91.2658 7.42672H91.8211V6.41111Z" fill="#657591"/>
</g>
<defs>
<clipPath id="clip0_7026_3185">
<rect width="86.5667" height="21.7778" fill="white" transform="translate(6.22266 3.11108)"/>
</clipPath>
</defs>
</svg>
