<svg width="133" height="28" viewBox="0 0 133 28" fill="none" xmlns="http://www.w3.org/2000/svg">
<g clip-path="url(#clip0_7026_3213)">
<path d="M56.0242 12.819H46.2426V8.05745H59.3831V5.6582H43.9541V8.05745V22.2684H55.9872C58.6818 22.2684 60.7857 20.1644 60.7857 17.4699C60.7857 15.2552 59.014 12.819 56.0242 12.819ZM55.9872 19.8691H46.2057V15.0706H55.9872C57.3161 15.0706 58.3865 16.1411 58.3865 17.4699C58.3865 18.7987 57.3161 19.8691 55.9872 19.8691Z" fill="#657591"/>
<path d="M42.3663 13.9633C42.3663 16.2519 41.4435 18.3189 39.9302 19.8323C38.4168 21.3456 36.3497 22.2684 34.0612 22.2684H24.3535V19.8692H34.0612C36.9403 19.8692 39.3396 17.8021 39.8563 15.0707H27.1219V12.7822H39.8563C39.3027 10.0876 36.9403 8.02059 34.0612 8.02059H24.3535V5.62134H34.0612C38.6383 5.65825 42.3663 9.38632 42.3663 13.9633Z" fill="#657591"/>
<path d="M21.4373 13.7419C22.2493 12.8929 22.7661 11.7117 22.7661 10.4198C22.7661 7.76221 20.6252 5.62134 18.0045 5.62134H6.82031V22.2315H18.4105C21.0681 22.2315 23.209 20.0906 23.209 17.433C23.209 15.9566 22.5077 14.6277 21.4373 13.7419ZM17.9676 8.0575C19.2595 8.0575 20.3299 9.12794 20.3299 10.4198C20.3299 11.7117 19.2595 12.7822 17.9676 12.7822H9.10882V8.0575H17.9676ZM18.4105 19.8692H9.10882V15.0707H18.4105C19.7393 15.0707 20.8098 16.1411 20.8098 17.4699C20.8098 18.7987 19.7393 19.8692 18.4105 19.8692Z" fill="#657591"/>
<path d="M72.6338 22.2684H75.1069V19.6846H93.378V5.62134H72.6338V22.2684ZM75.1069 8.0575H90.905V17.2485H75.1069V8.0575Z" fill="#657591"/>
<path d="M95.74 19.6846H109.803V22.2684H112.239V19.6846H126.303V5.62134H95.7031V19.6846H95.74ZM112.276 8.0575H123.903V17.2485H112.276V8.0575ZM98.1762 8.0575H109.803V17.2485H98.1762V8.0575Z" fill="#657591"/>
<path d="M67.8715 3.11108H65.3984V24.852H67.8715V3.11108Z" fill="#657591"/>
</g>
<defs>
<clipPath id="clip0_7026_3213">
<rect width="119.593" height="21.7778" fill="white" transform="translate(6.82031 3.11108)"/>
</clipPath>
</defs>
</svg>
