<svg width="154" height="28" viewBox="0 0 154 28" fill="none" xmlns="http://www.w3.org/2000/svg">
<g clip-path="url(#clip0_6650_19752)">
<path d="M63.2618 12.4815H50.6855V6.3595H67.5805V3.27475H47.7432V6.3595V24.6307H63.2143C66.6788 24.6307 69.3838 21.9256 69.3838 18.4612C69.3838 15.6137 67.1059 12.4815 63.2618 12.4815ZM63.2143 21.5459H50.6381V15.3764H63.2143C64.9228 15.3764 66.2991 16.7527 66.2991 18.4612C66.2991 20.1697 64.9228 21.5459 63.2143 21.5459Z" fill="#323E48"/>
<path d="M45.7018 13.9529C45.7018 16.8953 44.5154 19.5529 42.5696 21.4987C40.6238 23.4444 37.9662 24.6309 35.0238 24.6309H22.5425V21.5461H35.0238C38.7255 21.5461 41.8103 18.8885 42.4747 15.3766H26.1018V12.4343H42.4747C41.7628 8.96986 38.7255 6.31223 35.0238 6.31223H22.5425V3.22748H35.0238C40.9086 3.27494 45.7018 8.06817 45.7018 13.9529Z" fill="#323E48"/>
<path d="M18.7932 13.6682C19.8373 12.5766 20.5017 11.058 20.5017 9.39698C20.5017 5.98003 17.7492 3.22748 14.3797 3.22748H0V24.5834H14.9017C18.3186 24.5834 21.0712 21.8309 21.0712 18.4139C21.0712 16.5156 20.1695 14.8071 18.7932 13.6682ZM14.3322 6.35969C15.9932 6.35969 17.3695 7.73596 17.3695 9.39698C17.3695 11.058 15.9932 12.4343 14.3322 12.4343H2.94237V6.35969H14.3322ZM14.9017 21.5461H2.94237V15.3766H14.9017C16.6102 15.3766 17.9864 16.7529 17.9864 18.4614C17.9864 20.1699 16.6102 21.5461 14.9017 21.5461Z" fill="#323E48"/>
<path d="M84.6172 24.6309H87.7969V21.3088H111.288V3.22748H84.6172V24.6309ZM87.7969 6.35969H108.109V18.1766H87.7969V6.35969Z" fill="#616E7D"/>
<path d="M114.326 21.3088H132.407V24.6309H135.539V21.3088H153.621V3.22748H114.278V21.3088H114.326ZM135.587 6.35969H150.536V18.1766H135.587V6.35969ZM117.458 6.35969H132.407V18.1766H117.458V6.35969Z" fill="#616E7D"/>
<path d="M78.4946 0H75.3149V27.9525H78.4946V0Z" fill="#616E7D"/>
</g>
<defs>
<clipPath id="clip0_6650_19752">
<rect width="153.763" height="28" fill="white"/>
</clipPath>
</defs>
</svg>
