<svg width="53" height="28" viewBox="0 0 53 28" fill="none" xmlns="http://www.w3.org/2000/svg">
<path fill-rule="evenodd" clip-rule="evenodd" d="M22.0652 2.74438H2.29492V15.1004H7.23748C6.46162 14.0681 6.0015 12.7847 6.0015 11.3941C6.0015 7.9819 8.76761 5.21553 12.18 5.21553C15.5922 5.21553 18.3583 7.9819 18.3583 11.3941C18.3583 12.7849 17.8985 14.0681 17.1229 15.1004H22.0649L22.0652 2.74438Z" fill="#657591"/>
<path fill-rule="evenodd" clip-rule="evenodd" d="M9.78428 10.1577H9.70898V24.9859H24.5367V24.9101C17.4546 22.8235 11.8717 17.2406 9.78428 10.1577Z" fill="#657591"/>
<path fill-rule="evenodd" clip-rule="evenodd" d="M41.1447 14.1705C41.1193 14.2323 41.0883 14.3219 41.0529 14.4399C41.017 14.5581 40.9992 14.6555 40.9992 14.7324C40.9992 14.8042 41.0162 14.8598 41.0489 14.8978C41.0826 14.937 41.1352 14.9685 41.207 14.9944C41.248 15.0041 41.295 15.0131 41.3492 15.0209C41.4035 15.029 41.4504 15.0357 41.4914 15.04V15.1906H40.1974V15.04C40.2792 15.0301 40.3599 15.0041 40.4392 14.9631C40.5188 14.9224 40.5868 14.8735 40.6432 14.8174C40.6891 14.7659 40.7277 14.7105 40.7588 14.6514C40.7892 14.5931 40.8098 14.5478 40.8206 14.517L42.4978 10.1533H42.6359L44.3679 15.04H44.8828V15.1906H42.7881V15.04H43.4655L42.9058 13.4851H41.4205L41.1447 14.1705ZM42.1977 11.422L41.4593 13.3337H42.8518L42.1977 11.422ZM49.7223 10.3047H49.1378V15.0387H49.7223V15.1906H47.705V15.0387H48.2896V10.3047H47.4336C47.3666 10.3047 47.2743 10.3126 47.1564 10.3282C47.0382 10.3431 46.9351 10.3919 46.848 10.4742C46.7756 10.5411 46.7284 10.6181 46.7047 10.7049C46.682 10.7924 46.6653 10.8739 46.655 10.9511C46.645 11.0331 46.6367 11.1238 46.6313 11.2234C46.6264 11.324 46.6229 11.4417 46.6202 11.5774C46.6175 11.7132 46.6148 11.8737 46.6129 12.058C46.6097 12.2426 46.6062 12.458 46.6008 12.7041L46.5708 13.8815C46.5654 14.0715 46.5592 14.2412 46.5514 14.3929C46.5436 14.544 46.5139 14.6787 46.4629 14.7964C46.4224 14.8935 46.3754 14.9683 46.3247 15.0195C46.274 15.0703 46.2151 15.104 46.1412 15.1426C46.067 15.1809 45.9542 15.1912 45.8111 15.1912C45.5602 15.1912 45.3553 15.1348 45.1972 15.0217C45.1254 14.9701 45.0601 14.8994 45.001 14.8093C44.9425 14.7194 44.9125 14.6023 44.9125 14.4582C44.9125 14.2936 44.9589 14.157 45.0517 14.0488C45.144 13.9412 45.2747 13.8872 45.4439 13.8872C45.5877 13.8872 45.7016 13.9279 45.7866 14.0102C45.8711 14.0925 45.9137 14.1902 45.9137 14.303C45.9137 14.4366 45.881 14.5548 45.8157 14.6574C45.7904 14.6935 45.7672 14.7265 45.7472 14.7575C45.7272 14.7883 45.7172 14.8169 45.7172 14.842C45.7172 14.8679 45.7299 14.9013 45.7558 14.9424C45.7806 14.9831 45.8371 15.0036 45.9229 15.0036C45.9947 15.0036 46.0651 14.982 46.1363 14.9388C46.207 14.8951 46.2839 14.8093 46.3188 14.7089C46.3536 14.6093 46.3835 14.4987 46.3911 14.3705C46.3989 14.2423 46.4054 14.0788 46.4105 13.8791L46.441 12.7022C46.4459 12.4461 46.451 12.2389 46.4564 12.0799C46.4612 11.9212 46.4642 11.7957 46.4642 11.7032V11.0806C46.4642 11.0042 46.4599 10.9144 46.4521 10.8118C46.4448 10.7098 46.4073 10.6148 46.3414 10.5276C46.3004 10.4764 46.254 10.4354 46.2027 10.4049C46.1512 10.3741 46.0999 10.3495 46.0494 10.3317C45.9984 10.3139 45.9161 10.3045 45.8033 10.3045H45.6187V10.1531H49.7226V10.3047H49.7223ZM33.0182 10.3096H32.37L33.8891 13.5102L34.8385 11.0887C34.8638 11.032 34.8892 10.9535 34.9116 10.8534C34.9343 10.7533 34.9464 10.672 34.9464 10.6105C34.9464 10.5077 34.9116 10.4316 34.842 10.3827C34.7729 10.3339 34.6917 10.3096 34.5991 10.3096H34.4912V10.1555H35.8019V10.3096C35.6842 10.3096 35.5852 10.3301 35.5056 10.3714C35.426 10.413 35.3585 10.4599 35.3053 10.5136C35.2511 10.5679 35.2085 10.6229 35.1777 10.6796C35.1472 10.7357 35.1262 10.7794 35.1159 10.8105L34.0281 13.6257C33.9663 13.7798 33.8988 13.9174 33.84 14.0383C33.7814 14.1595 33.7266 14.2607 33.6524 14.3813C33.5728 14.5106 33.5302 14.5815 33.4489 14.6873C33.3561 14.8088 33.3067 14.8611 33.1969 14.9585C33.1019 15.0433 33.0112 15.1021 32.9214 15.1385C32.8318 15.1742 32.7273 15.1917 32.6089 15.1917C32.4502 15.1917 32.3109 15.1674 32.1925 15.1186C32.0743 15.0695 31.9717 15.0093 31.8845 14.9372C31.7507 14.8244 31.6649 14.7073 31.6263 14.5864C31.5872 14.4655 31.5683 14.3562 31.5683 14.2588C31.5683 14.1916 31.5783 14.1249 31.5988 14.058C31.6193 13.9908 31.6498 13.9309 31.6916 13.8767C31.7326 13.8232 31.7866 13.7779 31.8535 13.742C31.9204 13.7061 32 13.6878 32.0929 13.6878C32.2572 13.6878 32.3806 13.7342 32.4629 13.8267C32.5452 13.9193 32.5862 14.0124 32.5862 14.1039C32.5862 14.1608 32.5757 14.2175 32.5557 14.2742C32.5346 14.3306 32.5093 14.38 32.4788 14.4207C32.4167 14.5033 32.3471 14.5662 32.2702 14.6096C32.1927 14.6533 32.1541 14.7084 32.1541 14.7753C32.1541 14.8266 32.1868 14.883 32.2505 14.9453C32.3147 15.0066 32.4186 15.0373 32.563 15.0373C32.6763 15.0373 32.7859 15.0093 32.8909 14.9529C32.9964 14.8962 33.0854 14.8295 33.157 14.7524C33.2134 14.6906 33.2649 14.6215 33.3113 14.5443C33.3572 14.4669 33.3882 14.4156 33.4036 14.3902L31.4293 10.3093H30.8968V10.1552H33.0182V10.3096ZM30.7338 11.4832C30.726 11.4012 30.7069 11.3116 30.6764 11.2147C30.6453 11.117 30.5995 11.0172 30.5377 10.9144C30.4759 10.8115 30.3938 10.712 30.2915 10.614C30.0913 10.4251 29.8584 10.301 29.591 10.2419C29.3243 10.1828 29.0602 10.1533 28.7981 10.1533H26.6055V10.305H27.19V15.039H26.6055V15.1906H28.6232V15.039H28.0387V13.1896H28.787C29.0896 13.1896 29.3805 13.1556 29.6579 13.0862C29.9356 13.0169 30.1617 12.8952 30.3369 12.7208C30.3728 12.6847 30.4138 12.6374 30.4602 12.5792C30.5061 12.5195 30.5509 12.448 30.5951 12.3633C30.6383 12.2785 30.6747 12.18 30.7031 12.067C30.7311 11.9544 30.7452 11.8262 30.7452 11.6829C30.7455 11.6322 30.7417 11.5653 30.7338 11.4832ZM29.5251 12.7087C29.4766 12.7659 29.4223 12.8139 29.3492 12.8612C29.2874 12.8973 29.218 12.9265 29.1411 12.9497C29.0642 12.9726 28.9889 12.9904 28.9133 13.0031C28.8391 13.0163 28.77 13.0252 28.7055 13.0301C28.6413 13.0355 28.5938 13.0379 28.5628 13.0379H28.039V10.305H28.5628C28.7066 10.305 28.8569 10.3182 29.014 10.3436C29.1511 10.366 29.2785 10.4219 29.3978 10.5069C29.4067 10.5136 29.4161 10.5193 29.4247 10.526C29.4326 10.5322 29.4417 10.5371 29.4496 10.5436C29.49 10.5792 29.527 10.6164 29.5586 10.6553C29.7637 10.893 29.8948 11.2568 29.8948 11.664C29.8946 12.0934 29.7486 12.4726 29.5251 12.7087ZM39.5576 10.1533H39.3706C39.3296 10.3123 39.24 10.3919 39.1012 10.3919C39.0448 10.3919 38.9863 10.3806 38.9248 10.3571C38.8635 10.3342 38.7766 10.3023 38.6633 10.2613C38.561 10.2254 38.4652 10.1981 38.3756 10.1806C38.286 10.1628 38.1821 10.1536 38.0647 10.1536C37.9419 10.1536 37.7838 10.1547 37.6273 10.183C37.4713 10.2114 37.3004 10.2394 37.1164 10.3255C36.9539 10.4014 36.8498 10.458 36.6938 10.5959C36.5378 10.7341 36.3907 10.9106 36.252 11.1254C36.0987 11.3766 35.9894 11.6338 35.9258 11.8972C35.8621 12.1606 35.83 12.4388 35.83 12.7303C35.83 13.0735 35.868 13.3755 35.9455 13.6362C36.0224 13.8974 36.1198 14.1255 36.238 14.3198C36.3454 14.4884 36.4652 14.6336 36.5953 14.7534C36.7259 14.8738 36.8614 14.9583 37.0122 15.0295C37.1655 15.1024 37.3021 15.1493 37.4491 15.168C37.6011 15.1863 37.7584 15.192 37.9071 15.192C38.0768 15.192 38.2344 15.1736 38.3804 15.1364C38.527 15.0991 38.6641 15.0452 38.792 14.9731C38.8689 14.9324 38.9396 14.8938 39.0033 14.8579C39.0675 14.822 39.0735 14.8042 39.1398 14.8042C39.1914 14.8042 39.2311 14.8169 39.2588 14.843C39.2872 14.8684 39.3104 14.8978 39.3285 14.931C39.3463 14.965 39.359 14.999 39.3671 15.0352C39.3744 15.0708 39.3776 15.1758 39.3776 15.1909H39.5511L39.5516 13.5153H39.4113C39.414 13.5526 39.4156 13.5898 39.4156 13.6284C39.4156 13.8955 39.3425 14.1392 39.2227 14.3263C39.2165 14.337 39.21 14.3478 39.2027 14.3586C39.0705 14.5578 38.8935 14.7213 38.6735 14.849C38.4538 14.9764 38.2361 15.04 38.021 15.04C37.8834 15.04 37.7455 15.0093 37.6067 14.9483C37.4686 14.8865 37.3633 14.819 37.253 14.7208C37.1855 14.6612 37.1148 14.5837 37.0616 14.513C36.999 14.4264 36.9477 14.336 36.873 14.1179C36.8592 14.078 36.846 14.0353 36.8376 13.9949C36.7548 13.6454 36.7054 13.1915 36.7054 12.6949C36.7054 11.7291 36.8962 11.0973 37.1134 10.8242C37.125 10.8088 37.1571 10.7711 37.1693 10.756C37.2057 10.7103 37.2594 10.6564 37.3158 10.6029C37.3722 10.5492 37.4292 10.5055 37.5115 10.4618C37.6065 10.4113 37.6828 10.3765 37.7908 10.3458C37.8982 10.3153 38.0253 10.3047 38.154 10.3047C38.3591 10.3047 38.5429 10.3479 38.707 10.4351C38.8708 10.5214 39.0017 10.631 39.0991 10.7632C39.145 10.8296 39.186 10.9087 39.2219 11.0004C39.2578 11.0919 39.2883 11.1872 39.3142 11.2868C39.3401 11.3864 39.3606 11.4803 39.376 11.5693C39.3908 11.6589 39.4013 11.7312 39.4059 11.7871H39.5581V10.1533H39.5576Z" fill="#657591"/>
</svg>
