<svg width="123" height="28" viewBox="0 0 123 28" fill="none" xmlns="http://www.w3.org/2000/svg">
<g clip-path="url(#clip0_7026_3251)">
<path d="M19.0683 6.60218C19.0683 14.6845 20.0965 18.9677 23.0102 22.8011C24.3056 21.8147 25.3428 20.5301 26.0332 19.0568C26.7237 17.5834 27.0469 15.9652 26.9752 14.3401C26.9035 12.715 26.4391 11.1313 25.6216 9.72429C24.8041 8.3173 23.6578 7.12868 22.2805 6.25991V8.64598C23.1523 9.41295 23.8507 10.3563 24.3294 11.4134C24.808 12.4705 25.0561 13.6173 25.0569 14.7774C25.0607 15.8363 24.8526 16.8852 24.4449 17.8626C22.1287 15.4619 21.0563 12.7336 21.0563 7.46762V5.58517C20.4194 5.29203 19.7529 5.06747 19.0683 4.9153V6.60218ZM14.1715 24.5319C15.9171 25.0079 17.7585 25.0079 19.5041 24.5319C18.3093 18.865 17.8343 15.2419 17.8343 5.91765V3.15509C17.5013 3.11108 17.183 3.11108 16.8549 3.11108C16.5269 3.11108 16.1841 3.11108 15.8756 3.15509V5.91765C15.856 15.2223 15.3762 18.865 14.1813 24.5319H14.1715ZM6.72853 14.7774C6.72727 16.3283 7.08349 17.8587 7.76958 19.25C8.45568 20.6414 9.45326 21.8564 10.6851 22.8011C13.5986 18.9677 14.6319 14.6845 14.6319 6.60218V4.9153C13.947 5.06686 13.2806 5.29144 12.6438 5.58517V7.46762C12.6438 12.7336 11.5665 15.4472 9.25524 17.8626C8.62042 16.291 8.48765 14.5618 8.87509 12.9119C9.26255 11.2621 10.1513 9.77201 11.4196 8.64598V6.25991C9.98053 7.16812 8.79548 8.4257 7.97513 9.91523C7.15477 11.4047 6.72589 13.0775 6.72853 14.7774Z" fill="#657591"/>
<path d="M53.0133 10.8799C51.5883 10.8799 50.5209 11.4226 49.992 12.3174H49.8745V11.1537H47.2988V23.4752H49.8745V19.5636H49.992C50.5209 20.4584 51.5883 21.0011 53.0133 21.0011C55.6869 21.0011 57.7974 18.7568 57.7974 15.9356C57.7974 13.1144 55.6967 10.8799 53.0133 10.8799ZM52.4942 18.576C51.9736 18.574 51.4652 18.4181 51.0333 18.1278C50.6014 17.8376 50.2652 17.4262 50.0674 16.9453C49.8694 16.4645 49.8186 15.9359 49.9215 15.4263C50.0242 14.9166 50.2759 14.4488 50.6447 14.0819C51.0135 13.715 51.4829 13.4654 51.9937 13.3647C52.5044 13.264 53.0336 13.3166 53.5145 13.516C53.9952 13.7154 54.4061 14.0526 54.6951 14.4849C54.9842 14.9174 55.1384 15.4255 55.1385 15.9454C55.1424 16.2927 55.0767 16.6374 54.9451 16.959C54.8134 17.2806 54.6187 17.5726 54.3723 17.8178C54.1258 18.063 53.8326 18.2564 53.51 18.3866C53.1875 18.5168 52.8421 18.5812 52.4942 18.576Z" fill="#657591"/>
<path d="M44.5393 8.27026L41.6013 14.4163L37.6594 8.27026H34.4912L40.284 17.1838L40.1812 17.3989C40.0782 17.658 39.8908 17.8748 39.649 18.0141C39.4072 18.1534 39.1255 18.2072 38.8493 18.1666H37.013V20.7531H39.1921C40.9647 20.7531 41.6747 20.2642 42.4141 18.7533L47.4871 8.27026H44.5393Z" fill="#657591"/>
<path d="M111.069 11.6084C110.429 11.5758 109.792 11.7043 109.215 11.982C108.638 12.2596 108.141 12.6776 107.768 13.1975H107.646C107.842 11.2808 108.723 10.4251 110.848 10.1416L114.731 9.65259V7.14429L110.398 7.77503C106.779 8.29331 105.34 9.95575 105.153 13.7011C104.918 17.9452 106.358 21.0353 110.5 21.0353C111.157 21.057 111.812 20.9465 112.424 20.7105C113.037 20.4745 113.596 20.1178 114.068 19.6615C114.54 19.2053 114.916 18.659 115.171 18.055C115.427 17.451 115.559 16.8017 115.559 16.1458C115.539 13.4419 113.718 11.6084 111.069 11.6084ZM110.427 18.5612C109.773 18.5612 109.145 18.3016 108.682 17.8394C108.219 17.3773 107.959 16.7505 107.959 16.097C107.959 15.4434 108.219 14.8165 108.682 14.3544C109.145 13.8923 109.773 13.6326 110.427 13.6326C110.753 13.6258 111.078 13.6855 111.38 13.8081C111.683 13.9307 111.957 14.1136 112.186 14.3456C112.415 14.5777 112.594 14.854 112.713 15.1576C112.832 15.4613 112.887 15.7859 112.875 16.1116C112.884 16.4351 112.825 16.7568 112.706 17.0573C112.585 17.3578 112.405 17.6309 112.177 17.8599C111.948 18.0889 111.674 18.2692 111.374 18.3897C111.073 18.5103 110.751 18.5686 110.427 18.5612Z" fill="#657591"/>
<path d="M66.8164 12.3174H66.694C66.1554 11.4226 65.0781 10.8799 63.6777 10.8799C61.0041 10.8799 58.8936 13.1291 58.8936 15.9454C58.8936 18.7617 61.0041 21.0109 63.6777 21.0109C65.0781 21.0109 66.1554 20.4682 66.694 19.5734H66.8164V20.7371H69.4068V11.1537H66.8262L66.8164 12.3174ZM64.2016 18.576C63.6797 18.5798 63.1685 18.4288 62.7327 18.1421C62.2969 17.8555 61.9562 17.446 61.7538 16.9657C61.5514 16.4854 61.4964 15.9558 61.5959 15.4443C61.6953 14.9327 61.9446 14.4622 62.3123 14.0924C62.6799 13.7225 63.1493 13.47 63.6608 13.3669C64.1724 13.2638 64.7031 13.3148 65.1856 13.5133C65.6681 13.7118 66.0807 14.0489 66.3711 14.4819C66.6614 14.9149 66.8164 15.4243 66.8164 15.9454C66.8203 16.2903 66.7555 16.6325 66.6258 16.9521C66.496 17.2717 66.3038 17.5624 66.0605 17.8072C65.8172 18.052 65.5275 18.246 65.2083 18.378C64.8892 18.51 64.547 18.5772 64.2016 18.576Z" fill="#657591"/>
<path d="M87.8193 13.3439C88.3157 13.3304 88.8051 13.4664 89.2233 13.7341C89.6416 14.0018 89.9695 14.3888 90.1649 14.845L92.4221 13.8671C91.8341 12.0482 90.008 10.8698 87.7751 10.8698C87.0968 10.8398 86.4191 10.9501 85.7856 11.1937C85.1515 11.4373 84.5751 11.809 84.0921 12.2855C83.6091 12.762 83.2293 13.333 82.9776 13.9627C82.7259 14.5925 82.6067 15.2673 82.6285 15.9451C82.6086 16.6203 82.7278 17.2924 82.9789 17.9196C83.2306 18.5468 83.6085 19.1156 84.0889 19.5908C84.5699 20.0659 85.1438 20.4372 85.7741 20.6814C86.405 20.9257 87.0795 21.0377 87.7552 21.0106C89.9881 21.0106 91.8149 19.8322 92.4022 18.0134L90.1546 17.0354C89.9183 17.5733 89.502 18.0126 88.9767 18.2782C88.4521 18.5437 87.8507 18.6192 87.2768 18.4916C86.7022 18.3641 86.1898 18.0415 85.8273 17.5789C85.4641 17.1162 85.2739 16.5423 85.2873 15.9549C85.2636 15.613 85.3123 15.27 85.4302 14.9481C85.548 14.6262 85.7325 14.3327 85.9707 14.0865C86.2097 13.8403 86.4979 13.647 86.8162 13.519C87.1346 13.3911 87.476 13.3314 87.8193 13.3439Z" fill="#657591"/>
<path d="M72.8334 11.1702L72.3972 17.1109C72.3287 18.0448 72.0251 18.3871 71.3103 18.3871H70.6836V20.8073H72.216C73.9447 20.8073 74.6986 19.9859 74.8357 18.0692L75.1592 13.6687H78.3471V20.7389H80.9521V11.1702H72.8334Z" fill="#657591"/>
<path d="M100.594 11.155L96.4561 17.3158V11.155H93.8799V20.7384H96.5931L100.706 14.6217V20.7384H103.282V11.155H100.594Z" fill="#657591"/>
</g>
<defs>
<clipPath id="clip0_7026_3251">
<rect width="108.889" height="21.7778" fill="white" transform="translate(6.72852 3.11108)"/>
</clipPath>
</defs>
</svg>
