<svg width="96" height="28" viewBox="0 0 96 28" fill="none" xmlns="http://www.w3.org/2000/svg">
<g clip-path="url(#clip0_6650_19839)">
<path fill-rule="evenodd" clip-rule="evenodd" d="M56.9905 20.9349C56.9905 21.7965 56.4305 22.4426 55.5259 22.4426C54.9659 22.4426 54.5352 22.2703 54.2336 21.9688L54.6644 21.538C54.9659 21.6672 55.2244 21.7534 55.5259 21.7534C55.9567 21.7534 56.2582 21.538 56.2582 21.1072V20.9349C56.0859 21.1934 55.7413 21.2796 55.4398 21.2796C54.5782 21.2796 54.1475 20.7196 54.1475 19.858V18.3934H54.8798V19.8149C54.8798 20.3749 55.1382 20.5472 55.5259 20.5472C55.9567 20.5472 56.2152 20.2888 56.2152 19.7288V18.3934H56.9475V20.9349H56.9905Z" fill="#63686D"/>
<path fill-rule="evenodd" clip-rule="evenodd" d="M59.8772 21.3226V19.1257H58.5848V21.3226H57.8525V18.3934H60.6095V21.3226H59.8772Z" fill="#63686D"/>
<path fill-rule="evenodd" clip-rule="evenodd" d="M64.4434 19.8582C64.4434 20.6767 63.8403 21.3659 63.0219 21.3659C62.7203 21.3659 62.4188 21.2367 62.2465 21.0213V22.3998H61.5142V18.3936H62.0311L62.0742 18.8244C62.2895 18.5659 62.6342 18.3936 63.0649 18.3936C63.8834 18.3505 64.4434 19.0398 64.4434 19.8582ZM62.2034 19.8582C62.2034 20.3321 62.5911 20.6336 62.9788 20.6336C63.3665 20.6336 63.7542 20.3321 63.7542 19.8582C63.7542 19.3844 63.4095 19.0828 62.9788 19.0828C62.548 19.0828 62.2034 19.3844 62.2034 19.8582Z" fill="#63686D"/>
<path fill-rule="evenodd" clip-rule="evenodd" d="M67.4158 21.3229L67.3728 20.8922C67.1574 21.1506 66.8128 21.3229 66.382 21.3229C65.5635 21.3229 64.9604 20.6337 64.9604 19.8152C64.9604 18.9968 65.5635 18.3076 66.382 18.3076C66.7697 18.3076 67.1574 18.4799 67.3728 18.7814L67.4158 18.3506H67.9328V21.2799H67.4158V21.3229ZM67.2435 19.8583C67.2435 19.3845 66.8558 19.0829 66.4681 19.0829C66.0804 19.0829 65.6928 19.3845 65.6928 19.8583C65.6928 20.3322 66.0374 20.6337 66.4681 20.6337C66.8558 20.6337 67.2435 20.3322 67.2435 19.8583Z" fill="#63686D"/>
<path fill-rule="evenodd" clip-rule="evenodd" d="M70.3442 18.3934C71.0335 18.3934 71.335 18.6949 71.335 19.2119C71.335 19.4703 71.2058 19.7288 70.9473 19.8149C71.2919 19.9011 71.4642 20.1596 71.4642 20.4611C71.4642 21.0642 71.1196 21.3226 70.3442 21.3226H68.7935V18.3934H70.3442ZM69.5258 19.5565H70.2581C70.4735 19.5565 70.5596 19.4703 70.5596 19.298C70.5596 19.1257 70.4735 19.0396 70.2581 19.0396H69.5258V19.5565ZM70.3442 20.6765C70.6458 20.6765 70.7319 20.5472 70.7319 20.3749C70.7319 20.2026 70.6458 20.0734 70.3873 20.0734H69.5688V20.6765H70.3442Z" fill="#63686D"/>
<path fill-rule="evenodd" clip-rule="evenodd" d="M72.5845 21.3226H71.8091L73.1445 18.3934H73.6183L74.9537 21.3226H74.1783L73.3599 19.4703L72.5845 21.3226Z" fill="#63686D"/>
<path fill-rule="evenodd" clip-rule="evenodd" d="M77.3663 21.3226V20.4611H77.0648C76.8063 20.4611 76.7202 20.5472 76.5478 20.8488L76.2032 21.3226H75.3848L75.7725 20.7626C75.8586 20.6334 75.9448 20.4611 76.074 20.3749C75.6863 20.2457 75.4278 19.858 75.4278 19.4703C75.4278 18.9965 75.7294 18.3934 76.7201 18.3934H78.0986V21.3226H77.3663ZM76.634 19.1257C76.3325 19.1257 76.1601 19.2549 76.1601 19.4703C76.1601 19.6857 76.2894 19.858 76.634 19.858H77.3663V19.1257H76.634Z" fill="#63686D"/>
<path fill-rule="evenodd" clip-rule="evenodd" d="M83.095 19.8582C83.095 20.6766 82.4057 21.3658 81.5873 21.3658C80.855 21.3658 80.295 20.8489 80.1227 20.2028H79.6488V21.3228H78.9165V18.3935H79.6488V19.4705H80.1227C80.295 18.8243 80.855 18.3505 81.5873 18.3505C82.4057 18.3505 83.095 19.0397 83.095 19.8582ZM82.3196 19.8582C82.3196 19.3843 81.9319 19.0828 81.5442 19.0828C81.1565 19.0828 80.7688 19.3843 80.7688 19.8582C80.7688 20.332 81.1134 20.6335 81.5442 20.6335C81.975 20.6335 82.3196 20.332 82.3196 19.8582Z" fill="#63686D"/>
<path fill-rule="evenodd" clip-rule="evenodd" d="M87.877 21.8826V21.3226H83.7847V18.3934H84.517V20.5903H85.5939V18.3934H86.3262V20.5903H87.4031V18.3934H88.1354V20.5903H88.6093V21.8396H87.877V21.8826Z" fill="#63686D"/>
<path fill-rule="evenodd" clip-rule="evenodd" d="M91.4515 21.3229L91.4084 20.8922C91.193 21.1506 90.8484 21.3229 90.4176 21.3229C89.5992 21.3229 88.9961 20.6337 88.9961 19.8152C88.9961 18.9968 89.5992 18.3076 90.4176 18.3076C90.8053 18.3076 91.193 18.4799 91.4084 18.7814L91.4515 18.3506H91.9684V21.2799H91.4515V21.3229ZM91.2792 19.8583C91.2792 19.3845 90.8915 19.0829 90.5038 19.0829C90.1161 19.0829 89.7284 19.3845 89.7284 19.8583C89.7284 20.3322 90.073 20.6337 90.5038 20.6337C90.8915 20.6337 91.2792 20.3322 91.2792 19.8583Z" fill="#63686D"/>
<path fill-rule="evenodd" clip-rule="evenodd" d="M94.5968 21.3226V20.4611H94.2952C94.0368 20.4611 93.9506 20.5472 93.7783 20.8488L93.4337 21.3226H92.6152L93.0029 20.7626C93.0891 20.6334 93.1752 20.4611 93.3045 20.3749C92.9168 20.2457 92.6583 19.858 92.6583 19.4703C92.6583 18.9965 92.9598 18.3934 93.9506 18.3934H95.3291V21.3226H94.5968ZM93.8645 19.1257C93.5629 19.1257 93.3906 19.2549 93.3906 19.4703C93.3906 19.6857 93.5199 19.858 93.8645 19.858H94.5968V19.1257H93.8645Z" fill="#63686D"/>
<path fill-rule="evenodd" clip-rule="evenodd" d="M55.6986 26.923C55.5263 26.6645 55.4401 26.5353 55.1386 26.5353H54.9232V27.6983H54.1909V24.7691H54.9232V25.846H55.0955C55.354 25.846 55.4832 25.7599 55.6555 25.4583L56.1294 24.7691H56.9478L56.3017 25.7599C56.1725 25.9322 56.0001 26.1476 55.8709 26.1906C56.0001 26.2337 56.1725 26.406 56.3017 26.6214L56.9909 27.6983H56.1725L55.6986 26.923Z" fill="#63686D"/>
<path fill-rule="evenodd" clip-rule="evenodd" d="M60.2639 26.2339C60.2639 27.0524 59.5747 27.7416 58.7562 27.7416C57.9378 27.7416 57.2485 27.0524 57.2485 26.2339C57.2485 25.4154 57.9378 24.7262 58.7562 24.7262C59.5747 24.7262 60.2639 25.3724 60.2639 26.2339ZM57.9808 26.2339C57.9808 26.7077 58.3255 27.0093 58.7562 27.0093C59.1439 27.0093 59.5316 26.7077 59.5316 26.2339C59.5316 25.76 59.1439 25.4585 58.7562 25.4585C58.3685 25.4585 57.9808 25.76 57.9808 26.2339Z" fill="#63686D"/>
<path fill-rule="evenodd" clip-rule="evenodd" d="M63.3233 27.6983V25.9753L62.5049 26.923L61.6864 25.9753V27.6983H60.9541V24.7691H61.4279L62.5049 26.0183L63.5818 24.7691H64.0556V27.6983H63.3233Z" fill="#63686D"/>
<path fill-rule="evenodd" clip-rule="evenodd" d="M66.9851 27.6983V25.5014H65.6928V27.6983H64.9604V24.7691H67.7174V27.6983H66.9851Z" fill="#63686D"/>
<path fill-rule="evenodd" clip-rule="evenodd" d="M70.8621 27.6987L70.819 27.2679C70.6037 27.5264 70.259 27.6987 69.8283 27.6987C69.0098 27.6987 68.4067 27.0094 68.4067 26.191C68.4067 25.3725 69.0098 24.6833 69.8283 24.6833C70.216 24.6833 70.6037 24.8556 70.819 25.1571L70.8621 24.7264H71.379V27.6556H70.8621V27.6987ZM70.6898 26.2341C70.6898 25.7602 70.3021 25.4587 69.9144 25.4587C69.5267 25.4587 69.139 25.7602 69.139 26.2341C69.139 26.7079 69.4837 27.0094 69.9144 27.0094C70.3021 27.0094 70.6898 26.7079 70.6898 26.2341Z" fill="#63686D"/>
<path fill-rule="evenodd" clip-rule="evenodd" d="M74.2644 27.6983V26.5783H72.9721V27.6983H72.2397V24.7691H72.9721V25.846H74.2644V24.7691H74.9967V27.6983H74.2644Z" fill="#63686D"/>
<path fill-rule="evenodd" clip-rule="evenodd" d="M77.8829 27.6983V25.9753L76.3752 27.6983H75.9014V24.7691H76.6337V26.4922L78.1414 24.7691H78.6152V27.6983H77.8829Z" fill="#63686D"/>
<path fill-rule="evenodd" clip-rule="evenodd" d="M81.2433 27.6983V26.8368H80.9417C80.6833 26.8368 80.5971 26.923 80.4248 27.2245L80.0802 27.6983H79.2617L79.6494 27.1383C79.7356 27.0091 79.8217 26.8368 79.9509 26.7506C79.5633 26.6214 79.3048 26.2337 79.3048 25.846C79.3048 25.3722 79.6063 24.7691 80.5971 24.7691H81.9756V27.6983H81.2433ZM80.554 25.5014C80.2525 25.5014 80.0802 25.6306 80.0802 25.846C80.0802 26.0614 80.2094 26.2337 80.554 26.2337H81.2863V25.5014H80.554Z" fill="#63686D"/>
<path fill-rule="evenodd" clip-rule="evenodd" d="M40.9662 8.22752C39.8031 5.29829 36.96 3.18752 33.6 3.18752C32.3938 3.18752 31.2308 3.44598 30.1969 3.96291V0.0429077H25.6738V3.96291C24.64 3.48906 23.52 3.18752 22.2708 3.18752H0V7.7106H7.32308V18.3937H11.8462V7.7106H15.2492C14.7754 8.74445 14.4738 9.86445 14.4738 11.1137C14.4738 15.4644 18.0062 18.9968 22.3569 18.9968C23.5631 18.9968 24.7262 18.7383 25.76 18.2214V27.6983H30.2831V18.2214C31.3169 18.6952 32.4369 18.9968 33.6862 18.9968C37.0462 18.9968 39.8892 16.886 41.0523 13.9568V18.3937H45.5754V7.7106H54.2338V3.18752H40.9662V8.22752ZM22.3569 14.4737C20.5046 14.4737 18.9538 12.966 18.9538 11.0706C18.9538 9.21829 20.4615 7.66752 22.3569 7.66752C24.2092 7.66752 25.76 9.17522 25.76 11.0706C25.7169 12.966 24.2092 14.4737 22.3569 14.4737ZM33.6 14.4737C31.7477 14.4737 30.1969 12.966 30.1969 11.0706C30.1969 9.21829 31.7046 7.66752 33.6 7.66752C35.4523 7.66752 37.0031 9.17522 37.0031 11.0706C37.0031 12.966 35.4954 14.4737 33.6 14.4737Z" fill="#FF0000"/>
</g>
<defs>
<clipPath id="clip0_6650_19839">
<rect width="95.6308" height="28" fill="white"/>
</clipPath>
</defs>
</svg>
