<svg width="84" height="28" viewBox="0 0 84 28" fill="none" xmlns="http://www.w3.org/2000/svg">
<g clip-path="url(#clip0_6650_19669)">
<path d="M31.8733 22.587L32.3866 23.707C32.4799 23.8937 32.5266 24.0803 32.5733 24.2203C32.6199 24.0803 32.6666 23.8937 32.7599 23.6603L33.1333 22.5403H33.6933L33.1333 24.0803C32.9466 24.5003 32.7599 24.9203 32.5733 25.2003C32.3866 25.4337 32.1533 25.5737 31.8733 25.5737C31.7333 25.5737 31.6866 25.5737 31.5933 25.527L31.6399 25.107C31.6866 25.107 31.7333 25.107 31.8266 25.107C32.0599 25.107 32.2466 24.9203 32.2933 24.7337C32.2933 24.687 32.2933 24.6403 32.2933 24.5937L31.2666 22.587H31.8733Z" fill="#808184"/>
<path d="M35.9331 23.4263V25.5263H35.4197V23.7997H34.6264V25.5263H34.0664V23.4263H35.9331Z" fill="#808184"/>
<path d="M36.7734 24.1265C36.7734 23.8465 36.7734 23.6132 36.7734 23.4265H37.2401L37.2868 23.7532C37.4268 23.5198 37.7068 23.3798 37.9868 23.3798C38.4534 23.3798 38.8734 23.7998 38.8734 24.4532C38.8734 25.1998 38.4068 25.5732 37.8934 25.5732C37.6134 25.5732 37.4268 25.4798 37.2868 25.2932V26.3665H36.7734V24.1265ZM37.2868 24.6398C37.2868 24.6865 37.2868 24.7332 37.2868 24.7798C37.3334 25.0132 37.5201 25.1532 37.7534 25.1532C38.0801 25.1532 38.2668 24.8732 38.2668 24.4532C38.2668 24.0798 38.0801 23.7998 37.7534 23.7998C37.5201 23.7998 37.3334 23.9398 37.2868 24.1732C37.2868 24.2198 37.2868 24.2665 37.2868 24.3132V24.6398Z" fill="#808184"/>
<path d="M41.1598 25.0132C41.1598 25.1998 41.1598 25.3865 41.2064 25.5265H40.7398L40.6931 25.2932C40.5531 25.4798 40.3664 25.5732 40.0864 25.5732C39.6664 25.5732 39.4331 25.2465 39.4331 24.9665C39.4331 24.4532 39.8998 24.1732 40.6931 24.1732V24.1265C40.6931 23.9865 40.6464 23.7532 40.2731 23.7532C40.0864 23.7532 39.8531 23.7998 39.7131 23.8932L39.6198 23.5665C39.7598 23.4732 40.0398 23.3798 40.3664 23.3798C41.0198 23.3798 41.2531 23.7998 41.2531 24.2665V25.0132H41.1598ZM40.6464 24.4998C40.2731 24.4998 39.8998 24.5932 39.8998 24.8732C39.8998 25.0598 40.0398 25.1532 40.1798 25.1532C40.4131 25.1532 40.5531 25.0132 40.5998 24.8732C40.5998 24.8265 40.5998 24.7798 40.5998 24.7332V24.4998H40.6464Z" fill="#808184"/>
<path d="M42 23.4265C42.14 23.3798 42.4667 23.3798 42.7467 23.3798C43.12 23.3798 43.7267 23.4265 43.7267 23.8932C43.7267 24.1732 43.54 24.3132 43.3067 24.3598C43.6333 24.4065 43.82 24.5932 43.82 24.8732C43.82 25.4332 43.0733 25.5265 42.6533 25.5265C42.3733 25.5265 42.0933 25.5265 42 25.4798V23.4265ZM42.5133 25.1998C42.6067 25.1998 42.6533 25.1998 42.7467 25.1998C42.98 25.1998 43.26 25.1532 43.26 24.8732C43.26 24.6398 43.0267 24.5465 42.7 24.5465H42.4667V25.1998H42.5133ZM42.5133 24.2665H42.7467C43.0267 24.2665 43.26 24.1732 43.26 23.9865C43.26 23.7998 43.12 23.7065 42.7933 23.7065C42.7 23.7065 42.6067 23.7065 42.56 23.7065V24.2665H42.5133Z" fill="#808184"/>
<path d="M46.2923 23.4263V25.5263H45.7323V23.7997H45.1723V24.2663C45.1723 24.8263 45.1256 25.1997 44.8456 25.3863C44.7056 25.4797 44.5656 25.573 44.3323 25.573L44.2856 25.153C44.379 25.153 44.4723 25.1063 44.519 25.0597C44.659 24.9197 44.7056 24.6863 44.7056 24.2663V23.4263H46.2923Z" fill="#808184"/>
<path d="M48.8132 25.5263H48.2999V24.6863H48.1132C47.9732 24.6863 47.8799 24.733 47.7866 24.8263C47.6466 24.9197 47.5999 25.153 47.5532 25.3397C47.5066 25.3863 47.5066 25.433 47.4599 25.5263H46.8999C46.9466 25.4797 46.9932 25.3863 47.0399 25.293C47.1332 25.1063 47.1799 24.8263 47.3666 24.6863C47.4132 24.6397 47.5066 24.5463 47.5999 24.5463C47.3666 24.4997 47.0399 24.3597 47.0399 24.033C47.0399 23.7997 47.1799 23.6597 47.3666 23.5663C47.5532 23.473 47.8332 23.4263 48.1132 23.4263C48.3932 23.4263 48.6732 23.4263 48.8599 23.473V25.5263H48.8132ZM48.2999 23.7063C48.2066 23.7063 48.1599 23.7063 48.0199 23.7063C47.7866 23.7063 47.5532 23.7997 47.5532 24.033C47.5532 24.2663 47.8332 24.3597 48.0199 24.3597C48.1599 24.3597 48.2066 24.3597 48.2999 24.3597V23.7063Z" fill="#808184"/>
<path d="M50.1676 23.4265V24.2665H50.4942C50.5876 23.7532 50.9609 23.3798 51.4742 23.3798C52.0342 23.3798 52.4542 23.7998 52.4542 24.4532C52.4542 25.1532 51.9876 25.5732 51.4742 25.5732C50.9609 25.5732 50.5876 25.2465 50.5409 24.6398H50.2609V25.5265H49.7476V23.4265H50.1676ZM51.4276 25.1532C51.7076 25.1532 51.8942 24.8265 51.8942 24.4532C51.8942 24.0798 51.7542 23.7532 51.4276 23.7532C51.1009 23.7532 50.9609 24.1265 50.9609 24.4532C50.9609 24.8265 51.1009 25.1532 51.4276 25.1532Z" fill="#808184"/>
<path d="M53.6203 23.4263V25.1063H54.2269V23.4263H54.7869V25.1063H55.3936V23.4263H55.9069V25.1063H56.1403L56.0936 26.1797H55.6736V25.5263H53.1069V23.4263H53.6203Z" fill="#808184"/>
<path d="M58.4264 25.0132C58.4264 25.1998 58.4264 25.3865 58.473 25.5265H58.0064L57.9597 25.2932C57.8197 25.4798 57.633 25.5732 57.353 25.5732C56.933 25.5732 56.6997 25.2465 56.6997 24.9665C56.6997 24.4532 57.1664 24.1732 57.9597 24.1732V24.1265C57.9597 23.9865 57.913 23.7532 57.5397 23.7532C57.353 23.7532 57.1197 23.7998 56.9797 23.8932L56.8864 23.5665C57.0264 23.4732 57.3064 23.3798 57.633 23.3798C58.2864 23.3798 58.5197 23.7998 58.5197 24.2665V25.0132H58.4264ZM57.913 24.4998C57.5397 24.4998 57.1664 24.5932 57.1664 24.8732C57.1664 25.0598 57.3064 25.1532 57.4464 25.1532C57.6797 25.1532 57.8197 25.0132 57.8664 24.8732C57.8664 24.8265 57.8664 24.7798 57.8664 24.7332V24.4998H57.913Z" fill="#808184"/>
<path d="M60.9458 25.5263H60.4325V24.6863H60.1992C60.0592 24.6863 59.9658 24.733 59.8725 24.8263C59.7325 24.9197 59.6858 25.153 59.6392 25.3397C59.5925 25.3863 59.5925 25.433 59.5458 25.5263H58.9858C59.0325 25.4797 59.0792 25.3863 59.1258 25.293C59.2192 25.1063 59.2658 24.8263 59.4525 24.6863C59.4992 24.6397 59.5925 24.5463 59.6858 24.5463C59.4525 24.4997 59.1258 24.3597 59.1258 24.033C59.1258 23.7997 59.2658 23.6597 59.4525 23.5663C59.6392 23.473 59.9192 23.4263 60.1992 23.4263C60.4792 23.4263 60.7592 23.4263 60.9458 23.473V25.5263ZM60.4325 23.7063C60.3392 23.7063 60.2925 23.7063 60.1525 23.7063C59.9192 23.7063 59.6858 23.7997 59.6858 24.033C59.6858 24.2663 59.9658 24.3597 60.1525 24.3597C60.2925 24.3597 60.3392 24.3597 60.4325 24.3597V23.7063Z" fill="#808184"/>
<path d="M63.466 23.4265V24.2665H63.5593L64.2126 23.3798H64.866L64.026 24.3132C64.306 24.3598 64.4926 24.5932 64.6326 24.9198C64.6793 25.0598 64.7726 25.2932 64.866 25.4798H64.306C64.2593 25.3865 64.2126 25.2465 64.1193 25.0132C64.026 24.7332 63.8393 24.5932 63.5593 24.5932H63.466V25.4798H62.9526V23.3798H63.466V23.4265Z" fill="#808184"/>
<path d="M66.2662 25.5732C65.6595 25.5732 65.1929 25.1532 65.1929 24.4998C65.1929 23.7998 65.6595 23.3798 66.2662 23.3798C66.8729 23.3798 67.2929 23.7998 67.2929 24.4532C67.3395 25.1998 66.7795 25.5732 66.2662 25.5732ZM66.2662 25.1532C66.5462 25.1532 66.7795 24.8732 66.7795 24.4532C66.7795 24.1265 66.6395 23.7532 66.2662 23.7532C65.8929 23.7532 65.7529 24.1265 65.7529 24.4532C65.7529 24.8732 65.9395 25.1532 66.2662 25.1532Z" fill="#808184"/>
<path d="M68.0866 23.4265H68.7399L69.0199 24.3132C69.0666 24.4532 69.1132 24.6865 69.2066 24.8732C69.2532 24.7332 69.3466 24.4532 69.3932 24.2198L69.6732 23.3798H70.3266L70.4666 25.4798H69.9999L69.9532 24.5465C69.9532 24.3598 69.9066 24.0332 69.9066 23.7998C69.8599 24.0332 69.8132 24.1732 69.6732 24.4998L69.3466 25.4332H68.9732L68.6466 24.4998C68.5999 24.3132 68.5066 23.9865 68.4599 23.7998C68.4599 24.0332 68.4599 24.3598 68.4132 24.5465L68.3666 25.4332H67.8999L68.0866 23.4265Z" fill="#808184"/>
<path d="M73.0798 23.4263V25.5263H72.5664V23.7997H71.7731V25.5263H71.2598V23.4263H73.0798Z" fill="#808184"/>
<path d="M75.5528 25.0132C75.5528 25.1998 75.5528 25.3865 75.5995 25.5265H75.1328L75.0862 25.2932C74.9462 25.4798 74.7595 25.5732 74.4795 25.5732C74.0595 25.5732 73.8262 25.2465 73.8262 24.9665C73.8262 24.4532 74.2928 24.1732 75.0862 24.1732V24.1265C75.0862 23.9865 75.0395 23.7532 74.6662 23.7532C74.4795 23.7532 74.2462 23.7998 74.1062 23.8932L74.0128 23.5665C74.1528 23.4732 74.4328 23.3798 74.7595 23.3798C75.4128 23.3798 75.6462 23.7998 75.6462 24.2665V25.0132H75.5528ZM75.0395 24.4998C74.6662 24.4998 74.2928 24.5932 74.2928 24.8732C74.2928 25.0598 74.4328 25.1532 74.5728 25.1532C74.8062 25.1532 74.9462 25.0132 74.9928 24.8732C74.9928 24.8265 74.9928 24.7798 74.9928 24.7332V24.4998H75.0395Z" fill="#808184"/>
<path d="M76.9072 23.4263V24.2197H77.7005V23.4263H78.2605V25.5263H77.7005V24.6397H76.9072V25.5263H76.3472V23.4263H76.9072Z" fill="#808184"/>
<path d="M79.5661 23.4265V24.1732C79.5661 24.4998 79.5661 24.7332 79.5194 25.0132C79.6127 24.7798 79.7061 24.5932 79.7994 24.4065L80.3127 23.4265H80.9661V25.5265H80.4527V24.7332C80.4527 24.4065 80.4527 24.2198 80.4994 23.8465C80.4061 24.0798 80.3127 24.2665 80.2194 24.4532C80.0794 24.7798 79.8461 25.1532 79.7061 25.4798H79.0527V23.3798H79.5661V23.4265Z" fill="#808184"/>
<path d="M83.5325 25.5263H83.0191V24.6863H82.8325C82.6925 24.6863 82.5991 24.733 82.5058 24.8263C82.3658 24.9197 82.3191 25.153 82.2725 25.3397C82.2258 25.3863 82.2258 25.433 82.1791 25.5263H81.6191C81.6658 25.4797 81.7125 25.3863 81.7591 25.293C81.8525 25.1063 81.8991 24.8263 82.0858 24.6863C82.1325 24.6397 82.2258 24.5463 82.3191 24.5463C82.0858 24.4997 81.7591 24.3597 81.7591 24.033C81.7591 23.7997 81.8991 23.6597 82.0858 23.5663C82.2725 23.473 82.5525 23.4263 82.8325 23.4263C83.1125 23.4263 83.3925 23.4263 83.5791 23.473V25.5263H83.5325ZM83.0191 23.7063C82.9258 23.7063 82.8791 23.7063 82.7391 23.7063C82.5058 23.7063 82.2725 23.7997 82.2725 24.033C82.2725 24.2663 82.5525 24.3597 82.7391 24.3597C82.8791 24.3597 82.9258 24.3597 83.0191 24.3597V23.7063Z" fill="#808184"/>
<path d="M9.38 14C9.38 8.86667 11.4333 4.15333 14.7467 0.746667L14 0L0 14L14 28L14.7 27.3C11.4333 23.8467 9.38 19.1333 9.38 14Z" fill="#0079C0"/>
<path d="M25.7129 8.77368H24.4063L19.9263 19.227H21.7463L25.0596 11.1537L28.4663 19.227H30.4263L25.7129 8.77368Z" fill="#0079C0"/>
<path d="M49.5127 8.77368H48.1593L44.3327 17.687H43.4927V19.1803H54.366V17.687H53.526L49.5127 8.77368ZM51.6127 17.687H46.1527L48.8127 11.107L51.6127 17.687Z" fill="#0079C0"/>
<path d="M41.2531 8.77368H39.7598L34.3931 16.3337V8.77368H32.7598V19.227H34.3931L39.6198 11.667V19.227H41.2531V8.77368Z" fill="#0079C0"/>
<path d="M62.4857 10.267V8.77368H58.2857H56.6523V19.227H62.4857V17.687H58.2857V14.6537H62.4857V13.1137H58.2857V10.267H62.4857Z" fill="#0079C0"/>
<path d="M72.7531 12.7869C72.7531 12.6469 72.7531 12.5069 72.7531 12.4135C72.7531 12.2269 72.7531 12.0402 72.7064 11.8069C72.6131 11.0602 72.2397 10.4069 71.6797 9.84686C71.1197 9.28686 70.5131 8.96019 69.8131 8.86686C69.7664 8.86686 69.7664 8.86686 69.7197 8.86686H69.6731C69.5331 8.86686 69.3931 8.82019 69.2531 8.82019H65.5664V19.2735H67.1997V16.0069H69.1597C69.2064 16.0069 69.2997 16.0069 69.3464 16.0069C69.4397 16.0069 69.4864 16.0069 69.5797 16.0069C69.6731 16.0069 69.7197 16.0069 69.8131 15.9602C70.5597 15.8202 71.1664 15.4935 71.7264 14.9802C72.3331 14.3269 72.6597 13.5802 72.7531 12.7869ZM69.7664 10.4069C70.0464 10.5002 70.3264 10.6869 70.5597 10.9202C70.7464 11.1069 70.9331 11.3402 71.0264 11.5735C71.1197 11.8069 71.1664 12.0869 71.1664 12.3669C71.1664 12.5069 71.1664 12.6469 71.1197 12.7402C71.0264 13.1602 70.8397 13.5335 70.5597 13.8135C70.3264 14.0469 70.0464 14.2335 69.7197 14.3269C69.5797 14.3735 69.4397 14.4202 69.2997 14.4202C69.2531 14.4202 69.2064 14.4202 69.1597 14.4202H69.1131H69.0664H67.2464V10.2669H69.1131C69.1597 10.2669 69.2064 10.2669 69.2531 10.2669C69.2997 10.2669 69.3464 10.2669 69.3464 10.2669C69.4864 10.3135 69.6264 10.3602 69.7664 10.4069Z" fill="#0079C0"/>
</g>
<defs>
<clipPath id="clip0_6650_19669">
<rect width="83.5333" height="28" fill="white"/>
</clipPath>
</defs>
</svg>
