<svg width="97" height="28" viewBox="0 0 97 28" fill="none" xmlns="http://www.w3.org/2000/svg">
<g clip-path="url(#clip0_6650_19722)">
<mask id="mask0_6650_19722" style="mask-type:luminance" maskUnits="userSpaceOnUse" x="0" y="0" width="97" height="28">
<path d="M96.5517 0H0V27.5862H96.5517V0Z" fill="white"/>
</mask>
<g mask="url(#mask0_6650_19722)">
<path d="M20.8539 0.531886L20.8417 0.519576L20.8273 0.509901C20.5795 0.343727 20.2569 0.263062 20.0101 0.263062H19.9948L19.9797 0.265726L15.8799 0.989266L13.0753 1.4233L13.0722 1.4238L8.46842 2.21978L5.66354 2.65387L5.66229 2.65406L1.20085 3.37792L1.19994 3.37807C0.690337 3.46352 0.262207 3.89312 0.262207 4.49183V13.3953C0.262207 17.5808 2.28793 21.3394 5.58138 23.9561C5.62222 23.9885 5.65693 24.0174 5.69318 24.0476C5.75782 24.1017 5.8272 24.1595 5.94456 24.2482L5.94803 24.2508L5.9516 24.2532L8.39629 25.9169L8.39818 25.9182L10.0514 27.0751L10.0528 27.076L10.0542 27.0771C10.302 27.2432 10.6247 27.3238 10.8713 27.3238C11.1951 27.3238 11.4448 27.2404 11.6885 27.0771L11.6902 27.0758L11.6918 27.0747L13.8505 25.5546L13.8514 25.5542L15.5682 24.3307C15.7304 24.2453 15.882 24.0941 15.9522 24.0233C19.2283 21.5285 21.1927 17.5716 21.1927 13.3953V1.37923C21.1927 1.12921 21.1108 0.790283 20.8539 0.531886ZM5.51519 3.83016V22.4986C2.92287 20.2191 1.40406 16.909 1.40406 13.4677V4.51941L5.51519 3.83016ZM12.711 2.60124V15.2773V15.6128L12.9863 15.4211L15.7927 13.4667L15.8678 13.4144V13.3229V2.10595L19.9069 1.41219V13.4677C19.9069 16.9815 18.5202 20.1586 15.9397 22.4268V18.39V18.0546L15.6645 18.2462L12.858 20.2007L12.783 20.2529V20.3444V24.8864L10.9141 26.2094L10.9018 26.2182L10.891 26.2289C10.8262 26.2941 10.7102 26.3226 10.5382 26.2077L10.5372 26.207L8.52794 24.813V3.33595L12.711 2.60124Z" fill="#5E28A0" stroke="#5E28A0" stroke-width="0.772414"/>
<path d="M37.2451 3.88772C37.2451 5.10323 36.4443 5.97147 35.1983 5.97147H30.3033V14.9143C30.3033 16.3903 29.4133 17.3453 27.9893 17.3453H27.3662V3.54044H37.2451V3.88772Z" fill="#5E28A0"/>
<path d="M41.2502 17.2585C39.8262 17.2585 38.8472 16.3903 38.8472 14.8274V3.54044H50.8625V5.97147H41.7842V9.18394H49.4383V11.615H41.7842V14.8274H50.9513V17.2585H41.2502Z" fill="#5E28A0"/>
<path d="M55.0458 17.3453C53.6217 17.3453 52.7319 16.3903 52.7319 14.9143V3.54044H60.0298C62.8781 3.62725 64.391 5.79782 64.391 7.9684C64.391 10.2258 62.9669 12.3964 60.0298 12.3964H55.669V17.3453H55.0458ZM55.669 9.87853H59.674C60.92 9.87853 61.5432 8.92349 61.5432 7.8816C61.5432 6.92651 60.92 5.88467 59.674 5.88467H55.669V9.87853Z" fill="#5E28A0"/>
<path d="M65.8154 9.35788C65.8154 5.27722 69.3753 3.19345 73.024 3.19345C76.5843 3.19345 80.233 5.27722 80.233 9.35788V11.4417C80.233 15.5223 76.6732 17.6061 73.024 17.6061C69.3753 17.6061 65.8154 15.5223 65.8154 11.4417V9.35788ZM68.752 11.4417C68.752 13.6122 70.8883 14.7409 73.024 14.7409C75.1602 14.7409 77.2071 13.6122 77.2071 11.4417V9.35788C77.2071 7.1873 75.0714 6.05861 73.024 6.05861C70.8883 6.05861 68.752 7.1873 68.752 9.35788V11.4417Z" fill="#5E28A0"/>
<path d="M81.5674 16.8244V3.54044H84.5045V13.7855L93.3158 3.54044H96.3417V14.9143C96.3417 16.3903 95.3627 17.3453 93.9386 17.3453H93.4046V7.10016L85.6617 16.2166C85.0384 16.9112 84.1487 17.3453 83.3478 17.3453C82.9027 17.3453 82.3688 17.2585 81.9237 16.998L81.5674 16.8244Z" fill="#5E28A0"/>
<path d="M28.0333 23.7799C27.9637 23.7799 27.8547 23.7711 27.7501 23.7409L27.7849 23.4086C27.8372 23.4256 27.9331 23.4388 28.0073 23.4388C28.2821 23.4388 28.4127 23.1969 28.5262 22.9681L28.6048 22.8082L27.3662 20.7142H27.7501L28.7834 22.4844L29.8126 20.7142H30.1964L28.8357 23.0933C28.644 23.4215 28.4563 23.7799 28.0333 23.7799Z" fill="#9366CB"/>
<path d="M31.002 23.7365V20.7142H33.3262V23.7365H32.9731V21.0423H31.3595V23.7365H31.002Z" fill="#9366CB"/>
<path d="M34.4604 23.7365V20.7142H35.6335C36.2658 20.7142 36.6671 21.0898 36.6671 21.6857C36.6671 22.2771 36.2658 22.6528 35.6335 22.6528H34.8182V23.7365H34.4604ZM34.8182 22.3246H35.625C36.0565 22.3246 36.2965 22.0873 36.2965 21.6857C36.2965 21.2798 36.0565 21.0423 35.625 21.0423H34.8182V22.3246Z" fill="#9366CB"/>
<path d="M38.6778 20.7142L39.9599 23.7365H39.5761L39.2578 22.9725H37.7009L37.3826 23.7365H36.999L38.2809 20.7142H38.6778ZM37.8362 22.6486H39.1227L38.4817 21.1157L37.8362 22.6486Z" fill="#9366CB"/>
<path d="M40.7666 23.7365V20.7142H42.0095C42.6199 20.7142 42.9514 21.0164 42.9514 21.5C42.9514 21.7936 42.7944 22.0137 42.5153 22.1389C42.8336 22.2686 43.0169 22.5276 43.0169 22.8687C43.0169 23.3869 42.6766 23.7365 42.0183 23.7365H40.7666ZM41.1244 21.9966H41.966C42.3627 21.9966 42.5764 21.8238 42.5764 21.5129C42.5764 21.2064 42.3934 21.025 41.966 21.025H41.1244V21.9966ZM41.1244 23.4215H41.9833C42.4369 23.4215 42.6462 23.1883 42.6462 22.8514C42.6462 22.519 42.4065 22.3117 41.9833 22.3117H41.1244V23.4215Z" fill="#9366CB"/>
<path d="M43.667 23.7799V23.4344H43.7585C44.0637 23.4344 44.2163 23.2271 44.2426 22.8816L44.4171 20.7142H46.3576V23.7365H46V21.0423H44.7483L44.6001 22.8816C44.5522 23.4646 44.2774 23.7799 43.7585 23.7799H43.667Z" fill="#9366CB"/>
<path d="M49.5256 23.7365H49.1683V22.5665H48.4838L47.7029 23.7365H47.3105L48.1086 22.5405C47.6201 22.4586 47.3193 22.1175 47.3193 21.6425C47.3193 21.0898 47.7204 20.7142 48.3525 20.7142H49.5256V23.7365ZM49.1683 22.2383V21.0423H48.3525C47.9209 21.0423 47.69 21.2798 47.69 21.6425C47.69 22.0008 47.9209 22.2383 48.3525 22.2383H49.1683Z" fill="#9366CB"/>
<path d="M53.1265 23.7797C52.2981 23.7797 51.6613 23.2184 51.5957 22.372H50.9676V23.7364H50.6104V20.714H50.9676V22.0352H51.6C51.6787 21.2062 52.3068 20.6708 53.1265 20.6708C54.0027 20.6708 54.6617 21.2883 54.6617 22.2209C54.6617 23.1492 54.0027 23.7797 53.1265 23.7797ZM53.1265 23.4343C53.7893 23.4343 54.2822 22.9462 54.2822 22.2209C54.2822 21.4955 53.7893 21.0163 53.1265 21.0163C52.4593 21.0163 51.9708 21.4955 51.9708 22.2209C51.9708 22.9462 52.4593 23.4343 53.1265 23.4343Z" fill="#9366CB"/>
<path d="M60.0046 24.3929V23.7365H55.6265V20.7142H55.9842V23.4086H57.5976V20.7142H57.9553V23.4086H59.573V20.7142H59.9307V23.4086H60.3623V24.3929H60.0046Z" fill="#9366CB"/>
<path d="M62.5438 20.7142L63.826 23.7365H63.4422L63.1241 22.9725H61.5672L61.2485 23.7365H60.8652L62.147 20.7142H62.5438ZM61.7023 22.6486H62.9889L62.3478 21.1157L61.7023 22.6486Z" fill="#9366CB"/>
<path d="M66.6709 23.7365H66.3137V22.5665H65.6292L64.8481 23.7365H64.4561L65.2541 22.5405C64.7655 22.4586 64.4643 22.1175 64.4643 21.6425C64.4643 21.0898 64.8659 20.7142 65.4979 20.7142H66.6709V23.7365ZM66.3137 22.2383V21.0423H65.4979C65.0663 21.0423 64.835 21.2798 64.835 21.6425C64.835 22.0008 65.0663 22.2383 65.4979 22.2383H66.3137Z" fill="#9366CB"/>
<path d="M69.1514 23.7365V20.7142H69.5091V22.0829H69.9581L70.9303 20.7142H71.3711L70.2849 22.2254L71.4363 23.7365H70.9786L69.9581 22.4111H69.5091V23.7365H69.1514Z" fill="#9366CB"/>
<path d="M73.5191 23.7797C72.6424 23.7797 71.9839 23.1492 71.9839 22.2209C71.9839 21.2883 72.6424 20.6708 73.5191 20.6708C74.3953 20.6708 75.0538 21.2883 75.0538 22.2209C75.0538 23.1492 74.3953 23.7797 73.5191 23.7797ZM73.5191 23.4343C74.1862 23.4343 74.6748 22.9462 74.6748 22.2209C74.6748 21.4955 74.1862 21.0163 73.5191 21.0163C72.8562 21.0163 72.3633 21.4955 72.3633 22.2209C72.3633 22.9462 72.8562 23.4343 73.5191 23.4343Z" fill="#9366CB"/>
<path d="M78.7539 20.7142H79.1942V23.7365H78.8369V21.405L77.7729 23.7365H77.4456L76.3773 21.405V23.7365H76.0195V20.7142H76.4603L77.6112 23.2185L78.7539 20.7142Z" fill="#9366CB"/>
<path d="M80.334 23.7365V20.7142H82.658V23.7365H82.3046V21.0423H80.6912V23.7365H80.334Z" fill="#9366CB"/>
<path d="M85.1434 20.7142L86.4256 23.7365H86.0418L85.7237 22.9725H84.1668L83.8481 23.7365H83.4644L84.7466 20.7142H85.1434ZM84.3019 22.6486H85.588L84.9469 21.1157L84.3019 22.6486Z" fill="#9366CB"/>
<path d="M87.2324 23.7365V20.7142H87.5897V22.0612H89.2035V20.7142H89.5564V23.7365H89.2035V22.3894H87.5897V23.7365H87.2324Z" fill="#9366CB"/>
<path d="M92.8083 20.7142H93.1617V23.7365H92.8039V21.3316L91.0423 23.7365H90.689V20.7142H91.0467V23.1147L92.8083 20.7142Z" fill="#9366CB"/>
<path d="M96.3321 23.7365H95.9748V22.5665H95.2903L94.5097 23.7365H94.1172L94.9152 22.5405C94.4266 22.4586 94.1259 22.1175 94.1259 21.6425C94.1259 21.0898 94.5271 20.7142 95.1595 20.7142H96.3321V23.7365ZM95.9748 22.2383V21.0423H95.1595C94.7274 21.0423 94.4966 21.2798 94.4966 21.6425C94.4966 22.0008 94.7274 22.2383 95.1595 22.2383H95.9748Z" fill="#9366CB"/>
</g>
</g>
<defs>
<clipPath id="clip0_6650_19722">
<rect width="96.5517" height="28" fill="white"/>
</clipPath>
</defs>
</svg>
