<svg width="103" height="28" viewBox="0 0 103 28" fill="none" xmlns="http://www.w3.org/2000/svg">
<g clip-path="url(#clip0_7026_3064)">
<path fill-rule="evenodd" clip-rule="evenodd" d="M4.66699 6.9952H15.0163V24.7068H18.9004V10.0881L15.0163 6.9952H25.3823L29.2495 3.11108H8.53323L4.66699 6.9952Z" fill="#657591"/>
<path fill-rule="evenodd" clip-rule="evenodd" d="M49.9629 3.11108H44.767L34.9441 13.4344V3.11108H30.7666V24.7067H34.9441V18.4402L38.0345 15.2984L45.1465 24.6197L45.2159 24.7067H50.2912L42.4528 14.3129H39.02L40.8829 12.4499L49.9629 3.11108Z" fill="#657591"/>
<path fill-rule="evenodd" clip-rule="evenodd" d="M80.3369 3.11108L84.0928 6.85766H89.1755C91.5068 6.85766 93.9576 7.12955 93.9576 9.99881C93.9576 11.9503 92.6111 12.8992 89.849 12.8992H84.0583L87.6277 16.4896H90.2113C94.4563 16.4896 98.1522 14.5414 98.1522 9.8606C98.1522 4.99841 94.4117 3.11108 90.0216 3.11108H80.3369Z" fill="#657591"/>
<path d="M55.9277 12.0309V10.7842L55.8925 8.38816H51.8389V24.7066H61.8494C64.2827 24.7066 66.2464 24.1842 67.688 23.155C69.1514 22.109 69.8955 20.6056 69.8955 18.6863C69.8955 16.2158 68.583 14.4533 65.9936 13.4433C67.8011 12.3641 68.7147 10.7921 68.7147 8.76805C68.7147 7.28555 68.2165 6.03506 67.2328 5.04885C65.9458 3.76366 64.0336 3.11108 61.5477 3.11108H52.2179L55.9408 6.83713H61.0633C62.2 6.83713 63.0833 7.06056 63.6883 7.50381C64.2795 7.94011 64.5674 8.53136 64.5674 9.31313C64.5674 10.2115 64.2482 10.871 63.5869 11.3297C62.9102 11.7939 61.9721 12.0309 60.7913 12.0309H55.9277L59.4857 15.6046H61.6093C64.3942 15.6046 65.7482 16.4632 65.7482 18.231C65.7482 19.1334 65.4252 19.7982 64.7655 20.2618C64.0904 20.7382 63.1194 20.9802 61.8808 20.9802H55.9277V16.5552V15.6046V12.0309Z" fill="#657591"/>
<path fill-rule="evenodd" clip-rule="evenodd" d="M84.0567 24.7071H80.1729V8.38843H84.0567V24.7071Z" fill="#657591"/>
<path fill-rule="evenodd" clip-rule="evenodd" d="M76.3434 24.7066H72.459V6.15819L76.3434 3.11108V24.7066Z" fill="#657591"/>
</g>
<defs>
<clipPath id="clip0_7026_3064">
<rect width="93.4851" height="21.7778" fill="white" transform="translate(4.66699 3.11108)"/>
</clipPath>
</defs>
</svg>
