<svg width="118" height="28" viewBox="0 0 118 28" fill="none" xmlns="http://www.w3.org/2000/svg">
<g clip-path="url(#clip0_6650_19759)">
<mask id="mask0_6650_19759" style="mask-type:luminance" maskUnits="userSpaceOnUse" x="0" y="0" width="118" height="28">
<path d="M117.333 0H0V28H117.333V0Z" fill="white"/>
</mask>
<g mask="url(#mask0_6650_19759)">
<path d="M74.1033 11.1325C73.794 10.51 73.3393 9.995 72.7393 9.59C72.3266 9.31253 71.8573 9.09247 71.3346 8.93247C72.0533 8.62 72.6513 8.17253 73.1233 7.58753C73.7493 6.815 74.0633 5.885 74.0633 4.795C74.0633 3.32 73.5153 2.1525 72.4226 1.29C71.3266 0.430001 69.7666 0 67.7366 0H58.7344V18.575H67.9753C69.352 18.575 70.5306 18.365 71.5106 17.9425C72.49 17.52 73.244 16.91 73.774 16.1125C74.304 15.3125 74.568 14.3775 74.568 13.3075C74.568 12.4825 74.412 11.7575 74.106 11.135L74.1033 11.1325ZM63.3674 3.5575H66.8373C67.754 3.5575 68.4173 3.7125 68.822 4.0175C69.2293 4.325 69.43 4.805 69.43 5.4525C69.43 6.1 69.2266 6.585 68.822 6.90253C68.4153 7.21753 67.754 7.37753 66.8373 7.37753H63.3674V3.5575ZM69.8393 13.715C69.7766 13.935 69.676 14.1275 69.5353 14.295C69.3946 14.4625 69.2266 14.5975 69.0333 14.7025C68.8393 14.8075 68.596 14.8875 68.3046 14.94C68.0133 14.9925 67.6913 15.02 67.3373 15.02H63.3648V10.91H67.3373C67.6886 10.91 68.0133 10.94 68.3046 11.0025C68.596 11.065 68.8373 11.1525 69.0333 11.265C69.2266 11.38 69.3946 11.515 69.5353 11.6725C69.676 11.83 69.7793 12.02 69.8393 12.24C69.9026 12.46 69.9326 12.71 69.9326 12.99C69.9326 13.2525 69.9026 13.495 69.8393 13.715Z" fill="#52648A"/>
<path d="M90.4247 0L81.8447 10.7375V0H77.3174V18.575H80.892L89.47 7.75V18.575H94.0001V0H90.4247Z" fill="#52648A"/>
<path d="M112.96 0L107.452 13.4475L101.839 0H97.4424V18.575H101.839V8.59247L106.075 18.575H108.696L112.96 8.49V18.575H117.354V0H112.96Z" fill="#52648A"/>
<path d="M23.6802 13.5994L19.919 8.60938H0L13.6805 27.0294H13.683L23.6802 13.5994Z" fill="url(#paint0_linear_6650_19759)"/>
<path d="M33.8026 0.00259399L23.6797 13.6001L33.8026 27.0301L53.3221 0.00259399H33.8026Z" fill="url(#paint1_linear_6650_19759)"/>
<path d="M13.6821 27.0302H33.8022L23.6793 13.6003L13.6821 27.0302Z" fill="url(#paint2_linear_6650_19759)"/>
<path d="M59.2038 26.1873V22.7148H58.7314V27.0123H59.1183L61.7263 23.5323V27.0123H62.1936V22.7148H61.8067L59.2038 26.1873Z" fill="#52648A"/>
<path d="M68.1972 24.6173H65.6065V22.7148H65.104V27.0123H65.6065V25.0498H68.1972V27.0123H68.6992V22.7148H68.1972V24.6173Z" fill="#52648A"/>
<path d="M74.3753 24.9498C74.2746 24.8873 74.1593 24.8423 74.0313 24.8098C74.2166 24.7448 74.368 24.6448 74.488 24.5073C74.644 24.3273 74.7246 24.1048 74.7246 23.8373C74.7246 23.4798 74.6013 23.2023 74.358 23.0073C74.114 22.8123 73.77 22.7148 73.3273 22.7148H71.5986V27.0123H73.4006C73.702 27.0123 73.9606 26.9673 74.172 26.8773C74.3826 26.7873 74.546 26.6548 74.6593 26.4773C74.772 26.2998 74.8273 26.0848 74.8273 25.8273C74.8273 25.6273 74.79 25.4548 74.712 25.3073C74.634 25.1598 74.5206 25.0398 74.3753 24.9473V24.9498ZM72.0913 23.1173H73.2546C73.574 23.1173 73.8146 23.1823 73.9806 23.3098C74.1466 23.4373 74.2293 23.6273 74.2293 23.8798C74.2293 24.1323 74.1466 24.3098 73.9806 24.4398C73.8146 24.5698 73.574 24.6348 73.2546 24.6348H72.0913V23.1173ZM74.2946 26.1098C74.2673 26.1948 74.2293 26.2673 74.174 26.3298C74.1213 26.3898 74.056 26.4423 73.978 26.4848C73.9006 26.5273 73.81 26.5598 73.7066 26.5798C73.604 26.5998 73.486 26.6098 73.3553 26.6098H72.094V25.0373H73.3553C73.486 25.0373 73.604 25.0473 73.7066 25.0673C73.81 25.0873 73.9026 25.1173 73.978 25.1598C74.056 25.1998 74.1213 25.2523 74.174 25.3148C74.2273 25.3773 74.2673 25.4498 74.2946 25.5348C74.3226 25.6173 74.3353 25.7148 74.3353 25.8248C74.3353 25.9348 74.3226 26.0248 74.2946 26.1123V26.1098Z" fill="#52648A"/>
<path d="M77.5781 27.0123H80.3041V26.5923H78.0681V25.0423H80.1761V24.6223H78.0681V23.1348H80.3041V22.7148H77.5781V27.0123Z" fill="#52648A"/>
<path d="M84.8652 23.1177C85.1092 23.1177 85.3325 23.1577 85.5365 23.2352C85.7372 23.3152 85.9332 23.4427 86.1219 23.6152L86.3179 23.2077C86.1472 23.0277 85.9332 22.8927 85.6799 22.8002C85.4259 22.7077 85.1519 22.6602 84.8532 22.6602C84.4285 22.6602 84.0639 22.7502 83.7625 22.9277C83.4612 23.1077 83.2272 23.3602 83.0665 23.6852C82.9059 24.0102 82.8252 24.4027 82.8252 24.8577C82.8252 25.3127 82.9059 25.7052 83.0665 26.0327C83.2272 26.3627 83.4585 26.6152 83.7625 26.7952C84.0639 26.9752 84.4285 27.0627 84.8532 27.0627C85.1519 27.0627 85.4259 27.0152 85.6799 26.9202C85.9332 26.8252 86.1445 26.6902 86.3179 26.5152L86.1219 26.1077C85.9332 26.2827 85.7399 26.4102 85.5365 26.4877C85.3352 26.5677 85.1119 26.6077 84.8652 26.6077C84.3805 26.6077 84.0085 26.4552 83.7499 26.1477C83.4939 25.8402 83.3632 25.4102 83.3632 24.8577C83.3632 24.3052 83.4912 23.8752 83.7499 23.5727C84.0065 23.2677 84.3779 23.1152 84.8652 23.1152V23.1177Z" fill="#52648A"/>
<path d="M88.4399 23.1473H90.0079V27.0123H90.5153V23.1473H92.0833V22.7148H88.4399V23.1473Z" fill="#52648A"/>
<path d="M94.9439 26.1873V22.7148H94.4712V27.0123H94.8559L97.4659 23.5323V27.0123H97.9312V22.7148H97.5465L94.9439 26.1873Z" fill="#52648A"/>
<path d="M104.406 22.7148H103.898V26.5798H101.343V22.7148H100.841V27.0123H104.559V27.9698H105.019V26.5798H104.406V22.7148Z" fill="#52648A"/>
<path d="M107.993 26.1873V22.7148H107.523V27.0123H107.908L110.518 23.5323V27.0123H110.983V22.7148H110.599L107.993 26.1873Z" fill="#52648A"/>
<path d="M116.968 22.7148L114.365 26.1873V22.7148H113.893V27.0123H114.28L116.888 23.5323V27.0123H117.352V22.7148H116.968Z" fill="#52648A"/>
</g>
</g>
<defs>
<linearGradient id="paint0_linear_6650_19759" x1="6.45459" y1="3.91435" x2="20.0597" y2="22.3468" gradientUnits="userSpaceOnUse">
<stop stop-color="#73A8BA"/>
<stop offset="1" stop-color="#52648A"/>
</linearGradient>
<linearGradient id="paint1_linear_6650_19759" x1="47.0182" y1="-4.5799" x2="27.3034" y2="22.5437" gradientUnits="userSpaceOnUse">
<stop stop-color="#CBDFE6"/>
<stop offset="1" stop-color="#73A8BA"/>
</linearGradient>
<linearGradient id="paint2_linear_6650_19759" x1="23.7422" y1="13.6003" x2="23.7422" y2="27.0302" gradientUnits="userSpaceOnUse">
<stop stop-color="white"/>
<stop offset="1" stop-color="#73A8BA"/>
</linearGradient>
<clipPath id="clip0_6650_19759">
<rect width="117.333" height="28" fill="white"/>
</clipPath>
</defs>
</svg>
