<svg width="130" height="28" viewBox="0 0 130 28" fill="none" xmlns="http://www.w3.org/2000/svg">
<g clip-path="url(#clip0_7026_3261)">
<path d="M120.223 20.7829L121.471 19.14C121.422 19.14 120.987 19.1015 120.697 18.8229C120.532 18.6692 120.378 18.4001 120.378 18.0254C120.378 17.6508 120.513 17.3337 120.736 17.1319C121.083 16.8052 121.519 16.7957 121.915 16.7957H123.318V20.7829H122.621V19.1784H122.196L121.055 20.7829H120.223ZM122.621 18.6019V17.4105H121.974C121.693 17.4105 121.49 17.4298 121.345 17.5162C121.229 17.5931 121.093 17.7468 121.093 18.0062C121.093 18.2176 121.171 18.3809 121.345 18.4866C121.548 18.6115 121.799 18.6019 121.964 18.6019H122.621Z" fill="#657591"/>
<path d="M116.022 16.7913H116.719V19.4239L119.465 16.4839V20.7786H118.769V18.1172L116.022 21.0572V16.7913Z" fill="#657591"/>
<path d="M111.522 20.7829V16.7957H112.219V18.429H114.114V16.7957H114.81V20.7829H114.114V19.0631H112.219V20.7829H111.522Z" fill="#657591"/>
<path d="M109.601 17.367V16.8001H110.297V20.7874H109.601V20.2301C109.368 20.528 108.933 20.9027 108.227 20.9027C107.212 20.9027 106.273 20.1917 106.273 18.789C106.273 17.415 107.202 16.7041 108.227 16.7041C109.001 16.7041 109.417 17.1268 109.601 17.367ZM108.304 17.319C107.618 17.319 106.989 17.8186 106.989 18.789C106.989 19.6441 107.473 20.2878 108.304 20.2878C109.156 20.2878 109.639 19.5864 109.639 18.7986C109.639 17.7706 108.923 17.319 108.304 17.319Z" fill="#657591"/>
<path d="M102.079 16.7957H105.309V20.7829H104.613V17.4298H102.775V20.7829H102.079V16.7957Z" fill="#657591"/>
<path d="M96.1035 20.7786L97.0704 16.4839L98.7337 19.7313L100.358 16.4839L101.326 20.7786H100.61L100.078 18.3094L98.7147 21.0572L97.3318 18.3094L96.8189 20.7786H96.1035Z" fill="#657591"/>
<path d="M93.4689 20.9027C92.2505 20.9027 91.3418 20.0188 91.3418 18.8082C91.3418 17.5976 92.2412 16.7041 93.4689 16.7041C94.6972 16.7041 95.5966 17.5976 95.5966 18.8082C95.5966 20.0188 94.688 20.9027 93.4689 20.9027ZM93.4689 17.319C92.7339 17.319 92.0572 17.8378 92.0572 18.8082C92.0572 19.7882 92.7535 20.2878 93.4689 20.2878C94.1947 20.2878 94.8812 19.7786 94.8812 18.8082C94.8812 17.8282 94.2039 17.319 93.4689 17.319Z" fill="#657591"/>
<path d="M87.7988 16.7957H88.4952V18.429L90.1198 16.7957H90.9708L89.2302 18.5731L91.1836 20.7829H90.2744L88.7075 19.0342L88.4952 19.236V20.7829H87.7988V16.7957Z" fill="#657591"/>
<path d="M81.3223 20.7829L82.5701 19.14C82.5217 19.14 82.0861 19.1015 81.7965 18.8229C81.6321 18.6692 81.4769 18.4001 81.4769 18.0254C81.4769 17.6508 81.6125 17.3337 81.8351 17.1319C82.183 16.8052 82.618 16.7957 83.0149 16.7957H84.4169V20.7829H83.7205V19.1784H83.2953L82.1542 20.7829H81.3223ZM83.7205 18.6019V17.4105H83.0727C82.7923 17.4105 82.5892 17.4298 82.4444 17.5162C82.3284 17.5931 82.1928 17.7468 82.1928 18.0062C82.1928 18.2176 82.2701 18.3809 82.4444 18.4866C82.6474 18.6115 82.899 18.6019 83.0634 18.6019H83.7205Z" fill="#657591"/>
<path d="M79.8676 17.367V16.8001H80.5639V20.7874H79.8676V20.2301C79.6356 20.528 79.2006 20.9027 78.4945 20.9027C77.4791 20.9027 76.541 20.1917 76.541 18.789C76.541 17.415 77.4693 16.7041 78.4945 16.7041C79.2681 16.7041 79.6841 17.1268 79.8676 17.367ZM78.5718 17.319C77.8852 17.319 77.2564 17.8186 77.2564 18.789C77.2564 19.6441 77.7404 20.2878 78.5718 20.2878C79.4228 20.2878 79.9068 19.5864 79.9068 18.7986C79.9068 17.7706 79.1908 17.319 78.5718 17.319Z" fill="#657591"/>
<path d="M70.3145 20.7829V16.7957H71.0108V20.1488H72.5581V16.7957H73.2545V20.1488H74.8018V16.7957H75.4981V20.1488H76.1558V21.8398H75.5177V20.7829H70.3145Z" fill="#657591"/>
<path d="M64.4327 18.4335H65.1584C65.2259 17.9531 65.4481 17.5592 65.6996 17.2998C66.048 16.9347 66.58 16.7041 67.218 16.7041C68.4561 16.7041 69.3457 17.5976 69.3457 18.8082C69.3457 20.0188 68.4463 20.9027 67.218 20.9027C66.3861 20.9027 65.864 20.528 65.5646 20.1533C65.3708 19.9131 65.1677 19.548 65.1198 19.0676H64.4327V20.7874H63.7363V16.8001H64.4327V18.4335ZM67.218 17.319C66.4732 17.319 65.8352 17.857 65.8352 18.8082C65.8352 19.7882 66.5119 20.2878 67.218 20.2878C67.9432 20.2878 68.6298 19.7786 68.6298 18.8082C68.6298 17.8378 67.953 17.319 67.218 17.319Z" fill="#657591"/>
<path d="M59.4209 20.7829L60.6685 19.14C60.6201 19.14 60.1849 19.1015 59.8948 18.8229C59.7304 18.6692 59.5757 18.4001 59.5757 18.0254C59.5757 17.6508 59.711 17.3337 59.9335 17.1319C60.2817 16.8052 60.7168 16.7957 61.1134 16.7957H62.5157V20.7829H61.8194V19.1784H61.3936L60.2526 20.7829H59.4209ZM61.8194 18.6019V17.4105H61.1713C60.8909 17.4105 60.6878 17.4298 60.5428 17.5162C60.4267 17.5931 60.2913 17.7468 60.2913 18.0062C60.2913 18.2176 60.3687 18.3809 60.5428 18.4866C60.7459 18.6115 60.9973 18.6019 61.1617 18.6019H61.8194Z" fill="#657591"/>
<path d="M58.6658 16.7957V20.7829H57.9694V17.4298H56.5382V19.2264C56.5382 19.5627 56.5382 20.0047 56.2287 20.3794C56.103 20.5331 55.8032 20.8021 55.2616 20.8021C55.1939 20.8021 55.1165 20.7925 55.0488 20.7829V20.1488C55.0972 20.1584 55.1552 20.168 55.2036 20.168C55.4647 20.168 55.6291 20.0335 55.7065 19.9086C55.8322 19.7164 55.8419 19.4666 55.8419 19.2264V16.7957H58.6658Z" fill="#657591"/>
<path d="M51.5693 16.7957H53.0876C53.3004 16.7957 53.6486 16.8052 53.929 17.0262C54.0741 17.1415 54.2772 17.3721 54.2772 17.7757C54.2772 18.1696 54.0837 18.4194 53.842 18.5731C53.958 18.6019 54.1515 18.6596 54.3449 18.8421C54.5673 19.0535 54.664 19.3033 54.664 19.6108C54.664 20.0335 54.4706 20.3409 54.2482 20.5139C54.0064 20.6964 53.6195 20.7829 53.3004 20.7829H51.5693V16.7957ZM52.2656 18.4194H53.0006C53.0683 18.4194 53.2908 18.4098 53.4455 18.3041C53.5229 18.2464 53.6389 18.1311 53.6389 17.8909C53.6389 17.6988 53.5519 17.5835 53.4455 17.5066C53.2811 17.4009 53.0973 17.4105 52.8845 17.4105H52.2656V18.4194ZM52.2656 20.168H53.1263C53.3198 20.168 53.5809 20.1584 53.755 20.0335C53.8807 19.9374 53.987 19.7741 53.987 19.5915C53.987 19.409 53.9194 19.2457 53.784 19.14C53.6099 19.0054 53.3487 18.9959 53.1554 18.9959H52.2656V20.168Z" fill="#657591"/>
<path d="M49.652 17.367V16.8001H50.3483V20.7874H49.652V20.2301C49.4199 20.528 48.9847 20.9027 48.2787 20.9027C47.2633 20.9027 46.3252 20.1917 46.3252 18.789C46.3252 17.415 47.2536 16.7041 48.2787 16.7041C49.0524 16.7041 49.4683 17.1268 49.652 17.367ZM48.3561 17.319C47.6694 17.319 47.0408 17.8186 47.0408 18.789C47.0408 19.6441 47.5244 20.2878 48.3561 20.2878C49.2072 20.2878 49.6907 19.5864 49.6907 18.7986C49.6907 17.7706 48.975 17.319 48.3561 17.319Z" fill="#657591"/>
<path d="M42.2764 20.2301V22.9972H41.5801V16.8001H42.2764V17.3574C42.7503 16.7713 43.3595 16.7041 43.6497 16.7041C44.9069 16.7041 45.6032 17.7417 45.6032 18.8178C45.6032 19.9131 44.8973 20.9027 43.6787 20.9027C43.0307 20.9027 42.5762 20.6145 42.2764 20.2301ZM43.582 20.2878C44.3944 20.2878 44.8876 19.6152 44.8876 18.8178C44.8876 17.8378 44.2203 17.319 43.5723 17.319C42.9244 17.319 42.2377 17.8474 42.2377 18.8082C42.2377 19.6249 42.7599 20.2878 43.582 20.2878Z" fill="#657591"/>
<path d="M37.1348 16.7957H40.3648V20.7829H39.6686V17.4298H37.8311V20.7829H37.1348V16.7957Z" fill="#657591"/>
<path d="M31.6104 14.3743H32.4808L34.4923 18.1502L36.1751 14.3743H36.9487L34.0378 20.7827H33.2641L34.0861 18.9956L31.6104 14.3743Z" fill="#657591"/>
<path d="M81.3691 8.84253H82.7493V10.3189H84.2923V8.84253H85.6724V13.0898H84.2923V11.4239H82.7493V13.091H81.3691V8.84253Z" fill="#657591"/>
<path d="M80.7458 11.2048H77.5532C77.5532 11.4327 77.6398 11.7375 77.8124 11.9283C78.0236 12.1575 78.3111 12.1946 78.5212 12.1946C78.7221 12.1946 78.9339 12.1562 79.0766 12.0704C79.0962 12.0615 79.2584 11.9564 79.3744 11.7183L80.6778 11.8515C80.4856 12.452 80.1028 12.7657 79.8529 12.918C79.4402 13.1652 78.9802 13.2317 78.5005 13.2317C77.8586 13.2317 77.293 13.1178 76.7942 12.6223C76.4202 12.2509 76.1523 11.6888 76.1523 10.9846C76.1523 10.3751 76.3728 9.74643 76.8046 9.30848C77.3229 8.79376 77.9643 8.69897 78.4439 8.69897C78.9236 8.69897 79.6128 8.78478 80.1399 9.33668C80.6478 9.86931 80.7447 10.5364 80.7447 11.0601V11.2048H80.7458ZM79.4713 10.3853C79.462 10.347 79.3951 10.0806 79.1931 9.88984C79.0395 9.74643 78.819 9.65164 78.5408 9.65164C78.1864 9.65164 77.9746 9.79505 77.8407 9.92822C77.735 10.0422 77.6398 10.1946 77.6011 10.3853H79.4713Z" fill="#657591"/>
<path d="M72.0234 9.20351C72.2052 9.08956 72.503 8.93717 72.7322 8.85136C73.0584 8.73741 73.4128 8.69897 73.7389 8.69897C73.9698 8.69897 74.7548 8.71819 75.1866 9.13693C75.4261 9.36614 75.5024 9.63242 75.5024 9.91799C75.5024 10.1843 75.4545 10.4225 75.2432 10.6414C75.1376 10.7464 75.0124 10.8322 74.8784 10.8796C75.1942 10.9552 75.3967 11.1267 75.4534 11.1844C75.6646 11.3841 75.7408 11.6133 75.7408 11.8886C75.7408 12.1843 75.645 12.4981 75.3668 12.7746C75.002 13.1268 74.5044 13.2317 73.7944 13.2317C73.4117 13.2317 73.0083 13.1844 72.6255 13.041C72.2515 12.8976 71.9733 12.6889 71.8584 12.5928L72.4437 11.6875C72.5972 11.8207 72.7981 11.9539 72.9707 12.0307C73.1525 12.1075 73.4117 12.1639 73.6322 12.1639C73.7852 12.1639 73.997 12.1357 74.1309 12.0589C74.2932 11.9641 74.3231 11.8297 74.3231 11.7349C74.3231 11.5915 74.2458 11.5057 74.1217 11.4494C74.0073 11.402 73.7765 11.3738 73.6229 11.3738H73.1052V10.4404H73.4983C73.6229 10.4404 73.881 10.4212 74.016 10.3649C74.1788 10.2893 74.2175 10.1651 74.2175 10.0793C74.2175 10.0025 74.1788 9.87955 74.0057 9.80273C73.9387 9.77458 73.8048 9.72721 73.5739 9.72721C73.3534 9.72721 73.1912 9.7656 73.0083 9.84116C72.8264 9.91668 72.6821 10.0025 72.5482 10.1177L72.0234 9.20351Z" fill="#657591"/>
<path d="M68.2275 8.83775V11.2667L70.0487 8.83775H71.3336V13.085H69.9518V10.6188L68.1306 13.085H66.8457V8.83775H68.2275ZM70.8245 7.1245C70.7096 7.46766 70.4793 7.76217 70.2109 7.93374C69.8461 8.1719 69.4057 8.20007 69.0899 8.20007C68.7741 8.20007 68.332 8.1719 67.9683 7.93374C67.7005 7.76217 67.4696 7.46766 67.3548 7.1245L68.3141 6.75317C68.3527 6.94396 68.448 7.09633 68.5629 7.19109C68.6876 7.29608 68.8498 7.36267 69.0899 7.36267C69.3295 7.36267 69.4917 7.29608 69.6169 7.19109C69.7318 7.09633 69.8282 6.94396 69.8657 6.75317L70.8245 7.1245Z" fill="#657591"/>
<path d="M64.6326 8.84369H66.0127V13.0909H64.6326V12.5762C64.2585 13.1472 63.7212 13.2331 63.3667 13.2331C62.7531 13.2331 62.2354 13.0807 61.7661 12.5852C61.3147 12.1088 61.1436 11.5569 61.1436 10.9948C61.1436 10.2804 61.4116 9.67086 61.8047 9.28033C62.1788 8.90902 62.6965 8.69897 63.2911 8.69897C63.6553 8.69897 64.2395 8.78478 64.6326 9.31746V8.84369ZM62.8784 10.1869C62.7341 10.3303 62.5626 10.5774 62.5626 10.9577C62.5626 11.338 62.7248 11.5864 62.8501 11.7196C63.0422 11.9193 63.3384 12.0525 63.6645 12.0525C63.9428 12.0525 64.2008 11.9385 64.3838 11.7567C64.5656 11.5851 64.7186 11.3188 64.7186 10.9564C64.7186 10.6517 64.6043 10.3661 64.4034 10.1753C64.1916 9.97559 63.8851 9.87955 63.6362 9.87955C63.3384 9.88211 63.0602 10.0063 62.8784 10.1869Z" fill="#657591"/>
<path d="M56.9276 15.2071V13.1559H56.8696C55.9017 13.1559 55.3642 12.7564 55.1154 12.5182C54.8087 12.2224 54.502 11.7179 54.502 10.9471C54.502 10.1097 54.8848 9.57576 55.2404 9.2902C55.6619 8.95727 56.2948 8.77548 56.8605 8.77548H56.9276V6.73828H58.3079V8.77674H58.375C58.9408 8.77674 59.5736 8.95727 59.9951 9.29151C60.3495 9.57701 60.7336 10.111 60.7336 10.9484C60.7336 11.7192 60.4268 12.225 60.1201 12.5195C59.8713 12.7577 59.3338 13.1571 58.3659 13.1571H58.3079V15.2071H56.9276ZM56.9946 9.88049C56.6685 9.86127 56.3334 9.97522 56.1323 10.1763C55.9699 10.3376 55.854 10.6142 55.854 10.9471C55.854 11.28 55.9687 11.5566 56.1323 11.7282C56.3141 11.9279 56.6401 12.0611 56.9946 12.0521V9.88049ZM58.2409 12.0521C58.5954 12.0611 58.9214 11.9279 59.1032 11.7282C59.2656 11.5566 59.3815 11.28 59.3815 10.9471C59.3815 10.6142 59.2668 10.3376 59.1032 10.1763C58.9021 9.97653 58.567 9.86258 58.2409 9.88049V12.0521Z" fill="#657591"/>
<path d="M50.2841 15.2071V13.1559H50.226C49.2581 13.1559 48.7206 12.7564 48.4719 12.5182C48.1651 12.2224 47.8584 11.7179 47.8584 10.9471C47.8584 10.1097 48.2412 9.57576 48.5969 9.2902C49.0184 8.95727 49.6512 8.77548 50.217 8.77548H50.2841V6.73828H51.6644V8.77674H51.7314C52.2972 8.77674 52.9301 8.95727 53.3515 9.29151C53.7059 9.57701 54.09 10.111 54.09 10.9484C54.09 11.7192 53.7833 12.225 53.4765 12.5195C53.2278 12.7577 52.6903 13.1571 51.7224 13.1571H51.6644V15.2071H50.2841ZM50.351 9.88049C50.025 9.86127 49.6899 9.97522 49.4888 10.1763C49.3264 10.3376 49.2104 10.6142 49.2104 10.9471C49.2104 11.28 49.3251 11.5566 49.4888 11.7282C49.6705 11.9279 49.9966 12.0611 50.351 12.0521V9.88049ZM51.5974 12.0521C51.9518 12.0611 52.2779 11.9279 52.4596 11.7282C52.622 11.5566 52.738 11.28 52.738 10.9471C52.738 10.6142 52.6233 10.3376 52.4596 10.1763C52.2585 9.97653 51.9234 9.86258 51.5974 9.88049V12.0521Z" fill="#657591"/>
<path d="M44.1304 8.83775V11.2667L45.9515 8.83775H47.2365V13.085H45.8562V10.6188L44.035 13.085H42.75V8.83775H44.1304ZM46.7287 7.1245C46.614 7.46766 46.3833 7.76217 46.1152 7.93374C45.7504 8.1719 45.3097 8.20007 44.9939 8.20007C44.6781 8.20007 44.2361 8.1719 43.8726 7.93374C43.6045 7.76217 43.3738 7.46766 43.2591 7.1245L44.218 6.75317C44.2567 6.94396 44.352 7.09633 44.4667 7.19109C44.5918 7.29608 44.7542 7.36267 44.9939 7.36267C45.2336 7.36267 45.396 7.29608 45.5211 7.19109C45.6358 7.09633 45.7324 6.94396 45.7698 6.75317L46.7287 7.1245Z" fill="#657591"/>
<path d="M40.5368 8.84369H41.9171V13.0909H40.5368V12.5762C40.163 13.1472 39.6255 13.2331 39.2711 13.2331C38.6576 13.2331 38.1395 13.0807 37.6704 12.5852C37.2192 12.1088 37.0479 11.5569 37.0479 10.9948C37.0479 10.2804 37.3159 9.67086 37.709 9.28033C38.0828 8.90902 38.6009 8.69897 39.1951 8.69897C39.5598 8.69897 40.1437 8.78478 40.5368 9.31746V8.84369ZM38.7826 10.1869C38.6383 10.3303 38.4669 10.5774 38.4669 10.9577C38.4669 11.338 38.6292 11.5864 38.7543 11.7196C38.9463 11.9193 39.2428 12.0525 39.5688 12.0525C39.8472 12.0525 40.105 11.9385 40.288 11.7567C40.4697 11.5851 40.6231 11.3188 40.6231 10.9564C40.6231 10.6517 40.5084 10.3661 40.3073 10.1753C40.096 9.97559 39.7892 9.87955 39.5405 9.87955C39.2428 9.88211 38.9643 10.0063 38.7826 10.1869Z" fill="#657591"/>
<path d="M34.6315 6.73828C35.187 6.73828 35.8005 6.81383 36.3096 7.26198C36.8561 7.73831 36.9321 8.367 36.9321 8.80494C36.9321 9.60522 36.6254 10.052 36.3857 10.3005C35.8778 10.8152 35.2064 10.8626 34.7565 10.8626H33.8557V13.0906H32.3799V6.73828H34.6315ZM33.8543 9.66151H34.3815C34.5825 9.66151 34.937 9.65258 35.1767 9.42337C35.3107 9.2902 35.4165 9.07123 35.4165 8.79465C35.4165 8.52834 35.3211 8.30938 35.1767 8.17622C34.9563 7.96623 34.6406 7.93806 34.3519 7.93806H33.853V9.66151H33.8543Z" fill="#657591"/>
<path d="M24.5869 3.11108C27.2457 3.11115 28.7275 4.58385 28.7275 7.22534V20.7751H28.7266C28.7264 23.4165 27.2438 24.8884 24.585 24.8884H10.9463C8.28778 24.8883 6.80579 23.4163 6.80566 20.7751V7.22534C6.80566 4.58394 8.28767 3.11126 10.9463 3.11108H24.5869ZM24.2988 7.49683C22.9919 6.24711 21.5807 6.8106 21.0986 7.29077L18.4551 9.91675L19.1289 10.5867L17.7646 11.9421L16.4004 10.5867L17.0742 9.91675L14.4297 7.29077C13.9464 6.81188 12.5351 6.24711 11.2295 7.49683C10.0182 8.67992 9.9202 10.0972 9.91504 10.5876L10.5684 9.93726L13.2129 12.5662L13.8701 11.9128V10.1091L14.627 10.8601V12.9382L15.6943 13.9988L10.458 19.2029L12.5273 21.2566L17.7656 16.0535L23.0029 21.2566L25.0732 19.2029L19.835 13.9988L20.9014 12.9382V10.8601L21.6582 10.1091V11.9128L22.3154 12.5662L24.96 9.93726L25.6133 10.5876C25.6082 10.0972 25.5102 8.67861 24.2988 7.49683Z" fill="#657591"/>
</g>
<defs>
<clipPath id="clip0_7026_3261">
<rect width="116.511" height="21.7778" fill="white" transform="translate(6.80566 3.11108)"/>
</clipPath>
</defs>
</svg>
