<svg width="121" height="28" viewBox="0 0 121 28" fill="none" xmlns="http://www.w3.org/2000/svg">
<g clip-path="url(#clip0_6650_19781)">
<path fill-rule="evenodd" clip-rule="evenodd" d="M0 4.99386H13.3062V27.766H18.3V8.97045L13.3062 4.99386H26.6339L31.6061 0H4.97087L0 4.99386Z" fill="#5C316D"/>
<path fill-rule="evenodd" clip-rule="evenodd" d="M58.2376 0H51.5572L38.9277 13.2729V0H33.5566V27.7658H38.9277V19.7089L42.9011 15.6694L52.045 27.6539L52.1344 27.7658H58.6597L48.5818 14.4023H44.1682L46.5633 12.0071L58.2376 0Z" fill="#5C316D"/>
<path fill-rule="evenodd" clip-rule="evenodd" d="M97.2905 0L102.12 4.81703H108.654C111.652 4.81703 114.803 5.1666 114.803 8.85565C114.803 11.3647 113.072 12.5848 109.52 12.5848H102.075L106.664 17.2009H109.986C115.444 17.2009 120.196 14.6962 120.196 8.67795C120.196 2.42656 115.387 0 109.742 0H97.2905Z" fill="#5C316D"/>
<path d="M65.907 11.4684V9.86542L65.8617 6.78482H60.6499V27.7656H73.5206C76.6491 27.7656 79.1739 27.094 81.0273 25.7708C82.9088 24.4258 83.8656 22.4929 83.8656 20.0253C83.8656 16.8489 82.1781 14.5829 78.8488 13.2842C81.1728 11.8967 82.3474 9.87553 82.3474 7.27324C82.3474 5.36717 81.7069 3.7594 80.4421 2.49142C78.7873 0.839023 76.3288 0 73.1327 0H61.1372L65.9238 4.79063H72.5099C73.9713 4.79063 75.1071 5.0779 75.8849 5.64779C76.645 6.20875 77.0152 6.96893 77.0152 7.97406C77.0152 9.12916 76.6047 9.97708 75.7545 10.5668C74.8844 11.1636 73.6784 11.4684 72.1602 11.4684H65.907L70.4816 16.0631H73.2119C76.7925 16.0631 78.5333 17.167 78.5333 19.4399C78.5333 20.6001 78.1181 21.4548 77.2699 22.0509C76.4019 22.6634 75.1535 22.9745 73.5609 22.9745H65.907V17.2854V16.0631V11.4684Z" fill="#5C316D"/>
<path fill-rule="evenodd" clip-rule="evenodd" d="M102.073 27.7664H97.0796V6.78525H102.073V27.7664Z" fill="#5C316D"/>
<path fill-rule="evenodd" clip-rule="evenodd" d="M92.1554 27.7656H87.1611V3.91771L92.1554 0V27.7656Z" fill="#5C316D"/>
</g>
<defs>
<clipPath id="clip0_6650_19781">
<rect width="120.195" height="28" fill="white"/>
</clipPath>
</defs>
</svg>
