<svg width="140" height="28" viewBox="0 0 140 28" fill="none" xmlns="http://www.w3.org/2000/svg">
<g clip-path="url(#clip0_6650_19795)">
<path d="M15.8654 4.48855C15.8654 14.8801 17.1875 20.387 20.9335 25.3157C22.599 24.0476 23.9326 22.3959 24.8204 20.5016C25.708 18.6073 26.1236 16.5267 26.0314 14.4373C25.9392 12.3478 25.3421 10.3117 24.2911 8.50269C23.24 6.69371 21.7662 5.16548 19.9955 4.0485V7.1163C21.1163 8.1024 22.0143 9.31527 22.6297 10.6744C23.2451 12.0336 23.564 13.5079 23.5651 14.9995C23.57 16.361 23.3024 17.7096 22.7782 18.9663C19.8003 15.8796 18.4214 12.3718 18.4214 5.60126V3.18096C17.6025 2.80407 16.7456 2.51536 15.8654 2.31971V4.48855ZM9.56958 27.541C11.8139 28.153 14.1814 28.153 16.4257 27.541C14.8896 20.255 14.2788 15.5967 14.2788 3.60844V0.0565784C13.8508 0 13.4415 0 13.0197 0C12.5979 0 12.1572 0 11.7606 0.0565784V3.60844C11.7354 15.5716 11.1184 20.255 9.58218 27.541H9.56958ZM1.55956e-05 14.9995C-0.00159579 16.9935 0.456391 18.9612 1.33852 20.7501C2.22064 22.5389 3.50324 24.1012 5.08701 25.3157C8.83301 20.387 10.1614 14.8801 10.1614 4.48855V2.31971C9.28093 2.51456 8.42405 2.80331 7.60533 3.18096V5.60126C7.60533 12.3718 6.22025 15.8608 3.24864 18.9663C2.43245 16.9456 2.26174 14.7224 2.75989 12.6011C3.25804 10.4798 4.40069 8.56405 6.03138 7.1163V4.0485C4.18116 5.21619 2.65752 6.83308 1.60279 8.74819C0.548044 10.6632 -0.00338087 12.814 1.55956e-05 14.9995Z" fill="#3B175C"/>
<path d="M59.5093 9.98851C57.6772 9.98851 56.3047 10.6863 55.6248 11.8368H55.4737V10.3406H52.1621V26.1825H55.4737V21.1533H55.6248C56.3047 22.3037 57.6772 23.0015 59.5093 23.0015C62.9468 23.0015 65.6603 20.116 65.6603 16.4887C65.6603 12.8615 62.9594 9.98851 59.5093 9.98851ZM58.8419 19.8835C58.1726 19.881 57.5189 19.6805 56.9636 19.3073C56.4082 18.9342 55.976 18.4051 55.7217 17.7869C55.4672 17.1687 55.4019 16.489 55.5341 15.8338C55.6661 15.1786 55.9897 14.5771 56.4639 14.1054C56.9381 13.6336 57.5417 13.3128 58.1983 13.1833C58.855 13.0538 59.5354 13.1215 60.1536 13.3778C60.7718 13.6342 61.3001 14.0677 61.6717 14.6236C62.0433 15.1795 62.2416 15.8329 62.2417 16.5013C62.2467 16.9479 62.1622 17.3911 61.993 17.8045C61.8238 18.218 61.5733 18.5934 61.2565 18.9087C60.9396 19.2239 60.5627 19.4726 60.148 19.6399C59.7333 19.8074 59.2892 19.8902 58.8419 19.8835Z" fill="#3B175C"/>
<path d="M48.6138 6.63327L44.8363 14.5354L39.7682 6.63327H35.6948L43.1427 18.0935L43.0106 18.3701C42.8781 18.7033 42.6371 18.9819 42.3262 19.1611C42.0154 19.3402 41.6531 19.4093 41.298 19.3571H38.9371V22.6826H41.7388C44.0178 22.6826 44.9307 22.054 45.8814 20.1115L52.4038 6.63327H48.6138Z" fill="#3B175C"/>
<path d="M134.151 10.9252C133.329 10.8833 132.51 11.0485 131.768 11.4055C131.027 11.7625 130.387 12.2999 129.908 12.9684H129.75C130.002 10.504 131.136 9.40388 133.868 9.0393L138.86 8.41062V5.18566L133.289 5.99662C128.636 6.66298 126.786 8.8004 126.546 13.6158C126.244 19.0725 128.095 23.0456 133.421 23.0456C134.265 23.0734 135.107 22.9313 135.894 22.6279C136.682 22.3245 137.401 21.8659 138.008 21.2793C138.615 20.6927 139.097 19.9903 139.426 19.2137C139.755 18.4372 139.925 17.6024 139.924 16.7591C139.9 13.2826 137.557 10.9252 134.151 10.9252ZM133.327 19.8646C132.485 19.8646 131.678 19.5308 131.083 18.9366C130.488 18.3424 130.154 17.5365 130.154 16.6962C130.154 15.8559 130.488 15.05 131.083 14.4558C131.678 13.8616 132.485 13.5278 133.327 13.5278C133.746 13.5191 134.163 13.5958 134.552 13.7534C134.941 13.9111 135.294 14.1462 135.588 14.4445C135.882 14.7429 136.113 15.0982 136.265 15.4885C136.418 15.879 136.489 16.2963 136.474 16.7151C136.485 17.131 136.41 17.5446 136.256 17.9309C136.101 18.3173 135.87 18.6684 135.576 18.9628C135.282 19.2573 134.93 19.4891 134.544 19.6441C134.157 19.799 133.743 19.8741 133.327 19.8646Z" fill="#3B175C"/>
<path d="M77.2559 11.8368H77.0985C76.406 10.6863 75.0209 9.98851 73.2204 9.98851C69.7829 9.98851 67.0693 12.8803 67.0693 16.5013C67.0693 20.1223 69.7829 23.0141 73.2204 23.0141C75.0209 23.0141 76.406 22.3163 77.0985 21.1659H77.2559V22.6621H80.5864V10.3406H77.2685L77.2559 11.8368ZM73.894 19.8835C73.223 19.8884 72.5657 19.6943 72.0054 19.3257C71.4451 18.9572 71.007 18.4307 70.7468 17.8131C70.4866 17.1955 70.4158 16.5147 70.5437 15.8571C70.6715 15.1993 70.9921 14.5943 71.4648 14.1188C71.9375 13.6433 72.5409 13.3187 73.1987 13.1861C73.8564 13.0536 74.5388 13.1191 75.1591 13.3743C75.7795 13.6295 76.31 14.063 76.6833 14.6197C77.0566 15.1764 77.2559 15.8313 77.2559 16.5013C77.2609 16.9447 77.1776 17.3847 77.0107 17.7957C76.8439 18.2066 76.5968 18.5803 76.284 18.8951C75.9711 19.2098 75.5987 19.4593 75.1883 19.6289C74.7781 19.7986 74.3381 19.8851 73.894 19.8835Z" fill="#3B175C"/>
<path d="M104.259 13.1564C104.897 13.1391 105.527 13.3139 106.064 13.6581C106.602 14.0022 107.024 14.4998 107.275 15.0863L110.177 13.829C109.421 11.4904 107.073 9.9754 104.202 9.9754C103.33 9.93685 102.459 10.0787 101.644 10.3919C100.829 10.705 100.088 11.1829 99.467 11.7956C98.8461 12.4082 98.3578 13.1424 98.0341 13.952C97.7105 14.7617 97.5573 15.6293 97.5853 16.5007C97.5598 17.3689 97.7129 18.233 98.0357 19.0394C98.3594 19.8458 98.8453 20.5772 99.4629 21.1881C100.081 21.799 100.819 22.2763 101.63 22.5903C102.441 22.9044 103.308 23.0484 104.177 23.0135C107.048 23.0135 109.396 21.4985 110.152 19.16L107.262 17.9026C106.958 18.5942 106.423 19.159 105.747 19.5004C105.073 19.8419 104.3 19.9389 103.562 19.7749C102.823 19.6109 102.164 19.1962 101.698 18.6014C101.231 18.0065 100.986 17.2686 101.004 16.5133C100.973 16.0738 101.036 15.6328 101.187 15.219C101.339 14.8051 101.576 14.4276 101.882 14.1112C102.19 13.7946 102.56 13.5461 102.97 13.3815C103.379 13.2171 103.818 13.1403 104.259 13.1564Z" fill="#3B175C"/>
<path d="M84.9916 10.3617L84.4308 17.9997C84.3427 19.2005 83.9523 19.6405 83.0333 19.6405H82.2275V22.7523H84.1977C86.4205 22.7523 87.3897 21.6962 87.566 19.2319L87.9819 13.5741H92.0806V22.6644H95.4299V10.3617H84.9916Z" fill="#3B175C"/>
<path d="M120.684 10.3424L115.364 18.2633V10.3424H112.051V22.6639H115.54L120.828 14.7995V22.6639H124.14V10.3424H120.684Z" fill="#3B175C"/>
</g>
<defs>
<clipPath id="clip0_6650_19795">
<rect width="140" height="28" fill="white"/>
</clipPath>
</defs>
</svg>
