<svg width="71" height="28" viewBox="0 0 71 28" fill="none" xmlns="http://www.w3.org/2000/svg">
<path d="M60.1032 19.8761V25.1855H62.8356C63.192 25.1855 63.6306 25.1398 64.0236 24.7925C64.2794 24.5732 64.5902 24.1437 64.5902 23.4401C64.5902 22.91 64.4165 22.5445 64.1881 22.2978C63.8225 21.8957 63.2285 21.7586 62.7625 21.7586H61.5928V19.8852L60.1032 19.8761ZM0 19.8761V25.1855H1.4987L3.94779 21.914V25.1855H5.44649V19.8761H3.94779L1.4987 23.1476V19.8761H0ZM6.78069 25.1946H8.27939V23.038H10.3629V25.1946H11.8616V19.8852H10.3538V21.7586H8.27024V19.8852H6.77156V25.1946H6.78069ZM16.9883 20.0314C16.5588 19.8213 16.1019 19.7116 15.5535 19.7116C15.0418 19.7116 14.2924 19.8213 13.6436 20.397C13.1045 20.8722 12.7206 21.6215 12.7206 22.5536C12.7206 23.5497 13.1593 24.2077 13.5705 24.5915C14.0457 25.0484 14.7859 25.3591 15.6175 25.3591C16.2298 25.3591 16.6958 25.1764 16.9883 25.0301V23.568C16.5862 23.9335 16.1384 24.0341 15.8094 24.0341C14.9139 24.0341 14.265 23.3944 14.265 22.5262C14.265 21.7586 14.7676 21.0275 15.7637 21.0275C16.2755 21.0275 16.6684 21.2012 16.9883 21.4936V20.0314ZM22.2063 21.1555V19.8761H17.765V21.1555H19.2363V25.1946H20.735V21.1555H22.2063ZM24.4818 24.5001C25.0666 25.2951 25.816 25.3591 26.1906 25.3591C26.9765 25.3591 27.5888 25.0484 27.9909 24.6737C28.2925 24.3813 28.8225 23.7325 28.8225 22.5262C28.8225 21.4753 28.4204 20.8082 28.0275 20.4153C27.4243 19.8121 26.675 19.7025 26.2089 19.7025C25.2311 19.7025 24.7102 20.2325 24.4818 20.5615V19.8761H22.9831V27.991H24.4818V24.5001ZM25.8068 21.0367C26.1632 21.0367 26.5562 21.1737 26.8212 21.4205C27.1136 21.7038 27.2781 22.1424 27.2781 22.5354C27.2781 22.9283 27.1319 23.367 26.812 23.6594C26.611 23.8421 26.3003 24.0432 25.8068 24.0432C25.3408 24.0432 25.0209 23.8604 24.829 23.6868C24.5366 23.4309 24.3355 23.0288 24.3355 22.5354C24.3355 22.0419 24.5092 21.6763 24.8382 21.3931C25.1123 21.1463 25.4139 21.0367 25.8068 21.0367ZM29.3068 28.0001H30.9974L35.2742 19.8852H33.5836L32.1123 22.9009L30.4674 19.8852H28.722L31.2442 24.3996L29.3068 28.0001ZM34.9818 25.1946H36.4805L36.9191 22.316L38.2442 25.1946H38.7833L40.1084 22.316L40.547 25.1946H42.0457L41.0771 19.8852H39.9713L38.5092 22.9374L37.047 19.8852H35.9413L34.9818 25.1946ZM46.6423 23.4857C46.3956 23.9153 45.9661 24.1894 45.3995 24.1894C44.8238 24.1894 44.4948 23.9061 44.3303 23.6868C44.1567 23.4492 44.0745 23.1111 44.0745 22.7912H48.0497V22.6724C48.0497 22.0967 47.9766 21.2651 47.41 20.5889C47.0444 20.1502 46.4139 19.7207 45.3356 19.7207C44.6959 19.7207 43.9648 19.8578 43.3343 20.4701C42.9504 20.8539 42.5209 21.5027 42.5209 22.5536C42.5209 23.3852 42.7677 24.0706 43.3525 24.628C43.8826 25.1307 44.5314 25.3774 45.3904 25.3774C47.2455 25.3774 47.8395 24.1163 48.004 23.7233L46.6423 23.4857ZM44.1293 21.8317C44.2481 21.1189 44.833 20.7625 45.3813 20.7625C45.9296 20.7625 46.5236 21.1098 46.6423 21.8317H44.1293ZM49.0183 25.1946H50.517V23.038H52.6006V25.1946H54.0993V19.8852H52.6006V21.7586H50.517V19.8852H49.0183V25.1946ZM59.3264 21.1555V19.8761H54.8852V21.1555H56.3565V25.1946H57.8552V21.1555H59.3264ZM61.6019 24.0158V22.9466H62.3421C62.4792 22.9466 62.6985 22.9557 62.8539 23.0654C62.9544 23.1294 63.0549 23.2481 63.0549 23.4492C63.0549 23.6594 62.9544 23.8056 62.8539 23.8787C62.6985 23.9975 62.4609 24.0158 62.3056 24.0158H61.6019ZM65.1567 19.8761V25.1855H66.6554V19.8761H65.1567Z" fill="#000"/>
<path fill-rule="evenodd" clip-rule="evenodd" d="M65.833 15.0877C68.6567 15.0877 70.9413 12.8031 70.9413 9.97932C70.9413 7.15556 68.6567 4.87096 65.833 4.87096C63.0092 4.87096 60.7246 7.15556 60.7246 9.97932C60.7246 12.8031 63.0092 15.0877 65.833 15.0877ZM66.6463 12.8031H67.6058L70.0184 8.21561H69.0588L68.2272 9.91534L67.2951 8.21561H66.3082L67.7338 10.7652L66.6463 12.8031ZM61.4831 10.7744C61.4831 11.0759 61.7207 11.3135 62.0223 11.3135C62.3238 11.3135 62.5614 11.0759 62.5614 10.7744C62.5614 10.4728 62.3238 10.2352 62.0223 10.2352C61.7207 10.2352 61.4831 10.4636 61.4831 10.7744ZM63.9779 10.8292C64.3069 11.277 64.7364 11.3135 64.9374 11.3135C65.3761 11.3135 65.7233 11.1399 65.9518 10.9297C66.1254 10.7652 66.427 10.3997 66.427 9.7143C66.427 9.12031 66.1985 8.74563 65.9792 8.52631C65.6411 8.18819 65.2207 8.12422 64.9557 8.12422C64.3982 8.12422 64.115 8.42579 63.9779 8.60856V8.22474H63.1371V12.8122H63.9779V10.8292ZM64.7272 8.87357C64.9283 8.87357 65.1476 8.94667 65.303 9.09289C65.4674 9.24824 65.5588 9.50412 65.5588 9.72344C65.5588 9.94276 65.4766 10.1986 65.2938 10.3631C65.1841 10.4636 65.0014 10.5733 64.7272 10.5733C64.4622 10.5733 64.2886 10.4728 64.1698 10.3723C64.0053 10.226 63.8956 9.99759 63.8956 9.72344C63.8956 9.44929 63.9962 9.23911 64.1789 9.08375C64.3343 8.93754 64.5079 8.87357 64.7272 8.87357Z" fill="#000"/>
<path d="M18.7977 5.43734V8.08748C18.222 7.55745 17.5183 7.24675 16.5862 7.24675C14.7951 7.24675 13.8904 8.55354 13.8904 9.94257C13.8904 11.5144 15.0601 12.6658 16.6776 12.6658C17.2716 12.6658 18.0666 12.4922 18.7977 11.8251V14.4569C18.2677 14.722 17.4269 15.0509 16.3212 15.0509C14.8133 15.0509 13.4883 14.4752 12.6293 13.6619C11.8982 12.9765 11.1031 11.7794 11.1031 9.98827C11.1031 8.3068 11.7885 6.96346 12.7663 6.09531C13.9361 5.05354 15.2885 4.86163 16.2206 4.86163C17.2076 4.86163 18.0209 5.06267 18.7977 5.43734ZM9.95171 10.5731C9.95171 11.4321 9.70498 12.6475 8.69062 13.5614C7.58487 14.53 6.23239 14.7585 4.95302 14.7585H0V0H3.64622C4.45954 0 6.05876 6.71059e-06 7.24675 0.932123C8.10576 1.59923 8.61751 2.74152 8.61751 3.98434C8.61751 5.88512 7.35641 6.66189 6.96346 6.88121C7.93213 7.03657 8.50785 7.45693 8.88252 7.81332C9.77809 8.64492 9.95171 9.79636 9.95171 10.5731ZM2.87859 6.12272H3.70105C4.13969 6.12272 5.93082 6.07703 5.93082 4.19452C5.93082 2.84204 4.88905 2.33943 3.71933 2.33943H2.87859V6.12272ZM6.99087 10.3081C6.99087 9.84205 6.83553 9.04701 5.90341 8.62664C5.282 8.34335 4.55093 8.34336 3.93866 8.34336H2.87859V12.4099H4.12142C4.65145 12.4099 5.44649 12.3917 6.08618 12.017C6.78983 11.5875 6.99087 10.8747 6.99087 10.3081ZM30.1201 10.4178H22.9556C22.9556 10.9935 23.111 11.6149 23.4217 12.0353C23.705 12.4374 24.3081 12.94 25.3408 12.94C26.3551 12.94 27.1319 12.4556 27.5705 11.6789L30.047 12.081C29.7546 12.7846 28.6763 15.0692 25.3408 15.0692C23.7964 15.0692 22.6175 14.6306 21.6671 13.7167C20.6071 12.7206 20.1684 11.487 20.1684 9.97913C20.1684 8.07835 20.9452 6.90862 21.6306 6.22324C22.7546 5.1175 24.0888 4.87077 25.2311 4.87077C27.1776 4.87077 28.3016 5.64753 28.9687 6.44257C29.9831 7.65797 30.1201 9.1658 30.1201 10.1984V10.4178ZM27.5797 8.69061C27.3603 7.38382 26.3003 6.77155 25.3042 6.77155C24.3081 6.77155 23.2664 7.41123 23.047 8.69061H27.5797Z" fill="#000"/>
</svg>
