<svg width="105" height="28" viewBox="0 0 105 28" fill="none" xmlns="http://www.w3.org/2000/svg">
<g clip-path="url(#clip0_7026_3221)">
<mask id="mask0_7026_3221" style="mask-type:luminance" maskUnits="userSpaceOnUse" x="6" y="3" width="93" height="22">
<path d="M98.2466 3.11108H6.9873V24.8889H98.2466V3.11108Z" fill="white"/>
</mask>
<g mask="url(#mask0_7026_3221)">
<path d="M64.6226 11.7697C64.382 11.2855 64.0283 10.885 63.5617 10.57C63.2407 10.3542 62.8757 10.183 62.4692 10.0586C63.0281 9.81553 63.4932 9.4675 63.8603 9.0125C64.3472 8.41164 64.5914 7.68831 64.5914 6.84053C64.5914 5.69331 64.1652 4.78525 63.3154 4.11442C62.4629 3.44553 61.2496 3.11108 59.6707 3.11108H52.6689V17.5583H59.8563C60.9271 17.5583 61.8438 17.395 62.606 17.0663C63.3677 16.7378 63.9542 16.2633 64.3664 15.6431C64.7786 15.0208 64.984 14.2936 64.984 13.4613C64.984 12.8197 64.8626 12.2558 64.6246 11.7716L64.6226 11.7697ZM56.2724 5.87803H58.9712C59.6842 5.87803 60.2001 5.99858 60.5149 6.23581C60.8317 6.47497 60.9877 6.84831 60.9877 7.35192C60.9877 7.85553 60.8296 8.23275 60.5149 8.47972C60.1986 8.72472 59.6842 8.84917 58.9712 8.84917H56.2724V5.87803ZM61.3061 13.7783C61.2574 13.9494 61.1791 14.0992 61.0697 14.2294C60.9603 14.3597 60.8296 14.4647 60.6792 14.5463C60.5283 14.628 60.3391 14.6903 60.1125 14.7311C59.8859 14.7719 59.6354 14.7933 59.3601 14.7933H56.2704V11.5966H59.3601C59.6334 11.5966 59.8859 11.62 60.1125 11.6686C60.3391 11.7172 60.5268 11.7852 60.6792 11.8728C60.8296 11.9622 60.9603 12.0672 61.0697 12.1897C61.1791 12.3122 61.2594 12.46 61.3061 12.6311C61.3554 12.8022 61.3787 12.9966 61.3787 13.2144C61.3787 13.4186 61.3554 13.6072 61.3061 13.7783Z" fill="#657591"/>
<path d="M77.3176 3.11108L70.6443 11.4624V3.11108H67.123V17.5583H69.9033L76.5751 9.13886V17.5583H80.0985V3.11108H77.3176Z" fill="#657591"/>
<path d="M94.8444 3.11108L90.5609 13.5703L86.195 3.11108H82.7754V17.5583H86.195V9.79411L89.4897 17.5583H91.528L94.8444 9.71442V17.5583H98.262V3.11108H94.8444Z" fill="#657591"/>
<path d="M25.4052 13.6885L22.4799 9.80737H6.9873L17.6277 24.134H17.6296L25.4052 13.6885Z" fill="#657591"/>
<path d="M33.2776 3.11304L25.4043 13.6889L33.2776 24.1344L48.4595 3.11304H33.2776Z" fill="#657591"/>
<path d="M17.6289 24.1345H33.2778L25.4045 13.689L17.6289 24.1345Z" fill="#657591"/>
<path d="M53.0344 23.4789V20.7781H52.667V24.1206H52.9679L54.9963 21.4139V24.1206H55.3598V20.7781H55.0589L53.0344 23.4789Z" fill="#657591"/>
<path d="M60.0289 22.2578H58.0139V20.7781H57.623V24.1206H58.0139V22.5942H60.0289V24.1206H60.4193V20.7781H60.0289V22.2578Z" fill="#657591"/>
<path d="M64.8344 22.5164C64.7561 22.4678 64.6664 22.4328 64.5669 22.4075C64.711 22.357 64.8287 22.2792 64.9221 22.1722C65.0434 22.0322 65.1061 21.8592 65.1061 21.6511C65.1061 21.3731 65.0102 21.1572 64.821 21.0056C64.6312 20.8539 64.3636 20.7781 64.0193 20.7781H62.6748V24.1206H64.0764C64.3107 24.1206 64.5119 24.0856 64.6763 24.0156C64.8401 23.9456 64.9672 23.8425 65.0553 23.7044C65.143 23.5664 65.186 23.3992 65.186 23.1989C65.186 23.0433 65.157 22.9092 65.0963 22.7944C65.0356 22.6797 64.9475 22.5864 64.8344 22.5144V22.5164ZM63.058 21.0911H63.9628C64.2112 21.0911 64.3984 21.1417 64.5275 21.2409C64.6566 21.34 64.7209 21.4878 64.7209 21.6842C64.7209 21.8806 64.6566 22.0186 64.5275 22.1197C64.3984 22.2209 64.2112 22.2714 63.9628 22.2714H63.058V21.0911ZM64.7717 23.4186C64.7504 23.4847 64.7209 23.5411 64.6778 23.5897C64.6369 23.6364 64.5861 23.6772 64.5254 23.7103C64.4652 23.7433 64.3947 23.7686 64.3144 23.7842C64.2345 23.7997 64.1427 23.8075 64.0411 23.8075H63.0601V22.5844H64.0411C64.1427 22.5844 64.2345 22.5922 64.3144 22.6078C64.3947 22.6233 64.4668 22.6467 64.5254 22.6797C64.5861 22.7109 64.6369 22.7517 64.6778 22.8003C64.7193 22.8489 64.7504 22.9053 64.7717 22.9714C64.7935 23.0356 64.8033 23.1114 64.8033 23.197C64.8033 23.2825 64.7935 23.3525 64.7717 23.4206V23.4186Z" fill="#657591"/>
<path d="M67.3252 24.1206H69.4454V23.7939H67.7063V22.5883H69.3459V22.2617H67.7063V21.1047H69.4454V20.7781H67.3252V24.1206Z" fill="#657591"/>
<path d="M72.9929 21.0915C73.1827 21.0915 73.3564 21.1226 73.5151 21.1828C73.6711 21.245 73.8236 21.3442 73.9703 21.4784L74.1228 21.1615C73.99 21.0215 73.8236 20.9165 73.6265 20.8445C73.429 20.7726 73.2159 20.7356 72.9836 20.7356C72.6533 20.7356 72.3697 20.8056 72.1353 20.9437C71.9009 21.0837 71.7189 21.28 71.594 21.5328C71.469 21.7856 71.4062 22.0909 71.4062 22.4448C71.4062 22.7987 71.469 23.1039 71.594 23.3587C71.7189 23.6153 71.8988 23.8117 72.1353 23.9517C72.3697 24.0917 72.6533 24.1598 72.9836 24.1598C73.2159 24.1598 73.429 24.1228 73.6265 24.0489C73.8236 23.975 73.988 23.87 74.1228 23.7339L73.9703 23.417C73.8236 23.5531 73.6732 23.6523 73.5151 23.7126C73.3585 23.7748 73.1848 23.8059 72.9929 23.8059C72.616 23.8059 72.3266 23.6873 72.1254 23.4481C71.9263 23.2089 71.8247 22.8745 71.8247 22.4448C71.8247 22.015 71.9243 21.6806 72.1254 21.4453C72.3251 21.2081 72.6139 21.0895 72.9929 21.0895V21.0915Z" fill="#657591"/>
<path d="M75.7734 21.1144H76.993V24.1206H77.3876V21.1144H78.6071V20.7781H75.7734V21.1144Z" fill="#657591"/>
<path d="M80.8325 23.4789V20.7781H80.4648V24.1206H80.764L82.794 21.4139V24.1206H83.156V20.7781H82.8568L80.8325 23.4789Z" fill="#657591"/>
<path d="M88.192 20.7781H87.7969V23.7842H85.8094V20.7781H85.4189V24.1206H88.3107V24.8653H88.6685V23.7842H88.192V20.7781Z" fill="#657591"/>
<path d="M90.9818 23.4789V20.7781H90.6162V24.1206H90.9154L92.9454 21.4139V24.1206H93.3073V20.7781H93.0081L90.9818 23.4789Z" fill="#657591"/>
<path d="M97.9622 20.7781L95.9374 23.4789V20.7781H95.5703V24.1206H95.8711L97.8995 21.4139V24.1206H98.2609V20.7781H97.9622Z" fill="#657591"/>
</g>
</g>
<defs>
<clipPath id="clip0_7026_3221">
<rect width="91.2593" height="21.7778" fill="white" transform="translate(6.9873 3.11108)"/>
</clipPath>
</defs>
</svg>
