<svg width="69" height="28" viewBox="0 0 69 28" fill="none" xmlns="http://www.w3.org/2000/svg">
<path d="M53.1092 18.5703V22.6999H55.2344C55.5116 22.6999 55.8528 22.6644 56.1584 22.3943C56.3574 22.2237 56.5991 21.8896 56.5991 21.3423C56.5991 20.9301 56.464 20.6458 56.2864 20.4539C56.002 20.1411 55.5401 20.0345 55.1776 20.0345H54.2678V18.5775L53.1092 18.5703ZM6.3623 18.5703V22.6999H7.52796L9.43281 20.1554V22.6999H10.5985V18.5703H9.43281L7.52796 21.1149V18.5703H6.3623ZM11.6362 22.707H12.8018V21.0296H14.4224V22.707H15.588V18.5775H14.4153V20.0345H12.7947V18.5775H11.6291V22.707H11.6362ZM19.5754 18.6912C19.2413 18.5277 18.886 18.4424 18.4595 18.4424C18.0615 18.4424 17.4787 18.5277 16.974 18.9755C16.5547 19.3451 16.2561 19.9279 16.2561 20.6529C16.2561 21.4276 16.5973 21.9394 16.9171 22.2379C17.2867 22.5933 17.8625 22.8349 18.5093 22.8349C18.9855 22.8349 19.348 22.6928 19.5754 22.5791V21.4418C19.2627 21.7261 18.9144 21.8043 18.6585 21.8043C17.962 21.8043 17.4573 21.3068 17.4573 20.6316C17.4573 20.0345 17.8482 19.4659 18.623 19.4659C19.021 19.4659 19.3266 19.601 19.5754 19.8284V18.6912ZM23.6339 19.5654V18.5703H20.1796V19.5654H21.3239V22.707H22.4895V19.5654H23.6339ZM25.4037 22.1668C25.8586 22.7852 26.4414 22.8349 26.7328 22.8349C27.3441 22.8349 27.8203 22.5933 28.133 22.3019C28.3676 22.0744 28.7798 21.5698 28.7798 20.6316C28.7798 19.8142 28.4671 19.2953 28.1614 18.9897C27.6923 18.5206 27.1095 18.4353 26.747 18.4353C25.9865 18.4353 25.5814 18.8475 25.4037 19.1034V18.5703H24.238V24.8819H25.4037V22.1668ZM26.4343 19.473C26.7115 19.473 27.0171 19.5796 27.2232 19.7715C27.4507 19.9919 27.5786 20.333 27.5786 20.6387C27.5786 20.9443 27.4649 21.2855 27.2161 21.5129C27.0597 21.6551 26.8181 21.8114 26.4343 21.8114C26.0718 21.8114 25.823 21.6693 25.6738 21.5342C25.4463 21.3352 25.2899 21.0225 25.2899 20.6387C25.2899 20.2549 25.425 19.9706 25.6809 19.7502C25.8941 19.5583 26.1286 19.473 26.4343 19.473ZM29.1565 24.889H30.4714L33.7978 18.5775H32.4829L31.3385 20.923L30.0592 18.5775H28.7016L30.6633 22.0886L29.1565 24.889ZM33.5703 22.707H34.736L35.0772 20.4681L36.1078 22.707H36.5271L37.5577 20.4681L37.8989 22.707H39.0645L38.3111 18.5775H37.4511L36.3139 20.9514L35.1767 18.5775H34.3166L33.5703 22.707ZM42.6397 21.3779C42.4478 21.7119 42.1137 21.9252 41.673 21.9252C41.2253 21.9252 40.9694 21.7048 40.8415 21.5342C40.7064 21.3494 40.6424 21.0865 40.6424 20.8377H43.7343V20.7453C43.7343 20.2975 43.6774 19.6507 43.2367 19.1247C42.9524 18.7836 42.462 18.4495 41.6233 18.4495C41.1258 18.4495 40.5572 18.5561 40.0667 19.0323C39.7682 19.3309 39.4341 19.8355 39.4341 20.6529C39.4341 21.2997 39.626 21.8328 40.0809 22.2663C40.4932 22.6572 40.9978 22.8492 41.6659 22.8492C43.1088 22.8492 43.5708 21.8683 43.6987 21.5627L42.6397 21.3779ZM40.6851 20.0914C40.7775 19.537 41.2324 19.2598 41.6588 19.2598C42.0853 19.2598 42.5473 19.5299 42.6397 20.0914H40.6851ZM44.4877 22.707H45.6533V21.0296H47.2739V22.707H48.4395V18.5775H47.2739V20.0345H45.6533V18.5775H44.4877V22.707ZM52.5051 19.5654V18.5703H49.0508V19.5654H50.1951V22.707H51.3608V19.5654H52.5051ZM54.2749 21.7901V20.9585H54.8506C54.9572 20.9585 55.1278 20.9656 55.2486 21.0509C55.3268 21.1007 55.405 21.1931 55.405 21.3494C55.405 21.5129 55.3268 21.6266 55.2486 21.6835C55.1278 21.7759 54.943 21.7901 54.8222 21.7901H54.2749ZM57.0398 18.5703V22.6999H58.2054V18.5703H57.0398Z" fill="#657591"/>
<path fill-rule="evenodd" clip-rule="evenodd" d="M57.5659 14.846C59.7622 14.846 61.5391 13.0691 61.5391 10.8728C61.5391 8.67657 59.7622 6.89966 57.5659 6.89966C55.3697 6.89966 53.5928 8.67657 53.5928 10.8728C53.5928 13.0691 55.3697 14.846 57.5659 14.846ZM58.1985 13.0691H58.9448L60.8212 9.50105H60.0749L59.4282 10.8231L58.7032 9.50105H57.9355L59.0443 11.4841L58.1985 13.0691ZM54.1827 11.4912C54.1827 11.7257 54.3675 11.9105 54.6021 11.9105C54.8366 11.9105 55.0214 11.7257 55.0214 11.4912C55.0214 11.2566 54.8366 11.0718 54.6021 11.0718C54.3675 11.0718 54.1827 11.2495 54.1827 11.4912ZM56.1231 11.5338C56.379 11.8821 56.713 11.9105 56.8694 11.9105C57.2106 11.9105 57.4807 11.7755 57.6583 11.612C57.7934 11.4841 58.0279 11.1998 58.0279 10.6667C58.0279 10.2047 57.8502 9.9133 57.6797 9.74271C57.4167 9.47973 57.0897 9.42998 56.8836 9.42998C56.45 9.42998 56.2297 9.66453 56.1231 9.80668V9.50816H55.4692V13.0762H56.1231V11.5338ZM56.7059 10.0128C56.8623 10.0128 57.0329 10.0697 57.1537 10.1834C57.2816 10.3042 57.3527 10.5032 57.3527 10.6738C57.3527 10.8444 57.2887 11.0434 57.1466 11.1713C57.0613 11.2495 56.9192 11.3348 56.7059 11.3348C56.4998 11.3348 56.3648 11.2566 56.2724 11.1785C56.1444 11.0647 56.0591 10.887 56.0591 10.6738C56.0591 10.4606 56.1373 10.2971 56.2795 10.1763C56.4003 10.0626 56.5353 10.0128 56.7059 10.0128Z" fill="#657591"/>
<path d="M20.9827 7.34013V9.40134C20.5349 8.9891 19.9876 8.74744 19.2627 8.74744C17.8696 8.74744 17.1659 9.76384 17.1659 10.8442C17.1659 12.0667 18.0757 12.9623 19.3337 12.9623C19.7957 12.9623 20.4141 12.8272 20.9827 12.3084V14.3554C20.5705 14.5615 19.9166 14.8174 19.0566 14.8174C17.8838 14.8174 16.8532 14.3696 16.1851 13.737C15.6165 13.2039 14.9981 12.2728 14.9981 10.8797C14.9981 9.57193 15.5312 8.52711 16.2917 7.85188C17.2015 7.04161 18.2534 6.89235 18.9784 6.89235C19.746 6.89235 20.3786 7.04872 20.9827 7.34013ZM14.1025 11.3346C14.1025 12.0027 13.9106 12.9481 13.1217 13.6588C12.2617 14.4122 11.2097 14.5899 10.2146 14.5899H6.3623V3.11108H9.19825C9.83083 3.11108 11.0747 3.11109 11.9987 3.83607C12.6668 4.35493 13.0648 5.24337 13.0648 6.21001C13.0648 7.6884 12.084 8.29256 11.7783 8.46314C12.5317 8.58397 12.9795 8.91092 13.2709 9.18812C13.9675 9.83491 14.1025 10.7305 14.1025 11.3346ZM8.60121 7.8732H9.2409C9.58206 7.8732 10.9752 7.83767 10.9752 6.37349C10.9752 5.32156 10.1649 4.93064 9.25512 4.93064H8.60121V7.8732ZM11.7996 11.1285C11.7996 10.766 11.6788 10.1476 10.9538 9.8207C10.4705 9.60036 9.90192 9.60036 9.4257 9.60036H8.60121V12.7633H9.56786C9.9801 12.7633 10.5985 12.749 11.096 12.4576C11.6433 12.1236 11.7996 11.5692 11.7996 11.1285ZM29.7891 11.2138H24.2167C24.2167 11.6616 24.3375 12.1449 24.5792 12.4718C24.7995 12.7846 25.2686 13.1755 26.0718 13.1755C26.8607 13.1755 27.4649 12.7988 27.8061 12.1946L29.7322 12.5074C29.5048 13.0547 28.6661 14.8316 26.0718 14.8316C24.8706 14.8316 23.9537 14.4904 23.2145 13.7796C22.39 13.0049 22.0489 12.0454 22.0489 10.8726C22.0489 9.39424 22.653 8.48446 23.1861 7.95138C24.0603 7.09136 25.098 6.89946 25.9865 6.89946C27.5004 6.89946 28.3747 7.5036 28.8935 8.12197C29.6825 9.06729 29.7891 10.24 29.7891 11.0432V11.2138ZM27.8132 9.87045C27.6426 8.85405 26.8181 8.37784 26.0434 8.37784C25.2686 8.37784 24.4584 8.87538 24.2878 9.87045H27.8132Z" fill="#657591"/>
</svg>
