<svg width="150" height="28" viewBox="0 0 150 28" fill="none" xmlns="http://www.w3.org/2000/svg">
<g clip-path="url(#clip0_6650_19804)">
<path d="M145.821 22.7208L147.426 20.6085C147.363 20.6085 146.804 20.559 146.431 20.2008C146.22 20.0032 146.021 19.6572 146.021 19.1755C146.021 18.6938 146.194 18.2861 146.481 18.0267C146.928 17.6067 147.488 17.5943 147.998 17.5943H149.801V22.7208H148.905V20.6578H148.358L146.891 22.7208H145.821ZM148.905 19.9167V18.3849H148.072C147.711 18.3849 147.45 18.4096 147.264 18.5208C147.115 18.6196 146.941 18.8172 146.941 19.1508C146.941 19.4225 147.04 19.6325 147.264 19.7685C147.525 19.929 147.848 19.9167 148.06 19.9167H148.905Z" fill="#000"/>
<path d="M140.421 17.589H141.316V20.9738L144.847 17.1938V22.7155H143.952V19.2938L140.421 23.0738V17.589Z" fill="#000"/>
<path d="M134.635 22.7208V17.5943H135.531V19.6943H137.967V17.5943H138.863V22.7208H137.967V20.5096H135.531V22.7208H134.635Z" fill="#000"/>
<path d="M132.164 18.3291V17.6002H133.06V22.7268H132.164V22.0102C131.866 22.3932 131.306 22.8749 130.398 22.8749C129.093 22.8749 127.887 21.9608 127.887 20.1573C127.887 18.3908 129.081 17.4768 130.398 17.4768C131.393 17.4768 131.928 18.0202 132.164 18.3291ZM130.498 18.2673C129.615 18.2673 128.807 18.9097 128.807 20.1573C128.807 21.2568 129.429 22.0844 130.498 22.0844C131.593 22.0844 132.214 21.1826 132.214 20.1697C132.214 18.8479 131.294 18.2673 130.498 18.2673Z" fill="#000"/>
<path d="M122.495 17.5943H126.648V22.7208H125.752V18.4096H123.39V22.7208H122.495V17.5943Z" fill="#000"/>
<path d="M114.811 22.7155L116.054 17.1938L118.193 21.369L120.282 17.1938L121.525 22.7155H120.605L119.921 19.5408L118.168 23.0738L116.39 19.5408L115.731 22.7155H114.811Z" fill="#000"/>
<path d="M111.423 22.8749C109.857 22.8749 108.688 21.7385 108.688 20.182C108.688 18.6255 109.845 17.4768 111.423 17.4768C113.003 17.4768 114.159 18.6255 114.159 20.182C114.159 21.7385 112.991 22.8749 111.423 22.8749ZM111.423 18.2673C110.478 18.2673 109.608 18.9344 109.608 20.182C109.608 21.442 110.504 22.0844 111.423 22.0844C112.356 22.0844 113.239 21.4297 113.239 20.182C113.239 18.922 112.368 18.2673 111.423 18.2673Z" fill="#000"/>
<path d="M104.133 17.5943H105.029V19.6943L107.117 17.5943H108.212L105.974 19.8796L108.485 22.7208H107.316L105.302 20.4725L105.029 20.7319V22.7208H104.133V17.5943Z" fill="#000"/>
<path d="M95.8071 22.7208L97.4115 20.6085C97.3492 20.6085 96.7892 20.559 96.4168 20.2008C96.2054 20.0032 96.0059 19.6572 96.0059 19.1755C96.0059 18.6938 96.1802 18.2861 96.4665 18.0267C96.9138 17.6067 97.4731 17.5943 97.9834 17.5943H99.7859V22.7208H98.8906V20.6578H98.3439L96.8767 22.7208H95.8071ZM98.8906 19.9167V18.3849H98.0576C97.6971 18.3849 97.436 18.4096 97.2498 18.5208C97.1007 18.6196 96.9264 18.8172 96.9264 19.1508C96.9264 19.4225 97.0258 19.6325 97.2498 19.7685C97.5109 19.929 97.8343 19.9167 98.0457 19.9167H98.8906Z" fill="#000"/>
<path d="M93.9372 18.3291V17.6002H94.8325V22.7268H93.9372V22.0102C93.639 22.3932 93.0797 22.8749 92.1718 22.8749C90.8663 22.8749 89.6602 21.9608 89.6602 20.1573C89.6602 18.3908 90.8537 17.4768 92.1718 17.4768C93.1665 17.4768 93.7013 18.0202 93.9372 18.3291ZM92.2712 18.2673C91.3885 18.2673 90.58 18.9097 90.58 20.1573C90.58 21.2568 91.2023 22.0844 92.2712 22.0844C93.3653 22.0844 93.9876 21.1826 93.9876 20.1697C93.9876 18.8479 93.0671 18.2673 92.2712 18.2673Z" fill="#000"/>
<path d="M81.6538 22.7208V17.5943H82.5491V21.9055H84.5385V17.5943H85.4338V21.9055H87.4232V17.5943H88.3185V21.9055H89.1641V24.0796H88.3437V22.7208H81.6538Z" fill="#000"/>
<path d="M74.0916 19.7002H75.0247C75.1115 19.0826 75.3971 18.5761 75.7205 18.2426C76.1685 17.7732 76.8524 17.4768 77.6728 17.4768C79.2646 17.4768 80.4084 18.6255 80.4084 20.182C80.4084 21.7385 79.252 22.8749 77.6728 22.8749C76.6032 22.8749 75.9319 22.3932 75.5469 21.9115C75.2977 21.6026 75.0366 21.1332 74.975 20.5155H74.0916V22.7268H73.1963V17.6002H74.0916V19.7002ZM77.6728 18.2673C76.7152 18.2673 75.8948 18.9591 75.8948 20.182C75.8948 21.442 76.7649 22.0844 77.6728 22.0844C78.6052 22.0844 79.4879 21.4297 79.4879 20.182C79.4879 18.9344 78.6178 18.2673 77.6728 18.2673Z" fill="#000"/>
<path d="M67.6484 22.7208L69.2525 20.6085C69.1903 20.6085 68.6307 20.559 68.2577 20.2008C68.0464 20.0032 67.8474 19.6572 67.8474 19.1755C67.8474 18.6938 68.0215 18.2861 68.3075 18.0267C68.7551 17.6067 69.3146 17.5943 69.8245 17.5943H71.6275V22.7208H70.7322V20.6578H70.1848L68.7178 22.7208H67.6484ZM70.7322 19.9167V18.3849H69.899C69.5384 18.3849 69.2773 18.4096 69.0909 18.5208C68.9416 18.6196 68.7675 18.8172 68.7675 19.1508C68.7675 19.4225 68.867 19.6325 69.0909 19.7685C69.352 19.929 69.6752 19.9167 69.8866 19.9167H70.7322Z" fill="#000"/>
<path d="M66.6767 17.5943V22.7208H65.7814V18.4096H63.9412V20.7196C63.9412 21.1519 63.9412 21.7202 63.5433 22.2019C63.3817 22.3996 62.9962 22.7455 62.2999 22.7455C62.2128 22.7455 62.1134 22.7332 62.0264 22.7208V21.9055C62.0885 21.9179 62.1631 21.9302 62.2253 21.9302C62.561 21.9302 62.7724 21.7572 62.8719 21.5967C63.0335 21.3496 63.046 21.0285 63.046 20.7196V17.5943H66.6767Z" fill="#000"/>
<path d="M57.5532 17.5943H59.5053C59.7789 17.5943 60.2265 17.6067 60.5871 17.8908C60.7736 18.039 61.0347 18.3355 61.0347 18.8543C61.0347 19.3608 60.786 19.6819 60.4752 19.8796C60.6244 19.9167 60.8731 19.9908 61.1218 20.2255C61.4078 20.4972 61.5321 20.8185 61.5321 21.2138C61.5321 21.7572 61.2834 22.1525 60.9974 22.3749C60.6866 22.6096 60.1892 22.7208 59.7789 22.7208H57.5532V17.5943ZM58.4485 19.6819H59.3935C59.4805 19.6819 59.7665 19.6696 59.9654 19.5338C60.0649 19.4596 60.2141 19.3114 60.2141 19.0025C60.2141 18.7555 60.1022 18.6072 59.9654 18.5085C59.754 18.3725 59.5178 18.3849 59.2442 18.3849H58.4485V19.6819ZM58.4485 21.9302H59.5551C59.8038 21.9302 60.1395 21.9178 60.3633 21.7572C60.5249 21.6338 60.6617 21.4238 60.6617 21.189C60.6617 20.9543 60.5747 20.7443 60.4006 20.6085C60.1767 20.4355 59.841 20.4232 59.5924 20.4232H58.4485V21.9302Z" fill="#000"/>
<path d="M55.0874 18.3291V17.6002H55.9826V22.7268H55.0874V22.0102C54.7889 22.3932 54.2294 22.8749 53.3217 22.8749C52.0162 22.8749 50.8101 21.9608 50.8101 20.1573C50.8101 18.3908 52.0037 17.4768 53.3217 17.4768C54.3164 17.4768 54.8512 18.0202 55.0874 18.3291ZM53.4212 18.2673C52.5384 18.2673 51.7301 18.9097 51.7301 20.1573C51.7301 21.2568 52.3519 22.0844 53.4212 22.0844C54.5154 22.0844 55.1371 21.1826 55.1371 20.1697C55.1371 18.8479 54.217 18.2673 53.4212 18.2673Z" fill="#000"/>
<path d="M45.6048 22.0102V25.5679H44.7095V17.6002H45.6048V18.3168C46.2141 17.5632 46.9974 17.4768 47.3704 17.4768C48.9868 17.4768 49.8821 18.8108 49.8821 20.1944C49.8821 21.6026 48.9744 22.8749 47.4077 22.8749C46.5746 22.8749 45.9902 22.5044 45.6048 22.0102ZM47.2834 22.0844C48.3278 22.0844 48.962 21.2197 48.962 20.1944C48.962 18.9344 48.104 18.2673 47.2709 18.2673C46.4378 18.2673 45.555 18.9468 45.555 20.182C45.555 21.232 46.2264 22.0844 47.2834 22.0844Z" fill="#000"/>
<path d="M38.9946 17.5943H43.1476V22.7208H42.2524V18.4096H39.8899V22.7208H38.9946V17.5943Z" fill="#000"/>
<path d="M31.8911 14.4813H33.0102L35.5965 19.336L37.7601 14.4813H38.7548L35.0121 22.7206H34.0174L35.0742 20.423L31.8911 14.4813Z" fill="#000"/>
<path d="M95.8672 7.36914H97.6417V9.26733H99.6255V7.36914H101.4V12.8299H99.6255V10.6881H97.6417V12.8315H95.8672V7.36914Z" fill="#000"/>
<path d="M95.0656 10.4064H90.9608C90.9608 10.6994 91.0721 11.0913 91.294 11.3366C91.5656 11.6313 91.9352 11.679 92.2054 11.679C92.4637 11.679 92.736 11.6296 92.9194 11.5193C92.9446 11.5078 93.1532 11.3727 93.3023 11.0666L94.9781 11.2378C94.731 12.0099 94.2389 12.4132 93.9176 12.6091C93.387 12.9268 92.7955 13.0124 92.1788 13.0124C91.3535 13.0124 90.6262 12.8659 89.985 12.2288C89.5041 11.7514 89.1597 11.0287 89.1597 10.1232C89.1597 9.33959 89.4432 8.5313 89.9983 7.96822C90.6647 7.30644 91.4893 7.18457 92.106 7.18457C92.7227 7.18457 93.6089 7.29489 94.2865 8.00448C94.9396 8.68929 95.0642 9.547 95.0642 10.2203V10.4064H95.0656ZM93.4269 9.35275C93.415 9.3034 93.3289 8.96096 93.0692 8.71568C92.8718 8.5313 92.5883 8.40943 92.2306 8.40943C91.7749 8.40943 91.5026 8.59381 91.3304 8.76503C91.1946 8.91154 91.0721 9.10747 91.0224 9.35275H93.4269Z" fill="#000"/>
<path d="M83.8513 7.83326C84.0851 7.68675 84.468 7.49082 84.7627 7.3805C85.182 7.23399 85.6377 7.18457 86.057 7.18457C86.3538 7.18457 87.3632 7.20928 87.9183 7.74765C88.2263 8.04235 88.3243 8.38472 88.3243 8.75187C88.3243 9.09431 88.2627 9.40049 87.9911 9.68203C87.8553 9.81699 87.6943 9.92731 87.5221 9.98821C87.9281 10.0854 88.1885 10.3059 88.2613 10.3801C88.5329 10.6368 88.6309 10.9315 88.6309 11.2855C88.6309 11.6658 88.5077 12.0691 88.15 12.4247C87.681 12.8775 87.0412 13.0124 86.1284 13.0124C85.6363 13.0124 85.1176 12.9515 84.6255 12.7671C84.1446 12.5828 83.7869 12.3145 83.6392 12.191L84.3917 11.027C84.5891 11.1982 84.8474 11.3694 85.0693 11.4682C85.3031 11.567 85.6363 11.6394 85.9198 11.6394C86.1165 11.6394 86.3888 11.6032 86.561 11.5045C86.7696 11.3826 86.8081 11.2098 86.8081 11.0879C86.8081 10.9035 86.7087 10.7933 86.5491 10.7208C86.4021 10.6599 86.1053 10.6237 85.9079 10.6237H85.2422V9.42352H85.7476C85.9079 9.42352 86.2397 9.39888 86.4133 9.32643C86.6226 9.22927 86.6723 9.0696 86.6723 8.95928C86.6723 8.86051 86.6226 8.70245 86.4 8.60368C86.3139 8.56749 86.1417 8.50659 85.8449 8.50659C85.5614 8.50659 85.3528 8.55594 85.1176 8.6531C84.8838 8.75019 84.6983 8.86051 84.5261 9.0087L83.8513 7.83326Z" fill="#000"/>
<path d="M78.9704 7.36279V10.4858L81.3119 7.36279H82.964V12.8235H81.1873V9.65277L78.8458 12.8235H77.1938V7.36279H78.9704ZM82.3094 5.16004C82.1617 5.60125 81.8656 5.97989 81.5205 6.20049C81.0515 6.5067 80.4852 6.54292 80.0792 6.54292C79.6732 6.54292 79.1049 6.5067 78.6373 6.20049C78.2929 5.97989 77.996 5.60125 77.8483 5.16004L79.0817 4.68262C79.1314 4.92792 79.2539 5.12382 79.4016 5.24565C79.5619 5.38064 79.7705 5.46625 80.0792 5.46625C80.3872 5.46625 80.5959 5.38064 80.7569 5.24565C80.9046 5.12382 81.0284 4.92792 81.0767 4.68262L82.3094 5.16004Z" fill="#000"/>
<path d="M74.3492 7.37063H76.1237V12.8313H74.3492V12.1695C73.8683 12.9038 73.1774 13.0141 72.7217 13.0141C71.9328 13.0141 71.2671 12.8182 70.6637 12.1811C70.0834 11.5687 69.8633 10.8591 69.8633 10.1364C69.8633 9.21779 70.208 8.43414 70.7134 7.93203C71.1943 7.45463 71.86 7.18457 72.6244 7.18457C73.0927 7.18457 73.8438 7.29489 74.3492 7.97977V7.37063ZM72.0938 9.0976C71.9083 9.28198 71.6878 9.59971 71.6878 10.0887C71.6878 10.5776 71.8964 10.8969 72.0574 11.0682C72.3045 11.325 72.6853 11.4962 73.1046 11.4962C73.4623 11.4962 73.7941 11.3497 74.0293 11.1159C74.2631 10.8953 74.4598 10.5529 74.4598 10.087C74.4598 9.69519 74.3128 9.32804 74.0545 9.08276C73.7822 8.82593 73.3881 8.70245 73.0682 8.70245C72.6853 8.70574 72.3276 8.86548 72.0938 9.0976Z" fill="#000"/>
<path d="M64.4424 15.552V12.9147H64.3678C63.1234 12.9147 62.4323 12.401 62.1125 12.0948C61.7181 11.7145 61.3237 11.0659 61.3237 10.0748C61.3237 8.99816 61.8159 8.31166 62.2732 7.94451C62.8151 7.51646 63.6288 7.28274 64.3562 7.28274H64.4424V4.66348H66.2172V7.28434H66.3033C67.0308 7.28434 67.8444 7.51646 68.3863 7.94619C68.842 8.31327 69.3358 8.99977 69.3358 10.0764C69.3358 11.0675 68.9414 11.7178 68.547 12.0964C68.2272 12.4027 67.5362 12.9163 66.2917 12.9163H66.2172V15.552H64.4424ZM64.5285 8.70346C64.1093 8.67875 63.6785 8.82525 63.4199 9.08377C63.2111 9.29117 63.062 9.64678 63.062 10.0748C63.062 10.5029 63.2095 10.8585 63.4199 11.079C63.6536 11.3359 64.0728 11.5071 64.5285 11.4955V8.70346ZM66.131 11.4955C66.5867 11.5071 67.0059 11.3359 67.2396 11.079C67.4484 10.8585 67.5975 10.5029 67.5975 10.0748C67.5975 9.64678 67.45 9.29117 67.2396 9.08377C66.9811 8.82694 66.5502 8.68043 66.131 8.70346V11.4955Z" fill="#000"/>
<path d="M55.9004 15.552V12.9147H55.8258C54.5814 12.9147 53.8903 12.401 53.5706 12.0948C53.1761 11.7145 52.7817 11.0659 52.7817 10.0748C52.7817 8.99816 53.2739 8.31166 53.7313 7.94451C54.2732 7.51646 55.0868 7.28274 55.8142 7.28274H55.9004V4.66348H57.6752V7.28434H57.7613C58.4888 7.28434 59.3024 7.51646 59.8443 7.94619C60.3 8.31327 60.7938 8.99977 60.7938 10.0764C60.7938 11.0675 60.3994 11.7178 60.005 12.0964C59.6852 12.4027 58.9942 12.9163 57.7497 12.9163H57.6752V15.552H55.9004ZM55.9865 8.70346C55.5673 8.67875 55.1365 8.82525 54.878 9.08377C54.6692 9.29117 54.52 9.64678 54.52 10.0748C54.52 10.5029 54.6675 10.8585 54.878 11.079C55.1116 11.3359 55.5308 11.5071 55.9865 11.4955V8.70346ZM57.589 11.4955C58.0447 11.5071 58.4639 11.3359 58.6976 11.079C58.9064 10.8585 59.0556 10.5029 59.0556 10.0748C59.0556 9.64678 58.9081 9.29117 58.6976 9.08377C58.4391 8.82694 58.0082 8.68043 57.589 8.70346V11.4955Z" fill="#000"/>
<path d="M47.9882 7.36279V10.4858L50.3296 7.36279H51.9817V12.8235H50.207V9.65277L47.8655 12.8235H46.2134V7.36279H47.9882ZM51.3288 5.16004C51.1813 5.60125 50.8848 5.97989 50.5401 6.20049C50.0711 6.5067 49.5044 6.54292 49.0984 6.54292C48.6924 6.54292 48.124 6.5067 47.6567 6.20049C47.312 5.97989 47.0154 5.60125 46.8679 5.16004L48.1008 4.68262C48.1506 4.92792 48.2731 5.12382 48.4206 5.24565C48.5814 5.38064 48.7901 5.46625 49.0984 5.46625C49.4066 5.46625 49.6154 5.38064 49.7762 5.24565C49.9237 5.12382 50.0479 4.92792 50.096 4.68262L51.3288 5.16004Z" fill="#000"/>
<path d="M43.3686 7.37046H45.1433V12.8312H43.3686V12.1694C42.888 12.9036 42.197 13.0139 41.7413 13.0139C40.9525 13.0139 40.2864 12.818 39.6832 12.1809C39.1032 11.5685 38.8828 10.8589 38.8828 10.1362C38.8828 9.21762 39.2275 8.43397 39.7329 7.93186C40.2134 7.45446 40.8796 7.1844 41.6435 7.1844C42.1125 7.1844 42.8632 7.29472 43.3686 7.9796V7.37046ZM41.1132 9.09743C40.9277 9.28181 40.7073 9.59954 40.7073 10.0885C40.7073 10.5774 40.916 10.8968 41.0768 11.068C41.3237 11.3248 41.7049 11.496 42.1241 11.496C42.482 11.496 42.8135 11.3495 43.0487 11.1157C43.2824 10.8952 43.4796 10.5527 43.4796 10.0868C43.4796 9.69502 43.3321 9.32787 43.0736 9.08259C42.8018 8.82576 42.4075 8.70228 42.0876 8.70228C41.7049 8.70557 41.3469 8.86531 41.1132 9.09743Z" fill="#000"/>
<path d="M35.7758 4.66348C36.4901 4.66348 37.2788 4.76061 37.9334 5.33681C38.636 5.94922 38.7338 6.75755 38.7338 7.32061C38.7338 8.34954 38.3394 8.92403 38.0312 9.24344C37.3782 9.90522 36.5149 9.96619 35.9366 9.96619H34.7783V12.8307H32.8809V4.66348H35.7758ZM34.7766 8.42192H35.4543C35.7129 8.42192 36.1686 8.41044 36.4768 8.11574C36.6491 7.94452 36.785 7.66298 36.785 7.30738C36.785 6.96498 36.6624 6.68347 36.4768 6.51225C36.1934 6.24226 35.7875 6.20604 35.4163 6.20604H34.7749V8.42192H34.7766Z" fill="#000"/>
<path d="M28.184 22.7105C28.184 26.1068 26.2783 28 22.8597 28H5.32426C1.90567 28 0 26.1068 0 22.7105V5.28952C0 1.89323 1.90567 0 5.32426 0H22.8614C26.28 0 28.1856 1.89323 28.1856 5.28952V22.7105H28.184Z" fill="#FEE600"/>
<path d="M18.1227 12.6354V9.9634L19.0954 8.99705V11.3166L19.9405 12.1563L23.3409 8.77648L24.181 9.61277C24.1744 8.98221 24.0485 7.15815 22.4908 5.63863C20.8105 4.03186 18.996 4.75623 18.3762 5.37358L14.9775 8.75009L15.8441 9.61109L14.0893 11.3545L12.3361 9.61109L13.2028 8.75009L9.80237 5.37358C9.18098 4.75787 7.36644 4.03186 5.6878 5.63863C4.13013 7.15983 4.00419 8.98221 3.99756 9.61277L4.83771 8.77648L8.23808 12.1563L9.08319 11.3166V8.99705L10.0559 9.9634V12.6354L11.428 13.9985L4.6952 20.6889L7.3565 23.3296L14.0909 16.6408L20.8254 23.3296L23.4867 20.6889L16.7523 13.9985L18.1227 12.6354Z" fill="#2B2D33"/>
</g>
<defs>
<clipPath id="clip0_6650_19804">
<rect width="149.8" height="28" fill="#000"/>
</clipPath>
</defs>
</svg>
