<svg width="53" height="28" viewBox="0 0 53 28" fill="none" xmlns="http://www.w3.org/2000/svg">
<path fill-rule="evenodd" clip-rule="evenodd" d="M22.0652 2.74445H2.29492V15.1004H7.23748C6.46162 14.0682 6.0015 12.7847 6.0015 11.3941C6.0015 7.98197 8.76761 5.21559 12.18 5.21559C15.5922 5.21559 18.3583 7.98197 18.3583 11.3941C18.3583 12.785 17.8985 14.0682 17.1229 15.1004H22.0649L22.0652 2.74445Z" fill="black"/>
<path fill-rule="evenodd" clip-rule="evenodd" d="M9.78379 10.1578H9.7085V24.986H24.5362V24.9102C17.4541 22.8236 11.8712 17.2406 9.78379 10.1578Z" fill="#FE000C"/>
<path fill-rule="evenodd" clip-rule="evenodd" d="M41.1451 14.1705C41.1198 14.2323 41.0887 14.3219 41.0534 14.4399C41.0175 14.5581 40.9997 14.6555 40.9997 14.7324C40.9997 14.8042 41.0167 14.8598 41.0493 14.8978C41.0831 14.937 41.1357 14.9685 41.2075 14.9944C41.2485 15.0041 41.2955 15.0131 41.3497 15.0209C41.4039 15.029 41.4509 15.0357 41.4919 15.04V15.1906H40.1979V15.04C40.2797 15.0301 40.3604 15.0041 40.4397 14.9631C40.5193 14.9224 40.5873 14.8735 40.6437 14.8174C40.6896 14.7659 40.7282 14.7105 40.7592 14.6514C40.7897 14.5931 40.8102 14.5478 40.821 14.517L42.4982 10.1533H42.6364L44.3684 15.04H44.8833V15.1906H42.7886V15.04H43.466L42.9063 13.4851H41.4209L41.1451 14.1705ZM42.1982 11.422L41.4598 13.3337H42.8523L42.1982 11.422ZM49.7228 10.3047H49.1382V15.0387H49.7228V15.1906H47.7055V15.0387H48.2901V10.3047H47.4341C47.3671 10.3047 47.2748 10.3126 47.1569 10.3282C47.0387 10.3431 46.9356 10.3919 46.8484 10.4742C46.7761 10.5411 46.7289 10.6181 46.7052 10.7049C46.6825 10.7924 46.6658 10.8739 46.6555 10.9511C46.6455 11.0331 46.6371 11.1238 46.6318 11.2234C46.6269 11.324 46.6234 11.4417 46.6207 11.5774C46.618 11.7132 46.6153 11.8737 46.6134 12.058C46.6102 12.2426 46.6067 12.458 46.6013 12.7041L46.5713 13.8815C46.5659 14.0715 46.5597 14.2412 46.5519 14.3929C46.544 14.544 46.5144 14.6787 46.4634 14.7964C46.4229 14.8935 46.3759 14.9683 46.3252 15.0195C46.2745 15.0703 46.2156 15.104 46.1417 15.1426C46.0675 15.1809 45.9547 15.1912 45.8116 15.1912C45.5607 15.1912 45.3558 15.1348 45.1977 15.0217C45.1259 14.9701 45.0606 14.8994 45.0015 14.8093C44.9429 14.7194 44.913 14.6023 44.913 14.4582C44.913 14.2936 44.9594 14.157 45.0522 14.0488C45.1445 13.9412 45.2751 13.8872 45.4443 13.8872C45.5882 13.8872 45.7021 13.9279 45.7871 14.0102C45.8715 14.0925 45.9142 14.1902 45.9142 14.303C45.9142 14.4366 45.8815 14.5548 45.8162 14.6574C45.7909 14.6935 45.7676 14.7265 45.7477 14.7575C45.7277 14.7883 45.7177 14.8169 45.7177 14.842C45.7177 14.8679 45.7304 14.9013 45.7563 14.9424C45.7811 14.9831 45.8375 15.0036 45.9234 15.0036C45.9951 15.0036 46.0656 14.982 46.1368 14.9388C46.2075 14.8951 46.2844 14.8093 46.3192 14.7089C46.3541 14.6093 46.384 14.4987 46.3916 14.3705C46.3994 14.2423 46.4059 14.0788 46.411 13.8791L46.4415 12.7022C46.4464 12.4461 46.4515 12.2389 46.4569 12.0799C46.4617 11.9212 46.4647 11.7957 46.4647 11.7032V11.0806C46.4647 11.0042 46.4604 10.9144 46.4526 10.8118C46.4453 10.7098 46.4078 10.6148 46.3419 10.5276C46.3009 10.4764 46.2545 10.4354 46.2032 10.4049C46.1517 10.3741 46.1004 10.3495 46.0499 10.3317C45.9989 10.3139 45.9166 10.3045 45.8038 10.3045H45.6192V10.1531H49.723V10.3047H49.7228ZM33.0187 10.3096H32.3705L33.8896 13.5102L34.839 11.0887C34.8643 11.032 34.8897 10.9535 34.9121 10.8534C34.9348 10.7533 34.9469 10.672 34.9469 10.6105C34.9469 10.5077 34.9121 10.4316 34.8425 10.3827C34.7734 10.3339 34.6922 10.3096 34.5996 10.3096H34.4916V10.1555H35.8024V10.3096C35.6847 10.3096 35.5857 10.3301 35.5061 10.3714C35.4265 10.413 35.359 10.4599 35.3058 10.5136C35.2516 10.5679 35.2089 10.6229 35.1782 10.6796C35.1477 10.7357 35.1266 10.7794 35.1164 10.8105L34.0286 13.6257C33.9668 13.7798 33.8993 13.9174 33.8405 14.0383C33.7819 14.1595 33.7271 14.2607 33.6529 14.3813C33.5733 14.5106 33.5307 14.5815 33.4494 14.6873C33.3566 14.8088 33.3072 14.8611 33.1974 14.9585C33.1024 15.0433 33.0117 15.1021 32.9219 15.1385C32.8323 15.1742 32.7278 15.1917 32.6093 15.1917C32.4507 15.1917 32.3114 15.1674 32.1929 15.1186C32.0747 15.0695 31.9722 15.0093 31.885 14.9372C31.7512 14.8244 31.6654 14.7073 31.6268 14.5864C31.5876 14.4655 31.5688 14.3562 31.5688 14.2588C31.5688 14.1916 31.5787 14.1249 31.5992 14.058C31.6198 13.9908 31.6503 13.9309 31.6921 13.8767C31.7331 13.8232 31.7871 13.7779 31.854 13.742C31.9209 13.7061 32.0005 13.6878 32.0934 13.6878C32.2577 13.6878 32.381 13.7342 32.4634 13.8267C32.5457 13.9193 32.5867 14.0124 32.5867 14.1039C32.5867 14.1608 32.5762 14.2175 32.5562 14.2742C32.5351 14.3306 32.5098 14.38 32.4793 14.4207C32.4172 14.5033 32.3476 14.5662 32.2707 14.6096C32.1932 14.6533 32.1546 14.7084 32.1546 14.7753C32.1546 14.8266 32.1873 14.883 32.251 14.9453C32.3152 15.0066 32.4191 15.0373 32.5635 15.0373C32.6768 15.0373 32.7864 15.0093 32.8914 14.9529C32.9969 14.8962 33.0859 14.8295 33.1574 14.7524C33.2138 14.6906 33.2654 14.6215 33.3118 14.5443C33.3577 14.4669 33.3887 14.4156 33.4041 14.3902L31.4298 10.3093H30.8973V10.1552H33.0187V10.3096ZM30.7343 11.4832C30.7265 11.4012 30.7073 11.3116 30.6769 11.2147C30.6458 11.117 30.5999 11.0172 30.5381 10.9144C30.4763 10.8115 30.3943 10.712 30.292 10.614C30.0918 10.4251 29.8589 10.301 29.5915 10.2419C29.3248 10.1828 29.0606 10.1533 28.7986 10.1533H26.606V10.305H27.1905V15.039H26.606V15.1906H28.6237V15.039H28.0392V13.1896H28.7875C29.0901 13.1896 29.381 13.1556 29.6584 13.0862C29.9361 13.0169 30.1622 12.8952 30.3374 12.7208C30.3733 12.6847 30.4143 12.6374 30.4607 12.5792C30.5066 12.5195 30.5514 12.448 30.5956 12.3633C30.6388 12.2785 30.6752 12.18 30.7036 12.067C30.7316 11.9544 30.7457 11.8262 30.7457 11.6829C30.7459 11.6322 30.7422 11.5653 30.7343 11.4832ZM29.5256 12.7087C29.477 12.7659 29.4228 12.8139 29.3497 12.8612C29.2879 12.8973 29.2185 12.9265 29.1416 12.9497C29.0647 12.9726 28.9894 12.9904 28.9138 13.0031C28.8396 13.0163 28.7705 13.0252 28.706 13.0301C28.6418 13.0355 28.5943 13.0379 28.5633 13.0379H28.0395V10.305H28.5633C28.7071 10.305 28.8574 10.3182 29.0145 10.3436C29.1516 10.366 29.279 10.4219 29.3982 10.5069C29.4071 10.5136 29.4166 10.5193 29.4252 10.526C29.4331 10.5322 29.4422 10.5371 29.4501 10.5436C29.4905 10.5792 29.5275 10.6164 29.5591 10.6553C29.7642 10.893 29.8953 11.2568 29.8953 11.664C29.8951 12.0934 29.7491 12.4726 29.5256 12.7087ZM39.5581 10.1533H39.3711C39.33 10.3123 39.2404 10.3919 39.1017 10.3919C39.0453 10.3919 38.9868 10.3806 38.9252 10.3571C38.864 10.3342 38.7771 10.3023 38.6637 10.2613C38.5615 10.2254 38.4657 10.1981 38.3761 10.1806C38.2865 10.1628 38.1826 10.1536 38.0652 10.1536C37.9424 10.1536 37.7843 10.1547 37.6277 10.183C37.4718 10.2114 37.3009 10.2394 37.1169 10.3255C36.9544 10.4014 36.8503 10.458 36.6943 10.5959C36.5383 10.7341 36.3912 10.9106 36.2525 11.1254C36.0992 11.3766 35.9899 11.6338 35.9262 11.8972C35.8626 12.1606 35.8304 12.4388 35.8304 12.7303C35.8304 13.0735 35.8685 13.3755 35.9459 13.6362C36.0229 13.8974 36.1203 14.1255 36.2385 14.3198C36.3459 14.4884 36.4657 14.6336 36.5958 14.7534C36.7264 14.8738 36.8619 14.9583 37.0127 15.0295C37.166 15.1024 37.3026 15.1493 37.4496 15.168C37.6016 15.1863 37.7589 15.192 37.9076 15.192C38.0773 15.192 38.2349 15.1736 38.3809 15.1364C38.5275 15.0991 38.6646 15.0452 38.7925 14.9731C38.8694 14.9324 38.9401 14.8938 39.0038 14.8579C39.068 14.822 39.0739 14.8042 39.1403 14.8042C39.1919 14.8042 39.2315 14.8169 39.2593 14.843C39.2877 14.8684 39.3109 14.8978 39.329 14.931C39.3468 14.965 39.3595 14.999 39.3676 15.0352C39.3748 15.0708 39.3781 15.1758 39.3781 15.1909H39.5516L39.5521 13.5153H39.4118C39.4145 13.5526 39.4161 13.5898 39.4161 13.6284C39.4161 13.8955 39.343 14.1392 39.2232 14.3263C39.217 14.337 39.2105 14.3478 39.2032 14.3586C39.071 14.5578 38.8939 14.7213 38.674 14.849C38.4543 14.9764 38.2366 15.04 38.0215 15.04C37.8838 15.04 37.7459 15.0093 37.6072 14.9483C37.4691 14.8865 37.3638 14.819 37.2534 14.7208C37.186 14.6612 37.1153 14.5837 37.0621 14.513C36.9995 14.4264 36.9482 14.336 36.8735 14.1179C36.8597 14.078 36.8465 14.0353 36.8381 13.9949C36.7553 13.6454 36.7059 13.1915 36.7059 12.6949C36.7059 11.7291 36.8967 11.0973 37.1139 10.8242C37.1255 10.8088 37.1576 10.7711 37.1698 10.756C37.2062 10.7103 37.2599 10.6564 37.3163 10.6029C37.3727 10.5492 37.4297 10.5055 37.512 10.4618C37.607 10.4113 37.6833 10.3765 37.7913 10.3458C37.8987 10.3153 38.0258 10.3047 38.1545 10.3047C38.3596 10.3047 38.5434 10.3479 38.7075 10.4351C38.8713 10.5214 39.0022 10.631 39.0996 10.7632C39.1455 10.8296 39.1865 10.9087 39.2224 11.0004C39.2583 11.0919 39.2888 11.1872 39.3147 11.2868C39.3406 11.3864 39.3611 11.4803 39.3765 11.5693C39.3913 11.6589 39.4018 11.7312 39.4064 11.7871H39.5586V10.1533H39.5581Z" fill="black"/>
</svg>
