<svg width="105" height="28" viewBox="0 0 105 28" fill="none" xmlns="http://www.w3.org/2000/svg">
<path d="M92.3677 9.74078C92.3446 9.74078 92.3184 9.764 92.3184 9.79013V10.242C92.3184 10.2683 92.3446 10.2914 92.3677 10.2914H93.2063V13.1483C93.2063 13.1749 93.2283 13.198 93.2557 13.198H93.7257C93.752 13.198 93.7792 13.1749 93.7792 13.1483V10.2914H94.6137C94.6399 10.2914 94.6634 10.2683 94.6634 10.242V9.79013C94.6634 9.764 94.6399 9.74078 94.6137 9.74078" fill="#657591"/>
<path d="M57.6592 5.45318C57.6592 6.37902 58.3839 7.09961 59.3095 7.09961C60.2315 7.09961 60.9601 6.37902 60.9601 5.45318C60.9601 4.53521 60.2315 3.80666 59.3095 3.80666C58.3839 3.80666 57.6592 4.53142 57.6592 5.45318Z" fill="#657591"/>
<path d="M66.304 10.8612L66.202 10.9211L65.9891 10.3295C65.9173 10.1284 65.728 9.99555 65.519 9.99555H64.4564C64.1833 9.99555 63.959 10.2187 63.959 10.4969V24.115C63.959 24.3882 64.1833 24.6162 64.4564 24.6162H66.3614C66.6379 24.6162 66.8626 24.3882 66.8626 24.115V13.0915L66.915 13.0691C67.7008 12.6592 68.4935 12.4088 70.0378 12.4088C71.8934 12.4088 72.2656 13.1033 72.2656 14.2302V24.1152C72.2656 24.3884 72.4898 24.6126 72.7627 24.6126H74.6717C74.9446 24.6126 75.1681 24.3884 75.1681 24.1152V14.3098C75.1681 11.3079 73.396 9.72259 70.0378 9.72259C68.7936 9.72259 67.5376 10.1054 66.304 10.8614" fill="#657591"/>
<path d="M60.7331 10.4965C60.7331 10.2183 60.5096 9.99519 60.2356 9.99519H58.3801C58.1073 9.99519 57.8838 10.2183 57.8838 10.4965V24.1146C57.8838 24.3878 58.1073 24.6121 58.3801 24.6121H60.2319C60.5096 24.6121 60.7331 24.3878 60.7331 24.1146" fill="#657591"/>
<path d="M54.3978 3.68507C54.3978 3.40812 54.1736 3.18383 53.8966 3.18383H52.0529C51.7721 3.18383 51.5479 3.40812 51.5479 3.68507V24.1146C51.5479 24.3878 51.7721 24.6121 52.0491 24.6121H53.8966C54.1736 24.6121 54.3978 24.3878 54.3978 24.1146" fill="#657591"/>
<path d="M25.8467 16.0169C25.9876 14.142 26.4801 12.4083 29.1172 12.4083C31.3827 12.4083 31.8228 13.6263 31.8763 16.0207L31.8801 16.1266H25.8388L25.8467 16.0169ZM22.8984 17.307C22.8984 19.1819 22.8984 24.8889 29.1172 24.8889C30.9808 24.8889 32.2102 24.7751 33.8153 24.2594C34.0047 24.2021 34.1112 24.001 34.1112 23.8075V22.2749C34.1112 22.1038 34.0278 21.9482 33.887 21.8571C33.7469 21.7619 33.5838 21.7812 33.4169 21.8154C32.0239 22.1076 30.9125 22.202 29.1172 22.202C26.5298 22.202 26.0217 20.5594 25.8585 18.7874L25.8467 18.6766H34.2931C34.5708 18.6766 34.7943 18.4535 34.7943 18.1802V17.3071C34.7943 13.6381 34.3582 9.72641 29.1172 9.72641C22.8984 9.72224 22.8984 15.4333 22.8984 17.307Z" fill="#657591"/>
<path d="M39.9832 16.0169C40.1232 14.142 40.6169 12.4083 43.2579 12.4083C45.5194 12.4083 45.9596 13.6263 46.0089 16.0207L46.0126 16.1266H39.9756L39.9832 16.0169ZM37.0352 17.307C37.0352 19.1819 37.0352 24.8889 43.2579 24.8889C45.121 24.8889 46.347 24.7751 47.9554 24.2594C48.1411 24.2021 48.2518 24.001 48.2518 23.8075V22.2749C48.2518 22.1038 48.1646 21.9482 48.0238 21.8571C47.8838 21.7619 47.7168 21.7812 47.5575 21.8154C46.1607 22.1076 45.0531 22.202 43.2579 22.202C40.6662 22.202 40.1581 20.5594 39.9949 18.7874L39.9832 18.6766H48.4336C48.7064 18.6766 48.931 18.4535 48.931 18.1802V17.3071C48.931 13.6381 48.4909 9.72641 43.2579 9.72641C37.0352 9.72224 37.0352 15.4333 37.0352 17.307Z" fill="#657591"/>
<path d="M80.628 16.0169C80.768 14.142 81.2613 12.4083 83.8988 12.4083C86.1642 12.4083 86.604 13.6263 86.6537 16.0207L86.6575 16.1266H80.6203L80.628 16.0169ZM77.6826 17.307C77.6826 19.1819 77.6826 24.8889 83.8988 24.8889C85.7619 24.8889 86.9868 24.7751 88.6003 24.2594C88.782 24.2021 88.8917 24.001 88.8917 23.8075V22.2749C88.8917 22.1038 88.8082 21.9482 88.6682 21.8571C88.5274 21.7619 88.3612 21.7812 88.198 21.8154C86.8013 22.1076 85.6967 22.202 83.8988 22.202C81.3072 22.202 80.8018 20.5594 80.6386 18.7874L80.6241 18.6766H89.0742C89.3474 18.6766 89.5717 18.4535 89.5717 18.1802V17.3071C89.5717 13.6381 89.1346 9.72641 83.8988 9.72641C77.6758 9.72224 77.6826 15.4333 77.6826 17.307Z" fill="#657591"/>
<path d="M13.6865 14.9159C16.631 14.9159 17.6742 15.8114 17.6742 18.3314C17.6742 20.0196 17.1923 21.7468 13.6329 21.7468H9.34926V14.9117H13.6864L13.6865 14.9159ZM13.466 5.97971C16.5658 5.97971 16.9911 7.45245 16.9911 9.03894C16.9911 11.0614 15.9102 12.0472 13.6865 12.0472H9.34941V5.97971H13.466ZM6.87525 3.11107C6.5789 3.11107 6.33984 3.35013 6.33984 3.6465V24.076C6.33984 24.3724 6.5789 24.6152 6.87525 24.6152H13.5263C18.2813 24.6152 20.8991 22.3802 20.8991 18.3314C20.8991 16.1261 19.8373 14.2447 18.0577 13.2995C18.0577 13.2995 18.0122 13.277 17.9704 13.2498C18.0084 13.2274 18.0501 13.1974 18.0501 13.1974C19.4275 12.1961 20.2165 10.6817 20.2165 9.03902C20.2165 6.82598 19.3247 3.11115 13.3327 3.11115" fill="#657591"/>
<path d="M97.7187 9.74103C97.6963 9.74103 97.6808 9.75657 97.6731 9.77104C97.6731 9.77104 96.8163 11.7674 96.7329 11.9647C96.6494 11.7674 95.7952 9.77104 95.7952 9.77104C95.7876 9.75657 95.7691 9.74103 95.7497 9.74103H95.1843C95.1544 9.74103 95.1309 9.76424 95.1309 9.79037V13.1485C95.1309 13.1751 95.1506 13.1982 95.1843 13.1982H95.6439C95.6507 13.1982 95.67 13.1945 95.678 13.1827C95.6856 13.1751 95.6924 13.1641 95.6924 13.1447C95.6924 13.1447 95.678 11.1981 95.67 10.7884C95.8294 11.1527 96.5124 12.7201 96.5124 12.7201C96.5162 12.7388 96.5356 12.7505 96.5579 12.7505H96.9146C96.934 12.7505 96.9522 12.7388 96.9564 12.7201C96.9564 12.7201 97.639 11.1527 97.7915 10.7884C97.7915 11.1981 97.776 13.1447 97.776 13.1447C97.776 13.1641 97.7798 13.1751 97.7877 13.1827C97.7984 13.1945 97.8102 13.1982 97.8257 13.1982H98.2841C98.3114 13.1982 98.3375 13.1751 98.3375 13.1485V9.79037C98.3375 9.76424 98.3152 9.74103 98.2841 9.74103" fill="#657591"/>
</svg>
